<svg width="528" height="483" viewBox="0 0 528 483" fill="none" xmlns="http://www.w3.org/2000/svg">
<path d="M417.12 410.94C432.9 389.76 440.58 363.72 432.3 338.76C428.46 327.3 421.26 317.22 416.22 306.18C394.56 258.66 450.66 239.1 471.96 206.46C486.42 184.32 492.12 158.4 485.46 132.54C479.22 108.18 462 86.5201 438.96 76.26C388.5 53.76 329.7 94.62 310.86 141.3C306.72 151.74 304.02 162.72 299.34 172.92C289.02 195.42 266.82 205.44 243 207.12C210.36 209.4 178.26 199.26 145.92 193.8C104.88 186.9 56.1 196.62 24.84 225.36C-42.6 287.34 40.86 413.52 124.44 385.98C144.42 379.44 161.76 365.52 183.06 362.82C203.46 360.24 223.98 369.06 239.76 382.2C264.54 402.66 276.96 433.32 306.24 448.8C345.96 469.92 392.88 443.58 417.12 410.94Z" fill="#FFE4E3"/>
<path fill-rule="evenodd" clip-rule="evenodd" d="M223.499 422.1C217.319 422.1 212.279 417 212.279 410.82C212.279 404.64 217.319 399.54 223.499 399.54C229.739 399.54 234.779 404.64 234.779 410.82C234.779 417 229.739 422.1 223.499 422.1ZM223.499 400.74C217.979 400.74 213.479 405.3 213.479 410.82C213.479 416.34 217.979 420.9 223.499 420.9C229.079 420.9 233.579 416.34 233.579 410.82C233.579 405.3 229.079 400.74 223.499 400.74Z" fill="#3EBAFF"/>
<path fill-rule="evenodd" clip-rule="evenodd" d="M385.92 31.1401C382.32 31.1401 379.38 28.2001 379.38 24.6001C379.38 21.0001 382.32 18.0601 385.92 18.0601C389.58 18.0601 392.46 21.0001 392.46 24.6001C392.46 28.2001 389.58 31.1401 385.92 31.1401ZM385.92 19.2601C382.98 19.2601 380.58 21.6601 380.58 24.6001C380.58 27.5401 382.98 29.9401 385.92 29.9401C388.86 29.9401 391.26 27.5401 391.26 24.6001C391.26 21.6601 388.86 19.2601 385.92 19.2601Z" fill="#3EBAFF"/>
<path fill-rule="evenodd" clip-rule="evenodd" d="M24.1796 189.48C20.5796 189.48 17.6396 186.54 17.6396 182.94C17.6396 179.34 20.5796 176.4 24.1796 176.4C27.7796 176.4 30.7196 179.34 30.7196 182.94C30.7196 186.54 27.7796 189.48 24.1796 189.48ZM24.1796 177.6C21.2396 177.6 18.8396 180 18.8396 182.94C18.8396 185.88 21.2396 188.28 24.1796 188.28C27.1196 188.28 29.5196 185.88 29.5196 182.94C29.5196 180 27.1196 177.6 24.1796 177.6Z" fill="#3EBAFF"/>
<path fill-rule="evenodd" clip-rule="evenodd" d="M460.08 249.9C456.48 249.9 453.54 246.96 453.54 243.36C453.54 239.7 456.48 236.82 460.08 236.82C463.74 236.82 466.62 239.7 466.62 243.36C466.62 246.96 463.74 249.9 460.08 249.9ZM460.08 238.02C457.14 238.02 454.74 240.42 454.74 243.36C454.74 246.3 457.14 248.7 460.08 248.7C463.02 248.7 465.42 246.3 465.42 243.36C465.42 240.42 463.02 238.02 460.08 238.02Z" fill="#3EBAFF"/>
<path d="M511.38 386.16H30.1201V354.96H511.38V386.16Z" fill="#3EBAFF"/>
<path d="M524.28 355.56H4.43984C4.13984 355.56 3.83984 355.32 3.83984 354.96C3.83984 354.66 4.13984 354.36 4.43984 354.36H524.28C524.64 354.36 524.88 354.66 524.88 354.96C524.88 355.32 524.64 355.56 524.28 355.56Z" fill="#000100"/>
<path d="M367.981 302.88C365.301 300.72 362.741 298.68 360.301 296.76C360.301 296.76 396.061 297.24 421.081 282.84C421.161 284.48 421.221 286.12 421.261 287.76C421.261 288.4 421.261 289.08 421.261 289.8H421.081C413.821 294.66 402.901 297.78 392.821 299.7C379.681 302.28 367.981 302.88 367.981 302.88Z" fill="#6A97F6"/>
<path d="M327.841 164.58C327.841 164.58 322.381 179.46 317.761 198.66V198.72C317.401 200.2 317.041 201.72 316.681 203.28L316.501 203.22C311.761 201.72 305.461 202.26 300.961 202.92C297.661 203.4 295.321 204.06 295.321 204.06L295.141 202.32C295.141 202.14 295.141 159.78 324.841 152.88L327.841 164.58Z" fill="#3E49E1"/>
<path d="M334.56 253.86L337.08 259.38C337.08 259.38 337.08 259.4 337.08 259.44L350.82 289.44C331.62 275.04 323.82 271.92 323.82 271.92C326.94 268.74 330.84 263.34 334.56 253.86Z" fill="#000100"/>
<path d="M411.961 210.66C413.101 224.94 415.261 243.42 419.281 266.76C420.201 272.08 420.801 277.44 421.081 282.84C396.061 297.24 360.301 296.76 360.301 296.76C356.861 294.04 353.701 291.6 350.821 289.44L337.081 259.44C337.081 259.4 337.081 259.38 337.081 259.38L334.561 253.86C339.421 241.38 343.921 221.82 345.721 191.4H346.261C356.401 201.54 370.201 199.92 380.041 196.74C389.641 193.68 397.201 185.82 399.121 175.92C402.001 161.1 390.541 154.56 390.541 154.56H390.301C390.361 151.8 390.421 149.22 390.541 147.06H390.841L443.881 169.98C443.881 169.98 446.701 182.4 449.101 201.78C429.001 198.24 412.561 210.24 411.961 210.66Z" fill="#3E49E1"/>
<path d="M390.541 154.56C390.541 154.56 402.001 161.1 399.121 175.92C397.201 185.82 389.641 193.68 380.041 196.74C370.201 199.92 356.401 201.54 346.261 191.4H345.721C345.881 188.88 346.001 186.3 346.081 183.66C346.081 183.66 346.141 183 346.261 181.98C360.721 196.44 383.941 193.86 391.921 177.3C395.761 169.44 390.301 160.38 390.301 160.38C390.301 158.4 390.301 156.42 390.301 154.56H390.541Z" fill="#6A97F6"/>
<path d="M344.1 261.9C339 261.9 336.84 259.98 336.66 259.86C336.42 259.62 336.42 259.26 336.66 258.96C336.84 258.72 337.26 258.72 337.5 258.96C337.56 259.02 344.76 265.08 364.62 253.8C369 251.34 374.1 250.98 378.66 252.78C385.92 255.72 399.84 259.14 411.6 248.82C411.84 248.58 412.201 248.58 412.441 248.88C412.681 249.12 412.62 249.48 412.38 249.72C400.14 260.46 385.741 256.98 378.241 253.92C373.981 252.18 369.24 252.54 365.22 254.82C355.44 260.4 348.6 261.9 344.1 261.9Z" fill="#000100"/>
<path d="M411.961 211.26C411.661 211.26 411.421 211.02 411.361 210.72C409.141 182.16 411.121 169.98 411.181 169.86C411.181 169.56 411.541 169.32 411.841 169.38C412.201 169.44 412.381 169.74 412.321 170.1C412.321 170.22 410.341 182.22 412.561 210.6C412.621 210.96 412.321 211.26 412.021 211.26C412.021 211.26 412.001 211.26 411.961 211.26Z" fill="#000100"/>
<path d="M501.54 405.12L474.24 472.44C473.94 473.34 473.22 474.06 472.32 474.3C471.06 474.66 469.26 474.24 467.46 470.76C468.54 470.82 469.68 470.22 470.22 468.96L472.62 462.66L495.96 402.96L501.54 405.12Z" fill="#3EBAFF"/>
<path fill-rule="evenodd" clip-rule="evenodd" d="M495.96 402.96L472.62 462.66C466.08 441.84 468.24 425.28 470.46 416.58C471.54 412.38 469.86 408 466.32 405.6L458.34 400.2L465.18 386.22L465.6 386.4L495.96 402.96ZM475.68 398.46C475.68 396.24 473.82 394.38 471.6 394.38C469.32 394.38 467.46 396.24 467.46 398.46C467.46 400.74 469.32 402.6 471.6 402.6C473.82 402.6 475.68 400.74 475.68 398.46Z" fill="#3E49E1"/>
<path d="M471.54 394.32C473.82 394.32 475.68 396.18 475.68 398.46C475.68 400.74 473.82 402.6 471.54 402.6C469.26 402.6 467.46 400.74 467.46 398.46C467.46 396.18 469.26 394.32 471.54 394.32Z" fill="#3EBAFF"/>
<path d="M472.62 462.66L470.22 468.96C469.68 470.22 468.54 470.82 467.46 470.76C466.14 470.7 464.88 469.74 464.76 468.12L460.98 412.68L454.62 407.28L454.86 406.68C454.98 406.76 455.06 406.8 455.1 406.8L458.34 400.2L466.32 405.6C469.86 408 471.54 412.38 470.46 416.58C468.24 425.28 466.08 441.84 472.62 462.66Z" fill="#6A97F6"/>
<path d="M363.001 478.68C361.921 478.74 360.781 478.2 360.301 476.88L357.841 470.64C364.441 449.76 362.221 433.2 360.001 424.5C358.981 420.3 360.601 415.92 364.201 413.52L372.121 408.12L375.841 415.2L369.481 420.66L365.761 476.04C365.641 477.72 364.321 478.62 363.001 478.68Z" fill="#6A97F6"/>
<path fill-rule="evenodd" clip-rule="evenodd" d="M372.121 408.12L364.201 413.52C360.601 415.92 358.981 420.3 360.001 424.5C362.221 433.2 364.441 449.76 357.841 470.64L334.561 410.88L364.861 394.32L372.121 408.12ZM363.061 406.38C363.061 404.1 361.201 402.24 358.921 402.24C356.641 402.24 354.841 404.1 354.841 406.38C354.841 408.66 356.641 410.52 358.921 410.52C361.201 410.52 363.061 408.66 363.061 406.38Z" fill="#3E49E1"/>
<path d="M360.301 476.88C360.781 478.2 361.921 478.74 363.001 478.68C361.201 482.16 359.401 482.58 358.141 482.22C357.241 481.98 356.581 481.26 356.221 480.36L328.921 413.1L334.561 410.88L357.841 470.64L360.301 476.88Z" fill="#3EBAFF"/>
<path d="M358.921 402.3C361.201 402.3 363.001 404.1 363.001 406.38C363.001 408.66 361.201 410.52 358.921 410.52C356.641 410.52 354.781 408.66 354.781 406.38C354.781 404.1 356.641 402.3 358.921 402.3Z" fill="#3EBAFF"/>
<path d="M394.621 381.66C394.321 382.56 394.681 383.46 395.461 383.88C396.301 384.3 397.801 384.54 399.961 384.18C406.921 387.42 413.521 390.36 419.641 392.94C409.741 397.56 399.121 402.72 389.641 407.64L392.821 380.76C393.421 381.08 394.021 381.38 394.621 381.66Z" fill="#000100"/>
<path d="M383.64 376.32L383.7 376.26C385.02 376.94 386.34 377.6 387.66 378.24C389.42 379.12 391.14 379.96 392.82 380.76L389.64 407.64C384.6 410.28 379.86 412.8 375.84 415.2L372.12 408.12L364.86 394.32C364.86 394.32 373.8 385.86 383.64 376.32Z" fill="#C0C0C0"/>
<path d="M452.521 376.32C446.221 371.28 439.561 365.7 433.441 360.36C433.801 375 425.04 380.64 425.04 380.64C412.26 389.88 407.7 386.4 407.7 386.4C404.22 384.42 408.12 381.3 408.84 380.7C405.061 382.8 402.18 383.82 399.96 384.18C406.92 387.42 413.521 390.36 419.64 392.94C438.96 401.22 453.06 406.08 454.86 406.68C454.98 406.76 455.061 406.8 455.1 406.8L458.341 400.2L465.18 386.22L465.241 386.1C461.341 383.28 457.021 379.92 452.521 376.32ZM395.76 377.88C391.56 378.9 389.16 378.66 387.84 377.94C385.14 376.44 386.88 372.84 386.88 372.84C386.1 372.9 385.32 372.84 384.54 372.72C381.12 372 381 370.02 381.72 368.16C382.5 366.06 384.3 364.56 386.46 363.96C394.44 361.92 401.58 355.32 405.12 351.54C405.66 351 405.9 350.34 405.9 349.68C405.9 348.72 405.42 347.76 404.46 347.22C403.38 346.56 401.94 346.8 401.04 347.7L395.94 353.04C395.16 353.82 394.08 354.24 393 354.24C392.1 354.24 391.2 353.94 390.48 353.34C388.68 351.9 388.44 349.26 389.94 347.58L395.52 341.16C397.68 338.7 400.8 337.26 404.1 337.26H407.46C405.86 335.82 404.3 334.4 402.78 333C389.22 320.7 377.64 310.8 367.98 302.88C365.3 300.72 362.74 298.68 360.3 296.76C356.86 294.04 353.7 291.6 350.82 289.44C331.62 275.04 323.82 271.92 323.82 271.92C320.46 275.28 315.3 276.06 311.1 273.84C310.02 273.24 309.06 272.64 308.1 271.86V271.92C292.32 276.9 291.96 290.64 293.4 299.16C294.12 303.48 295.86 307.5 298.26 311.1C315.18 336.78 350.7 359.46 383.7 376.26C385.02 376.94 386.34 377.6 387.66 378.24C389.42 379.12 391.14 379.96 392.82 380.76C393.42 381.08 394.02 381.38 394.62 381.66C394.74 381 395.22 380.34 395.88 379.86L401.4 375.96C398.22 377.16 395.76 377.88 395.76 377.88Z" fill="#C0C0C0"/>
<path d="M517.02 300C524.58 303 529.14 311.04 527.46 319.08C525.18 330.18 513.42 347.34 471.54 367.74L437.16 348.84C439.2 343.74 440.94 338.52 442.5 333.24C442.5 333.24 488.58 288.84 517.02 300Z" fill="#C0C0C0"/>
<path d="M437.16 348.84L471.54 367.74C465.78 370.5 459.48 373.38 452.52 376.32C446.22 371.28 439.56 365.7 433.44 360.36C433.44 360.32 433.44 360.28 433.44 360.24C433.92 357.42 434.7 354.72 435.84 352.14C436.28 351.06 436.72 349.96 437.16 348.84Z" fill="#000100"/>
<path d="M421.261 289.8C421.501 307.2 420.241 334.26 410.881 337.26H407.461C405.861 335.82 404.301 334.4 402.781 333L392.821 299.7C402.901 297.78 413.821 294.66 421.081 289.8H421.261Z" fill="#C0C0C0"/>
<path d="M392.821 299.7L402.781 333C389.221 320.7 377.701 310.8 367.981 302.88C367.981 302.88 379.681 302.28 392.821 299.7Z" fill="#000100"/>
<path d="M407.461 337.86C407.301 337.86 407.161 337.8 407.041 337.68L405.841 336.6C404.641 335.52 403.481 334.48 402.361 333.48C389.941 322.2 378.241 312.06 367.561 303.36C364.981 301.2 362.401 299.16 359.941 297.24C356.701 294.66 353.521 292.2 350.461 289.92C350.221 289.74 350.161 289.32 350.341 289.08C350.521 288.84 350.941 288.78 351.181 288.96C354.241 291.24 357.421 293.7 360.721 296.28C363.121 298.2 365.701 300.3 368.341 302.46C379.021 311.16 390.721 321.3 403.141 332.58C404.301 333.58 405.461 334.62 406.621 335.7L407.881 336.84C408.121 337.02 408.121 337.44 407.881 337.68C407.761 337.8 407.641 337.86 407.461 337.86Z" fill="#000100"/>
<path d="M401.281 115.86C398.821 114.42 400.561 110.7 400.561 110.7C387.541 106.8 391.621 97.3202 391.621 97.3202C384.361 95.2202 382.261 90.3602 381.901 86.2802C377.161 95.2202 367.081 90.8402 367.081 90.8402C363.961 92.6402 361.021 91.5602 361.021 91.5602C361.021 91.5602 342.361 110.94 350.401 135.24C350.921 136.88 351.561 138.52 352.321 140.16C354.001 140.46 355.921 141.9 357.001 146.04C357.001 146.04 359.521 147.54 361.741 149.76C363.121 151.14 364.381 152.76 364.921 154.5C365.581 156.6 363.901 158.64 361.741 158.28C360.781 158.1 359.641 157.56 358.321 156.24C358.501 158.88 358.561 161.58 358.381 163.38C358.201 164.7 357.001 165.66 355.681 165.48C354.481 165.36 353.101 164.76 352.561 162.78C352.141 164.28 351.481 165.48 350.521 166.14L350.821 166.32C347.641 171.36 346.561 178.68 346.261 181.98C360.721 196.44 383.941 193.86 391.921 177.3C395.761 169.44 390.301 160.38 390.301 160.38C390.361 162.42 390.421 164.52 390.601 166.56L390.301 166.62C376.441 164.16 371.761 149.94 371.761 149.94C377.041 149.94 384.601 148.08 391.201 139.44C392.881 137.16 394.501 134.46 396.061 131.22C396.061 131.22 401.221 134.28 405.181 130.2C406.261 129.06 406.981 127.62 407.281 126.06C407.821 123.3 407.221 119.28 401.281 115.86Z" fill="#DD6E5A"/>
<path d="M391.201 139.44C391.141 139.74 390.841 142.68 390.541 147.06C390.421 149.22 390.361 151.8 390.301 154.56C390.301 156.42 390.301 158.4 390.301 160.38C390.361 162.42 390.421 164.52 390.601 166.56L390.301 166.62C376.441 164.16 371.761 149.94 371.761 149.94C377.041 149.94 384.601 148.08 391.201 139.44Z" fill="#000100"/>
<path d="M396.061 131.82C395.981 131.82 395.901 131.8 395.821 131.76C395.521 131.64 395.341 131.28 395.521 130.98C396.541 128.76 397.501 126.36 398.341 123.78C398.461 123.42 398.761 123.3 399.121 123.36C399.421 123.48 399.601 123.84 399.481 124.14C398.641 126.78 397.621 129.24 396.601 131.46C396.481 131.7 396.301 131.82 396.061 131.82Z" fill="#000100"/>
<path d="M371.761 150.54C367.681 150.48 364.921 149.46 364.801 149.4C364.501 149.28 364.381 148.92 364.501 148.62C364.621 148.32 364.981 148.14 365.281 148.26C365.281 148.26 367.921 149.28 371.761 149.34C372.061 149.34 372.361 149.58 372.361 149.94C372.361 150.24 372.061 150.54 371.761 150.54Z" fill="#000100"/>
<path d="M358.501 105.3C358.741 106.56 359.161 107.7 359.761 108.72C360.361 109.68 361.261 110.46 362.281 110.76C363.301 111.18 364.501 111.06 365.701 111C366.301 110.88 366.901 110.88 367.501 110.7C368.101 110.58 368.761 110.46 369.361 110.34C368.821 110.7 368.281 111 367.681 111.3C367.141 111.54 366.481 111.72 365.881 111.96C364.621 112.2 363.241 112.38 361.921 111.9C360.541 111.48 359.461 110.4 358.921 109.14C358.381 107.88 358.261 106.56 358.501 105.3Z" fill="#000100"/>
<path d="M380.221 113.16C380.521 114.36 380.881 115.56 381.481 116.52C382.141 117.54 382.981 118.26 384.001 118.62C385.081 119.04 386.281 118.92 387.421 118.86C388.021 118.74 388.681 118.68 389.281 118.56C389.881 118.44 390.481 118.26 391.081 118.2C390.601 118.5 390.001 118.8 389.461 119.1C388.861 119.4 388.261 119.58 387.601 119.76C386.341 120.06 384.961 120.24 383.641 119.76C382.321 119.28 381.181 118.2 380.641 117C380.161 115.74 379.981 114.42 380.221 113.16Z" fill="#000100"/>
<path d="M372.54 104.4C372.3 104.64 372.06 104.82 371.58 104.58C371.28 104.46 371.04 104.22 370.62 103.92C370.38 103.8 370.14 103.62 369.84 103.38C369.54 103.2 369.24 102.96 368.82 102.72C368.04 102.3 367.08 101.88 366.06 101.58C365.04 101.28 363.96 101.1 363 100.98C361.08 100.74 359.58 100.8 359.52 100.5C359.46 100.2 360.9 99.4802 363 99.3002C364.08 99.2402 365.34 99.2402 366.54 99.4202C367.74 99.6602 369 100.08 370.02 100.68C370.5 100.98 370.92 101.28 371.28 101.52C371.58 101.82 371.88 102.12 372.06 102.36C372.54 102.78 372.72 103.2 372.84 103.5C373.02 104.04 372.78 104.22 372.54 104.4Z" fill="#6A192A"/>
<path d="M381.841 108.3C381.781 108 381.661 107.7 382.201 107.4C382.681 107.1 383.761 106.74 386.041 106.8C388.261 106.86 391.021 107.7 392.701 109.14C394.441 110.58 395.101 112.08 394.861 112.2C394.561 112.44 393.481 111.42 391.801 110.58C390.181 109.68 387.841 109.2 385.921 109.14C384.001 109.08 382.981 109.2 382.501 109.02C381.961 108.9 381.901 108.66 381.841 108.3Z" fill="#6A192A"/>
<path d="M357.841 123.96C358.861 126.12 360.241 128.1 361.801 129.84C363.421 131.52 365.341 132.9 367.501 133.74C367.981 134.04 368.581 134.16 369.121 134.34L369.961 134.58L370.801 134.7C371.401 134.82 371.941 134.94 372.541 135L374.281 135.06C374.881 135.12 375.481 135 376.021 134.94L377.821 134.82C379.021 134.64 380.161 134.34 381.361 134.16C380.241 134.6 379.101 135.02 377.941 135.42L376.141 135.72C375.541 135.84 374.941 135.96 374.341 135.96C371.881 136.2 369.361 135.78 367.021 134.88C364.681 133.92 362.641 132.36 361.081 130.44C359.521 128.52 358.441 126.3 357.841 123.96Z" fill="#000100"/>
<path d="M374.761 113.88C373.981 115.98 373.081 117.96 372.061 119.94C371.061 121.9 369.981 123.82 368.821 125.7L368.581 125.04C369.341 125.44 370.081 125.84 370.801 126.24C371.521 126.66 372.241 127.08 372.901 127.5C372.121 127.32 371.341 127.02 370.501 126.78C369.741 126.5 368.981 126.22 368.221 125.94L367.741 125.76L367.981 125.28C368.941 123.28 369.981 121.32 371.101 119.4C372.181 117.48 373.441 115.62 374.761 113.88Z" fill="#000100"/>
<path d="M391.921 177.9C391.681 177.9 391.441 177.72 391.321 177.48C390.841 175.2 389.281 164.22 389.161 163.74C389.161 163.44 389.341 163.14 389.701 163.08C390.001 163.02 390.301 163.26 390.361 163.56C390.421 163.68 391.981 174.96 392.521 177.18C392.581 177.48 392.401 177.84 392.041 177.9C392.001 177.9 391.961 177.9 391.921 177.9Z" fill="#000100"/>
<path d="M381.901 86.2801C377.161 95.2201 367.081 90.8401 367.081 90.8401C363.961 92.6401 361.021 91.5601 361.021 91.5601C361.021 91.5601 342.361 110.94 350.401 135.24L301.681 113.16C304.021 96.9601 323.521 99.4201 323.521 99.4201C323.521 80.4601 339.481 81.2401 339.481 81.2401C340.921 58.4401 361.681 61.5601 361.681 61.5601C377.521 43.5001 394.081 63.6601 394.081 63.6601C419.281 54.6601 417.901 78.0601 417.901 78.0601C440.881 82.2601 430.321 106.62 430.321 106.62C451.321 110.82 442.681 132.3 442.681 132.3C465.481 147.36 448.681 172.02 448.681 172.02L443.881 169.98L390.841 147.06H390.541C390.841 142.68 391.141 139.74 391.201 139.44C392.881 137.16 394.501 134.46 396.061 131.22C396.061 131.22 401.221 134.28 405.181 130.2C406.261 129.06 406.981 127.62 407.281 126.06C407.821 123.3 407.221 119.28 401.281 115.86C398.821 114.42 400.561 110.7 400.561 110.7C387.541 106.8 391.621 97.3201 391.621 97.3201C384.361 95.2201 382.261 90.3601 381.901 86.2801Z" fill="#6A192A"/>
<path d="M321.061 122.28C320.981 122.28 320.901 122.24 320.821 122.16C320.761 122.04 320.761 121.8 320.881 121.74C323.101 119.88 325.921 118.5 328.381 117.42C334.321 114.78 338.461 110.7 340.321 105.6C341.221 103.08 341.461 100.32 341.761 97.7401C342.061 94.6801 342.361 91.5601 343.681 88.6201C346.321 82.8601 351.241 79.3801 357.541 78.8401C358.621 78.7801 359.701 78.7201 360.781 78.7201C363.781 78.6601 366.601 78.6001 369.241 77.0401C373.441 74.4601 374.401 71.1001 375.301 66.6601C376.441 61.0801 379.261 57.9001 383.701 57.1201C384.301 57.0601 385.261 56.8801 386.281 56.8801L386.341 57.4801C385.261 57.4801 384.301 57.6601 383.821 57.7201C379.621 58.4401 376.981 61.5001 375.901 66.7801C375.001 71.4001 373.981 74.8801 369.541 77.5201C366.781 79.2001 363.721 79.2601 360.781 79.3201C359.761 79.3201 358.681 79.3801 357.601 79.4401C351.481 79.9801 346.741 83.3401 344.221 88.8601C342.961 91.6801 342.661 94.8001 342.361 97.8001C342.061 100.44 341.821 103.2 340.861 105.78C338.941 111.06 334.741 115.26 328.621 117.96C326.221 119.04 323.461 120.36 321.241 122.16C321.201 122.24 321.141 122.28 321.061 122.28Z" fill="#AA3C5B"/>
<path d="M423.84 161.58C423.66 161.58 423.54 161.52 423.54 161.34C422.94 158.46 423.72 155.52 425.34 151.14C427.5 145.32 429.12 138.54 424.98 132.54C423.96 130.98 422.52 129.6 421.14 128.34C418.14 125.46 415.02 122.46 415.74 117.48C416.04 115.44 416.88 113.58 417.72 111.84C418.86 109.32 419.94 106.98 419.64 104.1C419.16 99.4201 416.64 98.0401 413.7 96.4202C412.5 95.7602 411.3 95.0401 410.1 94.1401C405.78 90.7801 405.66 85.6202 405.96 82.0202C406.02 80.9402 406.14 79.9201 406.26 78.9601C406.74 75.0601 407.1 72.0001 404.88 67.8601C403.86 65.9401 402.54 64.0201 400.86 62.0401C400.74 61.9201 400.8 61.7402 400.92 61.6202C401.04 61.5002 401.22 61.5002 401.34 61.6202C403.08 63.6602 404.4 65.5801 405.42 67.5601C407.7 71.8801 407.34 75.0602 406.86 79.0201C406.74 79.9802 406.62 81.0001 406.56 82.0801C406.08 87.6601 407.28 91.2001 410.46 93.6601C411.6 94.5601 412.8 95.2201 414 95.8801C416.94 97.5001 419.7 99.0601 420.24 104.04C420.54 107.1 419.34 109.62 418.26 112.08C417.48 113.82 416.64 115.62 416.34 117.54C415.68 122.28 418.56 124.98 421.56 127.86C423 129.24 424.44 130.56 425.52 132.18C429.72 138.42 428.1 145.38 425.88 151.32C424.32 155.64 423.6 158.52 424.08 161.22C424.14 161.4 424.02 161.58 423.84 161.58Z" fill="#AA3C5B"/>
<path d="M399.961 384.18C397.801 384.54 396.301 384.3 395.461 383.88C394.681 383.46 394.321 382.56 394.621 381.66C396.421 382.5 398.201 383.34 399.961 384.18Z" fill="#DD6E5A"/>
<path d="M449.1 201.78C429 198.24 412.56 210.24 411.96 210.66C413.1 224.94 415.26 243.42 419.28 266.76C420.2 272.08 420.8 277.44 421.08 282.84C421.16 284.48 421.22 286.12 421.26 287.76C421.26 288.4 421.26 289.08 421.26 289.8C421.5 307.2 420.24 334.26 410.88 337.26H404.1C400.8 337.26 397.68 338.7 395.52 341.16L389.94 347.58C388.44 349.26 388.68 351.9 390.48 353.34C391.2 353.94 392.1 354.24 393 354.24C394.08 354.24 395.16 353.82 395.94 353.04L401.04 347.7C401.94 346.8 403.38 346.56 404.46 347.22C405.42 347.76 405.9 348.72 405.9 349.68C405.9 350.34 405.66 351 405.12 351.54C401.58 355.32 394.44 361.92 386.46 363.96C384.3 364.56 382.5 366.06 381.72 368.16C381 370.02 381.12 372 384.54 372.72C385.32 372.84 386.1 372.9 386.88 372.84C386.88 372.84 385.14 376.44 387.84 377.94C389.16 378.66 391.56 378.9 395.76 377.88C395.76 377.88 398.22 377.16 401.4 375.96L395.88 379.86C395.22 380.34 394.74 381 394.62 381.66C394.32 382.56 394.68 383.46 395.46 383.88C396.3 384.3 397.8 384.54 399.96 384.18C402.18 383.82 405.06 382.8 408.84 380.7C408.12 381.3 404.22 384.42 407.7 386.4C407.7 386.4 412.26 389.88 425.04 380.64C425.04 380.64 433.8 375 433.44 360.36V360.24C433.92 357.42 434.7 354.72 435.84 352.14C436.28 351.06 436.72 349.96 437.16 348.84C439.2 343.74 440.94 338.52 442.5 333.24C456.12 287.1 453.18 234.54 449.1 201.78Z" fill="#DD6E5A"/>
<path d="M386.88 373.44C386.58 373.44 386.34 373.2 386.28 372.84C386.28 372.54 386.52 372.24 386.88 372.24C387.6 372.18 388.32 372 389.1 371.82C391.08 371.16 394.98 369.84 398.7 368.04C402.12 366.3 404.58 364.62 405.96 362.94C406.14 362.7 406.5 362.64 406.8 362.88C407.04 363.06 407.1 363.48 406.86 363.72C405.42 365.52 402.84 367.32 399.18 369.12C395.46 370.92 391.5 372.3 389.46 372.96C388.62 373.2 387.78 373.38 386.94 373.44C386.94 373.44 386.92 373.44 386.88 373.44Z" fill="#000100"/>
<path d="M401.4 376.56C401.16 376.56 400.92 376.44 400.86 376.2C400.74 375.84 400.86 375.54 401.22 375.42C405.12 373.92 410.46 371.46 413.34 368.64C413.58 368.4 413.94 368.4 414.18 368.64C414.42 368.88 414.42 369.24 414.18 369.48C411.18 372.48 405.66 375 401.64 376.5C401.56 376.54 401.48 376.56 401.4 376.56Z" fill="#000100"/>
<path d="M409.02 381.24C408.78 381.24 408.6 381.12 408.48 380.94C408.3 380.64 408.42 380.28 408.72 380.1C411.48 378.54 414.48 376.5 417.66 374.04C417.9 373.86 418.32 373.86 418.5 374.16C418.68 374.4 418.68 374.76 418.38 375C415.2 377.46 412.14 379.56 409.32 381.12C409.2 381.2 409.1 381.24 409.02 381.24Z" fill="#000100"/>
<path d="M364.921 154.5C364.381 152.76 363.121 151.14 361.741 149.76C359.521 147.54 357.001 146.04 357.001 146.04C355.921 141.9 354.001 140.46 352.321 140.16C350.521 139.8 348.901 140.7 348.901 140.7V140.76C347.761 140.16 346.801 140.16 346.801 140.16C346.801 140.16 343.861 139.62 340.621 141.48C340.461 141.44 340.301 141.4 340.141 141.36C337.741 140.64 334.261 140.22 330.721 141.42C326.101 142.98 323.581 148.14 324.841 152.88L327.841 164.58C327.841 164.58 322.381 179.46 317.761 198.66V198.72C317.401 200.2 317.041 201.72 316.681 203.28C315.001 210.96 313.441 219.18 312.541 227.28L300.961 202.92C297.661 203.4 295.321 204.06 295.321 204.06C295.321 204.06 287.821 256.14 308.101 271.86C309.061 272.64 310.021 273.24 311.101 273.84C315.301 276.06 320.461 275.28 323.821 271.92C326.941 268.74 330.841 263.34 334.561 253.86C339.421 241.38 343.921 221.82 345.721 191.4C345.881 188.88 346.001 186.3 346.081 183.66C346.081 183.66 346.141 183 346.261 181.98C346.561 178.68 347.641 171.36 350.821 166.32L350.521 166.14C351.481 165.48 352.141 164.28 352.561 162.78C353.101 164.76 354.481 165.36 355.681 165.48C357.001 165.66 358.201 164.7 358.381 163.38C358.561 161.58 358.501 158.88 358.321 156.24C359.641 157.56 360.781 158.1 361.741 158.28C363.901 158.64 365.581 156.6 364.921 154.5Z" fill="#DD6E5A"/>
<path d="M316.501 203.22L316.681 203.28C315.001 210.96 313.441 219.18 312.541 227.28L300.961 202.92C305.461 202.26 311.761 201.72 316.501 203.22Z" fill="#000100"/>
<path d="M341.701 160.62C341.521 160.62 341.341 160.5 341.221 160.32C341.041 160.02 341.101 159.66 341.401 159.48C348.181 155.16 347.221 149.82 345.241 146.04C344.221 144.18 342.541 142.74 340.441 142.08C340.141 141.96 339.961 141.6 340.081 141.3C340.141 141 340.501 140.82 340.801 140.94C343.201 141.72 345.121 143.34 346.321 145.5C348.121 148.92 350.041 155.46 342.061 160.5C341.941 160.58 341.821 160.62 341.701 160.62Z" fill="#000100"/>
<path d="M342.12 170.58C342.04 170.58 341.98 170.56 341.94 170.52C341.64 170.46 341.46 170.1 341.52 169.8C342.6 166.26 342.42 163.26 341.04 160.86C339 157.26 334.92 156.18 334.86 156.18C334.56 156.12 334.38 155.82 334.44 155.46C334.5 155.16 334.86 154.92 335.16 155.04C335.34 155.1 339.78 156.24 342.12 160.26C343.62 162.96 343.86 166.32 342.66 170.16C342.6 170.4 342.36 170.58 342.12 170.58Z" fill="#000100"/>
<path d="M339.661 158.64C339.421 158.64 339.241 158.58 339.121 158.34C337.921 156.24 339.121 153.96 342.421 151.98C342.541 151.86 342.541 151.86 342.541 151.86C342.541 151.86 342.421 151.68 342.361 151.5L341.101 149.1C340.921 148.8 341.041 148.44 341.341 148.32C341.641 148.14 342.001 148.26 342.181 148.56L343.381 150.96C343.681 151.5 344.101 152.34 343.021 153C341.461 153.9 339.061 155.76 340.141 157.8C340.321 158.04 340.201 158.46 339.961 158.58C339.841 158.62 339.741 158.64 339.661 158.64Z" fill="#000100"/>
<path d="M311.701 238.02C311.341 238.02 311.101 237.72 311.101 237.42C311.281 234.18 311.521 230.76 311.941 227.22C312.001 226.92 312.301 226.68 312.601 226.74C312.961 226.74 313.201 227.04 313.141 227.4C312.721 230.88 312.481 234.24 312.301 237.48C312.301 237.78 312.001 238.02 311.701 238.02Z" fill="#000100"/>
<path d="M346.261 182.58C346.221 182.58 346.201 182.58 346.201 182.58C345.841 182.52 345.601 182.22 345.661 181.92C345.961 178.92 346.981 171.42 350.161 166.2L350.341 165.96C350.521 165.72 350.881 165.6 351.181 165.78C351.421 165.96 351.481 166.38 351.301 166.62L351.181 166.86C348.121 171.84 347.101 179.1 346.861 182.04C346.801 182.34 346.561 182.58 346.261 182.58Z" fill="#000100"/>
<path d="M348.78 167.22C348.66 167.22 347.34 167.16 346.08 165.78C344.58 164.16 343.92 161.4 344.1 157.62C344.1 157.26 344.4 157.02 344.7 157.02C345 157.02 345.3 157.32 345.3 157.62C345.06 161.94 346.08 164.04 346.98 165C347.88 165.96 348.78 166.02 348.78 166.02C349.22 166.02 349.62 165.92 349.98 165.72C350.86 165.28 351.54 164.26 352.02 162.66C353.4 157.62 351.96 149.04 351.96 148.92C351.6 143.94 349.92 141.96 348.6 141.24C347.7 140.7 346.86 140.76 346.86 140.76C346.56 140.76 346.26 140.52 346.2 140.22C346.2 139.86 346.44 139.56 346.74 139.56C346.8 139.56 347.94 139.44 349.2 140.16C350.82 141.12 352.74 143.34 353.1 148.8C353.16 149.1 354.6 157.68 353.16 162.96C352.62 164.94 351.72 166.2 350.52 166.8C350 167.08 349.42 167.22 348.78 167.22Z" fill="#000100"/>
<path d="M355.981 166.08C355.861 166.08 355.721 166.08 355.561 166.08C353.821 165.9 352.561 164.82 352.021 163.14L351.961 163.08V162.78C351.961 162.48 352.201 162.18 352.561 162.18C352.741 162.18 352.921 162.3 353.041 162.48L353.101 162.54L353.161 162.66C353.521 163.98 354.381 164.72 355.741 164.88C356.701 165 357.661 164.28 357.781 163.32C357.961 161.82 357.901 159.48 357.721 156.3C357.481 152.76 357.061 149.46 357.061 149.46C356.901 148.26 356.701 147.18 356.461 146.22C355.621 142.98 354.121 141.12 352.261 140.76L351.901 140.7C350.461 140.52 349.261 141.24 349.201 141.24C348.961 141.36 348.601 141.3 348.421 141C348.241 140.7 348.361 140.34 348.601 140.16C348.721 140.16 350.401 139.14 352.441 139.56L352.921 139.68C354.541 140.16 356.461 141.66 357.601 145.92C357.901 146.88 358.081 148.02 358.261 149.28C358.261 149.34 358.681 152.64 358.921 156.24C359.101 159.48 359.161 161.88 358.981 163.44C358.741 165 357.481 166.08 355.981 166.08Z" fill="#000100"/>
<path d="M362.22 158.94C362.06 158.94 361.88 158.92 361.68 158.88C360.42 158.7 359.16 157.92 357.9 156.72C357.66 156.48 357.66 156.06 357.9 155.82C358.14 155.58 358.5 155.58 358.74 155.82C359.82 156.9 360.86 157.52 361.86 157.68C362.64 157.86 363.36 157.56 363.84 156.96C364.44 156.36 364.56 155.52 364.32 154.68C363.9 153.24 362.88 151.74 361.32 150.18C359.16 148.02 356.76 146.58 356.7 146.58C356.46 146.4 356.34 146.04 356.52 145.74C356.7 145.44 357.06 145.38 357.3 145.5C357.42 145.56 359.94 147.06 362.16 149.34C363.84 151.02 364.98 152.7 365.46 154.32C365.88 155.52 365.58 156.84 364.8 157.8C364.14 158.52 363.18 158.94 362.22 158.94Z" fill="#000100"/>
<path d="M218.941 31.0801V343.38H37.6807V31.0801H218.941Z" fill="#BCD3FD"/>
<path d="M236.64 90.18V112.26C236.64 115.44 234.06 118.02 230.88 118.02V84.42C234.06 84.42 236.64 87 236.64 90.18Z" fill="#061340"/>
<path fill-rule="evenodd" clip-rule="evenodd" d="M230.881 31.5601V342.9C230.881 349.8 225.301 355.38 218.401 355.38H38.1007C31.2607 355.38 25.6807 349.8 25.6807 342.9V31.5601C25.6807 24.6601 31.2607 19.0801 38.1007 19.0801H218.401C225.301 19.0801 230.881 24.6601 230.881 31.5601ZM218.881 39.0601C218.881 34.6201 215.341 31.0801 210.901 31.0801H45.6607C41.2207 31.0801 37.6807 34.6201 37.6807 39.0601V335.4C37.6807 339.78 41.2207 343.38 45.6607 343.38H210.901C215.341 343.38 218.881 339.78 218.881 335.4V39.0601Z" fill="#061340"/>
<path d="M25.6804 111V144.6C22.4404 144.6 19.8604 142.02 19.8604 138.84V116.76C19.8604 113.58 22.4404 111 25.6804 111Z" fill="#061340"/>
<path d="M25.6804 71.9401V105.54C22.4404 105.54 19.8604 102.96 19.8604 99.7801V77.7001C19.8604 74.5201 22.4404 71.9401 25.6804 71.9401Z" fill="#061340"/>
<path d="M210.54 70.68C211.32 74.7 208.5 78.48 204.48 78.96C200.22 79.5 196.56 79.62 193.32 79.44C183.06 79.02 177.54 75.78 174.66 72.96C172.68 71.04 169.44 71.4 167.88 73.62L165.24 77.22C163.62 79.44 161.1 80.88 158.4 81.18L153.24 81.72L152.04 84.6L141 81.9C139.14 80.4 136.62 79.62 133.92 80.04C129.9 80.64 126.72 84 126.24 88.02C125.64 93.54 129.96 98.22 135.36 98.22C135.78 98.22 136.56 97.68 136.68 98.1C136.76 98.42 136.82 98.72 136.86 99C137.88 105.78 130.86 111 124.44 108.48C121.92 107.52 119.88 106.26 118.14 104.88C108.54 97.08 109.86 84.3 109.86 84.3C113.82 49.86 131.94 46.62 131.94 46.62C132.54 45.12 133.56 43.68 134.7 42.48C137.28 39.66 140.58 37.44 144.3 36.48C191.28 24.3 207.96 56.4 210.54 70.68Z" fill="#000100"/>
<path fill-rule="evenodd" clip-rule="evenodd" d="M193.201 116.28C193.621 118.62 191.041 120.42 188.941 119.22L183.661 116.28L180.841 123.42V123.54C180.521 123.54 180.221 123.54 179.941 123.54C178.441 123.72 176.941 124.26 175.741 125.16C174.901 125.76 174.181 126.5 173.581 127.38C171.541 130.2 169.201 134.28 167.341 137.76C168.481 114.36 158.641 117.3 158.641 117.3C154.501 118.8 155.281 126.54 156.421 131.88C156.501 132.28 156.581 132.68 156.661 133.08H156.601C143.641 130.74 137.881 118.74 137.461 117.72C137.881 119.28 144.901 144.72 156.601 152.94C156.301 155.94 156.001 158.64 155.641 160.98L149.161 148.02C127.981 139.38 111.421 123.42 104.641 116.16C111.541 114 118.141 104.88 118.141 104.88C119.881 106.26 121.921 107.52 124.441 108.48C130.861 111 137.881 105.78 136.861 99.0001C136.821 98.7201 136.761 98.4201 136.681 98.1001C136.561 97.6801 135.781 98.2201 135.361 98.2201C129.961 98.2201 125.641 93.5401 126.241 88.0201C126.721 84.0001 129.901 80.6401 133.921 80.0401C136.621 79.6201 139.141 80.4001 141.001 81.9001C141.961 82.6201 142.801 83.5801 143.401 84.7201L141.001 92.3401C140.401 94.1401 141.301 96.0601 143.041 96.7801C143.461 96.9601 143.941 97.0801 144.421 97.0801C145.861 97.0801 147.181 96.2401 147.781 94.8601L152.041 84.6001L153.241 81.7201L158.401 81.1801C161.101 80.8801 163.621 79.4401 165.241 77.2201L167.881 73.6201C169.441 71.4001 172.681 71.0401 174.661 72.9601C177.541 75.7801 183.061 79.0201 193.321 79.4401L190.441 95.1001L190.141 96.7801L193.201 116.28ZM185.401 97.3201C185.401 96.3601 184.621 95.5801 183.601 95.5801C182.641 95.5801 181.861 96.3601 181.861 97.3201C181.861 98.3401 182.641 99.1201 183.601 99.1201C184.621 99.1201 185.401 98.3401 185.401 97.3201Z" fill="#F2AB99"/>
<path d="M156.661 133.08C157.381 137.28 157.561 141.48 157.261 145.74C157.061 148.3 156.841 150.7 156.601 152.94C144.901 144.72 137.881 119.28 137.461 117.72C137.881 118.74 143.641 130.74 156.601 133.08H156.661Z" fill="#000100"/>
<path d="M152.041 84.6L147.781 94.86C147.181 96.24 145.861 97.08 144.421 97.08C143.941 97.08 143.461 96.96 143.041 96.78C141.301 96.06 140.401 94.14 141.001 92.34L143.401 84.72C142.801 83.58 141.961 82.62 141.001 81.9L152.041 84.6Z" fill="#000100"/>
<path d="M164.101 111.36C164.881 114.18 166.441 116.64 168.481 118.56C169.501 119.52 170.641 120.36 171.841 121.08C172.441 121.44 173.101 121.74 173.761 122.1C174.421 122.4 175.081 122.7 175.741 123.06C175.021 122.94 174.301 122.8 173.581 122.64C172.861 122.4 172.141 122.22 171.421 121.92C170.041 121.32 168.781 120.42 167.641 119.4C166.561 118.38 165.601 117.12 165.001 115.74C164.341 114.36 163.981 112.86 164.101 111.36Z" fill="#000100"/>
<path d="M175.74 92.7001C177.6 92.3401 179.58 92.3401 181.44 92.5201C182.4 92.6401 183.36 92.8201 184.26 93.1801C185.16 93.4801 186.12 93.9601 186.78 94.6201C185.88 94.2001 184.98 94.0201 184.08 93.8401C183.2 93.6801 182.28 93.5401 181.32 93.4201C179.52 93.1801 177.66 93.0601 175.74 92.7001Z" fill="#000100"/>
<path d="M189.3 89.46C189.18 89.76 189.06 90 188.46 90C187.86 90 186.72 89.7 184.38 89.28C181.98 88.86 179.04 88.56 176.64 88.32C174.24 88.14 172.44 87.84 172.44 87.54C172.44 87.24 174.18 86.88 176.64 86.64C179.1 86.46 182.22 86.52 184.74 86.94C187.32 87.42 188.52 88.02 189.06 88.44C189.6 88.86 189.48 89.16 189.3 89.46Z" fill="black"/>
<path fill-rule="evenodd" clip-rule="evenodd" d="M190.081 92.94C190.001 94.3 189.821 95.64 189.541 96.96C187.981 103.74 184.021 109.02 180.061 109.5C179.861 109.54 179.661 109.56 179.461 109.56C179.141 109.56 178.841 109.52 178.561 109.44C177.181 109.2 175.981 108.3 175.081 106.92C173.161 103.98 172.681 98.94 173.821 93.84C174.001 92.82 174.361 91.8 174.661 90.84L151.921 85.14L140.881 82.44C140.841 82.44 140.801 82.44 140.761 82.44C140.461 82.26 140.341 81.9 140.461 81.6C140.641 81.3 140.941 81.18 141.241 81.3L152.221 84L175.081 89.7C175.441 88.82 175.861 87.96 176.341 87.12C178.681 82.98 181.921 80.82 184.741 81.36C187.321 81.9 189.181 84.42 189.841 88.32C190.081 89.76 190.201 91.26 190.081 92.94ZM188.701 88.5C188.101 85.14 186.541 82.98 184.561 82.56C184.321 82.52 184.081 82.5 183.841 82.5C181.681 82.5 179.281 84.42 177.421 87.72C176.901 88.56 176.461 89.44 176.101 90.36C175.621 91.56 175.241 92.8 174.961 94.08C173.881 98.94 174.301 103.56 176.101 106.26C176.821 107.38 177.721 108.06 178.801 108.3C179.161 108.34 179.541 108.34 179.941 108.3C183.361 107.88 186.961 102.9 188.341 96.72C188.621 95.44 188.801 94.14 188.881 92.82C189.001 91.32 188.881 89.82 188.701 88.5Z" fill="#AD6115"/>
<path d="M183.66 95.58C184.62 95.58 185.4 96.36 185.4 97.38C185.4 98.34 184.62 99.12 183.66 99.12C182.7 99.12 181.86 98.34 181.86 97.38C181.86 96.36 182.7 95.58 183.66 95.58Z" fill="#000100"/>
<path fill-rule="evenodd" clip-rule="evenodd" d="M180.001 207.96C178.621 216.18 177.181 223.62 175.741 230.28C172.441 245.64 168.901 257.04 165.601 265.56C157.021 287.58 149.641 290.28 149.641 290.28C129.601 299.58 100.201 268.92 80.6406 244.2C80.4806 244.04 80.3406 243.88 80.2206 243.72C68.3406 228.66 60.2406 215.88 60.2406 215.88C51.3606 203.52 46.8006 192.66 45.0006 183.36C41.4606 165 50.6406 146.58 67.0206 137.7C74.1606 133.86 81.2406 128.82 87.0606 124.32C87.3606 124.92 97.7406 143.94 134.401 165.12C134.401 165.12 135.241 160.44 138.001 155.94L147.421 161.34L154.981 165.72C154.261 169.8 153.781 172.08 153.781 172.08L150.841 181.2L147.841 190.62L147.661 191.22C147.781 191.38 147.921 191.52 148.081 191.64C149.841 193.4 151.641 194.96 153.481 196.32C164.041 204.42 174.661 207 178.501 207.72C178.861 207.8 179.161 207.86 179.401 207.9C179.761 207.96 180.001 207.96 180.001 207.96ZM130.501 205.38L130.021 205.74C131.741 209.54 133.421 213.62 135.061 217.98C135.101 218.1 135.141 218.2 135.181 218.28C135.221 218.44 135.281 218.62 135.361 218.82C135.441 218.66 135.521 218.48 135.601 218.28C135.601 218.2 135.621 218.12 135.661 218.04C139.861 207.96 144.061 198.84 146.221 194.28H146.161L145.201 194.94L130.501 205.38Z" fill="#FFFEFF"/>
<path d="M135.96 160.02L147.66 191.22L160.26 172.08L154.98 165.72L138 155.94C138 155.94 134.94 157.38 135.96 160.02Z" fill="#BCD3FD"/>
<path d="M146.161 194.28C144.001 198.96 139.621 208.44 135.361 218.82C133.601 214.14 131.821 209.78 130.021 205.74L146.161 194.28Z" fill="#000100"/>
<path d="M155.641 160.98C155.601 161.46 155.541 161.92 155.461 162.36C155.301 163.56 155.141 164.68 154.981 165.72L147.421 161.34L138.001 155.94C140.281 152.34 143.821 148.86 149.161 148.02L155.641 160.98Z" fill="#000100"/>
<path d="M104.641 116.16C111.421 123.42 127.981 139.38 149.161 148.02C143.761 148.86 140.281 152.34 138.001 155.94C135.181 160.44 134.401 165.12 134.401 165.12C97.6805 143.94 87.3605 124.92 87.0605 124.32C95.4005 117.9 101.221 112.38 101.221 112.38C101.221 112.38 102.421 113.82 104.641 116.16Z" fill="#6A97F6"/>
<path d="M197.101 343.38H63.0009C63.0009 340.5 62.8809 331.5 62.8809 331.5C62.8809 331.5 125.941 335.88 177.721 332.16C184.021 331.74 190.081 331.14 195.901 330.42C195.901 330.42 196.381 340.2 197.101 343.38Z" fill="#FFFEFF"/>
<path d="M195.9 330.42C190.08 331.14 184.02 331.74 177.72 332.16C125.94 335.88 62.8802 331.5 62.8802 331.5L62.5202 319.62C60.6602 290.22 53.8802 232.14 53.7002 230.34C56.8202 241.2 61.1402 253.62 67.0202 267.12C67.1002 267.32 67.1802 267.5 67.2602 267.66L67.5602 267.18L80.2802 244.74L80.5802 244.2H80.6402C100.2 268.92 129.6 299.58 149.64 290.28C149.64 290.28 157.02 287.58 165.6 265.56C168.9 257.04 172.44 245.64 175.74 230.28C177.18 223.62 178.62 216.18 180 207.96C180 207.96 179.76 207.96 179.4 207.9C179.16 207.86 178.86 207.8 178.5 207.72L181.68 195.42L185.16 229.92L185.22 230.28L195.9 330.42Z" fill="#FFFEFF"/>
<path d="M183.66 187.68L181.68 195.42L178.5 207.72C174.66 207 164.04 204.42 153.48 196.32C151.64 194.96 149.84 193.4 148.08 191.64C147.92 191.52 147.78 191.38 147.66 191.22L147.84 190.62L150.84 181.2L153.78 172.08C153.78 172.08 170.64 183.24 182.22 187.2C182.7 187.4 183.18 187.56 183.66 187.68Z" fill="#6A97F6"/>
<path d="M80.581 244.2L67.261 267.66C61.261 253.92 56.881 241.32 53.641 230.34C45.301 201.48 45.001 183.36 45.001 183.36C46.801 192.66 51.361 203.52 60.181 215.94C60.181 215.94 68.521 228.96 80.581 244.2Z" fill="#000100"/>
<path d="M124.621 253.68C124.621 253.68 124.601 253.68 124.561 253.68C124.261 253.68 124.021 253.38 124.021 253.08C124.561 246.3 128.221 234.66 134.821 218.64C134.941 218.28 135.301 218.16 135.601 218.28C135.901 218.4 136.021 218.76 135.901 219.06C129.361 235.02 125.761 246.48 125.221 253.14C125.221 253.44 124.921 253.68 124.621 253.68Z" fill="#000100"/>
<path d="M135.36 219.42C135.28 219.42 135.2 219.4 135.12 219.36C134.82 219.24 134.7 218.94 134.82 218.58C138.72 208.98 142.86 199.92 145.62 194.04C146.52 192.06 147.06 190.98 147.06 190.98C147.24 190.68 147.6 190.56 147.9 190.68C148.2 190.86 148.32 191.22 148.14 191.52C148.14 191.52 147.6 192.6 146.76 194.52C143.94 200.4 139.86 209.46 135.9 219.06C135.84 219.3 135.6 219.42 135.36 219.42Z" fill="#000100"/>
<path d="M141.661 292.62C122.461 292.62 98.2206 267.42 80.1606 244.56C79.9206 244.32 79.9806 243.96 80.2206 243.72C80.5206 243.54 80.8806 243.6 81.0606 243.84C118.201 290.76 138.661 294.72 149.341 289.74C149.461 289.68 152.941 288.3 157.861 280.26C162.361 272.88 169.081 258.18 175.141 230.16C176.701 223.14 178.141 215.64 179.401 207.9C179.461 207.54 179.761 207.3 180.061 207.36C180.421 207.42 180.601 207.72 180.601 208.08C179.281 215.82 177.841 223.38 176.341 230.46C164.461 284.94 150.421 290.64 149.821 290.82C147.241 292.02 144.481 292.62 141.661 292.62Z" fill="#000100"/>
<path d="M75.1806 285.24C75.0006 285.24 74.7606 285.12 74.7006 284.94C71.8806 279.36 69.1806 273.66 66.6606 267.9C66.5406 267.6 66.7206 267.24 67.0206 267.12C67.3206 267 67.6806 267.12 67.8006 267.42C70.2606 273.12 72.9606 278.82 75.7206 284.4C75.9006 284.7 75.7806 285.06 75.4806 285.18C75.4006 285.22 75.3006 285.24 75.1806 285.24Z" fill="#000100"/>
<path d="M135.361 219.42C135.121 219.42 134.881 219.3 134.761 219.06C112.201 158.4 82.5006 150.42 82.2006 150.36C81.9006 150.3 81.6606 149.94 81.7806 149.64C81.8406 149.34 82.1406 149.1 82.5006 149.22C82.8006 149.28 113.041 157.32 135.901 218.64C136.021 218.94 135.841 219.3 135.541 219.42C135.501 219.42 135.441 219.42 135.361 219.42Z" fill="#000100"/>
<path d="M167.34 137.76C169.2 134.28 171.54 130.2 173.58 127.38C174.18 126.5 174.9 125.76 175.74 125.16C176.94 124.26 178.44 123.72 179.94 123.54C180.22 123.54 180.52 123.54 180.84 123.54C182.58 123.6 184.14 124.5 183.96 127.44C183.9 128.58 183.6 129.66 183.18 130.74C183.18 130.74 189.72 131.16 188.64 140.7C188.94 140.82 193.08 142.74 193.44 148.08C193.44 148.08 201.54 150.6 190.56 168C190.56 168 185.76 176.22 183.18 183.96C182.82 185.08 182.5 186.16 182.22 187.2C170.58 183.3 153.78 172.14 153.78 172.14C153.78 172.14 154.26 169.8 154.92 165.72C155.16 164.32 155.4 162.74 155.64 160.98C156 158.64 156.3 155.94 156.6 152.94C156.84 150.7 157.06 148.3 157.26 145.74C157.56 141.48 157.38 137.28 156.66 133.08C156.58 132.68 156.5 132.28 156.42 131.88C155.28 126.54 154.5 118.8 158.64 117.3C158.64 117.3 168.48 114.36 167.34 137.76Z" fill="#F2AB99"/>
<path d="M167.34 138.36C167.04 138.36 166.74 138.06 166.74 137.76C167.4 125.28 164.88 120.6 162.66 118.86C160.74 117.36 158.88 117.9 158.82 117.9C155.04 119.28 156.06 127.14 156.96 131.76L157.2 132.96C157.32 133.32 157.08 133.62 156.78 133.68C156.42 133.74 156.12 133.56 156.06 133.2L155.82 132C154.56 125.94 153.96 118.32 158.4 116.76C158.58 116.7 160.92 116.04 163.38 117.9C166.92 120.66 168.48 127.38 167.94 137.76C167.94 138.06 167.7 138.36 167.34 138.36Z" fill="#000100"/>
<path d="M153.78 172.74C153.74 172.74 153.68 172.72 153.6 172.68C153.3 172.62 153.12 172.32 153.18 171.96C153.18 171.96 153.72 169.62 154.38 165.6C154.58 164.24 154.8 162.68 155.04 160.92C155.46 158.16 155.76 155.58 156 152.88C156.06 152.58 156.36 152.34 156.66 152.34C157.02 152.4 157.26 152.7 157.2 153C156.96 155.7 156.66 158.34 156.24 161.1C156 162.86 155.76 164.44 155.52 165.84C154.86 169.86 154.38 172.2 154.32 172.26C154.26 172.5 154.02 172.74 153.78 172.74Z" fill="#000100"/>
<path d="M178.32 143.34C178.24 143.34 178.16 143.32 178.08 143.28C177.78 143.16 177.6 142.86 177.72 142.5L182.64 130.5C182.76 130.2 183.12 130.02 183.42 130.2C183.72 130.32 183.84 130.62 183.72 130.98L178.86 142.98C178.74 143.22 178.56 143.34 178.32 143.34Z" fill="#000100"/>
<path d="M164.1 145.26C163.74 145.26 163.5 145.02 163.5 144.66C163.5 143.76 166.5 138.12 166.86 137.46C168.18 135 170.7 130.32 173.1 127.02C173.74 126.1 174.5 125.32 175.38 124.68C176.76 123.72 178.32 123.12 179.88 122.94C180.2 122.94 180.52 122.94 180.84 122.94C181.2 123 181.44 123.3 181.44 123.6C181.38 123.9 181.08 124.2 180.78 124.14C180.5 124.14 180.24 124.14 180 124.14C178.62 124.26 177.3 124.8 176.1 125.64C175.34 126.2 174.66 126.88 174.06 127.68C171.72 130.98 169.2 135.54 167.88 138C165.9 141.78 164.76 144.3 164.7 144.72C164.7 145.02 164.4 145.26 164.1 145.26Z" fill="#000100"/>
<path d="M184.381 154.56C184.301 154.56 184.221 154.54 184.141 154.5C183.841 154.32 183.721 154.02 183.841 153.72C186.241 148.56 187.681 144.18 188.101 140.64C188.101 140.28 188.401 140.04 188.761 140.1C189.061 140.16 189.301 140.46 189.241 140.76C188.821 144.42 187.381 148.98 184.921 154.2C184.861 154.44 184.621 154.56 184.381 154.56Z" fill="#000100"/>
<path d="M190.56 158.88C190.44 158.88 190.34 158.86 190.26 158.82C189.96 158.64 189.84 158.28 190.02 157.98C192.06 154.26 193.02 150.96 192.84 148.14C192.84 147.84 193.08 147.54 193.38 147.48C193.74 147.48 193.98 147.72 194.04 148.08C194.22 151.08 193.26 154.62 191.04 158.58C190.98 158.76 190.74 158.88 190.56 158.88Z" fill="#000100"/>
<path d="M207.12 188.82L195.36 235.68L191.04 230.04L184.32 221.4L181.74 195.84C186.3 195.06 192.84 193.68 200.76 191.04C202.8 190.4 204.92 189.66 207.12 188.82Z" fill="#FFFEFF"/>
<path d="M195.36 235.68L194.94 237.42C192.72 238.38 190.56 239.28 188.52 240.06C187.76 240.3 187.04 240.56 186.36 240.84L185.22 230.28L185.16 229.92L181.74 195.84L195.36 235.68Z" fill="#000100"/>
<path d="M203.881 199.98L203.221 200.1C201.301 200.28 199.621 198.9 199.381 197.04L197.401 179.04C197.221 177.12 198.601 175.44 200.461 175.2L201.121 175.14C203.041 174.96 204.721 176.34 204.961 178.2L206.941 196.2C207.121 198.06 205.741 199.8 203.881 199.98Z" fill="#F2AB99"/>
<path d="M211.26 171.54C211.3 171.9 211.28 172.26 211.2 172.62L207.12 188.82L195.36 235.68L194.94 237.42L188.82 261.84C188.46 263.34 186.9 264.24 185.4 263.88C183.9 263.52 183 261.96 183.36 260.46L188.52 240.06L190.98 230.04L200.76 191.04L205.74 171.24C206.1 169.74 207.66 168.84 209.16 169.2C210.3 169.5 211.08 170.46 211.26 171.54Z" fill="#DD6E5A"/>
<path d="M194.94 237.54C194.94 237.54 195.42 237.54 196.2 237.48C201.84 236.94 206.52 232.8 207.9 227.28L214.5 201.54C214.5 201.54 217.08 189.24 207.24 188.28L194.94 237.54Z" fill="#F2AB99"/>
<path d="M210.481 211.02L209.941 211.32C208.321 212.28 206.161 211.74 205.201 210.06L196.201 194.4C195.241 192.72 195.781 190.62 197.461 189.66L198.001 189.36C199.681 188.4 201.781 189 202.741 190.62L211.801 206.28C212.701 207.96 212.161 210.06 210.481 211.02Z" fill="#F2AB99"/>
<path d="M206.341 218.88L205.741 219.18C204.121 220.14 202.021 219.6 201.061 217.92L192.001 202.26C191.041 200.58 191.581 198.48 193.261 197.52L193.801 197.22C195.481 196.26 197.581 196.8 198.541 198.48L207.601 214.14C208.561 215.82 207.961 217.92 206.341 218.88Z" fill="#F2AB99"/>
<path d="M202.38 227.16L201.84 227.46C200.16 228.42 198.06 227.82 197.1 226.2L188.04 210.54C187.08 208.86 187.68 206.76 189.3 205.8L189.84 205.5C191.52 204.54 193.62 205.08 194.58 206.76L203.64 222.42C204.6 224.04 204 226.2 202.38 227.16Z" fill="#F2AB99"/>
<path d="M204.001 192.78L210.361 203.82" stroke="#000100" stroke-width="2" stroke-linecap="round" stroke-linejoin="round"/>
<path d="M198.721 198.78L205.081 209.82" stroke="#000100" stroke-width="2" stroke-linecap="round" stroke-linejoin="round"/>
<path d="M194.761 207L200.881 217.62" stroke="#000100" stroke-width="2" stroke-linecap="round" stroke-linejoin="round"/>
<g style="mix-blend-mode:overlay" opacity="0.4">
<path d="M218.941 130.8V234L109.501 343.38H45.5407C41.2207 343.38 37.6807 339.84 37.6807 335.52V312.06L218.941 130.8Z" fill="white"/>
</g>
<g style="mix-blend-mode:overlay" opacity="0.4">
<path d="M218.941 39.0001V53.4001L37.6807 234.66V156.96L163.561 31.0801H210.961C215.341 31.0801 218.941 34.6201 218.941 39.0001Z" fill="white"/>
</g>
<path d="M181.741 195.84C181.661 195.88 181.601 195.9 181.561 195.9L181.681 195.42L181.741 195.84Z" fill="#FFFEFF"/>
<path d="M136.38 311.04V317.46L140.16 320.58V307.92L136.38 311.04ZM132.54 307.86H118.38C117.3 307.86 116.4 308.82 116.4 309.9V318.54C116.4 319.68 117.3 320.58 118.38 320.58H132.54C133.62 320.58 134.52 319.68 134.52 318.54V309.9C134.52 308.82 133.62 307.86 132.54 307.86Z" fill="#3EBAFF"/>
<path fill-rule="evenodd" clip-rule="evenodd" d="M128.28 333.6C117.6 333.6 108.9 324.9 108.9 314.22C108.9 303.54 117.6 294.9 128.28 294.9C138.96 294.9 147.66 303.54 147.66 314.22C147.66 324.9 138.96 333.6 128.28 333.6ZM128.28 295.98C118.2 295.98 109.98 304.14 109.98 314.22C109.98 324.3 118.2 332.52 128.28 332.52C138.36 332.52 146.58 324.3 146.58 314.22C146.58 304.14 138.36 295.98 128.28 295.98Z" fill="#3EBAFF"/>
<path d="M131.761 25.14C131.761 23.22 130.201 21.66 128.281 21.66C126.361 21.66 124.801 23.22 124.801 25.14C124.801 27.06 126.361 28.62 128.281 28.62C130.201 28.62 131.761 27.06 131.761 25.14Z" fill="#C2FF1A"/>
<path d="M331.08 0.540039H243.42C232.2 0.540039 223.08 9.66004 223.08 20.88V45.24C223.08 56.46 232.2 65.58 243.42 65.58H303.9L327.72 95.8201L322.38 65.58H331.08C342.3 65.58 351.42 56.46 351.42 45.24V20.88C351.42 9.66004 342.3 0.540039 331.08 0.540039Z" fill="#FFC6C4"/>
<path d="M326.64 24.6H247.86C247.56 24.6 247.26 24.3 247.26 24C247.26 23.64 247.56 23.4 247.86 23.4H326.64C326.94 23.4 327.24 23.64 327.24 24C327.24 24.3 326.94 24.6 326.64 24.6Z" fill="#FFF9F6"/>
<path d="M318.539 33.7801H255.959C255.599 33.7801 255.359 33.5401 255.359 33.1801C255.359 32.8801 255.599 32.5801 255.959 32.5801H318.539C318.899 32.5801 319.139 32.8801 319.139 33.1801C319.139 33.5401 318.899 33.7801 318.539 33.7801Z" fill="#FFF9F6"/>
<path d="M311.7 42.96H262.8C262.5 42.96 262.2 42.72 262.2 42.36C262.2 42.06 262.5 41.76 262.8 41.76H311.7C312 41.76 312.3 42.06 312.3 42.36C312.3 42.72 312 42.96 311.7 42.96Z" fill="#FFF9F6"/>
<path d="M176.04 262.14V293.28C176.04 300.9 182.16 307.08 189.78 307.08H265.86C273.48 307.08 279.6 300.9 279.6 293.28V262.14C279.6 254.52 273.48 248.34 265.86 248.34H210.24L178.86 226.68L186.12 248.88C180.3 250.5 176.04 255.78 176.04 262.14Z" fill="#3EBAFF"/>
<path d="M188.1 270.18H266.88C267.24 270.18 267.48 269.88 267.48 269.58C267.48 269.22 267.24 268.98 266.88 268.98H188.1C187.8 268.98 187.5 269.22 187.5 269.58C187.5 269.88 187.8 270.18 188.1 270.18Z" fill="#FFDAD7"/>
<path d="M196.2 279.36H258.78C259.14 279.36 259.38 279.06 259.38 278.76C259.38 278.4 259.14 278.16 258.78 278.16H196.2C195.84 278.16 195.6 278.4 195.6 278.76C195.6 279.06 195.84 279.36 196.2 279.36Z" fill="#FFDAD7"/>
<path d="M203.04 288.54H251.94C252.24 288.54 252.54 288.24 252.54 287.94C252.54 287.58 252.24 287.34 251.94 287.34H203.04C202.74 287.34 202.44 287.58 202.44 287.94C202.44 288.24 202.74 288.54 203.04 288.54Z" fill="#FFDAD7"/>
<path fill-rule="evenodd" clip-rule="evenodd" d="M266.64 147.18C251.7 147.18 239.521 135 239.521 120.06C239.521 105.06 251.7 92.88 266.64 92.88C281.64 92.88 293.821 105.06 293.821 120.06C293.821 135 281.64 147.18 266.64 147.18ZM266.64 94.08C252.36 94.08 240.721 105.72 240.721 120.06C240.721 134.34 252.36 145.98 266.64 145.98C280.98 145.98 292.621 134.34 292.621 120.06C292.621 105.72 280.98 94.08 266.64 94.08Z" fill="#3EBAFF"/>
<path d="M266.82 107.34C268.14 107.34 269.4 107.52 270.6 107.88C271.76 108.28 272.78 108.8 273.66 109.44C274.54 110.08 275.22 110.86 275.7 111.78C276.22 112.66 276.48 113.64 276.48 114.72C276.48 115.56 276.34 116.32 276.06 117C275.74 117.64 275.36 118.22 274.92 118.74C274.48 119.26 274 119.72 273.48 120.12C272.96 120.56 272.46 120.98 271.98 121.38C271.5 121.78 271.06 122.2 270.66 122.64C270.26 123.08 269.98 123.56 269.82 124.08C269.78 124.36 269.68 124.6 269.52 124.8C269.36 124.96 269.14 125.04 268.86 125.04H264.48C264.24 125.04 264.02 124.96 263.82 124.8C263.62 124.6 263.52 124.36 263.52 124.08C263.52 123.32 263.68 122.62 264 121.98C264.32 121.38 264.72 120.82 265.2 120.3C265.68 119.78 266.2 119.3 266.76 118.86C267.32 118.42 267.84 118.02 268.32 117.66C268.8 117.26 269.2 116.86 269.52 116.46C269.84 116.02 270 115.56 270 115.08C270 114.4 269.74 113.86 269.22 113.46C268.7 113.1 267.9 112.92 266.82 112.92C265.74 112.92 264.96 113.08 264.48 113.4C264.04 113.72 263.7 114.06 263.46 114.42C263.26 114.82 263.08 115.18 262.92 115.5C262.76 115.82 262.46 115.98 262.02 115.98H257.64C257.44 115.98 257.26 115.9 257.1 115.74C256.94 115.62 256.86 115.44 256.86 115.2C256.86 114.36 257.1 113.48 257.58 112.56C258.02 111.64 258.66 110.78 259.5 109.98C260.34 109.22 261.38 108.6 262.62 108.12C263.82 107.6 265.22 107.34 266.82 107.34ZM269.94 131.82C269.94 132.06 269.84 132.28 269.64 132.48C269.44 132.68 269.2 132.78 268.92 132.78H264.42C264.18 132.78 263.96 132.68 263.76 132.48C263.56 132.28 263.46 132.06 263.46 131.82V128.16C263.46 127.92 263.56 127.7 263.76 127.5C263.96 127.3 264.18 127.2 264.42 127.2H268.92C269.2 127.2 269.44 127.3 269.64 127.5C269.84 127.7 269.94 127.92 269.94 128.16V131.82Z" fill="#3EBAFF"/>
<path fill-rule="evenodd" clip-rule="evenodd" d="M266.64 212.52C251.7 212.52 239.521 200.34 239.521 185.34C239.521 170.34 251.7 158.16 266.64 158.16C281.64 158.16 293.821 170.34 293.821 185.34C293.821 200.34 281.64 212.52 266.64 212.52ZM266.64 159.36C252.36 159.36 240.721 171.06 240.721 185.34C240.721 199.68 252.36 211.32 266.64 211.32C280.98 211.32 292.621 199.68 292.621 185.34C292.621 171.06 280.98 159.36 266.64 159.36Z" fill="#3EBAFF"/>
<path d="M281.821 179.1L260.401 200.46C258.061 202.86 254.221 202.86 251.821 200.46L251.521 200.16C249.181 197.76 249.181 193.98 251.521 191.58L272.881 170.22C275.281 167.82 279.121 167.82 281.461 170.22L281.821 170.52C284.161 172.92 284.161 176.76 281.821 179.1Z" fill="#3EBAFF"/>
<path d="M272.701 185.46L266.761 191.4C265.501 192.66 263.521 192.66 262.261 191.4L260.581 189.72C259.321 188.52 259.321 186.48 260.581 185.22L266.521 179.28C267.781 178.02 269.821 178.02 271.081 179.28L272.701 180.96C273.961 182.16 273.961 184.2 272.701 185.46Z" fill="#FFDAD7"/>
<path d="M252.96 195.36C252.72 195.12 252.36 195.12 252.12 195.36C251.88 195.6 251.88 195.96 252.12 196.2C252.36 196.44 252.72 196.44 252.96 196.2C253.2 195.96 253.2 195.6 252.96 195.36Z" fill="#FFDAD7"/>
<path d="M255.541 192.78C255.301 192.54 254.941 192.54 254.701 192.78C254.461 193.02 254.461 193.38 254.701 193.62C254.941 193.86 255.301 193.86 255.541 193.62C255.781 193.38 255.781 193.02 255.541 192.78Z" fill="#FFDAD7"/>
<path d="M258.121 190.2C257.881 189.96 257.521 189.96 257.281 190.2C257.041 190.44 257.041 190.8 257.281 191.04C257.521 191.28 257.881 191.28 258.121 191.04C258.361 190.8 258.361 190.44 258.121 190.2Z" fill="#FFDAD7"/>
<path d="M254.82 197.16C254.58 196.92 254.16 196.92 253.92 197.16C253.68 197.4 253.68 197.82 253.92 198.06C254.16 198.3 254.58 198.3 254.82 198.06C255.06 197.82 255.06 197.4 254.82 197.16Z" fill="#FFDAD7"/>
<path d="M257.4 194.58C257.16 194.34 256.74 194.34 256.5 194.58C256.26 194.82 256.26 195.24 256.5 195.48C256.74 195.72 257.16 195.72 257.4 195.48C257.64 195.24 257.64 194.82 257.4 194.58Z" fill="#FFDAD7"/>
<path d="M259.98 192C259.74 191.76 259.32 191.76 259.08 192C258.84 192.24 258.84 192.66 259.08 192.9C259.32 193.14 259.74 193.14 259.98 192.9C260.22 192.66 260.22 192.24 259.98 192Z" fill="#FFDAD7"/>
<path d="M256.681 199.02C256.441 198.78 256.021 198.78 255.781 199.02C255.541 199.26 255.541 199.62 255.781 199.92C256.021 200.16 256.441 200.16 256.681 199.92C256.921 199.62 256.921 199.26 256.681 199.02Z" fill="#FFDAD7"/>
<path d="M259.261 196.44C259.021 196.2 258.601 196.2 258.361 196.44C258.121 196.68 258.121 197.1 258.361 197.34C258.601 197.58 259.021 197.58 259.261 197.34C259.501 197.1 259.501 196.68 259.261 196.44Z" fill="#FFDAD7"/>
<path d="M261.781 193.86C261.541 193.62 261.181 193.62 260.941 193.86C260.701 194.1 260.701 194.52 260.941 194.76C261.181 195 261.541 195 261.781 194.76C262.081 194.52 262.081 194.1 261.781 193.86Z" fill="#FFDAD7"/>
<path d="M272.4 175.92C272.16 175.68 271.74 175.68 271.5 175.92C271.26 176.16 271.26 176.58 271.5 176.82C271.74 177.06 272.16 177.06 272.4 176.82C272.64 176.58 272.64 176.16 272.4 175.92Z" fill="#FFDAD7"/>
<path d="M274.98 173.34C274.74 173.1 274.32 173.1 274.08 173.34C273.84 173.64 273.84 174 274.08 174.24C274.32 174.48 274.74 174.48 274.98 174.24C275.22 174 275.22 173.64 274.98 173.34Z" fill="#FFDAD7"/>
<path d="M277.56 170.82C277.26 170.58 276.9 170.58 276.66 170.82C276.42 171.06 276.42 171.42 276.66 171.66C276.9 171.9 277.26 171.9 277.56 171.66C277.8 171.42 277.8 171.06 277.56 170.82Z" fill="#FFDAD7"/>
<path d="M274.201 177.78C273.961 177.54 273.601 177.54 273.361 177.78C273.121 178.02 273.121 178.44 273.361 178.68C273.601 178.92 273.961 178.92 274.201 178.68C274.441 178.44 274.441 178.02 274.201 177.78Z" fill="#FFDAD7"/>
<path d="M276.781 175.2C276.541 174.96 276.181 174.96 275.941 175.2C275.701 175.44 275.701 175.86 275.941 176.1C276.181 176.34 276.541 176.34 276.781 176.1C277.021 175.86 277.021 175.44 276.781 175.2Z" fill="#FFDAD7"/>
<path d="M279.36 172.62C279.12 172.38 278.76 172.38 278.52 172.62C278.28 172.86 278.28 173.28 278.52 173.52C278.76 173.76 279.12 173.76 279.36 173.52C279.6 173.28 279.6 172.86 279.36 172.62Z" fill="#FFDAD7"/>
<path d="M276.06 179.64C275.82 179.4 275.4 179.4 275.16 179.64C274.92 179.88 274.92 180.24 275.16 180.48C275.4 180.72 275.82 180.72 276.06 180.48C276.3 180.24 276.3 179.88 276.06 179.64Z" fill="#FFDAD7"/>
<path d="M278.641 177.06C278.401 176.82 277.981 176.82 277.741 177.06C277.501 177.3 277.501 177.66 277.741 177.9C277.981 178.14 278.401 178.14 278.641 177.9C278.881 177.66 278.881 177.3 278.641 177.06Z" fill="#FFDAD7"/>
<path d="M281.221 174.48C280.981 174.24 280.561 174.24 280.321 174.48C280.081 174.72 280.081 175.08 280.321 175.32C280.561 175.56 280.981 175.56 281.221 175.32C281.461 175.08 281.461 174.72 281.221 174.48Z" fill="#FFDAD7"/>
</svg>
