<svg width="530" height="506" viewBox="0 0 530 506" fill="none" xmlns="http://www.w3.org/2000/svg">
<g style="mix-blend-mode:multiply" opacity="0.5">
<path d="M306.539 28.84C321.179 30.46 338.459 34.9 343.079 48.28C347.939 62.32 335.459 76.3 334.379 91C332.939 109.84 350.939 125.8 369.959 131.08C388.979 136.36 409.259 134.14 428.999 134.86C489.059 136.96 514.439 188.08 469.259 226.36C445.739 246.28 382.199 273.7 402.899 312.7C412.019 329.92 436.019 332.08 454.859 338.86C475.739 346.42 494.639 366.76 488.939 387.34C485.879 398.14 476.879 406.3 467.879 413.44C402.299 465.52 313.919 499.96 227.339 494.38C206.099 493 184.619 487.3 167.699 474.82C153.899 464.62 140.819 447.16 140.579 429.82C140.339 411.52 152.939 396.4 147.659 376.96C144.779 366.1 135.839 357.52 125.639 352.06C98.9994 337.84 55.2594 341.62 40.7394 310.72C32.4594 293.08 42.1794 271.96 56.6994 258.7C71.2794 245.44 90.1194 237.4 106.559 226.3C148.679 197.62 107.459 162.1 77.7594 143.2C63.4794 134.08 41.5194 128.32 37.4394 109.96C27.7194 65.62 116.759 38.5 148.799 31.9C200.339 21.34 254.339 23.14 306.539 28.84Z" fill="#F5D4D4"/>
</g>
<path d="M497.7 286.24H366.42C362.22 286.24 358.8 289.66 358.8 293.86V316.66C358.8 320.86 362.22 324.28 366.42 324.28H497.7C501.9 324.28 505.32 320.86 505.32 316.66V293.86C505.32 289.66 501.9 286.24 497.7 286.24Z" fill="#FCA351"/>
<path d="M368.64 324.28V466.24C368.64 470.44 372 473.86 376.2 473.86H487.92C492.12 473.86 495.48 470.44 495.48 466.24V324.28H368.64Z" fill="white"/>
<path d="M495.48 413.38H368.64V355.96H495.48V413.38Z" fill="#FCA351"/>
<g style="mix-blend-mode:multiply">
<path d="M460.38 443.5C426.84 443.5 399.66 416.32 399.66 382.78V324.28H368.64V466.24C368.64 470.44 372 473.86 376.2 473.86H487.92C492.12 473.86 495.48 470.44 495.48 466.24V443.5H460.38Z" fill="#F0F1F1"/>
</g>
<g style="mix-blend-mode:multiply" opacity="0.5">
<path d="M432.059 291.28C430.559 291.28 429.359 292.48 429.359 293.98V316.54C429.359 318.04 430.559 319.24 432.059 319.24C433.559 319.24 434.759 318.04 434.759 316.54V293.98C434.759 292.48 433.559 291.28 432.059 291.28Z" fill="#FCA351"/>
</g>
<g style="mix-blend-mode:multiply" opacity="0.5">
<path d="M452.88 291.28C451.38 291.28 450.24 292.48 450.24 293.98V316.54C450.24 318.04 451.38 319.24 452.88 319.24C454.38 319.24 455.58 318.04 455.58 316.54V293.98C455.58 292.48 454.38 291.28 452.88 291.28Z" fill="#FCA351"/>
</g>
<g style="mix-blend-mode:multiply" opacity="0.5">
<path d="M473.7 291.28C472.26 291.28 471.06 292.48 471.06 293.98V316.54C471.06 318.04 472.26 319.24 473.7 319.24C475.2 319.24 476.4 318.04 476.4 316.54V293.98C476.4 292.48 475.2 291.28 473.7 291.28Z" fill="#FCA351"/>
</g>
<g style="mix-blend-mode:multiply" opacity="0.5">
<path d="M494.52 291.28C493.08 291.28 491.88 292.48 491.88 293.98V316.54C491.88 318.04 493.08 319.24 494.52 319.24C496.02 319.24 497.22 318.04 497.22 316.54V293.98C497.22 292.48 496.02 291.28 494.52 291.28Z" fill="#FCA351"/>
</g>
<g style="mix-blend-mode:multiply" opacity="0.5">
<path d="M411.24 291.28C412.68 291.28 413.88 292.48 413.88 293.98V316.54C413.88 318.04 412.68 319.24 411.24 319.24C409.74 319.24 408.54 318.04 408.54 316.54V293.98C408.54 292.48 409.74 291.28 411.24 291.28Z" fill="#FCA351"/>
</g>
<g style="mix-blend-mode:multiply" opacity="0.5">
<path d="M390.42 291.28C391.86 291.28 393.06 292.48 393.06 293.98V316.54C393.06 318.04 391.86 319.24 390.42 319.24C388.92 319.24 387.72 318.04 387.72 316.54V293.98C387.72 292.48 388.92 291.28 390.42 291.28Z" fill="#FCA351"/>
</g>
<g style="mix-blend-mode:multiply" opacity="0.5">
<path d="M369.599 291.28C371.039 291.28 372.239 292.48 372.239 293.98V316.54C372.239 318.04 371.039 319.24 369.599 319.24C368.099 319.24 366.899 318.04 366.899 316.54V293.98C366.899 292.48 368.099 291.28 369.599 291.28Z" fill="#FCA351"/>
</g>
<g style="mix-blend-mode:multiply" opacity="0.5">
<path d="M391.32 315.52C379.32 315.52 369.6 305.8 369.6 293.8V286.24H366.42C362.22 286.24 358.8 289.66 358.8 293.86V316.66C358.8 320.86 362.22 324.28 366.42 324.28H497.7C501.9 324.28 505.32 320.86 505.32 316.66V315.52H391.32Z" fill="#FCA351"/>
</g>
<path d="M431.52 204.76C442.08 177.46 431.64 143.56 441.54 116.56C442.5 114.04 440.04 111.64 437.58 112.54C410.58 122.5 376.62 112.06 349.38 122.56C335.22 128.02 323.34 138.58 315.18 151.36C307.5 163.36 303 178 305.82 191.98C308.64 205.9 320.04 218.56 334.2 219.88C335.58 234.04 348.18 245.5 362.16 248.32C376.08 251.14 390.72 246.58 402.72 238.96C415.5 230.8 426.06 218.92 431.52 204.76Z" fill="#E29D9C"/>
<path d="M402.059 142.12L404.459 140.2C407.099 138.16 409.739 136 412.379 133.96C417.779 130 423.18 125.92 428.64 122.02L441.059 113.5C440.939 113.38 440.819 113.26 440.699 113.14L428.099 121.18C422.459 124.96 417 128.8 411.42 132.64C408.66 134.62 406.02 136.72 403.32 138.76L400.92 140.56C386.82 134.44 383.039 124.78 382.499 117.4C381.819 117.4 381.139 117.42 380.459 117.46C380.999 125.32 384.84 135.52 398.94 142.06C397.68 142.96 396.479 143.92 395.279 144.88L387.42 151.36C386.16 152.44 384.839 153.46 383.579 154.6L380.999 156.88C358.859 148.48 354.959 131.98 355.199 120.64C354.519 120.84 353.839 121.06 353.159 121.3C353.159 133 357.42 149.8 379.14 158.5L376.02 161.32C374.76 162.46 373.44 163.54 372.24 164.74L364.979 171.82C363.719 173.02 362.64 174.28 361.44 175.54L359.82 177.28C343.32 172.96 332.579 163.3 327.899 148.42C326.759 144.76 326.159 141.22 325.799 138.1C325.159 138.74 324.54 139.4 323.94 140.08C325.74 153.22 332.88 172 358.14 179.14L358.02 179.26C355.68 181.72 353.58 184.42 351.42 187.06C349.26 189.64 347.399 192.46 345.359 195.22C344.759 196.06 344.16 196.9 343.62 197.8C322.08 189.7 312.96 173.8 309.12 163.06C308.72 164.06 308.339 165.08 307.979 166.12C312.419 177.1 321.96 191.8 342.42 199.66C341.58 201.04 340.68 202.36 339.84 203.8L337.379 208.24C336.599 209.74 335.879 211.3 335.159 212.8C334.139 215.08 333.179 217.3 332.399 219.64C332.639 219.68 332.88 219.72 333.12 219.76C333.44 219.16 333.74 218.54 334.02 217.9C334.86 216.4 335.579 214.96 336.479 213.52C337.319 212.08 338.159 210.64 339.059 209.2L341.82 205C342.5 204 343.2 203 343.92 202C352.26 229.9 373.14 240.82 391.32 244.84C392.479 244.4 393.639 243.9 394.799 243.34C376.199 239.86 353.699 229.36 345.599 199.78C348.239 196.12 351.059 192.58 353.999 189.1C356.119 186.58 358.279 184.06 360.479 181.54C364.799 194.86 376.439 225.16 416.099 225.16C417.059 225.16 418.02 225.1 419.04 225.04C419.68 224.32 420.319 223.58 420.959 222.82C377.579 225.52 366.54 193.42 362.22 179.68C368.16 172.96 374.399 166.48 381.059 160.36C381.099 160.52 381.16 160.68 381.24 160.84C385.08 171.16 394.799 197.02 430.859 196.96C431.859 196.96 432.899 196.94 433.979 196.9C434.139 196.18 434.299 195.46 434.459 194.74C433.179 194.78 431.919 194.8 430.679 194.8C396.299 194.8 387.299 170.92 383.279 160.06C383.079 159.62 382.9 159.18 382.74 158.74L385.199 156.46C386.399 155.32 387.719 154.24 388.979 153.16L396.599 146.56C397.799 145.54 398.999 144.58 400.199 143.62C401.939 149.38 409.679 168.64 434.819 168.64C435.459 168.64 436.1 168.62 436.74 168.58C436.74 167.86 436.74 167.14 436.74 166.42C409.56 167.56 403.019 146.14 402.059 142.12Z" fill="#F5D4D4"/>
<g style="mix-blend-mode:multiply">
<path d="M515.28 488.74H27.6595C21.2395 488.74 16.0195 483.52 16.0195 477.04C16.0195 470.62 21.2395 465.4 27.6595 465.4H515.28C521.7 465.4 526.92 470.62 526.92 477.04C526.92 483.52 521.7 488.74 515.28 488.74Z" fill="#F5D4D4"/>
</g>
<g style="mix-blend-mode:multiply">
<path d="M243.6 496.42H98.9995C96.7795 496.42 94.9795 498.46 94.9795 500.92C94.9795 503.44 96.7795 505.42 98.9995 505.42H243.6C245.82 505.42 247.559 503.44 247.559 500.92C247.559 498.46 245.82 496.42 243.6 496.42Z" fill="#F5D4D4"/>
</g>
<path d="M393.239 317.5C393.599 312.22 395.039 306.52 398.999 302.74C402.539 299.32 407.399 298.18 411.959 296.8C423.539 293.26 435.599 286.66 441.539 275.56C450.839 258.16 442.619 235.24 455.339 220C458.399 216.34 462.359 213.64 466.019 210.64C472.919 205 479.159 197.92 481.799 189.58C484.439 181.18 480.899 170.08 474.239 165.76C468.419 160.3 456.779 159.52 449.279 164.08C441.779 168.64 436.379 176.38 432.539 184.36C430.499 188.68 428.819 193.12 425.999 196.96C414.239 212.92 389.999 210.4 375.299 223.6C365.939 232.06 362.399 245.32 361.739 257.44C361.499 262.18 361.499 267.16 359.099 271.42C356.339 276.16 351.119 278.92 346.139 280.54C341.099 282.16 335.819 282.94 331.019 285.34C323.759 289 318.119 296.02 315.179 303.7C312.179 311.38 311.699 319.66 312.599 327.46C313.739 337.96 345.119 362.56 355.619 361.24C363.419 360.22 371.279 357.76 378.059 353.08C384.839 348.34 390.359 341.2 392.099 333.28C393.299 328 392.819 322.78 393.239 317.5Z" fill="#71BDB3"/>
<path d="M465.059 179.74C459.779 186.16 454.319 192.4 448.799 198.58L444.719 203.26L440.579 207.88C437.819 211 435.039 214.08 432.239 217.12L423.659 226.12L419.399 230.68C417.999 232.2 416.619 233.74 415.259 235.3C409.739 241.48 404.519 247.96 399.479 254.5L384.419 274.24C383.159 275.92 381.899 277.54 380.639 279.22C379.439 280.9 378.179 282.52 376.979 284.2C375.779 285.88 374.519 287.56 373.259 289.18L369.659 294.22C364.739 300.86 359.959 307.6 355.319 314.44C350.699 321.28 346.319 328.3 342.299 335.56C342.299 335.62 342.179 335.68 342.119 335.62C342.059 335.62 341.999 335.5 342.059 335.44C345.119 327.7 349.019 320.32 353.279 313.12C357.539 305.98 362.159 299.08 366.959 292.24C371.759 285.46 376.919 278.92 382.079 272.44C387.239 265.96 392.639 259.66 398.159 253.42L402.299 248.74C403.659 247.22 405.019 245.66 406.379 244.06C409.139 240.94 411.779 237.76 414.479 234.64C417.119 231.46 419.759 228.22 422.339 224.98C424.979 221.74 427.619 218.56 430.259 215.38C432.939 212.22 435.699 209.12 438.539 206.08C441.339 203 444.179 199.96 447.059 196.96C452.819 191.02 458.639 185.08 464.819 179.5C464.879 179.44 464.999 179.5 465.059 179.56C465.119 179.62 465.119 179.68 465.059 179.74Z" fill="white"/>
<path d="M357.059 479.26C357.059 479.26 359.699 433.24 291.899 413.2C291.899 413.2 295.139 465.88 335.759 479.26H357.059Z" fill="#67AC9F"/>
<g style="mix-blend-mode:multiply" opacity="0.5">
<path d="M339.54 465.4C336.42 459.64 332.22 454.66 328.14 449.68C324.06 444.7 319.62 440.02 315.12 435.52C310.5 431.02 305.82 426.64 300.84 422.62C300.78 422.56 300.66 422.56 300.6 422.62C300.54 422.68 300.54 422.8 300.6 422.86C305.28 427.24 309.66 431.86 313.92 436.6C318.18 441.34 322.32 446.2 326.1 451.3C327.12 452.56 327.96 453.88 328.92 455.14C329.82 456.46 330.72 457.78 331.56 459.1L334.14 463.06C334.98 464.42 335.84 465.76 336.72 467.08C339.18 471.04 341.52 475.06 343.62 479.26H345.18C343.92 474.4 341.88 469.78 339.54 465.4Z" fill="#67AC9F"/>
</g>
<g style="mix-blend-mode:multiply" opacity="0.5">
<path d="M335.759 479.26H357.059C357.059 479.26 358.319 457.18 336.539 436.9C334.019 443.26 329.639 455.32 329.879 463.24C326.759 464.86 316.139 461.56 308.039 458.62C314.459 467.38 323.339 475.18 335.759 479.26Z" fill="#67AC9F"/>
</g>
<path d="M365.339 479.26C365.339 479.26 362.699 433.24 430.499 413.2C430.499 413.2 427.259 465.88 386.699 479.26H365.339Z" fill="#67AC9F"/>
<g style="mix-blend-mode:multiply" opacity="0.5">
<path d="M408.659 436.42C413.339 431.68 418.259 427.12 423.419 422.86C423.479 422.8 423.479 422.68 423.479 422.62C423.419 422.56 423.299 422.56 423.239 422.62C417.779 426.52 412.559 430.78 407.519 435.28C402.559 439.8 397.799 444.56 393.239 449.56C388.679 454.48 384.239 459.64 380.579 465.4L377.939 469.72C377.159 471.22 376.379 472.72 375.599 474.22C374.759 475.84 374.039 477.52 373.379 479.26H374.999C377.759 475.18 380.399 471.1 383.279 467.2C387.239 461.92 390.899 456.34 395.219 451.24C399.479 446.14 403.919 441.16 408.659 436.42Z" fill="#67AC9F"/>
</g>
<g style="mix-blend-mode:multiply" opacity="0.5">
<path d="M420.599 448.36C413.699 452.26 405.059 456.46 400.319 455.92C404.279 445.96 404.519 432.22 404.159 423.94C363.479 446.2 365.339 479.26 365.339 479.26H386.699C403.739 473.62 414.179 461.08 420.599 448.36Z" fill="#67AC9F"/>
</g>
<path d="M341.579 479.26C341.579 479.26 323.039 416.02 398.339 388.42C398.339 388.42 412.019 460.84 367.379 479.26H341.579Z" fill="#71BDB3"/>
<g style="mix-blend-mode:multiply" opacity="0.5">
<path d="M393.899 397.6C393.959 397.54 393.959 397.42 393.899 397.36C393.839 397.3 393.719 397.3 393.659 397.36L386.339 407.14L379.259 417.1C374.819 423.88 370.379 430.72 366.359 437.86C364.319 441.34 362.399 445 360.479 448.6L357.839 454.12C356.939 455.98 356.219 457.9 355.439 459.76C353.999 463.6 352.679 467.5 351.659 471.52C351.059 474.04 350.519 476.62 350.159 479.26H351.419C353.399 473.02 355.859 467.02 358.499 461.02C361.739 453.7 364.919 446.26 368.639 439.12C372.359 431.92 376.439 424.9 380.639 418L387.119 407.68L393.899 397.6Z" fill="#71BDB3"/>
</g>
<g style="mix-blend-mode:multiply" opacity="0.5">
<path d="M339.54 460.78C339.36 471.76 341.58 479.26 341.58 479.26H367.38C395.04 467.86 400.32 435.64 400.32 412.78C391.62 428.5 371.04 458.44 339.54 460.78Z" fill="#71BDB3"/>
</g>
<path d="M137.279 231.4C137.939 225.46 137.519 218.86 133.919 213.88C130.679 209.38 125.519 207.1 120.779 204.64C108.659 198.4 96.6593 188.62 92.3393 175.12C85.5593 153.94 99.3593 130.24 88.4393 110.8C85.7993 106.12 81.9593 102.28 78.5393 98.2C72.0593 90.58 66.5993 81.52 65.3993 71.68C64.1993 61.9 70.3793 50.26 78.6593 46.84C86.1593 42.04 99.1793 43.54 106.559 50.08C113.939 56.68 118.319 66.34 120.899 76C122.279 81.16 123.299 86.5 125.639 91.3C135.419 111.4 162.719 113.5 176.279 131.14C184.919 142.42 186.179 157.78 184.379 171.34C183.719 176.62 182.639 182.14 184.499 187.36C186.539 193.18 191.759 197.32 196.979 200.08C202.199 202.9 207.839 204.88 212.699 208.54C220.019 214 224.759 223 226.499 232.06C228.239 241.18 227.099 250.42 224.519 258.88C221.039 270.28 181.319 291.1 169.919 287.5C161.519 284.8 153.299 280.48 146.819 273.88C140.279 267.28 135.659 258.22 135.299 249.1C135.059 243.04 136.619 237.28 137.279 231.4Z" fill="#E56572"/>
<path d="M85.9193 64.24C90.4793 72.4 95.2193 80.44 100.019 88.42L103.619 94.42L107.219 100.42C109.659 104.42 112.119 108.38 114.599 112.3L122.279 124.06L126.059 129.94C127.299 131.9 128.519 133.88 129.719 135.88C134.519 143.86 138.959 152.08 143.219 160.42L155.879 185.32C156.959 187.42 157.979 189.52 158.999 191.62C160.019 193.66 161.099 195.76 162.059 197.86C163.079 199.96 164.099 202.06 165.119 204.16L168.119 210.46C172.199 218.8 176.099 227.26 179.819 235.78C183.599 244.3 187.019 252.94 189.899 261.82C189.959 261.88 190.079 261.94 190.139 261.94C190.259 261.88 190.259 261.82 190.259 261.7C188.459 252.52 185.579 243.52 182.399 234.76C179.159 225.94 175.439 217.36 171.539 208.84C167.579 200.32 163.199 192.04 158.819 183.82C154.439 175.54 149.699 167.5 144.899 159.46L141.299 153.46C140.099 151.46 138.899 149.46 137.699 147.46C135.299 143.44 133.019 139.36 130.679 135.34C128.399 131.26 126.179 127.12 123.899 123.04C121.679 118.96 119.459 114.82 117.119 110.8C114.799 106.72 112.379 102.72 109.859 98.8C107.419 94.84 104.899 90.9 102.299 86.98C97.1393 79.18 91.8593 71.5 86.2193 64.06C86.1593 63.94 86.0393 63.94 85.9793 64C85.8593 64.06 85.8593 64.18 85.9193 64.24Z" fill="#F5D4D4"/>
<path d="M73.7399 405.76C73.7399 405.76 63.7799 396.04 65.6999 378.58C67.6799 361.06 70.6199 361.36 70.3199 348.7C70.0799 336.04 64.0199 336.28 66.7199 323.38C69.3599 310.48 71.0999 308.32 71.0999 308.32C71.0999 308.32 71.3399 318.04 75.9599 323.38C80.5799 328.78 84.2399 330.94 84.9599 339.28C85.6799 347.62 83.5199 350.02 84.7199 357.04C85.9199 364 87.4199 360.82 87.4199 374.26C87.4199 387.7 84.7199 393.64 84.4799 397.66C84.2399 401.68 84.9599 414.88 84.2399 419.44C83.5199 424.06 76.1999 429.4 75.2399 427C74.2199 424.6 75.4799 410.86 73.7399 405.76Z" fill="#549080"/>
<path d="M75.7193 417.28C75.7193 417.28 76.9193 402.76 69.8393 392.56C62.8193 382.3 65.4593 383.68 61.3193 371.32C57.1793 358.9 54.4793 352.72 49.1393 348.94C43.7993 345.16 36.4793 344.38 32.8193 340.36C29.1593 336.28 25.4993 332.8 25.4993 332.8C25.4993 332.8 23.5793 340.36 25.7393 345.16C27.9593 350.02 33.2993 351.64 35.2793 356.5C37.1993 361.36 35.5193 365.62 37.6793 372.34C39.8993 379.12 46.1993 382.84 49.1393 386.92C52.0793 390.94 51.5993 397.96 53.2793 404.14C55.0193 410.32 64.9793 415.96 64.9793 417.04C64.9793 418.12 65.4593 426.46 65.4593 426.46L75.2393 427.24L75.7193 417.28Z" fill="#67AC9F"/>
<path d="M67.6198 431.08C67.6198 431.08 72.2398 419.44 65.0998 412.96C58.0198 406.42 56.2798 411.28 53.9998 400.12C51.7198 389.02 51.1198 384.04 45.8998 380.56C40.7398 377.02 36.4798 377.26 31.7398 373.54C27.0598 369.82 20.9398 365.98 16.4398 366.7C11.8798 367.42 0.299805 373.9 0.299805 373.9C0.299805 373.9 7.0198 372.58 9.89981 378.52C12.7798 384.46 15.6598 387.76 23.6998 387.28C31.7398 386.86 28.3198 401.98 32.7598 405.94C37.1998 409.9 42.8398 410.32 45.7198 413.62C48.5398 416.98 52.0798 419.86 52.3198 423.76C52.4998 427.66 50.9398 429.64 52.3198 430.3C53.6998 430.9 67.6198 431.08 67.6198 431.08Z" fill="#71BDB3"/>
<path d="M75.6598 417.04C75.6598 417.04 72.2398 403.3 78.2998 391.18C84.4198 379.12 89.9998 377.74 92.9398 366.16C95.8798 354.58 99.2998 347.62 108.3 341.98C117.3 336.28 120.72 332.56 120.72 332.56C120.72 332.56 123.9 342.76 120.96 348.94C118.08 355.12 110.76 356.5 110.28 362.68C109.74 368.86 113.64 372.88 108.54 385C103.44 397.12 95.1598 396.58 91.4998 406.54C87.8398 416.5 88.3198 427 87.5998 427.78C86.8798 428.62 77.0998 429.16 76.6198 427.78C76.1398 426.46 75.6598 417.04 75.6598 417.04Z" fill="#71BDB3"/>
<path d="M92.7002 428.74C92.7002 428.74 93.7802 418.24 99.5402 415.54C105.36 412.84 107.76 414.58 111.54 409.42C115.32 404.26 116.88 396.22 122.82 393.52C128.82 390.82 133.02 392.26 137.04 390.34C141 388.36 141.9 384.94 148.14 385.66C154.32 386.44 157.44 390.58 157.68 389.62C157.86 388.6 156.78 378.1 150.12 374.2C143.46 370.24 137.94 373.96 132.84 373.18C127.74 372.46 123.96 368.8 116.88 372.7C109.74 376.6 111.12 383.26 105.12 386.44C99.1202 389.62 90.9002 390.58 87.6002 395.5C84.3002 400.36 80.9402 408.94 80.0402 414.82C79.2002 420.7 79.2002 429.76 79.2002 429.76L92.7002 428.74Z" fill="#67AC9F"/>
<path d="M72.72 430.54L47.04 430.18L54.36 475.48H72.72H91.08L98.34 430.18L72.72 430.54Z" fill="#243355"/>
<path d="M101.34 436.42H44.04V424.66H101.34V436.42Z" fill="#2B4677"/>
<path d="M334.559 70.3601L160.379 70.8401C147.179 70.9001 136.439 81.5801 136.439 94.7201L136.679 458.02C136.679 471.16 147.419 481.78 160.619 481.72L334.799 481.24C347.999 481.24 358.739 470.56 358.739 457.42L358.499 94.1201C358.499 80.9801 347.759 70.3601 334.559 70.3601Z" fill="#152235"/>
<path d="M343.559 70.36L169.439 70.84C156.179 70.84 145.499 81.52 145.499 94.66L145.679 457.96C145.679 471.1 156.419 481.72 169.679 481.72L343.799 481.24C356.999 481.18 367.739 470.5 367.739 457.36L367.499 94.06C367.499 80.92 356.759 70.3 343.559 70.36Z" fill="#2B4066"/>
<path d="M270.239 86.6801L229.799 86.8001C228.119 86.8001 226.739 88.1201 226.739 89.8001C226.739 91.4801 228.119 92.8601 229.799 92.8001L270.239 92.74C271.919 92.74 273.299 91.3601 273.299 89.6801C273.299 88.0001 271.919 86.6801 270.239 86.6801Z" fill="#1D2B43"/>
<path d="M286.259 89.68C286.259 91.54 284.699 93.1 282.779 93.1C280.919 93.1 279.359 91.54 279.359 89.68C279.359 87.76 280.919 86.26 282.779 86.26C284.699 86.26 286.259 87.76 286.259 89.68Z" fill="#1D2B43"/>
<path d="M343.559 82.24L297.119 82.36V93.58C297.119 96.64 294.659 99.1 291.599 99.1L221.399 99.28C218.339 99.28 215.879 96.82 215.879 93.82V82.6L169.439 82.72C159.839 82.72 152.039 90.52 152.039 100L152.219 447.04C152.279 456.58 160.079 464.26 169.619 464.26L343.799 463.78C353.399 463.78 361.199 455.98 361.199 446.5L360.959 99.46C360.959 89.92 353.159 82.24 343.559 82.24Z" fill="#C2D6FF"/>
<path d="M152.22 404.2V447.04C152.28 456.58 160.08 464.26 169.62 464.26L343.8 463.78C353.4 463.78 361.2 455.98 361.2 446.5L361.14 403.6L152.22 404.2Z" fill="#7778F0"/>
<path d="M280.86 433.9C280.86 447.16 270.06 457.96 256.74 457.96C243.36 458.02 232.56 447.28 232.56 434.02C232.5 420.76 243.36 409.96 256.68 409.96C270.06 409.9 280.86 420.64 280.86 433.9Z" fill="white"/>
<path d="M239.939 433.06C242.639 437.74 249.779 442.6 249.779 442.6C249.779 442.6 256.739 447.7 262.139 448.66C267.479 449.68 275.039 444.46 274.619 442.12C274.199 439.78 265.079 436 263.879 436.18C262.619 436.42 260.939 439.54 259.139 439C257.339 438.4 254.219 436.36 254.219 436.36C254.219 436.36 251.279 434.14 250.139 432.64C248.999 431.14 251.459 428.56 251.279 427.3C251.039 426.04 244.379 418.78 242.039 419.14C239.699 419.56 237.239 428.32 239.939 433.06Z" fill="#E56572"/>
<path d="M250.619 146.32C250.619 146.32 216.119 150.46 208.619 177.4C201.179 204.28 207.599 277.06 216.119 285.52C224.699 293.98 281.819 300.28 293.339 288.82C304.859 277.36 309.539 216.82 300.059 185.86C290.519 154.96 273.539 143.44 250.619 146.32Z" fill="#1D2B43"/>
<path d="M272.459 262.36C272.459 251.86 272.879 241.84 272.879 241.84L237.059 241.96C237.059 241.96 237.539 251.98 237.539 262.42C237.539 272.92 224.399 280.36 224.399 280.36C231.839 291.7 254.999 294.22 254.999 294.22C254.999 294.22 278.159 291.58 285.599 280.18C285.599 280.18 272.459 272.8 272.459 262.36Z" fill="#F9D1A0"/>
<g style="mix-blend-mode:multiply" opacity="0.5">
<path d="M237.06 241.96C237.06 241.96 237.54 251.98 237.54 262.42C237.54 263.92 237.3 265.3 236.82 266.62C246.66 267.52 259.08 266.02 272.46 258.16C272.52 249.34 272.88 241.84 272.88 241.84L237.06 241.96Z" fill="#F9D1A0"/>
</g>
<path d="M306.66 195.88C302.76 187.96 297.84 191.8 295.08 195.28C294.96 176.08 288.9 158.92 281.82 152.86C270.18 142.84 253.86 143.8 253.86 143.8C253.86 143.8 237.72 141.7 226.44 150.7C219.72 156.04 213.84 172.06 213.54 190.6C210.96 186.94 206.52 182.8 202.92 189.94C197.64 200.38 207.66 215.38 216.6 214.72C217.8 219.16 219.84 223.48 221.58 227.92C234.48 260.8 253.2 259.18 253.2 259.18C253.2 259.18 270.6 263.44 286.74 234.52C289.08 230.38 290.16 224.26 291.54 219.76C301.2 221.74 312.3 207.52 306.66 195.88Z" fill="#F9D1A0"/>
<g style="mix-blend-mode:multiply">
<path d="M295.08 195.28C294.96 176.08 288.9 158.92 281.82 152.86C270.18 142.84 253.86 143.8 253.86 143.8C253.86 143.8 237.72 141.7 226.44 150.7C225.52 151.42 224.62 152.34 223.74 153.46C224.7 157.66 225.78 160.48 225.78 160.48C225.78 160.48 233.16 186.16 248.16 192.64C263.16 199.06 277.86 203.2 283.56 221.5C285.06 226.24 286.08 230.56 286.8 234.4C289.08 230.32 290.16 224.2 291.54 219.76C301.2 221.74 312.3 207.52 306.66 195.88C302.76 187.96 297.84 191.8 295.08 195.28Z" fill="#E5E5E6"/>
</g>
<path d="M242.1 196.12C242.1 196.12 239.88 192.58 234.78 192.1C229.68 191.62 222.6 198.04 222.9 199.42C223.2 200.8 229.02 193.12 234.9 195.64C240.78 198.16 242.04 198.22 242.1 196.12Z" fill="#1D2B43"/>
<path d="M261.66 195.58C261.66 195.58 263.88 192.04 268.98 191.56C274.08 191.08 281.16 197.5 280.86 198.88C280.56 200.26 274.74 192.58 268.86 195.1C262.98 197.62 261.72 197.68 261.66 195.58Z" fill="#1D2B43"/>
<path d="M252.78 226.42C252.78 226.42 259.68 225.94 260.22 222.7C260.7 219.46 254.28 209.02 254.28 209.02C254.28 209.02 257.52 217.78 256.68 220.78C255.78 223.78 252.78 226.42 252.78 226.42Z" fill="#DA9B57"/>
<path d="M247.98 239.14C247.5 238.06 248.22 236.92 249.36 236.5C252.06 235.54 262.14 234.4 263.28 236.32C264.72 238.78 261.48 242.68 253.86 242.2C250.56 242.02 248.64 240.52 247.98 239.14Z" fill="#C05530"/>
<path d="M249.36 236.5C249.12 236.62 248.9 236.74 248.7 236.86C249.06 237.46 249.6 237.94 250.32 238.06C252.18 238.48 261.24 238.3 262.14 236.98C262.38 236.62 262.56 236.2 262.62 235.84C260.16 234.64 251.82 235.6 249.36 236.5Z" fill="white"/>
<path d="M250.62 241.48C251.52 241.84 252.6 242.14 253.86 242.2C257.4 242.44 259.92 241.72 261.54 240.64C256.92 238.3 252.66 240.22 250.62 241.48Z" fill="#E27C50"/>
<path d="M282.72 274.3C282.72 274.3 278.22 288.1 255 292.12C231.78 288.22 227.28 274.48 227.28 274.48L191.82 284.08L191.88 404.08L255.06 403.9L318.24 403.72L318.18 283.72L282.72 274.3Z" fill="#C5D6FA"/>
<path d="M290.22 276.34C284.46 319.6 255.06 395.08 255.06 395.08C255.06 395.08 225.6 319.78 219.78 276.52L186.42 284.86C186.42 284.86 135.72 313.72 119.94 313.72C104.22 313.78 49.9202 227.5 49.9202 227.5L29.1602 242.5C29.1602 242.5 87.1802 353.92 114.3 353.8C141.42 353.74 186.42 331.72 186.42 331.72L186.48 404.08L255.06 403.9L323.7 403.72L323.58 284.5L290.22 276.34Z" fill="white"/>
<g style="mix-blend-mode:multiply">
<path d="M263.58 352.96C255.06 355.12 202.5 295.9 195.12 282.7L186.42 284.86C186.42 284.86 181.68 287.56 174.66 291.28L176.4 294.46C176.4 294.46 179.88 301.54 185.76 311.74C167.94 318.52 137.94 348.52 114.12 339.52C92.6402 331.42 52.0802 263.38 36.9002 236.92L29.1602 242.5C29.1602 242.5 87.1802 353.92 114.3 353.8C141.42 353.74 186.42 331.72 186.42 331.72L186.48 404.08L227.64 403.96C218.04 399.46 205.74 390.04 203.7 369.1C202.62 357.58 202.74 347.14 202.8 338.38C218.88 361.06 240.06 384.1 260.16 384.04C286.62 383.92 310.62 361.12 323.64 346V315.46C317.04 322.06 291.9 354.7 263.58 352.96Z" fill="#E5E5E6"/>
</g>
<path d="M146.34 147.82L41.0996 148.12C36.9596 148.12 33.5996 151.42 33.5996 155.56L33.7196 307.72C33.7196 311.86 37.0796 315.16 41.1596 315.16L146.4 314.86C150.54 314.86 153.9 311.5 153.9 307.42L153.78 155.2C153.78 151.12 150.42 147.82 146.34 147.82Z" fill="#7778F0"/>
<path d="M143.94 301.6L43.6196 301.9L43.5596 159.82L143.88 159.58L143.94 301.6Z" fill="white"/>
<path d="M106.68 180.76C106.68 187.9 100.86 193.66 93.7203 193.66C86.5803 193.66 80.8203 187.9 80.8203 180.76C80.8203 173.62 86.5803 167.8 93.7203 167.8C100.86 167.8 106.68 173.62 106.68 180.76Z" fill="#C5D6FA"/>
<path d="M93.7203 196.3C81.1203 196.3 70.8604 206.56 70.8604 219.22V232.12H116.64V219.22C116.64 206.56 106.38 196.3 93.7203 196.3Z" fill="#C5D6FA"/>
<path d="M124.86 243.94H62.6396V239.8H124.86V243.94Z" fill="#C5D6FA"/>
<path d="M134.46 254.14H53.04V250H134.46V254.14Z" fill="#C5D6FA"/>
<path d="M134.46 264.34H53.04V260.14H134.46V264.34Z" fill="#C5D6FA"/>
<path d="M134.46 274.54H53.04V270.34H134.46V274.54Z" fill="#C5D6FA"/>
<path d="M68.7004 289.3C68.7004 292.3 66.3004 294.76 63.3004 294.76C60.3004 294.76 57.9004 292.3 57.9004 289.3C57.9004 286.36 60.3004 283.9 63.3004 283.9C66.3004 283.9 68.7004 286.36 68.7004 289.3Z" fill="#C5D6FA"/>
<path d="M89.8205 289.3C89.8205 292.3 87.4205 294.76 84.4205 294.76C81.4205 294.76 79.0205 292.3 79.0205 289.3C79.0205 286.36 81.4205 283.9 84.4205 283.9C87.4205 283.9 89.8205 286.36 89.8205 289.3Z" fill="#C5D6FA"/>
<path d="M110.94 289.3C110.94 292.3 108.48 294.76 105.48 294.76C102.54 294.76 100.08 292.3 100.08 289.3C100.08 286.36 102.54 283.9 105.48 283.9C108.48 283.9 110.94 286.36 110.94 289.3Z" fill="#C5D6FA"/>
<path d="M132 289.3C132 292.3 129.6 294.76 126.6 294.76C123.6 294.76 121.2 292.3 121.2 289.3C121.2 286.36 123.6 283.9 126.6 283.9C129.6 283.9 132 286.36 132 289.3Z" fill="#C5D6FA"/>
<path d="M44.8198 232.6L31.2598 225.76C29.5198 224.92 27.4198 225.58 26.5198 227.32C25.6798 229.06 26.3398 231.16 28.0798 232L41.6398 238.84C43.3798 239.74 45.4798 239.02 46.3798 237.28C47.2798 235.6 46.5598 233.5 44.8198 232.6Z" fill="#F9D1A0"/>
<path d="M45.5402 224.44L30.7802 217C28.9202 216.04 26.6402 216.82 25.6802 218.68C24.7202 220.54 25.4402 222.82 27.3602 223.78L42.1202 231.22C43.9802 232.12 46.2602 231.4 47.2202 229.54C48.1802 227.68 47.4602 225.4 45.5402 224.44Z" fill="#F9D1A0"/>
<path d="M45.5399 215.98L30.7799 208.54C28.9199 207.58 26.5799 208.3 25.6799 210.22C24.7199 212.08 25.4399 214.36 27.2999 215.26L42.1199 222.7C43.9799 223.66 46.2599 222.94 47.2199 221.02C48.1799 219.16 47.4599 216.88 45.5399 215.98Z" fill="#F9D1A0"/>
<path d="M46.7403 208.72L33.1203 201.88C31.4403 200.98 29.2803 201.7 28.4403 203.38C27.5403 205.12 28.2603 207.22 29.9403 208.06L43.5603 214.9C45.2403 215.8 47.4003 215.08 48.2403 213.4C49.1403 211.66 48.4203 209.56 46.7403 208.72Z" fill="#F9D1A0"/>
<path d="M233.22 166.3C233.22 166.3 235.5 183.04 254.16 188.86C272.82 194.68 284.94 190.54 284.94 197.56C284.94 204.58 295.62 225.1 289.68 241.12C283.8 257.08 271.98 272.02 279.24 286.96C282 292.6 289.32 293.56 294.78 291.04C297.96 289.66 300.54 287.08 303.72 285.76C309.12 283.54 317.82 282.7 320.4 276.82C323.04 270.82 321.72 262.66 321.54 256.3C321.24 246.34 320.04 236.44 318.48 226.6C315.48 207.58 311.1 188.56 305.16 170.2C296.04 142.18 281.88 132.7 260.94 129.58C240 126.46 228.24 145.06 228.24 145.06C228.24 145.06 217.74 142.84 209.1 162.28C200.46 181.78 200.88 204.82 200.88 216.16C200.94 225.04 201.9 233.98 202.56 242.86C203.22 252.04 201.48 262.12 204 271.06C205.44 276.22 208.86 281.14 213.96 283.06C216.06 283.84 218.4 284.08 220.68 284.2C222.84 284.26 225.06 284.2 227.04 283.24C232.2 280.72 235.08 271.12 234.48 265.72C233.46 257.38 229.62 248.74 225.96 241.24C215.46 219.7 219.12 206.14 224.58 194.8C230.04 183.52 225 178.06 233.22 166.3Z" fill="#243355"/>
<path d="M198.18 266.98C198.18 266.98 188.4 244 183.18 238.84C178.92 234.64 156.84 215.74 148.62 208.9C145.98 206.68 144.48 206.68 143.16 208.42C142.08 209.92 143.16 213.46 144.48 214.78L164.88 234.82C164.88 234.82 159.78 242.68 158.52 249.22C157.26 255.82 164.4 267.04 166.92 267.04C169.44 267.04 170.22 263.62 170.22 263.62C170.22 263.62 173.16 268.78 178.86 271.18C184.56 273.58 186.24 276.64 186.24 276.64L198.18 266.98Z" fill="#F9D1A0"/>
<path d="M323.579 284.5C323.579 284.5 340.619 299.08 340.199 315.22C339.419 345.16 277.919 374.56 253.559 368.32C229.199 362.14 179.939 276.64 179.939 276.64L199.559 263.56C199.559 263.56 244.559 330.28 263.939 330.22C283.319 330.16 299.399 293.74 323.579 284.5Z" fill="white"/>
<path d="M321.54 256.3C321.24 246.34 320.04 236.44 318.48 226.6C315.48 207.58 311.1 188.56 305.16 170.2C296.04 142.18 281.88 132.7 260.94 129.58C240 126.46 228.24 145.06 228.24 145.06C228.24 145.06 254.34 121.3 280.38 143.8C298.14 159.22 308.82 194.5 308.82 215.98C308.82 237.52 301.74 256.06 305.16 266.86C307.08 273.04 312.66 278.38 318.78 279.22C319.44 278.5 319.98 277.72 320.4 276.82C323.04 270.82 321.72 262.66 321.54 256.3Z" fill="#314973"/>
<path d="M272.279 208.9C272.279 210.76 270.779 212.32 268.859 212.32C266.999 212.32 265.439 210.76 265.439 208.9C265.439 206.98 266.999 205.48 268.859 205.48C270.779 205.48 272.279 206.98 272.279 208.9Z" fill="#1D2B43"/>
<path d="M238.08 208.9C238.08 210.76 236.52 212.32 234.66 212.32C232.74 212.32 231.24 210.76 231.24 208.9C231.24 206.98 232.74 205.48 234.66 205.48C236.52 205.48 238.08 206.98 238.08 208.9Z" fill="#1D2B43"/>
<path fill-rule="evenodd" clip-rule="evenodd" d="M287.76 207.7C287.82 215.86 281.22 222.58 273.06 222.64C265.08 222.7 258.48 216.34 258.18 208.42C255 206.5 252.24 207.88 251.34 208.42C251.16 216.4 244.68 222.82 236.64 222.88C228.48 222.94 221.82 216.34 221.76 208.18C221.7 200.02 228.3 193.3 236.46 193.24C244.14 193.18 250.56 199.06 251.28 206.56C252.78 205.9 255.36 205.18 258.24 206.56C258.84 199 265.2 193.06 272.88 193C281.04 192.94 287.76 199.54 287.76 207.7ZM249.72 207.94C249.66 200.74 243.72 194.86 236.46 194.92C229.2 194.98 223.38 200.92 223.38 208.12C223.44 215.38 229.38 221.26 236.64 221.2C243.9 221.14 249.78 215.2 249.72 207.94ZM286.14 207.7C286.08 200.44 280.14 194.62 272.88 194.68C265.62 194.68 259.8 200.62 259.8 207.88C259.86 215.14 265.8 221.02 273.06 220.96C280.32 220.9 286.2 214.96 286.14 207.7Z" fill="#1D2B43"/>
<g opacity="0.4">
<path d="M236.46 194.92C229.2 194.98 223.38 200.92 223.38 208.12C223.44 215.38 229.38 221.26 236.64 221.2C243.9 221.14 249.78 215.2 249.72 207.94C249.66 200.74 243.72 194.86 236.46 194.92Z" fill="white"/>
</g>
<g opacity="0.4">
<path d="M235.38 194.98C233.46 195.16 231.72 195.7 230.1 196.6L244.8 218.32C245.94 217.36 246.9 216.28 247.68 215.02C244.14 209.14 239.22 201.1 235.38 194.98Z" fill="white"/>
<path d="M238.26 221.08C239.64 220.9 240.9 220.54 242.1 219.94L226.98 199.06C225.84 200.26 224.94 201.64 224.34 203.2L238.26 221.08Z" fill="white"/>
</g>
<g opacity="0.4">
<path d="M286.14 207.7C286.08 200.44 280.14 194.62 272.88 194.68C265.62 194.68 259.8 200.62 259.8 207.88C259.86 215.14 265.8 221.02 273.06 220.96C280.32 220.9 286.2 214.96 286.14 207.7Z" fill="white"/>
</g>
<g opacity="0.4">
<path d="M271.74 194.74C269.76 194.92 267.96 195.52 266.34 196.48L281.04 218.2C282.24 217.24 283.26 216.1 284.1 214.78C280.08 208.18 275.04 200.08 271.74 194.74Z" fill="white"/>
<path d="M274.14 220.9C275.58 220.78 276.96 220.42 278.22 219.88L263.16 199.06C262.02 200.32 261.12 201.82 260.58 203.5L274.14 220.9Z" fill="white"/>
</g>
<path d="M194.639 413.98H189.179V407.26C189.179 406.42 188.519 405.82 187.739 405.82H153.179C152.399 405.82 151.739 406.42 151.739 407.26V413.98H146.279V407.26C146.279 403.42 149.399 400.36 153.179 400.36H187.739C191.519 400.36 194.639 403.42 194.639 407.26V413.98Z" fill="#243355"/>
<path d="M226.38 412.78H114.54C109.38 412.78 105.18 416.98 105.18 422.14V491.62C105.18 496.78 109.38 500.92 114.54 500.92H226.38C231.54 500.92 235.68 496.78 235.68 491.62V422.14C235.68 416.98 231.54 412.78 226.38 412.78Z" fill="#CE3D47"/>
<g style="mix-blend-mode:multiply" opacity="0.5">
<path d="M169.2 483.4C143.16 483.4 122.1 462.28 122.1 436.24V412.78H114.54C109.38 412.78 105.18 416.98 105.18 422.14V491.62C105.18 496.78 109.38 500.92 114.54 500.92H226.38C231.54 500.92 235.68 496.78 235.68 491.62V483.4H169.2Z" fill="#CE3D47"/>
</g>
<path d="M235.68 439.36V422.14C235.68 416.98 231.54 412.78 226.38 412.78H114.54C109.38 412.78 105.18 416.98 105.18 422.14V439.36H235.68Z" fill="#E56572"/>
<g style="mix-blend-mode:multiply" opacity="0.5">
<path d="M133.56 427.24C124.98 427.24 117.9 421 116.58 412.78H114.54C109.38 412.78 105.18 416.98 105.18 422.14V439.36H235.68V427.24H133.56Z" fill="#E56572"/>
</g>
<path d="M236.939 434.8H103.979C102.059 434.8 100.439 436.36 100.439 438.28C100.439 440.2 102.059 441.82 103.979 441.82H236.939C238.859 441.82 240.419 440.2 240.419 438.28C240.419 436.36 238.859 434.8 236.939 434.8Z" fill="white"/>
<path d="M188.82 461.56H176.58V449.32H164.34V461.56H152.1V473.8H164.34V486.04H176.58V473.8H188.82V461.56Z" fill="white"/>
<path d="M441.36 25.48H306.66C302.28 25.48 298.68 29.08 298.68 33.52V101.44C298.68 105.88 302.28 109.48 306.66 109.48H315.96L286.74 130.3L343.68 109.48H441.36C445.74 109.48 449.34 105.88 449.34 101.44V33.52C449.34 29.08 445.74 25.48 441.36 25.48Z" fill="white"/>
<path d="M383.52 75.76C383.52 81.04 379.26 85.3 373.98 85.3C368.76 85.3 364.5 81.04 364.5 75.76C364.5 70.54 368.76 66.22 373.98 66.22C379.26 66.22 383.52 70.54 383.52 75.76Z" fill="#C5D6FA"/>
<path d="M425.101 75.76C425.101 81.04 420.84 85.3 415.56 85.3C410.28 85.3 406.021 81.04 406.021 75.76C406.021 70.54 410.28 66.22 415.56 66.22C420.84 66.22 425.101 70.54 425.101 75.76Z" fill="#C5D6FA"/>
<path d="M322.92 75.76C322.92 81.04 327.18 85.3 332.46 85.3C337.68 85.3 342 81.04 342 75.76C342 70.54 337.68 66.22 332.46 66.22C327.18 66.22 322.92 70.54 322.92 75.76Z" fill="#C5D6FA"/>
<path d="M172.2 31.84H159.96V19.6H147.78V31.84H135.54V44.08H147.78V56.32H159.96V44.08H172.2V31.84Z" fill="#7778F0"/>
<path d="M494.76 123.1H482.52V110.86H470.28V123.1H458.04V135.34H470.28V147.58H482.52V135.34H494.76V123.1Z" fill="#CE3D47"/>
<path d="M270.42 28.06C270.42 43.6 257.76 56.2 242.1 56.26C226.5 56.26 213.84 43.72 213.84 28.18C213.84 12.7 226.5 0.0400093 242.1 0.0400093C257.7 -0.0199907 270.42 12.52 270.42 28.06Z" fill="#FCA351"/>
<path opacity="0.9" d="M224.76 27.16C227.58 32.02 234.96 37.06 234.96 37.06C234.96 37.06 242.16 42.34 247.74 43.36C253.26 44.38 261.06 38.9799 260.64 36.58C260.28 34.18 250.8 30.2199 249.54 30.4C248.22 30.6399 246.48 33.8799 244.62 33.3399C242.76 32.7399 239.58 30.6399 239.58 30.6399C239.58 30.6399 236.52 28.3 235.32 26.74C234.18 25.24 236.7 22.5399 236.46 21.2199C236.22 19.9599 229.38 12.3999 226.98 12.8199C224.52 13.2399 221.94 22.3 224.76 27.16Z" fill="white"/>
<path fill-rule="evenodd" clip-rule="evenodd" d="M478.68 254.2C472.08 254.2 466.74 248.8 466.74 242.26C466.74 235.66 472.08 230.32 478.68 230.32C485.22 230.32 490.56 235.66 490.56 242.26C490.56 248.8 485.22 254.2 478.68 254.2ZM478.68 233.74C474 233.74 470.16 237.58 470.16 242.26C470.16 246.94 474 250.78 478.68 250.78C483.36 250.78 487.14 246.94 487.14 242.26C487.14 237.58 483.36 233.74 478.68 233.74Z" fill="white"/>
<path fill-rule="evenodd" clip-rule="evenodd" d="M478.68 78.16C472.08 78.16 466.74 72.82 466.74 66.22C466.74 59.68 472.08 54.34 478.68 54.34C485.22 54.34 490.56 59.68 490.56 66.22C490.56 72.82 485.22 78.16 478.68 78.16ZM478.68 57.76C474 57.76 470.16 61.54 470.16 66.22C470.16 70.96 474 74.74 478.68 74.74C483.36 74.74 487.14 70.96 487.14 66.22C487.14 61.54 483.36 57.76 478.68 57.76Z" fill="#7778F0"/>
<path fill-rule="evenodd" clip-rule="evenodd" d="M16.0196 319.84C11.6396 319.84 8.09961 316.3 8.09961 311.92C8.09961 307.54 11.6396 304 16.0196 304C20.3996 304 23.9396 307.54 23.9396 311.92C23.9396 316.3 20.3996 319.84 16.0196 319.84ZM16.0196 306.28C12.8996 306.28 10.3796 308.8 10.3796 311.92C10.3796 315.04 12.8996 317.56 16.0196 317.56C19.1396 317.56 21.6596 315.04 21.6596 311.92C21.6596 308.8 19.1396 306.28 16.0196 306.28Z" fill="white"/>
<path fill-rule="evenodd" clip-rule="evenodd" d="M54.7798 125.08C48.1798 125.08 42.8398 119.74 42.8398 113.14C42.8398 106.6 48.1798 101.26 54.7798 101.26C61.3198 101.26 66.7198 106.6 66.7198 113.14C66.7198 119.74 61.3198 125.08 54.7798 125.08ZM54.7798 104.68C50.0998 104.68 46.2598 108.46 46.2598 113.14C46.2598 117.82 50.0998 121.66 54.7798 121.66C59.4598 121.66 63.2398 117.82 63.2398 113.14C63.2398 108.46 59.4598 104.68 54.7798 104.68Z" fill="white"/>
<path d="M488.1 423.58C488.1 423.58 481.08 394.54 464.16 384.1C447.24 373.72 441.9 403.48 481.08 422.62L488.1 423.58Z" fill="#549080"/>
<path d="M478.439 425.5C478.439 425.5 487.859 384.94 510.599 370.42C533.339 355.84 540.479 397.42 487.859 424.18L478.439 425.5Z" fill="#549080"/>
<path d="M492.78 426.04C492.78 426.04 535.86 404.74 529.08 389.02C522.36 373.24 505.86 384.64 498.84 396.76C491.82 408.82 485.52 426.04 485.52 426.04H492.78Z" fill="#67AC9F"/>
<path d="M491.52 421.12C491.52 421.12 493.2 368.38 477 361.84C460.74 355.3 460.74 375.16 467.04 392.32C473.34 409.54 483.54 422.62 483.54 422.62L491.52 421.12Z" fill="#67AC9F"/>
<path d="M489.24 420.4C489 416.08 481.98 371.56 494.76 362.08C507.6 352.66 514.62 367.42 513.18 381.22C511.74 395.02 496.98 423.58 496.98 423.58L489.24 420.4Z" fill="#71BDB3"/>
<path d="M489.36 422.44L457.26 422.02L466.38 478.66H489.36H512.34L521.46 422.02L489.36 422.44Z" fill="#243355"/>
<path d="M525.24 429.82H453.479V415.12H525.24V429.82Z" fill="#2B4677"/>
<path d="M398.82 179.2C398.82 179.2 392.88 186.16 394.62 194.92C396.42 203.68 398.34 208.36 395.22 211.54C392.16 214.78 385.98 225.52 394.5 227.86C403.02 230.26 413.16 230.98 419.28 219.34C425.4 207.7 428.64 185.2 423.48 177.64C418.32 170.08 410.58 168.82 405.66 171.16C400.74 173.5 398.82 179.2 398.82 179.2Z" fill="#1D2B43"/>
<path d="M441.66 466.78C441.66 466.78 443.58 478.78 439.92 482.92C436.32 487.06 429 486.58 429.66 479.62C430.26 472.6 432.36 466.6 432.36 466.6L441.66 466.78Z" fill="#F9D1A0"/>
<path d="M440.94 467.26C440.94 467.26 441.84 475.9 441 477.82C440.16 479.74 431.76 480.58 431.1 478.3C430.5 476.02 432.66 467.26 432.66 467.26L431.7 467.02C431.7 467.02 430.26 472.66 429.72 475.9C429.18 479.14 427.62 487.66 431.7 490.48C435.78 493.3 441.84 485.08 442.74 479.62C443.64 474.22 442.02 466.3 442.02 466.3L440.94 467.26Z" fill="#251F71"/>
<path d="M415.5 466.9C415.5 466.9 417.24 474.52 416.46 476.92C415.68 479.26 390.3 481.84 391.44 478.36C392.52 474.82 403.62 472.3 405.06 470.26C406.5 468.16 406.32 466.6 406.32 466.6L415.5 466.9Z" fill="#F9D1A0"/>
<path d="M416.939 473.44C416.939 473.44 408.659 477.76 402.719 477.1C396.779 476.44 398.399 473.44 397.319 473.56C396.239 473.74 385.019 477.88 386.279 480.04C387.479 482.26 416.219 481.84 417.719 479.26C419.219 476.68 416.939 473.44 416.939 473.44Z" fill="#251F71"/>
<path d="M394.68 250.24C394.68 250.24 393.48 256.36 391.62 263.56C389.7 270.7 380.04 301.18 376.74 310C373.38 318.88 375.9 335.5 378.66 332.74C381.42 329.98 380.76 316 382.26 317.5C383.76 319 381.84 323.92 384.3 324.7C386.76 325.54 385.74 317.2 385.44 314.44C385.14 311.68 383.64 311.2 384.3 307.3C384.96 303.4 399.6 279.58 402.54 271.12C405.48 262.66 406.14 251.38 406.14 251.38L394.68 250.24Z" fill="#F9D1A0"/>
<g style="mix-blend-mode:multiply" opacity="0.5">
<path d="M402.539 271.12C405.479 262.66 406.139 251.38 406.139 251.38L394.679 250.24C394.679 250.24 393.959 254.14 392.699 259.3C393.839 260.32 395.279 262.36 395.099 266.44C394.859 273.22 384.959 298 381.419 305.02C377.879 312.1 378.419 320.44 377.879 323.68C377.639 325.42 376.559 326.56 375.659 327.7C376.319 331.54 377.459 333.88 378.659 332.74C381.419 329.98 380.759 316 382.259 317.5C383.759 319 381.839 323.92 384.299 324.7C386.759 325.54 385.739 317.2 385.439 314.44C385.139 311.68 383.639 311.2 384.299 307.3C384.959 303.4 399.599 279.58 402.539 271.12Z" fill="#F9D1A0"/>
</g>
<path d="M400.86 218.26C400.86 218.26 391.32 256.24 391.98 256.66C394.62 258.22 403.2 259.72 406.14 256.72C409.14 253.78 414.36 227.74 413.22 222.7C412.08 217.72 406.98 215.44 400.86 218.26Z" fill="#BB303F"/>
<path d="M446.999 297.1C446.999 297.1 432.119 307.24 397.979 301.96C397.979 301.96 388.499 321.94 391.559 391C392.519 412 405.179 467.74 405.179 467.74H417.359C417.359 467.74 418.379 427.3 416.219 398.74C414.419 375.28 422.04 349.54 422.04 349.54C422.04 349.54 422.52 393.22 424.439 406.24C426.36 419.2 430.679 467.74 430.679 467.74H442.679C442.679 467.74 446.999 431.38 446.999 410.68C446.999 390.04 458.579 333.7 446.999 297.1Z" fill="#7778F0"/>
<g style="mix-blend-mode:multiply" opacity="0.5">
<path d="M412.92 361C409.38 371.26 408.3 392.2 409.02 405.4C409.56 415.9 411.78 446.86 412.62 467.74H417.36C417.36 467.74 418.38 427.3 416.22 398.74C414.42 375.28 422.04 349.54 422.04 349.54C422.04 349.54 416.46 350.68 412.92 361Z" fill="#7778F0"/>
</g>
<g style="mix-blend-mode:multiply" opacity="0.5">
<path d="M447 297.1C447 297.1 432.12 307.24 397.98 301.96C397.98 301.96 396.72 305.38 395.22 313.12C402.12 314.86 418.38 318.76 429.6 320.08C444.18 321.88 442.44 367.72 439.2 391.18C436.44 411.58 438.48 451.84 439.08 467.74H442.68C442.68 467.74 447 431.38 447 410.68C447 390.04 458.58 333.7 447 297.1Z" fill="#7778F0"/>
</g>
<path d="M436.379 217.36C431.879 213.64 425.999 211.96 420.179 212.62C413.219 213.4 403.799 215.08 400.859 218.26C395.999 223.6 392.099 237.4 394.499 245.08C396.899 252.82 401.999 258.64 400.619 272.62C399.239 286.6 395.519 305.98 394.379 307.24C393.239 308.44 400.799 313.36 419.759 312.52C438.779 311.62 451.619 310.06 451.499 308.02C451.379 305.98 441.779 289.06 441.119 274.18C440.459 259.24 448.139 241.9 445.559 230.5C444.359 225.04 440.279 220.54 436.379 217.36Z" fill="#CE3D47"/>
<path d="M451.5 308.02C451.38 305.98 441.78 289.06 441.12 274.18C440.46 259.24 448.14 241.9 445.56 230.5C445.2 228.88 444.6 227.38 443.82 225.94C438.36 224.68 432.06 223.54 432.06 223.54C432.06 223.54 427.02 228.82 427.8 237.1C428.64 245.38 430.74 256 423.54 262.18C416.34 268.3 427.56 275.74 421.98 278.44C416.76 280.9 401.88 284.74 398.94 285.52C398.64 287.68 398.28 289.84 397.92 291.88C401.16 292.18 410.64 288.52 416.88 286.42C424.08 284.02 433.44 285.88 435.54 291.22C437.28 295.48 432.06 306.04 430.26 311.92C443.34 310.96 451.56 309.64 451.5 308.02Z" fill="#BB303F"/>
<path d="M448.86 250.66C448.86 250.66 454.02 268 451.32 274.24C448.68 280.48 426.12 287.62 408.36 290.14C408.36 290.14 401.88 294.04 397.08 294.46C392.28 294.88 383.46 292.66 383.52 290.5C383.58 288.34 386.46 288.88 390.54 288.28C394.56 287.74 396.72 288.28 399.3 285.7C401.52 283.48 393.3 284.44 394.8 281.98C396.3 279.52 401.94 283.06 406.8 283.24C411.66 283.42 438.42 269.74 439.56 267.4C440.7 265.06 437.16 253 437.16 253L448.86 250.66Z" fill="#F9D1A0"/>
<g style="mix-blend-mode:multiply" opacity="0.5">
<path d="M451.32 274.24C454.02 268 448.86 250.66 448.86 250.66L444.18 251.56C444.72 254.32 445.44 257.02 445.44 257.02C445.44 257.02 449.76 268.9 447.42 274.36C445.08 279.88 411.42 285.58 408.06 287.8C404.64 290.02 401.52 293.14 395.4 293.14C391.74 293.14 386.94 291.64 383.52 290.5C383.46 292.66 392.28 294.88 397.08 294.46C401.88 294.04 408.36 290.14 408.36 290.14C426.12 287.62 448.68 280.48 451.32 274.24Z" fill="#F9D1A0"/>
</g>
<path d="M435.419 216.34C435.419 216.34 429.599 214.6 427.979 220.6C426.419 226.6 437.759 260.62 437.759 260.62C437.759 260.62 445.139 263.44 451.499 256.66C451.499 256.66 445.739 228.58 443.399 224.08C440.999 219.64 439.019 217.54 435.419 216.34Z" fill="#CE3D47"/>
<path d="M419.159 200.26C419.159 200.26 420.659 208.66 423.359 213.28C424.559 215.26 412.439 231.04 406.199 227.5C399.959 223.96 410.639 217.3 410.519 214.66C410.399 211.96 407.219 202.84 407.219 202.84L419.159 200.26Z" fill="#F9D1A0"/>
<g style="mix-blend-mode:multiply" opacity="0.5">
<path d="M420.36 205.36C419.58 202.54 419.16 200.26 419.16 200.26L407.22 202.84C407.22 202.84 410.4 211.96 410.52 214.66C410.52 215.08 410.22 215.62 409.8 216.28C414.48 213.88 417.9 209.62 420.36 205.36Z" fill="#F9D1A0"/>
</g>
<path d="M429.899 194.08C429.899 194.08 426.059 206.62 412.199 209.56C403.439 211.42 397.079 198.4 396.479 189.16C395.939 179.86 400.199 172.9 407.579 168.46C414.959 164.02 428.759 167.2 430.919 176.38C433.079 185.5 429.899 194.08 429.899 194.08Z" fill="#F9D1A0"/>
<path d="M400.8 193.9C400.68 194.5 400.08 194.86 399.48 194.74C398.88 194.56 398.52 193.96 398.64 193.36C398.76 192.76 399.36 192.4 399.96 192.52C400.56 192.7 400.98 193.3 400.8 193.9Z" fill="#1D2B43"/>
<path d="M409.98 193.3C409.86 193.9 409.26 194.26 408.66 194.14C408.06 193.96 407.7 193.36 407.82 192.76C407.94 192.16 408.54 191.8 409.14 191.92C409.74 192.1 410.16 192.7 409.98 193.3Z" fill="#1D2B43"/>
<path d="M406.08 190.18C406.08 190.18 407.22 188.2 409.62 188.74C412.02 189.34 412.32 190.78 412.2 190.72C412.14 190.72 410.7 189.1 409.14 189.28C407.64 189.46 406.86 190.42 406.44 190.48C406.02 190.48 406.08 190.18 406.08 190.18Z" fill="#1D2B43"/>
<path d="M401.94 190.9C401.94 190.9 400.56 189.04 398.22 189.82C395.88 190.66 395.76 192.1 395.88 192.1C396 192.04 397.26 190.3 398.76 190.36C400.32 190.36 401.16 191.26 401.58 191.2C402 191.2 401.94 190.9 401.94 190.9Z" fill="#1D2B43"/>
<path d="M404.64 202.48C404.64 202.48 410.1 201.34 410.22 201.88C410.4 202.42 408.66 204.28 406.92 203.98C405.18 203.68 404.64 202.48 404.64 202.48Z" fill="#C05530"/>
<path d="M410.219 201.88C410.099 201.46 406.679 202.12 405.239 202.36C405.359 202.54 405.659 202.72 406.139 202.78C406.979 202.9 409.259 202.36 410.219 202C410.219 201.94 410.219 201.88 410.219 201.88Z" fill="white"/>
<path d="M403.32 193.18C403.32 193.18 401.94 198.64 402.06 199.24C402.18 199.84 405 199.9 405 199.9C405 199.9 403.38 199.42 403.26 197.08C403.14 194.74 403.32 193.18 403.32 193.18Z" fill="#DA9B57"/>
<path d="M397.08 186.16C397.86 184.6 398.52 182.92 399.54 181.48C400.5 180.1 402.06 179.68 402.84 178.24C402.66 180.22 403.92 182.14 405.6 183.28C407.22 184.42 409.14 185.02 411.06 185.68C412.92 186.34 414.84 187.18 416.16 188.68C418.44 191.2 418.5 195.04 418.2 198.46C417.9 201.88 417.42 205.54 419.04 208.54C420.18 210.7 422.16 212.14 424.26 213.22C426.18 214.18 429.36 214.54 430.56 216.46C431.64 218.08 431.34 220.48 431.52 222.28C431.7 224.5 432.96 226.6 434.64 228.04C436.32 229.54 438.42 230.44 440.58 230.92C442.74 231.4 445.2 231.4 446.88 229.96C448.44 228.64 448.92 226.42 448.86 224.32C448.68 218.14 444.9 212.62 440.88 207.82C439.38 206.08 437.76 204.28 437.1 202C436.2 198.76 437.58 195.34 437.52 191.98C437.52 189.4 436.68 185.74 435.18 183.64C433.5 181.36 432.72 179.98 432.36 177.04C432.06 174.88 431.4 172.78 430.14 170.92C427.44 166.9 423.18 163.84 418.5 162.64C415.14 161.74 411.6 161.56 408.18 162.28C403.14 163.3 399.78 168.94 396.48 172.54C395.88 173.26 395.22 173.92 394.68 174.7C392.7 177.76 392.1 181.54 393.18 185.02C393.78 186.94 394.32 189.22 393.06 190.84C394.92 189.82 396.06 188.02 397.08 186.16Z" fill="#243355"/>
</svg>
