<svg width="600" height="537" viewBox="0 0 600 537" fill="none" xmlns="http://www.w3.org/2000/svg">
<g clip-path="url(#clip0_58_2313)">
<path d="M219.388 5.34915C322.217 -19.7623 351.201 58.7641 423.447 100.9C495.801 143.036 512.637 148.889 515.514 212.838C518.391 276.893 516.473 305.729 543.432 365.315C570.391 425.008 561.334 446.927 538.424 474.805C515.514 502.683 426.111 538.116 316.783 536.413C207.347 534.817 109.846 528.859 52.9439 482.573C13.1976 450.119 -6.51566 390.107 10.0009 320.732C26.624 251.25 102.494 203.048 114.215 140.27C126.043 77.5977 148.633 22.6931 219.388 5.34915Z" fill="#3EBAFF"/>
<path d="M97.8056 431.073C97.8056 431.073 89.494 408.196 86.0841 388.298C82.7808 368.294 86.0841 356.909 81.8218 341.48C77.4529 326.158 71.3791 322.54 70.3135 304.239C93.9694 313.283 100.576 322.327 105.478 334.351C110.379 346.375 111.445 362.974 116.773 373.082C122.101 383.297 132.437 410.005 133.716 411.069C135.101 412.239 123.806 440.543 123.806 440.543L97.8056 431.073Z" fill="#3D571A"/>
<path d="M74.6826 309.027C89.3877 320.837 92.4779 335.521 94.6091 355.525C96.7402 375.529 97.273 385.638 102.068 397.342C106.863 409.153 114.216 426.178 114.216 426.178" stroke="#263610" stroke-width="1.1" stroke-miterlimit="10"/>
<path d="M511.252 396.704C501.556 401.386 501.875 414.154 497.08 423.837C492.392 433.626 481.842 438.734 475.236 445.863C468.736 452.992 464.686 464.377 463.408 473.315C463.301 474.167 463.408 474.486 463.408 474.486L509.441 478.742C509.441 478.742 511.039 460.121 522.015 453.631C533.097 447.14 537.999 443.416 540.236 433.414C542.474 423.518 540.023 407.132 548.122 401.705C548.122 401.705 533.31 386.064 511.252 396.704Z" fill="#567A25"/>
<path d="M535.761 397.342C520.63 403.194 525.319 415.218 522.868 427.029C520.417 438.946 500.277 439.266 492.072 455.013" stroke="#3D571A" stroke-width="1.1" stroke-miterlimit="10"/>
<path d="M88.7481 396.704C98.4449 401.386 98.1252 414.154 102.814 423.837C107.609 433.626 118.158 438.734 124.658 445.863C131.265 452.992 135.208 464.377 136.593 473.315C136.699 474.167 136.593 474.486 136.593 474.486L90.4531 478.742C90.4531 478.742 88.9612 460.121 77.9857 453.631C66.9036 447.14 62.0019 443.416 59.7642 433.414C57.5265 423.518 59.9773 407.132 51.8789 401.705C51.8789 401.705 66.584 386.064 88.7481 396.704Z" fill="#567A25"/>
<path d="M64.2393 397.342C79.3706 403.194 74.5754 415.218 77.0263 427.029C79.4771 438.946 99.6167 439.266 107.928 455.013" stroke="#3D571A" stroke-width="1.1" stroke-miterlimit="10"/>
<path d="M414.07 211.986H334.684V202.622H414.07V211.986Z" stroke="#73B0EB" stroke-width="0.9" stroke-miterlimit="10"/>
<path d="M414.07 228.798H334.684V219.434H414.07V228.798Z" stroke="#73B0EB" stroke-width="0.9" stroke-miterlimit="10"/>
<path d="M414.07 245.61H334.684V236.246H414.07V245.61Z" stroke="#73B0EB" stroke-width="0.9" stroke-miterlimit="10"/>
<path d="M414.07 262.421H334.684V253.058H414.07V262.421Z" stroke="#73B0EB" stroke-width="0.9" stroke-miterlimit="10"/>
<path d="M165.682 199.111C159.289 199.111 154.174 193.897 154.174 187.619V114.626C154.174 108.348 159.289 103.134 165.682 103.134C172.076 103.134 177.19 108.348 177.19 114.626V187.619C177.19 193.897 172.076 199.111 165.682 199.111Z" stroke="#73B0EB" stroke-width="0.9" stroke-miterlimit="10"/>
<path d="M451.791 330.095C445.398 330.095 440.283 324.881 440.283 318.497V245.61C440.283 239.225 445.398 234.118 451.791 234.118C458.185 234.118 463.3 239.225 463.3 245.61V318.497C463.3 324.881 458.185 330.095 451.791 330.095Z" stroke="#73B0EB" stroke-width="0.9" stroke-miterlimit="10"/>
<path d="M234.838 252.739C234.838 256.144 232.068 258.91 228.551 258.91C225.142 258.91 222.371 256.144 222.371 252.739C222.371 249.334 225.142 246.567 228.551 246.567C232.068 246.567 234.838 249.334 234.838 252.739Z" stroke="#73B0EB" stroke-width="0.9" stroke-miterlimit="10"/>
<path d="M37.5991 367.549C37.5991 370.954 34.8285 373.72 31.4187 373.72C28.0088 373.72 25.2383 370.954 25.2383 367.549C25.2383 364.144 28.0088 361.378 31.4187 361.378C34.8285 361.378 37.5991 364.144 37.5991 367.549Z" stroke="#73B0EB" stroke-width="0.9" stroke-miterlimit="10"/>
<path d="M64.5581 367.549C64.5581 370.954 61.7875 373.72 58.3777 373.72C54.9678 373.72 52.1973 370.954 52.1973 367.549C52.1973 364.144 54.9678 361.378 58.3777 361.378C61.7875 361.378 64.5581 364.144 64.5581 367.549Z" stroke="#73B0EB" stroke-width="0.9" stroke-miterlimit="10"/>
<g opacity="0.1">
<path d="M186.568 346.907H48.8945C39.1977 346.907 31.4189 339.033 31.4189 329.351V191.876C31.4189 182.3 39.1977 174.426 48.8945 174.426H186.568C196.265 174.426 204.15 182.3 204.15 191.876V329.351C204.15 339.033 196.265 346.907 186.568 346.907Z" fill="black"/>
</g>
<path d="M183.585 339.778H34.9356C28.329 339.778 22.8945 334.458 22.8945 327.755V179.427C22.8945 172.724 28.329 167.403 34.9356 167.403H183.585C190.298 167.403 195.626 172.724 195.626 179.427V327.755C195.626 334.458 190.298 339.778 183.585 339.778Z" fill="#FFC300"/>
<path d="M90.4519 182.938L34.9349 283.81C32.9103 287.64 40.1563 295.514 51.1318 301.473C62.1073 307.538 72.6566 309.347 74.6812 305.622L130.198 204.751L90.4519 182.938Z" fill="white"/>
<path d="M55.2869 280.617L56.5656 278.17L65.8362 288.172L64.3443 290.832L50.918 288.491L52.3032 286.044L60.1885 287.64C60.6148 287.711 61.1476 287.817 61.7869 287.959C62.3552 288.172 62.7459 288.314 62.9591 288.385C62.5328 288.03 61.8224 287.392 60.8279 286.469L55.2869 280.617Z" fill="#FFC300"/>
<path d="M69.5657 281.362L58.2705 275.19L59.5492 272.849L70.8444 279.021L69.5657 281.362Z" fill="#FFC300"/>
<path d="M75.6402 270.19L74.3615 272.637L65.0909 267.53L63.3859 270.615L61.3613 269.551L66.0499 261.039L68.0745 262.103L66.3696 265.189L75.6402 270.19Z" fill="#FFC300"/>
<path fill-rule="evenodd" clip-rule="evenodd" d="M82.9931 256.996L79.9029 256.357L77.5586 260.401L79.7964 262.742L78.4111 265.295L69.2471 255.08L70.8454 252.208L84.3784 254.442L82.9931 256.996ZM77.5586 255.719C74.7171 255.151 73.1187 254.832 72.7635 254.761C72.3373 254.69 72.0531 254.619 71.911 254.548C72.4083 255.116 73.7581 256.499 75.9603 258.698L77.5586 255.719Z" fill="#FFC300"/>
<path d="M88.6397 246.568L78.3035 244.44V244.546C80.1505 245.468 81.3582 246.071 81.9265 246.355L87.2545 249.228L86.0823 251.356L74.7871 245.185L76.5986 241.992L86.6151 244.014H86.7217L79.5822 236.353L81.3937 233.161L92.6889 239.332L91.4102 241.567L86.0823 238.587C85.8692 238.517 85.585 238.375 85.2298 238.162C84.9457 237.949 84.0932 237.417 82.6724 236.566V236.672L89.9184 244.44L88.6397 246.568Z" fill="#FFC300"/>
<path d="M95.1399 234.97L83.8447 228.692L85.1234 226.351L96.4186 232.523L95.1399 234.97Z" fill="#FFC300"/>
<path d="M104.304 218.158L102.706 221.137L91.4103 221.35V221.457C92.9732 222.166 94.0743 222.698 94.7136 223.053L100.042 226.032L98.8694 228.16L87.5742 221.882L89.1726 218.903L100.361 218.69V218.584C98.8694 217.874 97.8394 217.342 97.271 216.988L91.8366 214.115L93.1153 211.88L104.304 218.158Z" fill="#FFC300"/>
<path d="M90.4521 178.895L85.2307 188.471C82.7799 192.834 90.5587 201.559 102.493 208.05C114.428 214.647 125.936 216.456 128.28 212.199L133.608 202.517L90.4521 178.895Z" fill="#FF6600"/>
<path d="M103.027 208.369L112.617 191.025L111.445 190.387L101.961 207.731C102.103 207.873 102.281 207.979 102.494 208.05C102.707 208.192 102.884 208.298 103.027 208.369Z" fill="#FF9100"/>
<path d="M108.248 188.578L107.076 188.046L97.6992 205.177C97.9834 205.39 98.3386 205.602 98.7648 205.815L108.248 188.578Z" fill="#FF9100"/>
<path d="M103.773 186.237L102.707 185.599L93.543 202.198C93.8982 202.481 94.2534 202.73 94.6086 202.942L103.773 186.237Z" fill="#FF9100"/>
<path d="M86.2969 194.536C86.51 194.891 86.7586 195.281 87.0428 195.707L95.0347 181.342L93.8625 180.704L86.2969 194.536Z" fill="#FF9100"/>
<path d="M99.4039 183.789L98.2317 183.151L89.707 198.792C89.9912 199.076 90.3109 199.36 90.6661 199.644L99.4039 183.789Z" fill="#FF9100"/>
<path d="M125.83 198.261L124.658 197.622L115.92 213.583C116.417 213.654 116.843 213.76 117.199 213.902L125.83 198.261Z" fill="#FF9100"/>
<path d="M130.199 200.708L129.133 200.07L121.248 214.434C121.745 214.434 122.207 214.434 122.633 214.434L130.199 200.708Z" fill="#FF9100"/>
<path d="M121.461 195.814L120.289 195.282L111.019 211.987C111.445 212.129 111.871 212.271 112.297 212.413L121.461 195.814Z" fill="#FF9100"/>
<path d="M116.986 193.473L115.92 192.834L106.437 210.072C106.792 210.284 107.182 210.462 107.609 210.604L116.986 193.473Z" fill="#FF9100"/>
<path d="M133.609 202.517C131.265 206.879 119.65 204.964 107.822 198.473C95.8875 191.983 88.1088 183.151 90.4531 178.895C92.7974 174.639 104.412 176.448 116.347 182.938C128.281 189.429 135.954 198.26 133.609 202.517Z" fill="#FF9100"/>
<path d="M155.24 247.739C151.724 247.207 147.035 247.42 142.134 248.59C137.125 249.761 132.863 251.676 129.986 253.804L124.765 254.975L126.043 260.082C127.002 264.125 135.74 265.509 145.544 263.168C155.347 260.827 162.593 255.613 161.634 251.676L160.462 246.569L155.24 247.739Z" fill="#C2E1FF"/>
<path d="M160.568 247.101C161.527 251.038 154.281 256.251 144.478 258.592C134.674 260.933 125.83 259.55 124.871 255.507C124.018 251.57 131.158 246.356 140.961 244.015C150.871 241.674 159.609 243.057 160.568 247.101Z" fill="white"/>
<path d="M142.879 258.912C143.447 258.77 143.98 258.663 144.477 258.592C144.761 258.521 145.01 258.45 145.223 258.38L141.813 243.909C141.529 243.909 141.245 243.944 140.961 244.015C140.463 244.157 139.966 244.299 139.469 244.441L142.879 258.912Z" fill="#C2E1FF"/>
<path d="M137.018 299.345L106.01 291.577C102.387 290.726 100.149 287.002 101.108 283.384C101.961 279.766 105.69 277.532 109.313 278.489L140.322 286.15C143.945 287.108 146.076 290.726 145.223 294.344C144.264 297.961 140.641 300.196 137.018 299.345Z" fill="white"/>
<path d="M145.223 294.343C146.075 290.726 143.944 287.108 140.321 286.15L123.804 282.107C122.526 283.916 121.567 285.938 120.927 288.385C120.394 290.726 120.288 293.067 120.608 295.195L137.018 299.345C140.641 300.196 144.264 297.961 145.223 294.343Z" fill="#FF6600"/>
<g opacity="0.1">
<path d="M525.637 282.106H382.742C376.242 282.106 371.127 276.893 371.127 270.508V127.714C371.127 121.329 376.242 116.116 382.742 116.116H525.637C532.03 116.116 537.252 121.329 537.252 127.714V270.508C537.252 276.893 532.03 282.106 525.637 282.106Z" fill="black"/>
</g>
<path d="M518.284 274.339H375.389C368.996 274.339 363.774 269.125 363.774 262.741V119.946C363.774 113.562 368.996 108.454 375.389 108.454H518.284C524.678 108.454 529.899 113.562 529.899 119.946V262.741C529.899 269.125 524.678 274.339 518.284 274.339Z" fill="#C2E1FF"/>
<path d="M460.743 164.423V196.877C460.743 196.877 468.096 201.558 466.497 216.774C465.112 229.436 456.054 239.013 446.997 239.013L450.087 274.339H399.259L403.841 211.773C403.841 211.773 407.783 179.001 405.759 166.445L460.743 164.423Z" fill="#FF9F85"/>
<path d="M415.029 225.926C415.029 225.926 423.767 249.867 448.489 256.676L446.677 235.076L415.029 225.926Z" fill="#BA5E43"/>
<path d="M445.718 181.98L444.227 185.917L448.595 199.111" stroke="#3B3533" stroke-width="1.2" stroke-miterlimit="10"/>
<path d="M466.497 216.775C468.095 201.559 460.743 196.877 460.743 196.877C451.792 194.323 429.947 201.346 416.841 198.579L414.07 225.074C414.07 225.074 427.816 239.013 446.997 239.013C456.054 239.013 465.112 229.437 466.497 216.775Z" fill="white"/>
<path d="M418.333 199.324L403.841 194.642L400.751 209.539C400.751 209.539 410.022 221.456 417.161 225.925" stroke="white" stroke-width="1.6" stroke-linecap="round" stroke-linejoin="round"/>
<path d="M450.407 140.908C450.407 140.908 465.858 131.544 479.923 137.716C493.883 143.887 486.21 174.532 456.587 167.19C445.825 174.638 435.169 168.36 435.169 168.36C435.169 168.36 425.579 174.319 418.333 170.808C415.775 175.383 410.341 171.978 410.341 171.978C410.341 171.978 408.849 188.683 405.332 196.345L396.488 197.089C396.488 197.089 386.578 183.576 386.578 169.211C386.578 154.74 392.972 153.357 398.513 153.783C401.816 143.994 416.201 131.012 422.382 144.313C436.341 132.396 449.554 135.162 450.407 140.908Z" fill="#3B3533"/>
<path d="M434.743 186.024C434.743 188.152 433.464 189.961 431.973 189.961C430.481 189.961 429.309 188.152 429.309 186.024C429.309 183.789 430.481 181.98 431.973 181.98C433.464 181.98 434.743 183.789 434.743 186.024Z" fill="#3B3533"/>
<path d="M456.694 186.024C456.694 188.152 455.416 189.961 453.924 189.961C452.432 189.961 451.26 188.152 451.26 186.024C451.26 183.789 452.432 181.98 453.924 181.98C455.416 181.98 456.694 183.789 456.694 186.024Z" fill="#3B3533"/>
<path d="M435.809 176.554C435.809 176.554 429.948 173.149 423.661 176.554" stroke="#3B3533" stroke-width="2.2" stroke-miterlimit="10"/>
<path d="M457.866 176.554C457.866 176.554 452.006 173.149 445.719 176.554" stroke="#3B3533" stroke-width="2.2" stroke-miterlimit="10"/>
<path d="M409.809 200.388C411.194 205.496 408.636 210.497 404.268 211.561C399.792 212.625 395.21 209.326 393.825 204.325C392.546 199.218 395.104 194.217 399.472 193.153C403.841 192.089 408.53 195.387 409.809 200.388Z" fill="#FF9F85"/>
<path d="M396.702 203.581C395.849 200.282 397.448 197.09 400.325 196.452C403.202 195.707 406.185 197.835 407.038 201.133" stroke="#BA5E43" stroke-width="0.9" stroke-miterlimit="10"/>
<path d="M510.399 185.598C510.399 194.536 503.153 201.771 494.202 201.771C485.251 201.771 478.005 194.536 478.005 185.598C478.005 176.66 485.251 169.424 494.202 169.424C503.153 169.424 510.399 176.66 510.399 185.598Z" fill="#3EBAFF"/>
<path d="M478.857 177.724L492.284 190.279L512.53 169.424" stroke="white" stroke-width="4.3" stroke-linejoin="round"/>
<g opacity="0.1">
<path d="M368.037 177.299H217.15C210.756 177.299 205.642 172.191 205.642 165.807V30.7797C205.642 24.3955 210.756 19.2881 217.15 19.2881H368.037C374.324 19.2881 379.545 24.3955 379.545 30.7797V165.807C379.545 172.191 374.324 177.299 368.037 177.299Z" fill="black"/>
</g>
<path d="M363.667 171.553H212.781C206.387 171.553 201.272 166.445 201.272 160.061V25.0339C201.272 18.6496 206.387 13.4358 212.781 13.4358H363.667C369.954 13.4358 375.176 18.6496 375.176 25.0339V160.061C375.176 166.445 369.954 171.553 363.667 171.553Z" fill="#D65E87"/>
<path d="M248.052 50.2517H298.134V44.6122L256.15 38.76L248.691 46.2083L248.052 50.2517Z" fill="#BA5E43"/>
<path d="M292.593 171.553H228.125V77.0655C228.125 72.4901 231.961 68.6595 236.65 68.6595H284.068C288.757 68.6595 292.593 72.4901 292.593 77.0655V171.553Z" fill="white"/>
<path d="M272.667 52.4862H248.052L241.658 68.6597H279.06L272.667 52.4862Z" fill="#2C77BF"/>
<path d="M250.289 155.06H228.125V85.1523H250.289V155.06Z" fill="#C2E1FF"/>
<path d="M313.372 61.5303L309.642 55.8909C306.02 50.5706 300.052 47.2721 293.659 47.2721H241.658V52.4859H294.724C298.667 52.4859 302.29 54.4012 304.421 57.6997L306.979 61.5303H313.372Z" fill="#2C77BF"/>
<path d="M310.815 65.9994C305.167 73.2349 305.061 81.428 310.815 81.428C316.569 81.428 316.462 73.2349 310.815 65.9994Z" fill="white"/>
<path d="M201.272 36.3126H216.617L254.658 27.2682L275.117 28.2258L295.044 34.2908L306.552 42.2712L303.995 46.421C302.396 49.0811 299.2 50.2515 296.216 49.2939L286.732 46.2081L267.339 44.0801L251.248 49.4003L264.568 53.1244L276.503 54.6141C277.888 54.8269 278.954 56.1038 278.847 57.5934C278.634 59.6151 277.035 61.2112 274.904 61.3176L257.748 61.956L220.986 59.2959L201.272 69.2979V36.3126Z" fill="#FF9F85"/>
<path d="M254.338 36.3129L271.068 34.8232L292.592 38.973L305.273 45.0381" stroke="#BA5E43" stroke-miterlimit="10"/>
<path d="M336.176 88.5574C336.176 88.5574 325.627 86.2165 314.651 88.3446C303.249 90.6855 296.856 92.0688 296.856 92.0688L296.963 92.92C297.389 95.5801 299.84 97.6018 302.61 97.389L312.52 96.7506L296.856 106.433L268.938 112.392C267.126 112.711 265.847 114.307 265.847 116.223C265.847 118.351 267.552 120.053 269.684 120.053L266.38 120.798C264.569 121.117 263.29 122.713 263.29 124.522C263.29 126.969 265.421 129.204 270.856 127.821C269.684 128.459 268.938 129.736 268.938 131.119C268.938 133.566 271.175 135.482 273.626 134.95L278.634 133.886C277.462 134.63 276.716 135.907 276.716 137.291C276.716 139.738 278.954 141.547 281.405 141.121L303.249 136.333C321.258 134.205 338.84 117.712 338.84 117.712L375.176 113.456V73.7672L336.176 88.5574Z" fill="#FF9F85"/>
<path d="M297.921 108.348L309.536 130.693" stroke="#BA5E43" stroke-miterlimit="10"/>
<path d="M272.134 119.521L300.798 113.775" stroke="#BA5E43" stroke-miterlimit="10"/>
<path d="M273.732 127.288L304.741 121.542" stroke="#BA5E43" stroke-miterlimit="10"/>
<path d="M283.109 132.715L307.831 127.395" stroke="#BA5E43" stroke-miterlimit="10"/>
<path d="M312.52 96.7504C312.52 96.7504 324.987 102.177 337.241 98.6656" stroke="#BA5E43" stroke-miterlimit="10"/>
<path d="M308.471 119.521C308.471 119.521 313.585 106.008 338.627 102.071" stroke="#BA5E43" stroke-miterlimit="10"/>
<mask id="mask0_58_2313" style="mask-type:luminance" maskUnits="userSpaceOnUse" x="4" y="78" width="573" height="459">
<path d="M423.491 100.9C495.791 143.004 563.455 152.996 566.311 216.966C569.167 280.936 539.352 300.94 566.311 360.58C593.27 420.23 561.356 446.97 538.425 474.826C515.493 502.683 426.123 538.084 316.741 536.445C207.358 534.796 109.847 528.858 52.9766 482.53C13.2409 450.172 -6.51499 390.118 10.0442 320.71C26.614 251.292 102.494 202.995 114.258 140.291C126.022 77.5871 351.191 58.7854 423.491 100.9Z" fill="white"/>
</mask>
<g mask="url(#mask0_58_2313)">
<path d="M543.858 447.14C537.358 446.927 518.284 471.081 519.03 497.043L474.382 512.259C474.382 512.259 469.267 464.165 490.259 452.034C497.186 447.991 509.227 445.331 517.751 448.736C526.169 452.247 543.858 447.14 543.858 447.14Z" fill="#3D571A"/>
<path d="M512.103 451.608C500.702 460.972 494.948 487.254 496.226 504.811" stroke="#263610" stroke-width="1.1" stroke-miterlimit="10"/>
<path d="M46.7637 453.417C53.3703 453.204 72.3377 477.252 71.5918 503.215L116.24 518.43C116.24 518.43 121.355 470.336 100.469 458.312C93.5428 454.268 81.3951 451.502 72.977 455.013C64.4523 458.418 46.7637 453.417 46.7637 453.417Z" fill="#3D571A"/>
<path d="M78.5186 457.78C89.9203 467.25 95.781 493.425 94.3958 510.982" stroke="#263610" stroke-width="1.1" stroke-miterlimit="10"/>
<path d="M258.282 175.064C252.635 175.702 240.487 187.513 241.659 199.643C242.192 204.325 248.692 221.669 248.692 221.669H311.135C311.135 221.669 315.824 209.964 318.275 199.43C320.619 188.79 313.906 174.425 300.479 167.935C287.053 161.338 264.889 158.465 258.282 175.064Z" fill="#3B3533"/>
<path d="M254.552 231.99L252.528 219.009C252.528 219.009 248.692 214.859 244.642 215.498C240.593 216.242 239.208 220.499 241.126 226.032C243.044 231.245 251.036 236.459 254.552 231.99Z" fill="#BA5E43"/>
<path d="M305.273 231.99L307.298 219.009C307.298 219.009 311.028 214.859 315.183 215.497C319.233 216.242 320.618 220.498 318.7 226.031C316.782 231.245 308.79 236.459 305.273 231.99Z" fill="#BA5E43"/>
<path d="M490.899 393.618C493.563 377.232 446.358 360.633 443.055 369.358C437.3 384.68 457.76 400.534 457.76 400.534L477.473 408.302L490.899 393.618Z" fill="#A9C5DE"/>
<path d="M280.126 557.055L478.858 524.921L426.431 343.289C418.546 316.262 396.914 295.513 369.529 288.916L299.2 271.785L280.02 275.296L260.839 271.785L190.404 288.916C163.125 295.513 141.494 316.262 133.608 343.289L81.1816 524.921L279.913 557.055H280.02H280.126Z" fill="white"/>
<path d="M246.135 275.403L219.389 322.008L238.249 334.777L219.389 351.269L277.037 449.055L259.561 272.105L246.135 275.403Z" fill="#C2E1FF"/>
<path d="M313.905 275.404L340.651 322.009L321.79 334.777L340.651 351.27L283.003 449.056L300.479 272.105L313.905 275.404Z" fill="#C2E1FF"/>
<path d="M382.103 528.432L427.603 347.332L446.89 414.473L382.103 528.432Z" fill="#C2E1FF"/>
<path d="M279.914 474.698C280.766 470.016 308.365 327.222 307.193 278.595C307.086 274.871 301.012 263.911 301.012 263.911L279.914 264.124L258.815 263.911C258.815 263.911 252.635 274.871 252.635 278.595C251.356 327.222 278.955 470.016 279.914 474.698Z" fill="#8EC0F0"/>
<path d="M279.914 286.256L266.381 297.642L273.84 313.07H279.914H285.988L293.447 297.642L279.914 286.256Z" fill="#2C77BF"/>
<path d="M285.987 313.07H273.84L268.405 410.962C274.266 445.331 279.487 472.677 279.914 474.698C280.34 472.677 285.561 445.331 291.422 410.962L285.987 313.07Z" fill="#2C77BF"/>
<path d="M307.193 278.595C307.086 274.871 301.012 263.911 301.012 263.911L279.914 264.124L258.815 263.911C258.815 263.911 252.635 274.871 252.635 278.595C252.528 281.255 252.528 284.235 252.635 287.533L265.635 304.239L279.914 286.256L294.192 304.239L307.193 287.533C307.299 284.235 307.299 281.255 307.193 278.595Z" fill="white"/>
<path d="M279.913 474.805V557.056" stroke="#050505" stroke-width="0.9" stroke-miterlimit="10"/>
<path d="M371.234 397.023H326.905V390.213H371.234V397.023Z" fill="#8EC0F0"/>
<path d="M386.578 360.632L373.045 543.435" stroke="#869BB0" stroke-width="1.9" stroke-miterlimit="10"/>
<path d="M173.462 360.633L186.995 543.435" stroke="#869BB0" stroke-width="1.9" stroke-miterlimit="10"/>
<path d="M459.251 357.44L444.865 384.999L481.308 402.875L488.448 367.442L459.251 357.44Z" fill="#FF9F85"/>
<path d="M462.981 386.809C442.202 378.403 443.054 369.358 443.054 369.358L375.283 543.436L478.858 524.921L490.899 393.618C490.899 393.618 485.145 395.853 462.981 386.809Z" fill="white"/>
<path d="M313.372 554.395L181.879 563.546L169.625 388.404L301.118 379.254L313.372 554.395Z" fill="#BF9200"/>
<path d="M308.15 554.821L181.879 563.546L170.051 394.576L296.429 385.851L308.15 554.821Z" fill="white"/>
<path d="M313.372 554.395L181.879 563.546L169.625 388.404L246.134 383.084L305.061 435.116L313.372 554.395Z" fill="#FFC300"/>
<path d="M138.617 495.554L93.6494 526.943L149.699 536.413L160.462 523.325L138.617 495.554Z" fill="#FF9F85"/>
<path d="M134.568 494.17C134.568 494.17 126.896 517.579 158.863 529.39L179.216 509.173L204.577 493.212C206.211 492.219 207.702 491.084 209.052 489.808L227.274 472.251C229.831 469.804 230.257 465.973 228.339 463.1L227.7 462.249L228.446 461.504C230.151 459.802 230.364 457.141 229.192 455.12L227.7 452.779L228.019 452.672C229.724 451.076 230.044 448.523 228.659 446.607L228.233 445.969C226.954 444.16 224.396 443.735 222.585 445.118L220.454 442.458C218.749 440.33 215.659 439.904 213.314 441.394L194.454 453.63L182.412 457.993C178.576 459.376 174.421 456.716 174.207 452.672L173.675 445.118L163.552 455.652C161.527 457.78 160.248 460.334 159.716 463.1L157.158 476.613C156.199 481.614 152.896 485.871 148.207 487.999L134.568 494.17Z" fill="#8EC0F0"/>
<path d="M222.585 445.118L194.773 464.909" stroke="#376694" stroke-width="1.2" stroke-miterlimit="10"/>
<path d="M227.7 452.779L199.143 474.485" stroke="#376694" stroke-width="1.2" stroke-miterlimit="10"/>
<path d="M227.7 462.249L204.044 482.572" stroke="#376694" stroke-width="1.2" stroke-miterlimit="10"/>
<path d="M300.479 270.828L297.709 239.97H279.914H262.118L259.241 270.828C265.741 280.83 279.381 284.554 279.914 284.66C280.446 284.554 293.979 280.83 300.479 270.828Z" fill="#FF9F85"/>
<path d="M262.757 251.994C262.757 251.994 269.363 270.721 300.265 268.487L297.708 239.97L262.757 251.994Z" fill="#BA5E43"/>
<path d="M521.694 328.179L543.965 317.645C544.498 317.326 544.817 316.688 544.498 316.049C543.432 313.708 540.555 312.538 538.104 313.602L522.227 320.518L521.694 328.179Z" fill="#83B1DE"/>
<path d="M452.857 361.378C452.857 361.378 464.685 372.869 488.661 377.232L496.76 342.118L521.055 328.605C525.637 326.051 529.366 322.221 531.924 317.645L545.563 292.321C546.309 291.044 545.35 289.448 543.965 289.448H521.588C518.497 289.448 515.514 291.044 513.809 293.704L503.26 310.303C503.26 310.303 476.407 317.645 472.251 332.436L452.857 361.378Z" fill="#8EC0F0"/>
<path d="M523.826 289.448L510.399 312.538" stroke="#376694" stroke-width="1.2" stroke-miterlimit="10"/>
<path d="M531.711 289.448L518.178 312.538" stroke="#376694" stroke-width="1.2" stroke-miterlimit="10"/>
<path d="M539.49 289.448L526.063 312.538" stroke="#376694" stroke-width="1.2" stroke-miterlimit="10"/>
<path d="M308.258 198.26C308.258 198.26 298.561 188.896 297.176 181.873H279.913H262.544C261.266 188.896 251.569 198.26 251.569 198.26C251.569 198.26 250.397 204.431 250.61 214.752C250.823 225.074 255.512 259.336 279.913 259.336C304.209 259.336 309.004 225.074 309.217 214.752C309.324 204.431 308.258 198.26 308.258 198.26Z" fill="#FF9F85"/>
<path d="M277.889 208.369L278.954 213.37L278.421 225.5" stroke="#3B3533" stroke-width="1.1" stroke-miterlimit="10"/>
<path d="M268.725 181.874C275.651 181.874 286.52 184.428 285.987 195.068C289.717 196.239 290.036 191.45 290.036 191.45C290.036 191.45 293.02 194.643 290.995 198.047C296.536 199.218 300.159 196.132 300.159 196.132C300.159 196.132 303.995 199.431 302.077 202.197C306.446 203.687 310.602 206.56 310.602 206.56C310.602 206.56 312.84 195.919 308.258 187.939C301.651 176.447 281.299 172.83 268.725 181.874Z" fill="#3B3533"/>
<path d="M304.315 228.904C304.315 226.989 302.823 225.393 300.905 225.18C296.643 224.648 288.651 223.797 279.913 223.797C271.175 223.797 263.183 224.648 258.814 225.18C256.896 225.393 255.511 226.989 255.511 228.904L255.191 238.481C259.347 249.334 266.7 259.336 279.913 259.336C293.02 259.336 300.479 249.334 304.528 238.481L304.315 228.904Z" fill="#8EC0F0"/>
<path d="M249.012 213.795C249.012 213.795 252.635 222.307 259.561 228.585" stroke="#8EC0F0" stroke-width="1.6" stroke-linecap="round" stroke-linejoin="round"/>
<path d="M310.709 213.795C310.709 213.795 307.193 222.307 300.267 228.585" stroke="#8EC0F0" stroke-width="1.6" stroke-linecap="round" stroke-linejoin="round"/>
<path d="M270.109 212.731C270.109 215.072 268.831 216.988 267.232 216.988C265.741 216.988 264.462 215.072 264.462 212.731C264.462 210.284 265.741 208.369 267.232 208.369C268.831 208.369 270.109 210.284 270.109 212.731Z" fill="#3B3533"/>
<path d="M295.364 212.731C295.364 215.072 294.086 216.987 292.487 216.987C290.995 216.987 289.717 215.072 289.717 212.731C289.717 210.284 290.995 208.369 292.487 208.369C294.086 208.369 295.364 210.284 295.364 212.731Z" fill="#3B3533"/>
<path d="M287.693 203.474C287.693 203.474 293.554 201.665 298.882 204.112" stroke="#3B3533" stroke-width="1.9" stroke-miterlimit="10"/>
<path d="M272.135 203.474C272.135 203.474 266.274 201.665 260.946 204.112" stroke="#3B3533" stroke-width="1.9" stroke-miterlimit="10"/>
</g>
<path d="M511.252 396.704C511.252 396.704 520.842 391.171 531.178 400.747C541.515 410.43 539.703 417.346 548.974 422.773C558.351 428.306 571.564 430.434 579.236 432.668C586.802 434.903 592.449 443.096 593.195 447.565C597.671 442.245 601.827 435.754 599.163 428.306C596.392 420.858 592.449 418.41 588.4 409.685C584.244 400.96 580.515 394.895 570.072 392.767C559.629 390.639 537.252 381.914 511.252 396.704Z" fill="#77A833"/>
<path d="M550.892 388.83C557.605 392.341 561.015 398.406 564.105 404.046L564.318 404.471C564.815 405.323 565.277 406.138 565.703 406.919C569.22 413.622 571.564 417.985 580.089 420.432C590.425 423.411 596.179 430.647 595.327 439.585C595.327 439.904 595.007 440.117 594.687 440.117C594.368 440.117 594.154 439.797 594.154 439.478C594.9 431.072 589.572 424.369 579.769 421.496C570.818 418.942 568.261 414.154 564.638 407.451C564.212 406.67 563.785 405.855 563.359 405.003L563.039 404.578C559.523 398.3 555.687 391.383 547.056 388.404C548.334 388.475 549.613 388.617 550.892 388.83Z" fill="#567A25"/>
<path d="M88.7479 396.704C88.7479 396.704 79.0511 391.171 68.8215 400.747C58.4853 410.43 60.2969 417.346 51.0263 422.773C41.6491 428.306 28.4359 430.434 20.7637 432.669C13.198 434.903 7.55044 443.096 6.80453 447.565C2.32908 442.245 -1.82669 435.754 0.83727 428.306C3.50123 420.858 7.55044 418.41 11.5997 409.685C15.6489 400.96 19.485 394.895 29.9277 392.767C40.3704 390.639 62.7477 381.914 88.7479 396.704Z" fill="#77A833"/>
<path d="M49.1081 388.83C42.3949 392.341 38.985 398.406 35.8948 404.046L35.6817 404.471C35.1844 405.323 34.7227 406.138 34.2964 406.919C30.78 413.622 28.3292 417.985 19.9111 420.432C9.46833 423.411 3.82074 430.647 4.6732 439.585C4.6732 439.904 4.99288 440.117 5.206 440.117C5.27703 440.117 5.31256 440.117 5.31256 440.117C5.63224 440.117 5.84535 439.798 5.84535 439.478C4.99289 431.072 10.4274 424.369 20.2307 421.496C29.1816 418.942 31.739 414.154 35.362 407.451C35.7883 406.67 36.2145 405.855 36.6407 405.003L36.9604 404.578C40.3703 398.3 44.3129 391.384 52.9442 388.404C51.6655 388.475 50.3868 388.617 49.1081 388.83Z" fill="#567A25"/>
<path d="M100.469 458.312C82.1414 446.608 76.9201 450.226 65.9445 452.779C55.0756 455.439 45.2722 448.31 34.2967 460.76C23.4277 473.103 21.19 479.487 18.7391 492.255C16.2883 505.13 6.69805 517.154 20.7638 532.689C22.8949 519.921 25.3458 515.452 39.1984 511.089C53.1575 506.833 59.7641 495.341 64.6658 487.254C69.5675 479.168 79.584 451.29 100.469 458.312Z" fill="#77A833"/>
<path d="M67.6497 452.46C67.0814 452.602 66.5131 452.709 65.9448 452.78C65.1633 452.992 64.3464 453.17 63.4939 453.312C56.9938 457.355 50.92 464.165 48.2561 471.188C44.7396 480.445 38.9855 488.212 30.3542 495.022C21.9361 501.832 14.2639 513.643 18.3131 526.305C18.4197 526.624 18.6328 526.731 18.8459 526.731C18.917 526.731 18.988 526.731 19.059 526.731C19.3787 526.624 19.5918 526.305 19.4853 525.986C15.5426 513.856 22.8951 502.47 31.1001 495.98C39.8379 488.957 45.8052 481.083 49.4282 471.613C52.4118 463.526 59.9775 455.759 67.6497 452.46Z" fill="#567A25"/>
<path d="M490.26 452.034C508.481 440.436 513.809 443.947 524.678 446.607C535.654 449.268 545.457 442.138 556.326 454.481C567.195 466.931 569.539 473.315 571.99 486.083C574.441 498.852 584.031 510.876 569.859 526.517C567.834 513.749 565.383 509.28 551.424 504.917C537.465 500.554 530.858 489.063 526.063 480.976C521.162 472.996 511.039 445.118 490.26 452.034Z" fill="#77A833"/>
<path d="M523.08 446.181C523.577 446.323 524.11 446.465 524.678 446.607C525.531 446.82 526.348 446.962 527.129 447.032C533.736 451.076 539.703 457.992 542.367 465.015C545.884 474.272 551.744 482.04 560.269 488.849C568.794 495.659 576.359 507.364 572.31 520.132C572.204 520.345 571.99 520.558 571.777 520.558C571.706 520.558 571.635 520.522 571.564 520.451C571.244 520.451 571.138 520.026 571.244 519.813C575.081 507.577 567.728 496.298 559.523 489.701C550.785 482.784 544.818 474.804 541.302 465.44C538.211 457.354 530.752 449.586 523.08 446.181Z" fill="#567A25"/>
<path d="M465.326 67.8084C464.58 67.8084 464.047 68.3404 463.834 68.9789H459.891C458.826 68.9789 457.973 68.234 457.867 67.2764C457.725 66.2833 457.476 65.3611 457.121 64.5099C456.801 63.6587 457.121 62.5946 457.973 62.0626L459.252 61.3178C459.572 61.637 459.891 61.8498 460.318 61.8498C461.17 61.8498 461.916 61.1049 461.916 60.2537C461.916 59.4025 461.17 58.6576 460.318 58.6576C459.465 58.6576 458.826 59.4025 458.826 60.2537C458.826 60.3956 458.826 60.5375 458.826 60.6793L457.547 61.3178C456.695 61.8498 455.629 61.6369 454.99 60.8921C454.421 60.1828 453.782 59.5089 453.072 58.8704C452.219 58.232 452.006 57.168 452.539 56.3167L455.629 50.9965C455.771 51.0675 455.878 51.1029 455.949 51.1029C456.908 51.1029 457.547 50.3581 457.547 49.5069C457.547 48.6556 456.908 48.0172 455.949 48.0172C455.096 48.0172 454.457 48.6556 454.457 49.5069C454.457 49.9325 454.67 50.3581 454.883 50.5709L451.793 55.8911C451.367 56.7424 450.301 57.168 449.342 56.7424C448.49 56.4586 447.602 56.2458 446.678 56.1039C445.719 55.8911 444.973 55.0399 444.973 54.0822V50.9965C445.613 50.7837 446.039 50.2517 446.039 49.5069C446.039 48.6556 445.399 48.0172 444.547 48.0172C443.694 48.0172 442.949 48.6556 442.949 49.5069C442.949 50.2517 443.481 50.7837 444.121 50.9965V54.0822C444.121 55.0399 443.375 55.8911 442.416 56.1039C441.492 56.2458 440.604 56.4586 439.752 56.7424C438.793 57.168 437.727 56.7424 437.194 55.8911L434.53 51.2093C434.744 50.8901 434.957 50.5709 434.957 50.1453C434.957 49.1877 434.211 48.5492 433.358 48.5492C432.506 48.5492 431.866 49.1877 431.866 50.1453C431.866 50.9965 432.506 51.635 433.358 51.635C433.5 51.635 433.642 51.5995 433.785 51.5285L436.555 56.3167C436.981 57.168 436.768 58.232 436.022 58.8704C435.312 59.5089 434.673 60.1828 434.104 60.8921C433.465 61.6369 432.293 61.8498 431.44 61.3178L431.121 61.1049C431.121 61.034 431.156 60.9276 431.227 60.7857C431.227 59.9345 430.481 59.1897 429.629 59.1897C428.776 59.1897 428.03 59.9345 428.03 60.7857C428.03 61.637 428.776 62.3818 429.629 62.3818C430.055 62.3818 430.481 62.169 430.694 61.8498L431.014 62.0626C431.866 62.5946 432.293 63.6587 431.866 64.5099C431.582 65.3611 431.369 66.2833 431.227 67.2764C431.014 68.234 430.162 68.9789 429.203 68.9789H426.325C426.219 68.3404 425.58 67.8084 424.834 67.8084C423.981 67.8084 423.342 68.5532 423.342 69.4045C423.342 70.2557 423.981 70.8941 424.834 70.8941C425.58 70.8941 426.219 70.4685 426.325 69.7237H429.203C430.162 69.7237 431.014 70.4685 431.227 71.5326C431.369 72.4547 431.582 73.3414 431.866 74.1927C432.293 75.1503 431.866 76.2144 431.014 76.64L429.735 77.3848C429.522 77.172 429.096 76.9592 428.67 76.9592C427.817 76.9592 427.071 77.704 427.071 78.5552C427.071 79.4065 427.817 80.0449 428.67 80.0449C429.522 80.0449 430.268 79.4065 430.268 78.5552C430.197 78.4134 430.162 78.2715 430.162 78.1296L431.44 77.3848C432.293 76.8528 433.465 77.0656 434.104 77.9168C434.673 78.6262 435.312 79.2646 436.022 79.8321C436.768 80.4705 436.981 81.5346 436.555 82.3858L436.235 83.0242C436.093 82.9533 435.951 82.9178 435.809 82.9178C434.957 82.9178 434.211 83.5563 434.211 84.4075C434.211 85.3651 434.957 86.0036 435.809 86.0036C436.662 86.0036 437.408 85.3651 437.408 84.4075C437.408 83.9819 437.194 83.6627 436.875 83.3434L437.194 82.8114C437.727 81.9602 438.793 81.641 439.752 81.9602C440.604 82.3149 441.492 82.5631 442.416 82.705C443.375 82.8114 444.121 83.6627 444.121 84.6203V87.5996C443.481 87.8124 442.949 88.3444 442.949 89.0893C442.949 89.9405 443.694 90.6853 444.547 90.6853C445.399 90.6853 446.039 89.9405 446.039 89.0893C446.039 88.3444 445.613 87.8124 444.973 87.5996V84.6203C444.973 83.6627 445.719 82.8114 446.678 82.705C447.815 82.4922 448.916 82.173 449.981 81.7474C450.514 81.4282 451.047 81.5346 451.367 82.0666L451.9 82.9178C451.58 83.1306 451.473 83.5563 451.473 83.9819C451.473 84.8331 452.113 85.5779 452.965 85.5779C453.818 85.5779 454.563 84.8331 454.563 83.9819C454.563 83.1306 453.818 82.3858 452.965 82.3858C452.823 82.4567 452.716 82.4922 452.645 82.4922L452.113 81.641C451.793 81.2153 451.793 80.7897 452.326 80.3641C452.397 80.2932 452.432 80.2577 452.432 80.2577C453.64 79.4065 454.67 78.3779 455.522 77.172C455.878 76.6754 456.233 76.5336 456.588 76.7464L457.227 77.172C457.227 77.2429 457.227 77.3139 457.227 77.3848C457.227 78.236 457.973 78.9809 458.826 78.9809C459.678 78.9809 460.318 78.236 460.318 77.3848C460.318 76.5336 459.678 75.8951 458.826 75.8951C458.293 75.8951 457.867 76.1079 457.654 76.4272L457.121 76.2144C456.695 75.7888 456.588 75.3631 456.908 74.7247C457.334 73.7316 457.654 72.6675 457.867 71.5326C457.973 70.4685 458.826 69.7237 459.891 69.7237H463.834C464.047 70.4685 464.58 70.8941 465.326 70.8941C466.178 70.8941 466.924 70.2557 466.924 69.4045C466.924 68.5532 466.178 67.8084 465.326 67.8084Z" fill="#C2E1FF"/>
<path d="M114.109 76.8529C113.683 76.8529 113.257 77.1722 113.15 77.5978H110.593C109.847 77.5978 109.314 77.0657 109.314 76.4273C109.172 75.8598 108.994 75.2923 108.781 74.7248C108.568 74.0864 108.781 73.448 109.314 73.1288L110.166 72.5968C110.38 72.8096 110.628 72.916 110.912 72.916C111.445 72.916 111.871 72.4904 111.871 71.8519C111.871 71.3199 111.445 70.8943 110.912 70.8943C110.273 70.8943 109.847 71.3199 109.847 71.8519C109.847 71.9938 109.882 72.1002 109.953 72.1711L109.101 72.5968C108.568 72.916 107.822 72.8096 107.396 72.2776C107.041 71.8519 106.614 71.4263 106.117 71.0007C105.584 70.5751 105.478 69.9366 105.797 69.4046L107.822 65.8933C107.893 65.8933 107.964 65.9288 108.035 65.9997C108.568 65.9997 109.101 65.4677 109.101 64.9357C109.101 64.4036 108.568 63.978 108.035 63.978C107.502 63.978 107.076 64.4036 107.076 64.9357C107.076 65.2194 107.147 65.4677 107.289 65.6805L105.371 69.0854C105.052 69.6174 104.306 69.8303 103.773 69.6174C103.205 69.4046 102.601 69.2628 101.961 69.1918C101.322 69.0854 100.896 68.5534 100.896 67.915V65.8933C101.322 65.7869 101.642 65.3613 101.642 64.9357C101.642 64.4036 101.215 63.978 100.576 63.978C100.043 63.978 99.6171 64.4036 99.6171 64.9357C99.6171 65.3613 99.9368 65.7869 100.363 65.8933V67.915C100.363 68.5534 99.8302 69.0854 99.1909 69.1918C98.6225 69.2628 98.0542 69.4046 97.4859 69.6174C96.8466 69.8303 96.2072 69.6174 95.8875 69.0854L94.0761 65.9997C94.2892 65.8578 94.3957 65.645 94.3957 65.3613C94.3957 64.7228 93.9695 64.2972 93.4367 64.2972C92.7974 64.2972 92.3711 64.7228 92.3711 65.3613C92.3711 65.8933 92.7974 66.3189 93.4367 66.3189C93.5077 66.3189 93.5788 66.3189 93.6498 66.3189L95.4613 69.4046C95.781 69.9366 95.5679 70.5751 95.1417 71.0007C94.6444 71.4263 94.2181 71.8519 93.8629 72.2776C93.4367 72.8096 92.6908 72.916 92.158 72.5968L91.9449 72.4904C91.9449 72.4194 91.9449 72.3485 91.9449 72.2776C91.9449 71.6391 91.5187 71.2135 90.9859 71.2135C90.3465 71.2135 89.9203 71.6391 89.9203 72.2776C89.9203 72.8096 90.3465 73.2352 90.9859 73.2352C91.27 73.2352 91.4831 73.1288 91.6252 72.916L91.8383 73.1288C92.4777 73.448 92.6908 74.0864 92.4777 74.7248C92.2646 75.2923 92.087 75.8598 91.9449 76.4273C91.8383 77.0657 91.3055 77.5978 90.6662 77.5978H88.8547C88.7482 77.1722 88.3219 76.8529 87.8957 76.8529C87.2563 76.8529 86.8301 77.2786 86.8301 77.8106C86.8301 78.3426 87.2563 78.7682 87.8957 78.7682C88.3219 78.7682 88.7482 78.5554 88.8547 78.1298H90.6662C91.3055 78.1298 91.8383 78.5554 91.9449 79.1938C92.087 79.8323 92.2646 80.3998 92.4777 80.8963C92.6908 81.5347 92.4777 82.1732 91.8383 82.5988L90.9859 83.0244C90.8438 82.8116 90.6307 82.7052 90.3465 82.7052C89.8137 82.7052 89.2809 83.2372 89.2809 83.7692C89.2809 84.3012 89.8137 84.7269 90.3465 84.7269C90.8793 84.7269 91.3055 84.3012 91.3055 83.7692C91.3055 83.6983 91.3055 83.5919 91.3055 83.45L92.158 83.0244C92.6908 82.7052 93.4367 82.8116 93.8629 83.3436C94.2181 83.7692 94.6444 84.1949 95.1417 84.6205C95.5679 85.0461 95.781 85.6845 95.4613 86.3229L95.2482 86.6421C95.1061 86.6421 94.9996 86.6421 94.9285 86.6421C94.3957 86.6421 93.9695 87.0678 93.9695 87.5998C93.9695 88.1318 94.3957 88.5574 94.9285 88.5574C95.4613 88.5574 95.9941 88.1318 95.9941 87.5998C95.9941 87.316 95.8876 87.0678 95.6744 86.855L95.8875 86.5357C96.2072 86.0037 96.8466 85.7909 97.4859 86.0037C98.0542 86.2165 98.6225 86.3584 99.1909 86.4293C99.8302 86.5357 100.363 87.0678 100.363 87.7062V89.6215C99.9368 89.7279 99.6171 90.1535 99.6171 90.5791C99.6171 91.2175 100.043 91.6432 100.576 91.6432C101.215 91.6432 101.642 91.2175 101.642 90.5791C101.642 90.1535 101.322 89.7279 100.896 89.6215V87.7062C100.896 87.0678 101.322 86.5357 101.961 86.4293C102.743 86.3584 103.453 86.1456 104.093 85.7909C104.519 85.6845 104.838 85.6845 105.052 86.1101L105.371 86.5357C105.158 86.7485 105.052 86.9968 105.052 87.2806C105.052 87.8126 105.584 88.3446 106.117 88.3446C106.65 88.3446 107.076 87.8126 107.076 87.2806C107.076 86.7486 106.65 86.3229 106.117 86.3229C106.046 86.3229 105.94 86.3229 105.797 86.3229L105.478 85.7909C105.371 85.4717 105.371 85.1525 105.691 84.9397C106.472 84.3722 107.147 83.6983 107.716 82.918C107.716 82.918 107.716 82.8825 107.716 82.8116C107.929 82.5278 108.177 82.4569 108.461 82.5988L108.888 82.918C108.888 82.918 108.888 82.9535 108.888 83.0244C108.888 83.5564 109.314 84.0884 109.847 84.0884C110.379 84.0884 110.912 83.5564 110.912 83.0244C110.912 82.4924 110.379 82.0668 109.847 82.0668C109.527 82.0668 109.314 82.1732 109.101 82.386L108.781 82.1731C108.568 81.9603 108.461 81.7475 108.675 81.3219C108.959 80.6126 109.172 79.9032 109.314 79.1938C109.314 78.5554 109.847 78.1298 110.593 78.1298H113.15C113.257 78.5554 113.683 78.7682 114.109 78.7682C114.642 78.7682 115.068 78.3426 115.068 77.8106C115.068 77.2786 114.642 76.8529 114.109 76.8529Z" fill="#C2E1FF"/>
<path d="M105.478 128.991C104.625 128.991 103.986 129.523 103.773 130.268H99.1906C98.0184 130.268 97.0594 129.416 96.9529 128.352C96.7397 127.288 96.4556 126.26 96.1004 125.267C95.6742 124.203 96.1004 123.032 97.0594 122.5L98.5512 121.649C98.8709 121.968 99.2971 122.181 99.7234 122.181C100.682 122.181 101.535 121.33 101.535 120.372C101.535 119.414 100.682 118.67 99.7234 118.67C98.7644 118.67 98.0184 119.414 98.0184 120.372C98.0184 120.514 98.0184 120.656 98.0184 120.798L96.6332 121.649C95.6742 122.287 94.3955 121.968 93.6496 121.117C93.0102 120.266 92.2643 119.521 91.4118 118.882C90.5594 118.138 90.3463 116.967 90.879 115.903L94.3955 109.838C94.502 109.944 94.6086 109.944 94.8217 109.944C95.7807 109.944 96.5266 109.2 96.5266 108.242C96.5266 107.178 95.7807 106.433 94.8217 106.433C93.8627 106.433 93.0102 107.178 93.0102 108.242C93.0102 108.668 93.2233 109.093 93.543 109.412L90.0266 115.477C89.4938 116.435 88.3217 116.861 87.2561 116.435C86.2615 116.08 85.2314 115.797 84.1658 115.584C83.1003 115.477 82.2478 114.52 82.2478 113.349V109.838C82.9937 109.625 83.5265 108.987 83.5265 108.242C83.5265 107.178 82.7806 106.433 81.715 106.433C80.756 106.433 80.0101 107.178 80.0101 108.242C80.0101 108.987 80.5429 109.625 81.2888 109.838V113.349C81.2888 114.52 80.4363 115.477 79.3707 115.584C78.3051 115.797 77.2751 116.08 76.2805 116.435C75.2149 116.861 74.0428 116.435 73.4035 115.477L70.3133 110.051C70.6329 109.732 70.846 109.306 70.846 108.88C70.846 107.816 70.1002 107.072 69.0346 107.072C68.0755 107.072 67.3296 107.816 67.3296 108.88C67.3296 109.838 68.0755 110.583 69.0346 110.583C69.2477 110.583 69.3542 110.583 69.4608 110.476L72.6576 115.903C73.1903 116.967 72.9772 118.138 72.0182 118.882C71.2368 119.521 70.4909 120.266 69.7805 121.117C69.1411 121.968 67.8624 122.287 66.9034 121.649L66.4772 121.436C66.4772 121.33 66.5837 121.117 66.5837 121.01C66.5837 120.053 65.7313 119.202 64.7722 119.202C63.8132 119.202 63.0673 120.053 63.0673 121.01C63.0673 121.968 63.8132 122.713 64.7722 122.713C65.305 122.713 65.7312 122.607 66.0509 122.287L66.3706 122.5C67.4362 123.032 67.7559 124.203 67.4362 125.267C67.01 126.26 66.7258 127.288 66.5837 128.352C66.3706 129.416 65.4116 130.268 64.346 130.268H61.0427C60.8296 129.523 60.1902 128.991 59.3378 128.991C58.3787 128.991 57.6328 129.842 57.6328 130.8C57.6328 131.757 58.3787 132.502 59.3378 132.502C60.1902 132.502 60.8296 131.97 61.0427 131.225H64.346C65.4116 131.225 66.3706 132.077 66.5837 133.247C66.7258 134.24 67.01 135.233 67.4362 136.226C67.7559 137.29 67.4362 138.461 66.3706 139.099L64.9853 139.95C64.6657 139.631 64.1329 139.418 63.7067 139.418C62.7476 139.418 61.8951 140.163 61.8951 141.227C61.8951 142.185 62.7476 142.93 63.7067 142.93C64.6657 142.93 65.5181 142.185 65.5181 141.227C65.5181 141.014 65.4116 140.908 65.4116 140.695L66.9034 139.844C67.8624 139.312 69.1411 139.525 69.7805 140.482C70.4909 141.263 71.2368 142.008 72.0182 142.717C72.9772 143.355 73.1903 144.632 72.6576 145.59L72.2313 146.228C72.1248 146.228 72.0182 146.122 71.8051 146.122C70.8461 146.122 70.1002 146.973 70.1002 147.931C70.1002 148.888 70.8461 149.74 71.8051 149.74C72.7641 149.74 73.6166 148.888 73.6166 147.931C73.6166 147.505 73.4035 146.973 73.0838 146.654L73.4035 146.122C74.0428 145.058 75.2149 144.739 76.2805 145.164C77.2751 145.519 78.3051 145.767 79.3707 145.909C80.4363 146.122 81.2888 147.08 81.2888 148.144V151.549C80.5429 151.761 80.0101 152.4 80.0101 153.251C80.0101 154.209 80.756 154.953 81.715 154.953C82.7806 154.953 83.5265 154.209 83.5265 153.251C83.5265 152.4 82.9937 151.761 82.2478 151.549V148.144C82.2478 147.08 83.1003 146.122 84.1658 145.909C85.5156 145.696 86.7588 145.342 87.8954 144.845C88.5347 144.526 89.1741 144.526 89.6003 145.271L90.1331 146.122C89.8134 146.441 89.6003 146.973 89.6003 147.399C89.6003 148.356 90.3463 149.208 91.4118 149.208C92.3709 149.208 93.1168 148.356 93.1168 147.399C93.1168 146.441 92.3709 145.59 91.4118 145.59C91.1987 145.59 91.0922 145.696 90.9856 145.696L90.3463 144.739C90.0266 144.207 90.0266 143.781 90.6659 143.249C90.6659 143.249 90.7014 143.214 90.7725 143.143C92.1222 142.149 93.2944 140.979 94.2889 139.631C94.6441 139.135 95.0348 138.993 95.461 139.206L96.207 139.631C96.207 139.738 96.207 139.844 96.207 139.95C96.207 140.908 96.9529 141.653 98.0184 141.653C98.9775 141.653 99.7234 140.908 99.7234 139.95C99.7234 138.993 98.9775 138.142 98.0184 138.142C97.3791 138.142 96.9529 138.461 96.6332 138.78L96.1004 138.461C95.5676 138.035 95.5676 137.61 95.8873 136.865C96.3845 135.73 96.7397 134.524 96.9529 133.247C97.0594 132.077 98.0184 131.225 99.1906 131.225H103.773C103.986 131.97 104.625 132.502 105.478 132.502C106.437 132.502 107.182 131.757 107.182 130.8C107.182 129.842 106.437 128.991 105.478 128.991Z" fill="#C2E1FF"/>
<path d="M571.991 356.803C571.564 356.803 571.245 357.122 571.138 357.441H568.794C568.261 357.441 567.728 357.015 567.622 356.483C567.551 355.916 567.444 355.384 567.302 354.887C567.089 354.355 567.302 353.823 567.728 353.504L568.474 353.078C568.616 353.22 568.829 353.291 569.114 353.291C569.54 353.291 569.966 352.972 569.966 352.44C569.966 351.908 569.54 351.589 569.114 351.589C568.581 351.589 568.155 351.908 568.155 352.44C568.155 352.511 568.19 352.582 568.261 352.653L567.515 353.078C566.982 353.398 566.343 353.291 566.023 352.759C565.668 352.334 565.277 351.979 564.851 351.695C564.425 351.27 564.318 350.631 564.638 350.206L566.343 347.12C566.414 347.12 566.485 347.12 566.556 347.12C567.089 347.12 567.515 346.801 567.515 346.269C567.515 345.737 567.089 345.311 566.556 345.311C566.13 345.311 565.704 345.737 565.704 346.269C565.704 346.481 565.775 346.694 565.917 346.907L564.212 349.886C563.892 350.418 563.253 350.631 562.72 350.418C562.223 350.206 561.726 350.064 561.228 349.993C560.589 349.886 560.163 349.461 560.163 348.929V347.12C560.589 347.013 560.909 346.694 560.909 346.269C560.909 345.737 560.482 345.311 559.95 345.311C559.523 345.311 559.097 345.737 559.097 346.269C559.097 346.694 559.31 347.013 559.736 347.12V348.822C559.736 349.461 559.31 349.886 558.777 349.993C558.209 350.064 557.676 350.206 557.179 350.418C556.646 350.631 556.007 350.418 555.794 349.886L554.195 347.226C554.337 347.013 554.408 346.801 554.408 346.588C554.408 346.056 554.089 345.63 553.556 345.63C553.023 345.63 552.597 346.056 552.597 346.588C552.597 347.12 553.023 347.439 553.556 347.439C553.627 347.439 553.698 347.439 553.769 347.439L555.368 350.206C555.687 350.631 555.474 351.27 555.048 351.695C554.622 351.979 554.266 352.334 553.982 352.759C553.556 353.291 552.917 353.398 552.49 353.078L552.277 352.972C552.277 352.901 552.277 352.83 552.277 352.759C552.277 352.227 551.851 351.802 551.425 351.802C550.892 351.802 550.466 352.227 550.466 352.759C550.466 353.185 550.892 353.611 551.425 353.611C551.638 353.611 551.816 353.54 551.958 353.398L552.171 353.504C552.704 353.823 552.917 354.355 552.704 354.887C552.49 355.384 552.348 355.916 552.277 356.483C552.171 357.015 551.745 357.441 551.105 357.441H549.507C549.4 357.122 549.081 356.803 548.654 356.803C548.122 356.803 547.695 357.228 547.695 357.654C547.695 358.186 548.122 358.611 548.654 358.611C549.081 358.611 549.4 358.292 549.507 357.973H551.105C551.745 357.973 552.171 358.399 552.277 358.931C552.348 359.498 552.49 360.03 552.704 360.527C552.917 361.059 552.704 361.591 552.171 361.91L551.425 362.336C551.283 362.194 551.07 362.123 550.786 362.123C550.359 362.123 549.933 362.442 549.933 362.974C549.933 363.506 550.359 363.825 550.786 363.825C551.318 363.825 551.745 363.506 551.745 362.974C551.745 362.903 551.709 362.832 551.638 362.761L552.49 362.336C552.917 362.016 553.556 362.123 553.982 362.655C554.266 363.01 554.622 363.364 555.048 363.719C555.474 364.145 555.687 364.677 555.368 365.209L555.154 365.528C555.083 365.528 555.012 365.528 554.941 365.528C554.408 365.528 554.089 365.953 554.089 366.379C554.089 366.911 554.408 367.337 554.941 367.337C555.474 367.337 555.794 366.911 555.794 366.379C555.794 366.166 555.723 365.953 555.581 365.741L555.794 365.421C556.007 364.996 556.646 364.783 557.179 364.996C557.676 365.138 558.209 365.279 558.777 365.421C559.31 365.421 559.736 365.953 559.736 366.485V368.188C559.31 368.294 559.097 368.72 559.097 369.039C559.097 369.571 559.523 369.997 559.95 369.997C560.482 369.997 560.909 369.571 560.909 369.039C560.909 368.72 560.589 368.294 560.163 368.188V366.485C560.163 365.953 560.589 365.421 561.228 365.421C561.868 365.279 562.471 365.067 563.04 364.783C563.466 364.677 563.786 364.677 563.999 364.996L564.212 365.528C564.07 365.67 563.999 365.882 563.999 366.166C563.999 366.592 564.318 367.017 564.851 367.017C565.384 367.017 565.704 366.592 565.704 366.166C565.704 365.634 565.384 365.209 564.851 365.209C564.78 365.209 564.709 365.244 564.638 365.315L564.318 364.783C564.212 364.464 564.212 364.251 564.532 364.038C565.242 363.542 565.846 362.939 566.343 362.229C566.556 361.945 566.769 361.875 566.982 362.016L567.302 362.229C567.302 362.229 567.302 362.265 567.302 362.336C567.302 362.868 567.728 363.187 568.155 363.187C568.687 363.187 569.114 362.868 569.114 362.336C569.114 361.804 568.687 361.484 568.155 361.484C567.941 361.484 567.728 361.591 567.515 361.804L567.302 361.591C566.982 361.378 566.982 361.165 567.089 360.846C567.373 360.208 567.551 359.569 567.622 358.931C567.728 358.399 568.261 357.973 568.794 357.973H571.138C571.245 358.292 571.564 358.611 571.991 358.611C572.523 358.611 572.843 358.186 572.843 357.654C572.843 357.228 572.523 356.803 571.991 356.803Z" fill="#C2E1FF"/>
</g>
<defs>
<clipPath id="clip0_58_2313">
<rect width="600" height="536" fill="white" transform="translate(0 0.5)"/>
</clipPath>
</defs>
</svg>
