<svg width="914" height="601" viewBox="0 0 914 601" fill="none" xmlns="http://www.w3.org/2000/svg">
<g clip-path="url(#clip0_127_11778)">
<path d="M914 600.629H0V0H914V600.629Z" fill="white"/>
<path d="M53.1172 534.011C123.782 504.946 193.299 388.502 160.865 293.472C104.536 128.587 323.113 28.6735 439.818 145.378C513.878 219.438 692.943 104.065 777.345 229.78C822.418 296.946 757.263 404.014 759.953 455.955C762.538 505.103 827.98 534.011 827.98 534.011H53.1172Z" fill="#D9F3FF"/>
<path d="M869.998 534.768H49.6697C48.9385 534.768 48.3379 534.168 48.3379 533.436C48.3379 532.679 48.9385 532.079 49.6697 532.079H869.998C870.729 532.079 871.33 532.679 871.33 533.436C871.33 534.168 870.729 534.768 869.998 534.768Z" fill="black"/>
<mask id="mask0_127_11778" style="mask-type:luminance" maskUnits="userSpaceOnUse" x="16" y="38" width="844" height="494">
<path d="M859.97 531.857H16.7949V38.6387H859.97V531.857Z" fill="white"/>
</mask>
<g mask="url(#mask0_127_11778)">
<path d="M679.18 307.783L663.564 325.045L636.17 295.326L654.711 288.25L679.18 307.783Z" fill="#FFA46E"/>
<path d="M659.7 312.51L658.76 313.006L649.28 317.941C646.747 319.299 643.561 318.359 642.203 315.8C634.134 295.457 624.55 276.733 612.642 260.594C611.258 258.061 612.224 254.875 614.783 253.517L624.654 248.347L625.203 248.086C627.736 246.702 630.922 247.668 632.28 250.227C644.031 267.045 653.772 285.534 661.841 305.407C663.225 307.966 662.259 311.152 659.7 312.51Z" fill="#545454"/>
<path d="M633.246 264.198L621.181 270.518C618.883 271.771 615.984 270.883 614.757 268.585L610.631 260.855C609.377 258.557 610.265 255.659 612.563 254.431L624.628 248.112C626.952 246.884 629.825 247.746 631.052 250.07L635.204 257.774C636.432 260.072 635.57 262.971 633.246 264.198Z" fill="#333333"/>
<path d="M630.581 264.25L621.128 269.16C619.143 270.231 616.662 269.473 615.591 267.489L611.857 260.542C610.813 258.558 611.544 256.077 613.555 255.006L623.008 250.07C624.993 249 627.473 249.757 628.544 251.742L632.278 258.688C633.349 260.699 632.592 263.18 630.581 264.25Z" fill="#6E6E6E"/>
<path d="M659.177 312.614L647.112 318.908C644.788 320.161 641.915 319.273 640.688 316.975L636.562 309.271C635.308 306.947 636.17 304.075 638.494 302.821L650.559 296.502C652.857 295.274 655.756 296.136 656.983 298.46L661.109 306.164C662.363 308.488 661.475 311.361 659.177 312.614Z" fill="#333333"/>
<path d="M656.619 312.823L647.139 317.733C645.155 318.803 642.674 318.046 641.603 316.061L637.895 309.115C636.824 307.13 637.581 304.623 639.566 303.579L649.02 298.643C651.004 297.572 653.511 298.33 654.556 300.314L658.29 307.261C659.361 309.272 658.603 311.752 656.619 312.823Z" fill="#6E6E6E"/>
<path d="M636.615 303.082C635.675 302.873 627.083 297.833 634.63 284.62C640.088 284.202 640.662 291.2 639.67 293.002C636.51 298.669 636.615 303.082 636.615 303.082Z" fill="#FFA46E"/>
<path d="M659.7 312.51L658.76 313.006C658.968 312.51 659.517 311.099 660.091 309.48C660.796 307.443 651.761 293.525 651.761 293.525C651.761 293.525 642.099 292.193 637.581 283.34C633.063 274.487 636.589 265.974 636.589 265.974C636.589 265.974 631.888 257.722 629.773 253.021C628.571 250.384 626.378 249.026 624.654 248.347L625.203 248.086C627.736 246.702 630.922 247.668 632.28 250.227C644.031 267.045 653.772 285.534 661.841 305.407C663.225 307.966 662.259 311.152 659.7 312.51Z" fill="#333333"/>
<path d="M647.217 291.331C649.75 292.689 652.492 290.809 654.764 291.331C655.939 291.592 656.148 293.394 657.166 294.073C662.311 286.813 652.414 268.403 643.848 264.433C643.274 264.172 637.398 264.747 637.711 273.808C637.894 279.501 644.658 289.999 647.217 291.331Z" fill="#FFA46E"/>
<path d="M750.185 366.018C749.924 367.402 749.532 368.734 748.958 370.039C746.294 376.15 739.87 381.373 727.962 383.384C709.525 384.768 682.497 385.917 658.472 387.64C651.578 388.137 644.919 388.659 638.756 389.286C613.346 382.731 598.096 343.873 627.892 335.621C631.261 334.707 645.232 334.42 662.337 334.89C693.465 335.699 734.987 338.859 742.142 344.709C747.783 349.331 751.648 357.975 750.185 366.018Z" fill="white"/>
<path d="M619.118 338.807C603.893 351.08 582.375 354.319 566.367 339.851C566.524 331.834 568.744 307.914 568.221 300.105L617.838 306.791C618.204 316.192 618.726 329.353 619.118 338.807Z" fill="#FFA46E"/>
<path d="M617.969 308.932C617.943 308.201 617.917 307.47 617.891 306.791H581.252L570.18 309.115C570.18 309.115 585.874 335.046 619.04 338.859C618.648 327.943 618.178 314.494 617.969 308.932Z" fill="#D46C42"/>
<path d="M618.674 267.985C618.883 272.241 621.782 275.584 625.15 275.401C628.519 275.245 631.078 271.641 630.869 267.358C630.66 263.101 627.762 259.785 624.393 259.942C621.024 260.098 618.465 263.702 618.674 267.985Z" fill="#FFA46E"/>
<path d="M620.372 244.142C620.137 244.978 630.818 283.418 629.486 293.002C618.335 321.78 599.481 332.017 568.849 310.133C564.331 304.884 550.334 275.662 550.099 275.401C529.729 235.943 605.148 202.751 620.372 244.142Z" fill="#FFA46E"/>
<path d="M613.19 235.237C619.771 236.778 622.043 254.484 623.949 259.863L624.314 258.845C625.986 185.124 503.405 221.919 553.44 282.008C557.07 284.228 560.961 291.514 563.155 296.789C562.554 293.211 566.785 282.269 565.296 274.148C565.296 274.148 556.6 263.154 559.264 252.603C560.909 246.127 574.776 248.112 586.553 243.829C598.566 239.442 608.463 233.462 613.19 235.237Z" fill="black"/>
<path d="M584.673 273.887C586.135 277.96 581.931 279.501 580.416 275.427C578.928 271.353 583.158 269.813 584.673 273.887Z" fill="black"/>
<path d="M617.785 261.874C619.274 265.948 615.043 267.489 613.529 263.415C612.066 259.341 616.271 257.8 617.785 261.874Z" fill="black"/>
<path d="M608.438 289.529C616.716 286.892 604.912 277.36 602.484 274.905L600.473 269.473C600.342 269.108 599.951 268.925 599.585 269.055C599.219 269.186 599.036 269.578 599.167 269.943L601.282 275.715C605.043 279.005 610.396 284.672 610.031 286.552C609.143 289.66 601.256 288.328 601.57 289.79C601.491 291.174 605.905 290.286 608.438 289.529Z" fill="#C75038"/>
<path d="M608.333 302.456C610.527 301.646 611.989 300.993 612.198 300.889C613.008 300.549 612.459 299.244 611.624 299.635C611.441 299.714 592.299 308.227 584.804 302.638C584.491 302.403 584.047 302.456 583.838 302.769C586.893 309.167 603.136 304.388 608.333 302.456Z" fill="#C75038"/>
<path d="M574.593 270.91C568.404 270.675 578.876 261.247 585.013 263.571C585.77 263.728 586.266 264.459 586.11 265.217C585.953 265.974 585.222 266.47 584.465 266.313C577.309 265.243 576.082 270.231 574.593 270.91Z" fill="black"/>
<path d="M607.104 258.61C601.699 258.819 609.141 249.731 617.681 251.689C618.438 251.846 618.908 252.577 618.751 253.335C618.621 254.092 617.863 254.588 617.132 254.431C610.003 253.309 608.488 257.957 607.104 258.61Z" fill="black"/>
<path d="M543.098 243.333C543.098 243.333 557.331 212.361 586.03 204.658C614.73 196.954 608.645 215.182 608.645 215.182C638.807 210.455 593.003 243.411 580.912 245.84C569.996 248.843 542.419 252.368 543.098 243.333Z" fill="black"/>
<path d="M565.036 283.653C568.796 288.563 568.718 294.987 564.827 297.964C560.936 300.941 554.721 299.374 550.934 294.439C547.147 289.503 547.252 283.079 551.143 280.102C555.034 277.125 561.249 278.718 565.036 283.653Z" fill="#FFA46E"/>
<path d="M561.197 294.621C560.832 294.752 560.414 294.595 560.231 294.256C557.385 288.824 555.243 287.832 554.225 287.727C553.154 287.597 552.553 288.302 552.527 288.354C552.24 288.667 551.744 288.72 551.404 288.458C551.091 288.171 551.039 287.675 551.3 287.362C551.352 287.283 552.423 285.978 554.329 286.16C556.732 286.369 559.187 288.85 561.641 293.498C561.824 293.89 561.693 294.36 561.302 294.569C561.267 294.587 561.232 294.604 561.197 294.621Z" fill="#C75038"/>
<path d="M519.57 547.329C518.917 554.955 518.238 562.92 517.611 570.884H640.322L641.21 339.799C634.916 338.467 626.481 335.229 617.968 334.524C612.615 340.269 609.403 344.265 600.289 344.474C594.648 344.604 586.344 341.679 580.86 334.054C537.145 338.363 514.451 353.666 514.451 353.666L534.611 493.665C534.611 493.665 522.024 518.656 519.57 547.329Z" fill="#9EDDFF"/>
<path d="M605.67 364.138L613.635 353.875L600.787 344.761L587.051 353.535L595.172 364.138H605.67Z" fill="#3086B3"/>
<path d="M627.633 513.172L611.703 539.391L596.426 514.008C600.056 467.185 598.385 406.756 595.277 357.531L606.141 357.609C616.43 407.67 624.995 466.976 627.633 513.172Z" fill="#3086B3"/>
<path d="M624.577 335.334L618.91 329.432C618.44 335.412 607.342 343.194 600.787 344.761C606.663 349.775 611.207 353.561 617.135 362.701L624.577 335.334Z" fill="#5BB9EB"/>
<path d="M559.369 336.248L567.908 325.488C567.908 325.488 585.013 338.258 600.786 344.761C593.736 350.088 590.497 355.572 586.267 362.701L559.369 336.248Z" fill="#5BB9EB"/>
<path d="M509.359 570.884H578.379C587.624 489.826 578.432 411.561 558.376 336.77C520.38 342.437 514.138 353.666 514.138 353.666L530.564 496.772L509.359 570.884Z" fill="white"/>
<path d="M636.014 570.884H671.712L662.415 469.979L656.278 345.962C638.86 337.605 633.324 336.665 624.027 334.733C636.771 417.28 641.211 495.519 636.014 570.884Z" fill="white"/>
<path d="M579.738 526.96C579.773 526.96 579.808 526.952 579.843 526.934C587.86 525.002 581.801 484.054 581.801 484.054C569.502 486.64 556.053 526.934 556.053 526.934C556.053 526.934 556.114 526.943 556.236 526.96H579.738Z" fill="#276C9C"/>
<path d="M553.023 390.147L533.072 457.261L581.017 484.916C560.465 490.87 552.997 511.396 544.536 530.799L486.51 484.446L522.13 375.811L553.023 390.147Z" fill="#D9F1FF"/>
<path d="M620.398 527.43L574.202 527.3L561.797 527.273C558.768 520.797 557.123 513.799 565.035 503.248C565.035 503.248 566.994 503.039 569.997 502.778C576.839 502.204 589.113 501.211 596.007 501.185C612.067 501.081 620.398 527.43 620.398 527.43Z" fill="#FFA46E"/>
<path d="M574.202 527.3L561.797 527.274C558.768 520.797 557.123 513.799 565.035 503.248C565.035 503.248 566.994 503.039 569.997 502.778C569.344 506.878 567.882 520.04 574.202 527.3Z" fill="#D17743"/>
<path d="M597.365 501.264C597.861 501.264 611.754 500.454 616.507 504.032C621.26 507.636 625.673 515.992 625.673 515.992C625.673 515.992 624.864 517.794 620.92 516.488C617.003 515.183 613.243 509.124 613.243 509.124L599.167 508.132L597.365 501.264Z" fill="#FFA46E"/>
<path d="M614.679 527.509C614.601 527.509 614.548 527.456 614.522 527.378C611.702 512.702 599.585 509.49 599.48 509.437C599.402 509.437 599.35 509.359 599.376 509.281C599.376 509.202 599.48 509.15 599.559 509.15C599.663 509.202 611.937 512.441 614.809 527.326C614.836 527.404 614.783 527.482 614.705 527.482C614.688 527.5 614.679 527.509 614.679 527.509Z" fill="#D66D2D"/>
<path d="M608.412 527.404C608.359 527.404 608.281 527.378 608.281 527.326C605.879 521.189 594.963 516.906 594.832 516.88C594.754 516.854 594.728 516.749 594.754 516.671C594.78 516.619 594.884 516.567 594.937 516.593C595.067 516.645 606.114 520.954 608.542 527.221C608.568 527.274 608.542 527.378 608.464 527.404C608.447 527.404 608.429 527.404 608.412 527.404Z" fill="#D66D2D"/>
<path d="M514.139 354.319C513.146 354.632 441.332 460.343 463.164 493.508C471.076 505.546 563.625 530.956 563.625 530.956C559.29 518.995 563.756 503.954 581.879 484.185C580.156 484.185 519.466 461.805 519.466 461.805C519.466 461.805 555.295 394.038 555.869 376.176C556.444 358.34 534.612 347.999 514.139 354.319Z" fill="white"/>
<path d="M674.141 297.886C674.141 297.886 742.143 339.773 747.966 350.401C755.069 363.328 748.828 383.279 724.829 381.712C700.856 380.12 655.234 326.977 655.234 326.977L674.141 297.886Z" fill="white"/>
<path d="M698.637 367.741C681.61 357.609 655.417 327.786 655.156 327.473L656.044 326.69C656.305 327.003 682.393 356.695 699.237 366.723L698.637 367.741Z" fill="#D9F1FF"/>
<path d="M748.959 370.039C746.295 376.15 739.871 381.373 727.963 383.384C709.526 384.768 682.498 385.917 658.473 387.64C657.35 381.19 655.783 371.894 655.783 371.894C655.783 371.894 688.687 380.903 716.917 379.728C729.582 379.206 741.334 376.646 748.698 370.274C748.785 370.205 748.872 370.126 748.959 370.039Z" fill="#F2FAFF"/>
<path d="M658.003 319.404L654.764 321.154L651.004 316.479L656.175 313.711L658.003 319.404Z" fill="#333333"/>
<path d="M658.943 337.919C658.812 337.919 658.682 337.867 658.577 337.762C658.368 337.579 658.342 337.214 658.551 337.005C661.476 333.688 656.41 320.814 654.19 316.14C654.059 315.852 654.19 315.539 654.451 315.408C654.738 315.278 655.052 315.382 655.182 315.67C655.522 316.375 663.382 333.218 659.36 337.736C659.256 337.841 659.099 337.919 658.943 337.919Z" fill="#333333"/>
<path d="M658.446 340.112C658.263 340.112 658.081 340.034 657.976 339.877C657.819 339.616 657.898 339.277 658.133 339.12L663.46 335.673C663.695 335.516 664.035 335.569 664.217 335.83C664.374 336.091 664.296 336.43 664.061 336.587L658.733 340.034C658.646 340.086 658.551 340.112 658.446 340.112Z" fill="#333333"/>
<path d="M658.839 341.888C658.656 341.888 658.473 341.81 658.369 341.653C658.212 341.392 658.29 341.053 658.525 340.896L663.853 337.449C664.088 337.292 664.453 337.344 664.61 337.605C664.767 337.867 664.688 338.206 664.453 338.363L659.126 341.81C659.039 341.862 658.943 341.888 658.839 341.888Z" fill="#333333"/>
<path d="M659.23 343.664C659.047 343.664 658.865 343.586 658.76 343.429C658.603 343.168 658.682 342.828 658.943 342.672L664.244 339.225C664.505 339.068 664.845 339.12 665.001 339.381C665.158 339.642 665.08 339.982 664.845 340.139L659.517 343.586C659.43 343.655 659.335 343.681 659.23 343.664Z" fill="#333333"/>
<path d="M659.621 345.466C659.438 345.466 659.255 345.361 659.151 345.205C658.994 344.944 659.072 344.604 659.333 344.447L664.635 341C664.896 340.844 665.235 340.922 665.392 341.157C665.549 341.418 665.496 341.758 665.235 341.914L659.908 345.361C659.821 345.431 659.725 345.466 659.621 345.466Z" fill="#333333"/>
<path d="M660.012 347.242C659.829 347.242 659.673 347.137 659.568 346.98C659.386 346.719 659.464 346.38 659.725 346.223L665.026 342.776C665.287 342.619 665.627 342.698 665.784 342.933C665.94 343.194 665.888 343.533 665.627 343.69L660.326 347.137C660.221 347.207 660.117 347.242 660.012 347.242Z" fill="#333333"/>
<path d="M660.405 349.017C660.222 349.017 660.065 348.913 659.961 348.756C659.778 348.495 659.857 348.156 660.118 347.999L665.419 344.552C665.68 344.395 666.019 344.474 666.176 344.709C666.359 344.97 666.281 345.309 666.019 345.466L660.718 348.913C660.614 348.983 660.509 349.017 660.405 349.017Z" fill="#333333"/>
<path d="M660.797 350.793C660.641 350.793 660.458 350.689 660.354 350.532C660.171 350.271 660.249 349.931 660.51 349.775L665.811 346.328C666.073 346.171 666.412 346.249 666.569 346.484C666.752 346.745 666.673 347.085 666.412 347.242L661.111 350.689C661.006 350.758 660.902 350.793 660.797 350.793Z" fill="#333333"/>
<path d="M661.214 352.569C661.032 352.569 660.849 352.465 660.744 352.308C660.588 352.047 660.64 351.707 660.901 351.551L666.202 348.103C666.463 347.947 666.803 348.025 666.986 348.26C667.142 348.521 667.064 348.861 666.803 349.017L661.502 352.465C661.415 352.534 661.319 352.569 661.214 352.569Z" fill="#333333"/>
<path d="M661.607 354.345C661.424 354.345 661.241 354.24 661.137 354.084C660.98 353.822 661.033 353.483 661.294 353.326L666.621 349.879C666.856 349.723 667.196 349.801 667.378 350.036C667.535 350.297 667.457 350.637 667.195 350.793L661.894 354.24C661.807 354.31 661.711 354.345 661.607 354.345Z" fill="#333333"/>
<path d="M661.999 356.12C661.816 356.12 661.633 356.016 661.529 355.859C661.372 355.598 661.45 355.259 661.685 355.102L667.013 351.655C667.248 351.498 667.587 351.577 667.77 351.812C667.927 352.073 667.848 352.412 667.613 352.569L662.286 356.016C662.199 356.086 662.103 356.12 661.999 356.12Z" fill="#333333"/>
<path d="M662.389 357.896C662.207 357.896 662.024 357.792 661.919 357.635C661.763 357.374 661.841 357.035 662.076 356.878L667.403 353.431C667.665 353.274 668.004 353.352 668.161 353.587C668.317 353.849 668.239 354.188 668.004 354.345L662.677 357.792C662.59 357.861 662.494 357.896 662.389 357.896Z" fill="#333333"/>
<path d="M662.781 359.672C662.598 359.672 662.415 359.568 662.311 359.411C662.154 359.15 662.233 358.81 662.494 358.654L667.795 355.207C668.056 355.05 668.396 355.128 668.552 355.363C668.709 355.624 668.657 355.964 668.396 356.147L663.068 359.568C662.981 359.637 662.885 359.672 662.781 359.672Z" fill="#333333"/>
<path d="M663.174 361.448C662.991 361.448 662.834 361.343 662.703 361.187C662.547 360.926 662.625 360.586 662.886 360.429L668.187 356.982C668.449 356.826 668.788 356.904 668.945 357.139C669.101 357.4 669.049 357.74 668.788 357.922L663.487 361.343C663.382 361.413 663.278 361.448 663.174 361.448Z" fill="#333333"/>
<path d="M663.565 363.224C663.382 363.224 663.226 363.119 663.121 362.962C662.938 362.701 663.017 362.362 663.278 362.205L668.579 358.758C668.84 358.601 669.18 358.68 669.336 358.941C669.519 359.176 669.441 359.515 669.18 359.698L663.878 363.119C663.774 363.189 663.67 363.224 663.565 363.224Z" fill="#333333"/>
<path d="M663.956 364.999C663.773 364.999 663.616 364.895 663.512 364.738C663.329 364.477 663.407 364.138 663.668 363.981L668.97 360.534C669.231 360.377 669.57 360.455 669.727 360.717C669.91 360.952 669.831 361.291 669.57 361.474L664.269 364.895C664.165 364.965 664.06 364.999 663.956 364.999Z" fill="#333333"/>
<path d="M664.348 366.775C664.192 366.775 664.009 366.671 663.905 366.514C663.748 366.253 663.8 365.913 664.061 365.757L669.362 362.31C669.624 362.153 669.963 362.231 670.12 362.492C670.303 362.727 670.224 363.067 669.963 363.25L664.662 366.671C664.557 366.74 664.453 366.775 664.348 366.775Z" fill="#333333"/>
<path d="M670.824 434.411C670.789 434.411 670.754 434.402 670.72 434.385C670.432 434.333 670.223 434.046 670.302 433.758C676.517 401.899 673.723 373.46 670.145 368.603C668.657 366.592 666.358 367.82 666.28 367.898C666.019 368.029 665.68 367.95 665.523 367.663C665.366 367.402 665.471 367.089 665.732 366.932C666.855 366.305 669.362 365.731 671.007 367.95C674.584 372.755 677.927 400.437 671.372 433.967C671.32 434.228 671.085 434.411 670.824 434.411Z" fill="#333333"/>
<path d="M295.117 256.521C295.117 256.521 295.666 310.734 336.926 315.852C373.904 316.923 393.307 318.96 378.187 245.918C369.021 213.275 295.666 221.449 295.117 256.521Z" fill="#C95138"/>
<path d="M412.737 550.359H263.65L273.913 346.197C315.2 329.04 357.792 331.521 402.474 346.197L412.737 550.359Z" fill="#9EDDFF"/>
<path d="M308.802 364.999C308.802 366.775 303.188 445.327 324.21 476.69C345.258 508.053 296.764 551.925 296.764 551.925C251.508 536.596 279.215 353.222 308.802 364.999Z" fill="#66C2F5"/>
<path d="M361.527 342.489C361.527 342.489 357.166 358.993 339.486 359.724C321.807 360.482 316.375 342.489 316.375 342.489L320.162 312.745L322.407 294.909H355.494L359.202 324.104L361.527 342.489Z" fill="#F7A594"/>
<path d="M359.203 324.104C343.221 326.846 328.78 320.318 320.162 312.745L322.408 294.909H355.495L359.203 324.104Z" fill="#DE7964"/>
<path d="M317.733 322.773C317.733 323.895 338.311 359.124 338.311 359.124C338.311 359.124 320.475 371.267 320.475 370.353C320.475 369.439 312.014 336.718 312.014 336.718L317.733 322.773Z" fill="#80D3FF"/>
<path d="M360.273 324.601C360.273 325.724 337.867 359.594 337.867 359.594C337.867 359.594 354.319 373.095 354.319 372.181C354.319 371.267 365.992 338.546 365.992 338.546L360.273 324.601Z" fill="#80D3FF"/>
<path d="M298.512 570.049L246.57 566.784L266.548 463.764L266.522 463.267L264.955 436.004L264.328 425.167L262.5 393.803L260.855 365.052L260.15 353.065C260.15 353.065 270.125 346.719 283.6 341.444C291.435 338.389 300.444 335.699 309.349 334.864C307.182 436.892 312.874 493.9 298.512 570.049Z" fill="white"/>
<path d="M293.786 412.005C288.537 417.28 282.609 422.947 275.48 428.509C272.242 431.042 268.742 433.576 264.956 436.004C253.909 443.133 240.382 449.584 223.225 454.18C221.319 454.911 219.517 455.224 217.845 455.198C204.501 454.885 198.181 432.348 206.355 412.815C208.967 406.573 213.067 400.645 218.89 395.84L260.856 365.052L279.58 351.316C279.597 351.298 279.614 351.289 279.632 351.289C299.427 341.157 317.445 391.558 293.786 412.005Z" fill="white"/>
<path d="M278.561 416.575L275.48 428.509L266.522 463.267L264.956 436.004C253.909 443.133 240.382 449.584 223.225 454.18C221.319 454.911 219.517 455.224 217.845 455.198C204.501 454.885 198.181 432.348 206.355 412.815C207.086 425.062 210.037 435.743 217.793 438.146C224.531 440.235 233.697 438.433 242.863 435.116C250.462 432.374 258.088 428.588 264.329 425.167C272.685 420.545 278.561 416.575 278.561 416.575Z" fill="#D9F1FF"/>
<path d="M368.891 336.822C393.125 339.146 415.165 351.107 415.165 351.107L408.95 463.764L428.927 566.784H360.717C365.365 525.785 377.56 433.288 368.891 336.822Z" fill="white"/>
<path d="M414.486 350.793C414.486 350.793 444.256 395.971 449.244 469.143C450.602 489.33 404.876 559.342 404.876 559.342H352.203L404.04 479.484C404.04 479.484 367.323 405.137 377.795 380.877C388.241 356.643 402.656 345.126 414.486 350.793Z" fill="white"/>
<path d="M353.483 558.271L352.699 557.775L407.252 471.128L389.834 422.947L390.722 422.634L408.27 471.232L408.166 471.415L353.483 558.271Z" fill="#D9F1FF"/>
<path d="M318.411 322.799C315.852 348.13 308.749 450.498 308.749 450.498C293.08 416.183 286.056 391.27 286.056 391.27L297.441 379.049L279.188 348.652C291.748 331.26 318.411 322.799 318.411 322.799Z" fill="#D9F1FF"/>
<path d="M359.438 322.982C360.717 350.558 373.461 387.823 370.954 449.61C386.622 415.295 391.323 390.957 391.323 390.957L379.937 378.736L398.191 348.338C388.477 333.845 359.438 322.982 359.438 322.982Z" fill="#D9F1FF"/>
<path d="M371.189 432.557C371.189 432.557 326.56 419.918 337.528 381.608C342.933 362.727 375.132 353.666 357.531 324.757C357.444 324.635 357.366 324.505 357.296 324.366L354.894 303.082C354.894 303.082 371.555 299.139 377.691 291.018C373.095 303.317 378.344 309.454 381.034 312.04C391.636 322.146 402.787 332.827 402.944 351.028C403.257 385.604 368.108 384.82 371.189 432.557Z" fill="#C95138"/>
<path d="M373.33 273.155C381.243 283.549 365.679 312.927 339.121 313.006C322.355 312.353 295.928 296.528 302.769 263.519C297.964 235.995 314.939 209.959 339.121 209.959C363.302 209.959 378.71 244.142 373.33 273.155Z" fill="#F7A594"/>
<path d="M384.82 271.693C384.82 276.08 381.295 279.632 376.907 279.632C372.52 279.632 368.969 276.08 368.969 271.693C368.969 267.332 372.52 263.78 376.907 263.78C381.295 263.78 384.82 267.332 384.82 271.693Z" fill="#F7A594"/>
<path d="M357.349 229.727C345.964 252.473 304.285 262.971 304.285 262.971L297.678 263.911L295.85 264.198C295.85 264.198 292.351 244.247 305.043 225.941C317.734 207.635 337.947 209.28 337.947 209.28C337.947 209.28 341.994 209.149 346.538 210.142C354.085 211.761 362.99 216.409 357.349 229.727Z" fill="#C95138"/>
<path d="M346.538 210.142C332.88 212.1 319.849 216.592 310.161 226.776C301.387 235.995 298.54 255.137 297.678 263.911L295.85 264.198C295.85 264.198 292.351 244.247 305.043 225.941C317.734 207.635 337.947 209.28 337.947 209.28C337.947 209.28 341.994 209.149 346.538 210.142Z" fill="#F56245"/>
<path d="M339.957 228.996C333.246 213.772 338.652 209.463 338.652 209.463C338.652 209.463 358.838 207.791 371.529 226.097C384.221 244.404 376.413 263.65 376.413 263.65C376.413 263.65 345.807 268.951 339.957 228.996Z" fill="#C95138"/>
<path d="M308.489 271.275C308.489 275.662 304.937 279.214 300.55 279.214C296.163 279.214 292.611 275.662 292.611 271.275C292.611 266.888 296.163 263.336 300.55 263.336C304.937 263.336 308.489 266.888 308.489 271.275Z" fill="#F7A594"/>
<path d="M303.422 282.766C303.422 282.766 310.003 294.569 322.721 297.755C323.426 297.912 323.87 298.617 323.713 299.348C323.53 300.053 322.825 300.523 322.094 300.34C318.386 299.479 307.94 295.849 301.229 284.202L303.422 282.766Z" fill="black"/>
<path d="M305.589 276.185C306.738 279.841 305.511 283.497 302.847 284.332C300.184 285.168 297.102 282.896 295.927 279.24C294.778 275.584 296.005 271.928 298.669 271.092C301.359 270.257 304.44 272.529 305.589 276.185Z" fill="black"/>
<path d="M303.997 276.681C305.225 280.546 303.919 284.411 301.099 285.298C298.278 286.186 295.014 283.784 293.787 279.919C292.585 276.028 293.865 272.189 296.685 271.301C299.506 270.413 302.796 272.816 303.997 276.681Z" fill="white"/>
<path d="M300.994 277.856C301.699 280.102 300.942 282.322 299.323 282.818C297.677 283.34 295.797 281.956 295.092 279.71C294.387 277.49 295.144 275.271 296.764 274.748C298.409 274.252 300.289 275.636 300.994 277.856Z" fill="#B8E5FF"/>
<path d="M305.251 280.885C305.217 280.885 305.182 280.877 305.147 280.859C304.834 280.807 304.625 280.52 304.677 280.232C305.591 274.775 303.58 268.847 301.204 266.47C298.436 263.702 295.015 265.896 294.858 266C294.597 266.183 294.257 266.105 294.074 265.843C293.918 265.582 293.97 265.217 294.231 265.06C294.283 265.034 298.592 262.24 302.013 265.661C304.651 268.298 306.766 274.54 305.8 280.415C305.748 280.676 305.513 280.885 305.251 280.885Z" fill="black"/>
<path d="M302.43 263.075C302.43 263.075 339.616 253.883 348.548 232.391C354.188 217.584 345.1 209.776 345.1 209.776C345.1 209.776 354.24 213.38 353.953 228.709C353.457 252.708 302.43 263.075 302.43 263.075Z" fill="#A33A23"/>
<path d="M337.606 283.601C336.327 283.601 333.558 283.444 333.141 282.165C332.644 280.65 337.032 268.69 337.919 266.313C337.998 266.105 338.233 266 338.442 266.078C338.651 266.157 338.755 266.392 338.677 266.575C336.118 273.469 333.611 281.068 333.898 281.93C334.107 282.609 336.535 282.844 338.102 282.792C338.311 282.792 338.494 282.974 338.494 283.183C338.52 283.392 338.337 283.575 338.128 283.601C337.998 283.601 337.841 283.601 337.606 283.601Z" fill="#BA4228"/>
<path d="M330.215 295.091C330.215 295.091 343.794 296.528 355.18 290.104C352.125 302.691 338.232 309.245 330.215 295.091Z" fill="#A33A23"/>
<path d="M319.534 272.111C318.542 272.111 317.732 271.301 317.732 270.309V266.705C317.732 265.713 318.542 264.903 319.534 264.903C320.527 264.903 321.336 265.713 321.336 266.705V270.309C321.336 271.301 320.527 272.111 319.534 272.111Z" fill="black"/>
<path d="M357.845 272.398C356.853 272.398 356.043 271.589 356.043 270.596V266.992C356.043 266 356.853 265.191 357.845 265.191C358.837 265.191 359.647 266 359.647 266.992V270.596C359.647 271.589 358.837 272.398 357.845 272.398Z" fill="black"/>
<path d="M362.18 276.42C362.18 277.255 360.143 277.934 357.662 277.934C355.181 277.934 353.145 277.255 353.145 276.42C353.145 275.584 355.181 274.905 357.662 274.905C360.169 274.905 362.18 275.584 362.18 276.42Z" fill="#F79985"/>
<path d="M324.261 276.42C324.261 277.255 322.251 277.934 319.744 277.934C317.263 277.934 315.252 277.255 315.252 276.42C315.252 275.584 317.263 274.905 319.744 274.905C322.251 274.905 324.261 275.584 324.261 276.42Z" fill="#F79985"/>
<path d="M375.054 276.054C374.819 276.054 374.662 275.871 374.662 275.662C374.662 275.401 374.688 269.526 378.344 268.559C378.553 268.507 378.788 268.612 378.84 268.847C378.893 269.055 378.762 269.264 378.553 269.317C375.498 270.152 375.446 275.61 375.446 275.662C375.446 275.871 375.263 276.054 375.054 276.054Z" fill="#BA4228"/>
<path d="M266.027 364.399L251.377 347.738L277.126 323.478L289.008 330.972L266.027 364.399Z" fill="#F7A594"/>
<path d="M276.473 324.418C276.603 323.008 281.931 297.363 281.565 297.964C286.84 291.253 298.383 299.609 298.827 310.473C298.827 310.473 293.917 328.909 287.493 332.696C275.846 339.46 276.473 324.418 276.473 324.418Z" fill="#F7A594"/>
<path d="M281.539 297.912C281.539 297.912 290.966 271.85 291.227 271.98C291.515 272.111 293.891 272.607 293.499 276.446C293.134 280.311 286.736 301.542 286.736 301.542L281.539 297.912Z" fill="#F7A594"/>
<path d="M285.848 300.053C285.848 300.053 299.74 276.603 300.002 276.785C300.263 276.968 302.639 277.934 301.49 281.878C300.367 285.795 291.514 303.056 291.514 303.056L285.848 300.053Z" fill="#F7A594"/>
<path d="M286.918 304.31C287.336 303.579 295.98 296.711 297.938 295.797C299.923 294.909 310.813 294.726 310.813 294.726C310.813 294.726 311.361 297.807 307.183 298.199C303.031 298.591 300.027 300.419 300.027 300.419L293.185 311.674L286.918 304.31Z" fill="#F7A594"/>
<path d="M292.924 311.465C292.924 311.465 295.352 303.291 300.68 302.821C305.772 302.351 311.596 307.548 311.596 307.548C311.596 307.548 311.465 309.376 307.913 308.723C304.362 308.07 303.448 307.156 303.448 307.156L299.818 308.227L296.945 316.584L292.924 311.465Z" fill="#F7A594"/>
<path d="M266.887 321.519C264.563 320.292 262.213 319.064 259.81 317.941L220.378 391.323L208.052 408.166C192.253 433.784 213.405 470.214 249.104 436.761C255.841 430.442 257.747 422.372 257.747 422.372L267.697 397.668L283.888 357.452L296.893 339.747C287.309 332.983 277.229 327.029 266.887 321.519Z" fill="white"/>
<path d="M248.738 433.158L247.98 432.609C250.853 428.718 252.994 424.357 255.084 420.1C255.519 419.213 255.954 418.325 256.389 417.437C259.131 412.162 261.534 407.174 263.936 401.768C265.312 398.582 266.696 395.405 268.088 392.237C272.737 381.634 277.124 371.606 281.381 361.108L281.433 361.03C284.775 355.99 288.379 351.002 291.852 346.171C293.289 344.16 294.777 342.097 296.24 340.06L296.997 340.609C295.561 342.646 294.046 344.709 292.61 346.719C289.163 351.524 285.585 356.512 282.242 361.5C277.986 371.998 273.39 382.47 268.95 392.628C267.557 395.779 266.165 398.957 264.772 402.16C262.369 407.566 259.967 412.58 257.225 417.855C256.79 418.743 256.354 419.63 255.919 420.518C253.83 424.801 251.663 429.214 248.738 433.158Z" fill="#D9F1FF"/>
</g>
<path d="M470.007 488.651C467.761 492.698 464.862 496.746 461.18 500.768C461.18 500.768 453.476 487.998 452.092 471.102C451.048 458.123 453.711 442.742 466.429 428.823C466.429 428.823 487.059 458.018 470.007 488.651Z" fill="#5FB38C"/>
<path d="M470.006 488.651C467.76 492.698 464.862 496.746 461.18 500.768C461.18 500.768 453.476 487.998 452.092 471.102L470.006 488.651Z" fill="#379168"/>
<path d="M460.946 500.298C460.528 493.351 460.502 486.196 460.737 479.302L454.521 471.546L454.73 471.389L460.737 478.884C460.946 473.008 461.337 467.367 461.781 462.249L461.677 462.353L455.409 454.545L455.618 454.362L461.781 462.066C462.042 459.037 462.33 456.19 462.617 453.631C462.617 453.596 462.626 453.57 462.643 453.553C464.079 440.47 465.803 431.199 465.829 431.095L466.09 431.147C466.064 431.251 464.393 440.391 462.93 453.318L471.444 446.868L471.6 447.103L462.904 453.71C462.434 457.966 461.938 462.98 461.572 468.386L472.305 461.831L472.462 462.066L461.546 468.725C460.893 478.544 460.554 489.669 461.233 500.271L460.946 500.298Z" fill="#379168"/>
<path d="M472.722 501.655C468.857 504.215 464.417 506.487 459.273 508.341C459.273 508.341 458.333 493.456 464.914 477.839C469.954 465.853 479.433 453.422 497.139 446.92C497.139 446.92 501.97 482.357 472.722 501.655Z" fill="#74C9A2"/>
<path d="M472.722 501.655C468.857 504.215 464.417 506.487 459.273 508.341C459.273 508.341 458.333 493.456 464.914 477.839L472.722 501.655Z" fill="#379168"/>
<path d="M493.301 465.539L493.249 465.252L482.751 467.054C489.984 456.243 495.703 448.931 495.756 448.852L495.547 448.67C495.494 448.748 489.671 456.19 482.359 467.106V467.132C482.342 467.15 482.324 467.167 482.307 467.185C480.87 469.326 479.33 471.702 477.684 474.288L475.752 464.599L475.491 464.652L477.449 474.47L477.58 474.444C474.838 478.779 471.887 483.61 469.015 488.729L468.806 489.094C465.411 495.101 462.12 501.447 459.326 507.818L459.561 507.923C463.87 498.208 469.276 488.494 474.394 480.085L487.164 479.223L487.138 478.936L474.577 479.798C477.397 475.176 480.139 470.945 482.516 467.367L493.301 465.539Z" fill="#379168"/>
<path d="M468.413 510.195C468.413 510.195 471.86 455.825 424.123 438.328C424.123 438.328 416.889 491.419 468.413 510.195Z" fill="#74C9A2"/>
<path d="M468.387 509.568C465.096 502.126 461.258 494.683 457.288 487.658L459.56 476.272L459.247 476.22L457.053 487.24C453.684 481.26 450.237 475.593 447.025 470.527L447.182 470.579L449.454 459.089L449.141 459.011L446.895 470.344C444.988 467.341 443.16 464.547 441.489 462.04C441.472 462.023 441.454 461.997 441.437 461.962H441.411C432.871 449.166 426.082 440.47 426.003 440.391L425.742 440.6C425.821 440.679 432.506 449.244 440.993 461.883L428.667 459.768L428.615 460.108L441.228 462.249C444.022 466.453 447.234 471.363 450.525 476.795L435.848 475.802L435.822 476.116L450.734 477.134C456.714 486.953 463.059 498.339 468.073 509.699L468.387 509.568Z" fill="#379168"/>
<path d="M485.597 493.534L480.765 532.105H445.119L440.915 498.443L440.314 493.534H485.597Z" fill="#E3733F"/>
<path d="M485.597 493.534L480.765 532.105H462.381C473.976 526.934 481.053 514.373 479.747 507.166C478.285 499.096 444.075 498.469 440.915 498.443L440.314 493.534H485.597Z" fill="#DB542E"/>
<path d="M486.877 497.608H439.035V493.273H486.877V497.608Z" fill="#E3733F"/>
<path d="M485.727 532.209H439.269L437.65 529.023H487.346L485.727 532.209Z" fill="#DB542E"/>
<path d="M654.737 415.322L619.013 527.691H523.121V532.444H617.524H622.982C633.35 499.932 656.774 426.76 660.978 415.322H654.737Z" fill="#33ACE6"/>
<path d="M661.056 415.322L623.008 532.444H649.305H773.609L810.822 415.322H661.056Z" fill="#2786B4"/>
<path d="M723.365 491.105H712.24L723.443 454.101H734.568L723.365 491.105Z" fill="white"/>
<path d="M703.205 478.179L706.574 467.054H743.578L740.209 478.179H703.205Z" fill="white"/>
<path d="M286.447 415.322L322.145 527.691H418.037V532.444H323.66H318.202C307.809 499.932 284.384 426.76 280.18 415.322H286.447Z" fill="#33ACE6"/>
<path d="M280.127 415.322L318.176 532.444H291.853H167.549L130.336 415.322H280.127Z" fill="#2786B4"/>
<path d="M217.818 491.105H228.943L217.74 454.101H206.615L217.818 491.105Z" fill="white"/>
<path d="M237.953 478.179L234.584 467.054H197.58L200.949 478.179H237.953Z" fill="white"/>
<path d="M234.036 311.282H134.619C129.318 311.282 125.035 307 125.035 301.698V191.131C125.035 185.829 129.318 181.52 134.619 181.52H234.036C239.337 181.52 243.62 185.829 243.62 191.131V301.698C243.62 307 239.337 311.282 234.036 311.282Z" fill="#B3E4FF"/>
<path d="M174.653 233.932H142.506V198.808H174.653V233.932Z" fill="white"/>
<path d="M158.774 216.827C160.759 216.827 162.613 215.861 163.788 214.372C164.65 213.302 165.172 211.917 165.172 210.377C165.172 206.851 162.3 203.927 158.774 203.927C155.171 203.927 152.324 206.851 152.324 210.377C152.324 211.917 152.82 213.302 153.708 214.372C154.883 215.861 156.711 216.827 158.774 216.827Z" fill="#296ACC"/>
<path d="M170.109 229.022V223.591C168.255 216.827 148.277 217.114 147.363 223.591V229.022H170.109Z" fill="#296ACC"/>
<path d="M224.479 203.848H184.237C183.297 203.848 182.514 203.065 182.514 202.125V201.132C182.514 200.192 183.297 199.409 184.237 199.409H224.479C225.419 199.409 226.177 200.192 226.177 201.132V202.125C226.177 203.065 225.419 203.848 224.479 203.848Z" fill="#3F8EFC"/>
<path d="M224.479 215.704H184.237C183.297 215.704 182.514 214.921 182.514 213.98V212.988C182.514 212.048 183.297 211.291 184.237 211.291H224.479C225.419 211.291 226.177 212.048 226.177 212.988V213.98C226.177 214.921 225.419 215.704 224.479 215.704Z" fill="#3F8EFC"/>
<path d="M224.479 228.761H184.237C183.297 228.761 182.514 228.004 182.514 227.064V226.071C182.514 225.131 183.297 224.348 184.237 224.348H224.479C225.419 224.348 226.177 225.131 226.177 226.071V227.064C226.177 228.004 225.419 228.761 224.479 228.761Z" fill="#3F8EFC"/>
<path d="M181.547 250.906H143.002C142.323 250.906 141.801 250.358 141.801 249.705V247.694C141.801 247.015 142.323 246.493 143.002 246.493H181.547C182.2 246.493 182.748 247.015 182.748 247.694V249.705C182.748 250.358 182.2 250.906 181.547 250.906Z" fill="#3F8EFC"/>
<path d="M181.547 264.721H143.002C142.323 264.721 141.801 264.172 141.801 263.519V261.509C141.801 260.83 142.323 260.307 143.002 260.307H181.547C182.2 260.307 182.748 260.83 182.748 261.509V263.519C182.748 264.172 182.2 264.721 181.547 264.721Z" fill="#3F8EFC"/>
<path d="M181.547 278.535H143.002C142.323 278.535 141.801 277.987 141.801 277.334V275.323C141.801 274.644 142.323 274.122 143.002 274.122H181.547C182.2 274.122 182.748 274.644 182.748 275.323V277.334C182.748 277.987 182.2 278.535 181.547 278.535Z" fill="#3F8EFC"/>
<path d="M181.547 292.349H143.002C142.323 292.349 141.801 291.801 141.801 291.148V289.137C141.801 288.458 142.323 287.936 143.002 287.936H181.547C182.2 287.936 182.748 288.458 182.748 289.137V291.148C182.748 291.801 182.2 292.349 181.547 292.349Z" fill="#3F8EFC"/>
<path d="M227.716 293.316H190.373V245.057H227.716V293.316Z" fill="white"/>
<path d="M384.272 211.447H483.689C487.372 211.447 490.349 208.47 490.349 204.788V162.144C490.349 158.462 487.372 155.484 483.689 155.484H384.272C380.59 155.484 377.613 158.462 377.613 162.144V204.788C377.613 208.47 380.59 211.447 384.272 211.447Z" fill="#3F8EFC"/>
<path d="M396.207 202.386V227.638L421.956 201.916L396.207 202.386Z" fill="#3F8EFC"/>
<path d="M463.869 183.975C463.869 186.691 466.063 188.885 468.779 188.885C471.494 188.885 473.688 186.691 473.688 183.975C473.688 181.259 471.494 179.066 468.779 179.066C466.063 179.066 463.869 181.259 463.869 183.975Z" fill="white"/>
<path d="M447.391 183.975C447.391 186.691 449.584 188.885 452.3 188.885C455.016 188.885 457.21 186.691 457.21 183.975C457.21 181.259 455.016 179.066 452.3 179.066C449.584 179.066 447.391 181.259 447.391 183.975Z" fill="white"/>
<path d="M430.912 183.975C430.912 186.691 433.106 188.885 435.822 188.885C438.537 188.885 440.757 186.691 440.757 183.975C440.757 181.259 438.537 179.066 435.822 179.066C433.106 179.066 430.912 181.259 430.912 183.975Z" fill="white"/>
<path d="M414.434 183.975C414.434 186.691 416.653 188.885 419.369 188.885C422.059 188.885 424.279 186.691 424.279 183.975C424.279 181.259 422.059 179.066 419.369 179.066C416.653 179.066 414.434 181.259 414.434 183.975Z" fill="white"/>
<path d="M397.982 183.975C397.982 186.691 400.176 188.885 402.892 188.885C405.608 188.885 407.801 186.691 407.801 183.975C407.801 181.259 405.608 179.066 402.892 179.066C400.176 179.066 397.982 181.259 397.982 183.975Z" fill="white"/>
<path d="M353.744 153.03H286.787C284.306 153.03 282.295 151.019 282.295 148.538V119.812C282.295 117.331 284.306 115.321 286.787 115.321H353.744C356.198 115.321 358.209 117.331 358.209 119.812V148.538C358.209 151.019 356.198 153.03 353.744 153.03Z" fill="#3F8EFC"/>
<path d="M345.675 146.919V163.919L328.361 146.606L345.675 146.919Z" fill="#3F8EFC"/>
<path d="M300.131 134.515C300.131 136.343 298.643 137.831 296.815 137.831C294.987 137.831 293.498 136.343 293.498 134.515C293.498 132.687 294.987 131.224 296.815 131.224C298.643 131.224 300.131 132.687 300.131 134.515Z" fill="white"/>
<path d="M311.203 134.515C311.203 136.343 309.74 137.831 307.912 137.831C306.084 137.831 304.596 136.343 304.596 134.515C304.596 132.687 306.084 131.224 307.912 131.224C309.74 131.224 311.203 132.687 311.203 134.515Z" fill="white"/>
<path d="M322.302 134.515C322.302 136.343 320.84 137.831 319.012 137.831C317.184 137.831 315.695 136.343 315.695 134.515C315.695 132.687 317.184 131.224 319.012 131.224C320.84 131.224 322.302 132.687 322.302 134.515Z" fill="white"/>
<path d="M333.4 134.515C333.4 136.343 331.911 137.831 330.083 137.831C328.255 137.831 326.793 136.343 326.793 134.515C326.793 132.687 328.255 131.224 330.083 131.224C331.911 131.224 333.4 132.687 333.4 134.515Z" fill="white"/>
<path d="M344.5 134.515C344.5 136.343 343.012 137.831 341.184 137.831C339.356 137.831 337.867 136.343 337.867 134.515C337.867 132.687 339.356 131.224 341.184 131.224C343.012 131.224 344.5 132.687 344.5 134.515Z" fill="white"/>
<path fill-rule="evenodd" clip-rule="evenodd" d="M763.269 245.762V286.865C763.269 292.767 758.464 297.598 752.536 297.598H711.432C705.53 297.598 700.699 292.767 700.699 286.865V245.762C700.699 239.834 705.53 235.029 711.432 235.029H752.536C758.464 235.029 763.269 239.834 763.269 245.762ZM761.102 286.865V250.488H702.867V286.865C702.867 291.592 706.706 295.431 711.432 295.431H752.536C757.263 295.431 761.102 291.592 761.102 286.865Z" fill="#3F8EFC"/>
<path d="M725.403 265.974H716.863V257.748H725.403V265.974Z" fill="#3F8EFC"/>
<path d="M736.606 265.974H728.066V257.748H736.606V265.974Z" fill="white"/>
<path d="M747.104 265.974H738.564V257.748H747.104V265.974Z" fill="white"/>
<path d="M758.307 265.974H749.768V257.748H758.307V265.974Z" fill="white"/>
<path d="M714.2 277.073H705.66V268.847H714.2V277.073Z" fill="white"/>
<path d="M725.403 277.073H716.863V268.847H725.403V277.073Z" fill="white"/>
<path d="M736.606 277.073H728.066V268.847H736.606V277.073Z" fill="white"/>
<path d="M747.104 277.073H738.564V268.847H747.104V277.073Z" fill="white"/>
<path d="M758.307 277.073H749.768V268.847H758.307V277.073Z" fill="white"/>
<path d="M714.2 288.171H705.66V279.945H714.2V288.171Z" fill="white"/>
<path d="M725.403 288.171H716.863V279.945H725.403V288.171Z" fill="white"/>
<path d="M736.606 288.171H728.066V279.945H736.606V288.171Z" fill="white"/>
<path d="M747.104 288.171H738.564V279.945H747.104V288.171Z" fill="white"/>
<path d="M500.532 290.417C500.532 310.76 484.028 327.238 463.685 327.238C443.342 327.238 426.838 310.76 426.838 290.417C426.838 270.074 443.342 253.57 463.685 253.57C484.028 253.57 500.532 270.074 500.532 290.417Z" fill="#A6DFFF"/>
<path d="M448.434 270.231L447.677 270.988L447.572 270.884L439.607 278.848L449.27 288.511L453.579 284.202C458.801 288.615 464.651 294.439 469.09 299.688L464.755 303.996L474.418 313.659L476.011 312.066C475.959 312.153 475.898 312.231 475.828 312.301L483.166 304.963C487.031 301.098 452.299 266.366 448.434 270.231Z" fill="white"/>
<path d="M696.154 202.438C696.154 213.354 687.302 222.206 676.386 222.206C665.47 222.206 656.617 213.354 656.617 202.438C656.617 191.522 665.47 182.669 676.386 182.669C687.302 182.669 696.154 191.522 696.154 202.438Z" fill="#A6DFFF"/>
<path d="M688.477 206.251H673.957V188.441H676.699V203.509H688.477V206.251Z" fill="white"/>
<path d="M587.363 130.911C587.363 141.252 578.98 149.635 568.639 149.635C558.297 149.635 549.889 141.252 549.889 130.911C549.889 120.544 558.297 112.161 568.639 112.161C578.98 112.161 587.363 120.544 587.363 130.911Z" fill="#A6DFFF"/>
<path d="M566.027 134.462V133.94C566.027 132.19 566.732 130.859 568.691 129.109C569.788 128.143 570.127 127.333 570.127 126.419C570.127 125.401 569.553 124.591 568.273 124.591C566.758 124.591 566.262 125.61 566.132 126.889H562.371C562.502 124.67 563.912 121.64 568.325 121.666C572.686 121.666 573.966 124.461 573.966 126.55C573.966 128.221 573.417 129.344 571.511 131.146C570.362 132.19 569.996 133.078 569.996 134.149V134.462H566.027ZM566.027 140.208V135.794H570.023V140.208H566.027Z" fill="white"/>
</g>
<defs>
<clipPath id="clip0_127_11778">
<rect width="914" height="600.629" fill="white"/>
</clipPath>
</defs>
</svg>
