<svg width="500" height="544" viewBox="0 0 500 544" fill="none" xmlns="http://www.w3.org/2000/svg">
<path opacity="0.4" d="M404.1 51.7499C379.65 42.2999 381.25 164.35 424.7 161.15C468.2 157.95 474 78.8499 404.1 51.7499Z" fill="#3F8EFC"/>
<path opacity="0.4" d="M277.549 43.35C210.199 29.65 169.949 81.75 149.099 124.55C128.199 167.4 107.449 209.25 86.0988 234.3C64.7488 259.35 44.7488 309.05 86.0988 362.25C127.449 415.45 190.499 397.7 239.749 379.1C288.999 360.5 339.899 404.05 390.149 384.1C440.399 364.15 496.049 282.65 436.849 223.95C377.699 165.25 389.899 66.15 277.549 43.35Z" fill="#3F8EFC"/>
<path opacity="0.4" d="M454.65 454.7C454.65 457 361.3 458.9 246.15 458.9C131 458.9 37.5996 457 37.5996 454.7C37.5996 452.4 131 450.55 246.15 450.55C361.3 450.55 454.65 452.4 454.65 454.7Z" fill="#3F8EFC"/>
<path d="M352.5 333.95H338.55C338.3 333.95 338.1 333.75 338.1 333.5V331.2C338.1 330.95 338.3 330.75 338.55 330.75H352.5C352.75 330.75 353 330.95 353 331.2V333.5C353 333.75 352.75 333.95 352.5 333.95Z" fill="#3F8EFC"/>
<path d="M343.949 339.35V325.4C343.949 325.15 344.199 324.9 344.449 324.9H346.649C346.899 324.9 347.099 325.15 347.099 325.4V339.35C347.099 339.6 346.899 339.8 346.649 339.8H344.449C344.199 339.8 343.949 339.6 343.949 339.35Z" fill="#3F8EFC"/>
<path d="M407.399 267.05H383.999C383.549 267.05 383.199 266.7 383.199 266.25V262.45C383.199 262 383.549 261.65 383.999 261.65H407.399C407.799 261.65 408.149 262 408.149 262.45V266.25C408.149 266.7 407.799 267.05 407.399 267.05Z" fill="#3F8EFC"/>
<path d="M393.049 276.05V252.65C393.049 252.2 393.399 251.85 393.799 251.85H397.549C397.999 251.85 398.299 252.2 398.299 252.65V276.05C398.299 276.45 397.999 276.8 397.549 276.8H393.799C393.399 276.8 393.049 276.45 393.049 276.05Z" fill="#3F8EFC"/>
<path d="M190.448 326.95H172.848C172.548 326.95 172.248 326.7 172.248 326.35V323.5C172.248 323.15 172.548 322.9 172.848 322.9H190.448C190.748 322.9 191.048 323.15 191.048 323.5V326.35C191.048 326.7 190.748 326.95 190.448 326.95Z" fill="#3F8EFC"/>
<path d="M179.648 333.7V316.15C179.648 315.8 179.898 315.55 180.248 315.55H183.048C183.398 315.55 183.648 315.8 183.648 316.15V333.7C183.648 334.05 183.398 334.3 183.048 334.3H180.248C179.898 334.3 179.648 334.05 179.648 333.7Z" fill="#3F8EFC"/>
<path d="M125.699 277.9H102.299C101.899 277.9 101.549 277.6 101.549 277.15V273.35C101.549 272.9 101.899 272.55 102.299 272.55H125.699C126.149 272.55 126.499 272.9 126.499 273.35V277.15C126.499 277.6 126.149 277.9 125.699 277.9Z" fill="#3F8EFC"/>
<path d="M111.35 286.95V263.55C111.35 263.1 111.7 262.75 112.15 262.75H115.9C116.3 262.75 116.65 263.1 116.65 263.55V286.95C116.65 287.35 116.3 287.7 115.9 287.7H112.15C111.7 287.7 111.35 287.35 111.35 286.95Z" fill="#3F8EFC"/>
<path d="M299.448 131.55H282.548C282.248 131.55 281.998 131.35 281.998 131V128.25C281.998 127.95 282.248 127.7 282.548 127.7H299.448C299.748 127.7 299.998 127.95 299.998 128.25V131C299.998 131.35 299.748 131.55 299.448 131.55Z" fill="#3F8EFC"/>
<path d="M289.049 138.1V121.2C289.049 120.9 289.299 120.65 289.649 120.65H292.349C292.649 120.65 292.899 120.9 292.899 121.2V138.1C292.899 138.4 292.649 138.65 292.349 138.65H289.649C289.299 138.65 289.049 138.4 289.049 138.1Z" fill="#3F8EFC"/>
<path d="M229.999 120.05C229.999 120.05 225.499 111.15 226.549 103.85C227.649 96.5499 231.849 92.4499 241.999 92.2499C252.149 92.0999 263.349 93.9499 266.399 96.8999C269.449 99.8499 268.449 103.75 268.449 103.75C268.449 103.75 271.749 104.3 272.799 108.55C273.899 112.85 266.399 127.7 266.399 127.7L247.649 131.45L229.999 120.05Z" fill="#491826"/>
<path d="M251.498 437.05H223.948L217.898 260.15L258.998 258.15L251.498 437.05Z" fill="#1E3856"/>
<path d="M240.85 268.75L249.25 291.6L282.7 437.05H308.35L284.7 279.05L283.75 262.5L240.85 268.75Z" fill="#2B497A"/>
<path d="M247.648 287.25L244.648 437.05" stroke="#385B8E" stroke-width="2" stroke-miterlimit="10"/>
<path d="M278.85 299.6L301.7 437.05" stroke="#4875AA" stroke-width="2" stroke-miterlimit="10"/>
<path d="M149.149 223.25L138.099 223.05C138.099 223.05 134.399 219.05 131.549 218.3C128.749 217.55 124.349 216.15 124.249 217.1C124.149 218.05 124.349 219.15 126.899 220.3C129.449 221.5 131.499 224.5 131.499 224.5C131.499 224.5 126.249 225.7 122.149 225.15C118.049 224.6 112.149 223 111.699 223.85C111.199 224.75 112.399 226.2 115.049 227C115.049 227 109.799 225.4 109.299 226.6C108.799 227.8 113.449 229.9 115.849 230.55C115.849 230.55 110.749 229 110.399 230.05C110.049 231.1 114.299 233.75 117.099 234.1C117.099 234.1 112.799 232.7 112.699 234.1C112.649 235.45 118.749 238.35 123.599 239.3C128.449 240.3 132.999 240.3 136.149 239.3C139.299 238.35 140.599 237.95 140.599 237.95L148.499 238C148.499 238 153.699 228.5 149.149 223.25Z" fill="#FD8783"/>
<path d="M161.448 251.05C154.598 252.2 151.098 253.85 148.548 242.7C145.848 230.95 146.648 221 147.698 219.95C148.048 219.6 151.598 219.2 156.398 218.7C156.398 218.7 156.098 238.55 161.448 251.05Z" fill="#CAE0EF"/>
<path d="M218.9 162.1V218.35C218.9 218.35 217.7 219.85 215.9 222.1C213.35 225.35 209.5 230.1 205.95 234.3C202.2 238.75 198.8 242.55 197.7 243.1C194.85 244.55 170.35 249.85 162.7 250.9C162.266 250.967 161.85 251.017 161.45 251.05C156.1 238.55 156.4 218.7 156.4 218.7C166.75 217.6 182.85 216.2 184.4 214.6C186.75 212.3 209.35 173.5 213.2 167.9C217.05 162.3 218.9 162.1 218.9 162.1Z" fill="white"/>
<path d="M156.4 218.7C156.4 218.7 156.1 238.55 161.45 251.05" stroke="#3F8EFC" stroke-width="2" stroke-miterlimit="10"/>
<path d="M217.649 175L215.899 222.1C213.349 225.35 209.499 230.1 205.949 234.3L217.649 175Z" fill="#CAE0EF"/>
<path d="M264.598 268.75C245.848 272.9 230.648 268.75 230.648 268.75L231.348 260.15L239.748 156.95L264.548 156.4L264.598 260.2V268.75Z" fill="#66ACFF"/>
<path d="M237.148 173.1C237.148 173.1 237.898 183.75 246.548 184.6C255.248 185.45 266.398 170.7 266.398 170.7L264.548 156.4L239.748 156.95L237.148 173.1Z" fill="#95C9FC"/>
<path d="M264.598 268.75C245.848 272.9 230.648 268.75 230.648 268.75L231.348 260.15C237.648 261.3 251.398 263.05 264.598 260.2V268.75Z" fill="#95C9FC"/>
<path d="M264.55 131.95C263.35 134.15 261.8 135.95 261.3 138.45C259.35 147.7 262 158.05 262 158.05L246.55 164.65L240.35 158.6C240.75 156.6 240.95 154.95 241 153.5C241.45 146.2 240.65 144.6 240.65 144.6L252.2 138.45L264.55 131.95Z" fill="#FD8783"/>
<path d="M260.95 138.45C260.65 139.4 257.1 153.7 247.4 155.6C244.85 156.1 242.75 155.2 241 153.5C241.45 146.2 239.75 144.05 239.75 144.05L252.2 138.45H260.95Z" fill="#EA7171"/>
<path d="M267.998 128.25C267.548 132.4 263.798 132.7 263.798 132.7C262.998 139.65 259.348 142.95 252.248 145.9C245.198 148.9 242.098 149.65 236.198 142.55C234.148 140.05 232.748 136.25 231.848 132.35C230.098 125.05 229.998 117.35 229.998 117.35L230.248 110.95C237.598 117.05 250.898 115.8 250.898 115.8C241.148 115.35 236.248 111.2 235.948 110.95C244.848 114.25 255.698 112.2 255.698 112.2C257.148 118.65 262.348 119 262.348 119L263.148 126.25C264.198 123.15 268.448 124.1 267.998 128.25Z" fill="#FD8783"/>
<path d="M240.9 154.45L247.4 162.1L261.25 151.35L264.55 156.4L255.15 172.35L246.8 165.25L239 171.3L238.75 159L240.9 154.45Z" fill="#C0E0F9"/>
<path d="M294.15 303.2C291.45 309.35 262.05 309 262.05 309C257.7 218.6 264.55 156.4 264.55 156.4C278 161.5 287.45 162.25 288.8 167C290.05 171.3 284.95 218.3 283.95 227.8C283.8 228.85 283.75 229.45 283.75 229.45C283.75 229.45 293.4 279.15 294.45 297.2C294.6 300.2 294.55 302.3 294.15 303.2Z" fill="white"/>
<path d="M345.548 254.6C344.798 255.05 339.948 254.75 333.548 254.05C332.248 233.1 338.448 223.95 338.448 223.95C343.998 224.95 348.348 225.85 349.048 226.35C351.398 227.95 347.898 253.05 345.548 254.6Z" fill="#CAE0EF"/>
<path d="M333.549 254.05C318.999 252.5 296.399 248.9 294.549 247.1C291.899 244.55 279.049 219.4 278.849 214.6C278.699 209.8 281.949 166.1 285.199 163.45C285.199 163.45 290.199 164.5 292.899 175.05C295.649 185.55 307.399 217.8 308.099 218.5C308.599 219 326.449 221.75 338.449 223.95C338.449 223.95 332.249 233.1 333.549 254.05Z" fill="white"/>
<path d="M239.749 156.95C239.749 156.95 234.249 256.35 235.549 310.6C235.549 310.6 211.549 307.35 210.249 303.2C208.949 299 215.649 232.95 215.649 232.95C215.649 232.95 217.199 164.8 218.899 162.1C219.949 160.45 229.849 160.45 239.749 156.95Z" fill="white"/>
<path d="M347.449 240.3C347.249 241.85 347.049 243.35 346.749 244.7C345.749 249.65 344.349 253.15 343.249 253C342.199 252.85 341.699 249.5 341.899 244.75C341.949 243.15 342.099 241.45 342.349 239.65C342.899 234.95 343.899 230.95 344.949 228.75C345.499 227.5 346.049 226.85 346.549 226.9C347.049 227 347.449 227.8 347.699 229.2C348.099 231.65 348.049 235.7 347.449 240.3Z" fill="#3F8EFC"/>
<path d="M373.798 237.05C375.198 236.7 378.298 236 378.598 236.8C378.848 237.65 376.198 239.5 373.648 240.35C374.848 240.15 376.198 240.05 376.248 240.8C376.348 242.2 370.248 245.1 365.398 246.05C360.498 247 355.998 247 352.848 246.05C349.698 245.1 348.398 244.7 348.398 244.7H346.748L341.898 244.75C341.948 243.15 342.098 241.45 342.348 239.65C342.898 234.95 343.898 230.95 344.948 228.75L347.698 229.2L350.848 229.8C350.848 229.8 354.598 225.75 357.398 225C360.248 224.25 364.598 222.85 364.698 223.85C364.798 224.8 364.598 225.85 362.048 227.05C359.498 228.25 357.498 231.25 357.498 231.25C357.498 231.25 362.698 232.4 366.798 231.9C370.898 231.35 376.798 229.7 377.298 230.6C377.748 231.45 376.698 232.85 374.198 233.65C375.298 233.35 379.248 232.3 379.698 233.35C380.098 234.45 376.298 236.25 373.798 237.05Z" fill="#FD8783"/>
<path d="M338.448 223.95C338.448 223.95 332.248 233.1 333.548 254.05" stroke="#3F8EFC" stroke-width="2" stroke-miterlimit="10"/>
<path d="M294.448 297.2L272.648 237.25L283.948 180.75V227.8C283.798 228.85 283.748 229.45 283.748 229.45C283.748 229.45 293.398 279.15 294.448 297.2Z" fill="#CAE0EF"/>
<path d="M263.8 132.7C263 139.65 259.35 142.95 252.25 145.9C245.2 148.9 242.1 149.65 236.2 142.55C234.15 140.05 232.75 136.25 231.85 132.35C231.85 132.35 239 128.15 242.7 128C246.4 127.8 256.15 132.45 263.8 132.7Z" fill="#FFFBFA"/>
<path d="M264.55 156.4L274.6 175.95L264.55 183.4L275.65 189.3L260.6 231.35L278.85 188.25L269.75 182.5L278.85 175.55L264.55 156.4Z" fill="#CAE0EF"/>
<path d="M239.748 156.95L226.398 178.65L234.448 182.7L224.898 189.95L236.498 232.1L221.498 189.6L229.998 182.6L222.798 178.9L239.748 156.95Z" fill="#CAE0EF"/>
<path d="M230.05 437.05C230.05 437.05 224.85 444.7 216.95 447.3C209 449.9 209.35 454.15 209.35 454.15H247.05L246.15 437.05H230.05Z" fill="#5B271D"/>
<path d="M287.548 437.05C287.548 437.05 284.998 444.8 280.898 447.3C273.998 451.5 273.898 454.15 273.898 454.15H305.948L303.648 437.05H287.548Z" fill="#5B271D"/>
<path d="M446.85 131.8C446.85 167.7 417.75 196.8 381.85 196.8C345.95 196.8 316.85 167.7 316.85 131.8C316.85 95.8999 345.95 66.7999 381.85 66.7999C417.75 66.7999 446.85 95.8999 446.85 131.8Z" fill="url(#paint0_radial_189_4768)"/>
<path d="M345.95 167.95C345.1 168.65 342.55 166.8 340.25 163.9C337.95 161 336.75 158.15 337.6 157.45C338.4 156.8 340.95 158.6 343.25 161.5C345.6 164.4 346.75 167.3 345.95 167.95Z" fill="#CAE0EF"/>
<path d="M346.3 167.7C345.65 168.2 343.25 166.25 340.95 163.35C338.65 160.45 337.3 157.7 337.95 157.2C338.55 156.65 340.95 158.6 343.25 161.5C345.6 164.4 346.95 167.15 346.3 167.7Z" fill="white"/>
<path d="M407.299 120.2L359.549 158.2C359.349 158.35 359.049 158.3 358.899 158.1L350.199 147.2C350.049 147 350.049 146.7 350.249 146.55L398.049 108.5C398.999 107.75 400.449 107.9 401.199 108.9L407.649 117C407.849 117.233 407.982 117.483 408.049 117.75C408.299 118.6 408.049 119.6 407.299 120.2Z" fill="#CAE0EF"/>
<path d="M408.349 114.7L403.549 108.75C403.249 108.35 402.649 108.25 402.199 108.6L401.449 109.2L407.399 116.7L408.149 116.1C408.599 115.75 408.649 115.15 408.349 114.7Z" fill="#2B497A"/>
<path d="M411.95 109.6L409.45 106.45L404.25 109.6L407.65 113.85L411.95 109.6Z" fill="#66ACFF"/>
<path d="M410.25 107.45L426.4 95.45L411.1 108.55L410.25 107.45Z" fill="white"/>
<path d="M358.449 160.45L347.899 147.15C347.249 146.35 347.399 145.2 348.149 144.55C348.949 143.95 350.099 144.05 350.749 144.85L361.349 158.15C361.999 158.95 361.849 160.1 361.049 160.75C360.249 161.4 359.099 161.25 358.449 160.45Z" fill="white"/>
<path d="M355 156.05L344 164.8L340.25 160.05L351.2 151.3L355 156.05Z" fill="white"/>
<path d="M370.549 149.4L359.549 158.2C359.349 158.35 359.049 158.3 358.899 158.1L350.199 147.2C350.049 147 350.049 146.7 350.249 146.55L361.299 137.75L370.549 149.4Z" fill="white"/>
<g style="mix-blend-mode:screen" opacity="0.4">
<path d="M408.049 117.75L358.299 157.35L351.549 148.9L401.449 109.2L407.649 117C407.849 117.233 407.982 117.483 408.049 117.75Z" fill="white"/>
</g>
<path d="M354.999 156.05L351.299 159L347.549 154.25L351.199 151.3L354.999 156.05Z" fill="#CAE0EF"/>
<path d="M367.65 143.05L371.9 148.35" stroke="#3F8EFC" stroke-width="2" stroke-miterlimit="10"/>
<path d="M371.551 144.15L373.751 146.9" stroke="#3F8EFC" stroke-width="2" stroke-miterlimit="10"/>
<path d="M373.4 142.7L375.6 145.45" stroke="#3F8EFC" stroke-width="2" stroke-miterlimit="10"/>
<path d="M375.25 141.25L377.4 143.95" stroke="#3F8EFC" stroke-width="2" stroke-miterlimit="10"/>
<path d="M377.1 139.75L379.25 142.5" stroke="#3F8EFC" stroke-width="2" stroke-miterlimit="10"/>
<path d="M376.951 135.65L381.201 140.95" stroke="#3F8EFC" stroke-width="2" stroke-miterlimit="10"/>
<path d="M380.852 136.8L383.002 139.5" stroke="#3F8EFC" stroke-width="2" stroke-miterlimit="10"/>
<path d="M382.701 135.3L384.851 138.05" stroke="#3F8EFC" stroke-width="2" stroke-miterlimit="10"/>
<path d="M384.551 133.85L386.701 136.55" stroke="#3F8EFC" stroke-width="2" stroke-miterlimit="10"/>
<path d="M386.4 132.35L388.55 135.1" stroke="#3F8EFC" stroke-width="2" stroke-miterlimit="10"/>
<path d="M386.25 128.25L390.5 133.55" stroke="#3F8EFC" stroke-width="2" stroke-miterlimit="10"/>
<path d="M390.15 129.35L392.35 132.1" stroke="#3F8EFC" stroke-width="2" stroke-miterlimit="10"/>
<path d="M392 127.9L394.15 130.65" stroke="#3F8EFC" stroke-width="2" stroke-miterlimit="10"/>
<path d="M393.85 126.45L396 129.15" stroke="#3F8EFC" stroke-width="2" stroke-miterlimit="10"/>
<path d="M395.699 124.95L397.849 127.7" stroke="#3F8EFC" stroke-width="2" stroke-miterlimit="10"/>
<path d="M395.551 120.85L399.801 126.15" stroke="#3F8EFC" stroke-width="2" stroke-miterlimit="10"/>
<path d="M399.451 121.95L401.601 124.7" stroke="#3F8EFC" stroke-width="2" stroke-miterlimit="10"/>
<path d="M401.301 120.5L403.451 123.25" stroke="#3F8EFC" stroke-width="2" stroke-miterlimit="10"/>
<path d="M403.15 119.05L405.3 121.75" stroke="#3F8EFC" stroke-width="2" stroke-miterlimit="10"/>
<path d="M405 117.55L407.15 120.3" stroke="#3F8EFC" stroke-width="2" stroke-miterlimit="10"/>
<path d="M374.7 130.45L374.65 130.35C374.35 129.95 374.4 129.4 374.75 129.1L397.55 111C397.9 110.7 398.45 110.75 398.75 111.15L398.85 111.25C399.15 111.6 399.1 112.15 398.7 112.45L375.95 130.6C375.55 130.9 375 130.8 374.7 130.45Z" fill="white"/>
<path d="M366.699 136.75C366.399 136.35 366.449 135.75 366.849 135.4L370.299 132.7C370.699 132.4 371.249 132.45 371.599 132.85C371.899 133.25 371.849 133.85 371.449 134.15L367.999 136.9C367.599 137.2 367.049 137.15 366.699 136.75Z" fill="white"/>
<path d="M351.4 145.65L360.65 157.3L353.85 143.7L351.4 145.65Z" fill="#CAE0EF"/>
<path d="M181.65 112.35C181.65 148.25 152.55 177.35 116.65 177.35C80.7504 177.35 51.6504 148.25 51.6504 112.35C51.6504 76.45 80.7504 47.35 116.65 47.35C152.55 47.35 181.65 76.45 181.65 112.35Z" fill="url(#paint1_radial_189_4768)"/>
<path d="M151.85 99.45L113.45 75.95C112.6 75.45 112.3 74.3 112.85 73.45L115.9 68.45C116.4 67.6 117.55 67.3 118.4 67.85L156.85 91.35C157.7 91.9 157.95 93 157.45 93.9L154.4 98.85C153.85 99.7 152.75 100 151.85 99.45Z" fill="#2B497A"/>
<path d="M145.049 104.35L112.199 84.2499L116.249 77.6499L149.099 97.7499L145.049 104.35Z" fill="#CAE0EF"/>
<path d="M113.95 159.25L77.4496 136.95C74.6996 135.3 73.8496 131.7 75.5496 129L102.4 85.1C104.85 81.1 110.1 79.85 114.15 82.3L145.9 101.75C149.95 104.2 151.2 109.45 148.75 113.5L121.9 157.35C120.25 160.1 116.65 160.95 113.95 159.25Z" fill="#CAE0EF"/>
<path d="M140.349 121.45C140.349 121.45 139.699 115.35 130.749 109.75C119.049 102.4 119.349 109.65 101.699 91.95C101.699 91.95 109.499 121.8 140.349 121.45Z" fill="#528FE8"/>
<path d="M140.349 121.45L119.349 155.8C118.549 157.1 116.799 157.5 115.499 156.7L78.9994 134.4C77.6994 133.6 77.2994 131.85 78.0994 130.55L101.699 91.95C117.699 101.75 120.549 116 140.349 121.45Z" fill="#66ACFF"/>
<path d="M90.2003 119.25C89.3503 118.7 89.0503 117.6 89.6003 116.7L106.45 89.1499C107 88.2999 108.1 87.9999 109 88.5499C109.85 89.0999 110.15 90.1999 109.6 91.0999L92.7503 118.65C92.2003 119.5 91.0503 119.8 90.2003 119.25Z" fill="white"/>
<path d="M83.9503 129.45C83.1003 128.9 82.8003 127.75 83.3503 126.9L85.7003 123.05C86.2503 122.2 87.4003 121.9 88.2503 122.45C89.1003 123 89.4003 124.1 88.8503 125L86.5003 128.85C85.9503 129.7 84.8503 129.95 83.9503 129.45Z" fill="white"/>
<path d="M118.749 127.25L103.749 118.1C102.549 117.35 102.199 115.8 102.899 114.55C103.649 113.35 105.249 113 106.449 113.75L121.449 122.9C122.649 123.65 122.999 125.2 122.249 126.4C121.549 127.6 119.949 128 118.749 127.25Z" fill="white"/>
<path d="M105.849 126.65L114.999 111.65C115.749 110.45 117.299 110.1 118.499 110.8C119.699 111.55 120.099 113.15 119.349 114.35L110.199 129.35C109.449 130.55 107.849 130.9 106.649 130.15C105.449 129.45 105.099 127.85 105.849 126.65Z" fill="white"/>
<path d="M113.6 81.9499L149.1 97.7499L116.25 77.6499L113.6 81.9499Z" fill="#A1B5C6"/>
<path opacity="0.6" d="M51.491 521.2C51.763 521.2 51.979 521.288 52.139 521.464C52.299 521.624 52.379 521.832 52.379 522.088V536.992C52.379 537.296 52.283 537.544 52.091 537.736C51.899 537.912 51.667 538 51.395 538C51.251 538 51.107 537.976 50.963 537.928C50.819 537.864 50.707 537.784 50.627 537.688L40.355 524.104L40.835 523.816V537.112C40.835 537.368 40.747 537.584 40.571 537.76C40.411 537.92 40.195 538 39.923 538C39.667 538 39.459 537.92 39.299 537.76C39.139 537.584 39.059 537.368 39.059 537.112V522.16C39.059 521.872 39.147 521.64 39.323 521.464C39.515 521.288 39.739 521.2 39.995 521.2C40.139 521.2 40.283 521.232 40.427 521.296C40.587 521.344 40.707 521.424 40.787 521.536L50.915 534.928L50.603 535.312V522.088C50.603 521.832 50.683 521.624 50.843 521.464C51.019 521.288 51.235 521.2 51.491 521.2ZM68.3983 531.76C68.3983 533.008 68.1183 534.12 67.5583 535.096C67.0143 536.072 66.2703 536.84 65.3263 537.4C64.3983 537.96 63.3503 538.24 62.1823 538.24C61.0143 538.24 59.9583 537.96 59.0143 537.4C58.0703 536.84 57.3183 536.072 56.7583 535.096C56.2143 534.12 55.9423 533.008 55.9423 531.76C55.9423 530.512 56.2143 529.4 56.7583 528.424C57.3183 527.448 58.0703 526.68 59.0143 526.12C59.9583 525.56 61.0143 525.28 62.1823 525.28C63.3503 525.28 64.3983 525.56 65.3263 526.12C66.2703 526.68 67.0143 527.448 67.5583 528.424C68.1183 529.4 68.3983 530.512 68.3983 531.76ZM66.4783 531.76C66.4783 530.832 66.2863 530.016 65.9023 529.312C65.5343 528.608 65.0223 528.056 64.3663 527.656C63.7263 527.256 62.9983 527.056 62.1823 527.056C61.3663 527.056 60.6303 527.256 59.9743 527.656C59.3343 528.056 58.8223 528.608 58.4383 529.312C58.0543 530.016 57.8623 530.832 57.8623 531.76C57.8623 532.672 58.0543 533.48 58.4383 534.184C58.8223 534.888 59.3343 535.448 59.9743 535.864C60.6303 536.264 61.3663 536.464 62.1823 536.464C62.9983 536.464 63.7263 536.264 64.3663 535.864C65.0223 535.448 65.5343 534.888 65.9023 534.184C66.2863 533.48 66.4783 532.672 66.4783 531.76ZM88.8395 525.472C89.1115 525.472 89.3355 525.568 89.5115 525.76C89.7035 525.936 89.7995 526.16 89.7995 526.432V537.016C89.7995 537.288 89.7035 537.52 89.5115 537.712C89.3355 537.904 89.1115 538 88.8395 538C88.5515 538 88.3195 537.904 88.1435 537.712C87.9675 537.52 87.8795 537.288 87.8795 537.016V534.736L88.3355 534.688C88.3355 535.04 88.2155 535.424 87.9755 535.84C87.7355 536.256 87.4075 536.648 86.9915 537.016C86.5755 537.368 86.0795 537.664 85.5035 537.904C84.9435 538.128 84.3355 538.24 83.6795 538.24C82.5915 538.24 81.6155 537.96 80.7515 537.4C79.8875 536.824 79.1995 536.048 78.6875 535.072C78.1915 534.096 77.9435 532.984 77.9435 531.736C77.9435 530.472 78.1915 529.36 78.6875 528.4C79.1995 527.424 79.8875 526.664 80.7515 526.12C81.6155 525.56 82.5755 525.28 83.6315 525.28C84.3195 525.28 84.9595 525.392 85.5515 525.616C86.1435 525.84 86.6555 526.144 87.0875 526.528C87.5355 526.912 87.8795 527.336 88.1195 527.8C88.3755 528.264 88.5035 528.728 88.5035 529.192L87.8795 529.048V526.432C87.8795 526.16 87.9675 525.936 88.1435 525.76C88.3195 525.568 88.5515 525.472 88.8395 525.472ZM83.8955 536.464C84.6955 536.464 85.3995 536.256 86.0075 535.84C86.6315 535.424 87.1115 534.864 87.4475 534.16C87.7995 533.44 87.9755 532.632 87.9755 531.736C87.9755 530.856 87.7995 530.064 87.4475 529.36C87.1115 528.64 86.6315 528.08 86.0075 527.68C85.3995 527.264 84.6955 527.056 83.8955 527.056C83.1115 527.056 82.4075 527.256 81.7835 527.656C81.1755 528.056 80.6955 528.608 80.3435 529.312C79.9915 530.016 79.8155 530.824 79.8155 531.736C79.8155 532.632 79.9835 533.44 80.3195 534.16C80.6715 534.864 81.1515 535.424 81.7595 535.84C82.3835 536.256 83.0955 536.464 83.8955 536.464ZM99.8377 525.4C100.926 525.4 101.902 525.672 102.766 526.216C103.63 526.76 104.31 527.512 104.806 528.472C105.318 529.432 105.574 530.536 105.574 531.784C105.574 533.016 105.318 534.12 104.806 535.096C104.31 536.056 103.63 536.816 102.766 537.376C101.918 537.92 100.958 538.192 99.8857 538.192C99.2937 538.192 98.7337 538.104 98.2057 537.928C97.6937 537.736 97.2217 537.496 96.7897 537.208C96.3737 536.904 96.0217 536.568 95.7337 536.2C95.4457 535.816 95.2377 535.44 95.1097 535.072L95.6377 534.736V541.816C95.6377 542.088 95.5497 542.32 95.3737 542.512C95.1977 542.704 94.9657 542.8 94.6777 542.8C94.4057 542.8 94.1737 542.704 93.9817 542.512C93.8057 542.336 93.7177 542.104 93.7177 541.816V526.48C93.7177 526.208 93.8057 525.984 93.9817 525.808C94.1737 525.616 94.4057 525.52 94.6777 525.52C94.9657 525.52 95.1977 525.616 95.3737 525.808C95.5497 525.984 95.6377 526.208 95.6377 526.48V528.616L95.2777 528.424C95.3897 528.024 95.5817 527.64 95.8537 527.272C96.1417 526.904 96.4857 526.584 96.8857 526.312C97.3017 526.024 97.7577 525.8 98.2537 525.64C98.7657 525.48 99.2937 525.4 99.8377 525.4ZM99.6217 527.176C98.8217 527.176 98.1097 527.376 97.4857 527.776C96.8777 528.176 96.3977 528.72 96.0457 529.408C95.7097 530.096 95.5417 530.888 95.5417 531.784C95.5417 532.664 95.7097 533.456 96.0457 534.16C96.3977 534.864 96.8777 535.416 97.4857 535.816C98.1097 536.216 98.8217 536.416 99.6217 536.416C100.422 536.416 101.126 536.216 101.734 535.816C102.342 535.416 102.822 534.864 103.174 534.16C103.526 533.456 103.702 532.664 103.702 531.784C103.702 530.888 103.526 530.096 103.174 529.408C102.822 528.72 102.342 528.176 101.734 527.776C101.126 527.376 100.422 527.176 99.6217 527.176ZM114.94 525.4C116.028 525.4 117.004 525.672 117.868 526.216C118.732 526.76 119.412 527.512 119.908 528.472C120.42 529.432 120.676 530.536 120.676 531.784C120.676 533.016 120.42 534.12 119.908 535.096C119.412 536.056 118.732 536.816 117.868 537.376C117.02 537.92 116.06 538.192 114.988 538.192C114.396 538.192 113.836 538.104 113.308 537.928C112.796 537.736 112.324 537.496 111.892 537.208C111.476 536.904 111.124 536.568 110.836 536.2C110.548 535.816 110.34 535.44 110.212 535.072L110.74 534.736V541.816C110.74 542.088 110.652 542.32 110.476 542.512C110.3 542.704 110.068 542.8 109.78 542.8C109.508 542.8 109.276 542.704 109.084 542.512C108.908 542.336 108.82 542.104 108.82 541.816V526.48C108.82 526.208 108.908 525.984 109.084 525.808C109.276 525.616 109.508 525.52 109.78 525.52C110.068 525.52 110.3 525.616 110.476 525.808C110.652 525.984 110.74 526.208 110.74 526.48V528.616L110.38 528.424C110.492 528.024 110.684 527.64 110.956 527.272C111.244 526.904 111.588 526.584 111.988 526.312C112.404 526.024 112.86 525.8 113.356 525.64C113.868 525.48 114.396 525.4 114.94 525.4ZM114.724 527.176C113.924 527.176 113.212 527.376 112.588 527.776C111.98 528.176 111.5 528.72 111.148 529.408C110.812 530.096 110.644 530.888 110.644 531.784C110.644 532.664 110.812 533.456 111.148 534.16C111.5 534.864 111.98 535.416 112.588 535.816C113.212 536.216 113.924 536.416 114.724 536.416C115.524 536.416 116.228 536.216 116.836 535.816C117.444 535.416 117.924 534.864 118.276 534.16C118.628 533.456 118.804 532.664 118.804 531.784C118.804 530.888 118.628 530.096 118.276 529.408C117.924 528.72 117.444 528.176 116.836 527.776C116.228 527.376 115.524 527.176 114.724 527.176ZM135.706 531.76C135.706 533.008 135.426 534.12 134.866 535.096C134.322 536.072 133.578 536.84 132.634 537.4C131.706 537.96 130.658 538.24 129.49 538.24C128.322 538.24 127.266 537.96 126.322 537.4C125.378 536.84 124.626 536.072 124.066 535.096C123.522 534.12 123.25 533.008 123.25 531.76C123.25 530.512 123.522 529.4 124.066 528.424C124.626 527.448 125.378 526.68 126.322 526.12C127.266 525.56 128.322 525.28 129.49 525.28C130.658 525.28 131.706 525.56 132.634 526.12C133.578 526.68 134.322 527.448 134.866 528.424C135.426 529.4 135.706 530.512 135.706 531.76ZM133.786 531.76C133.786 530.832 133.594 530.016 133.21 529.312C132.842 528.608 132.33 528.056 131.674 527.656C131.034 527.256 130.306 527.056 129.49 527.056C128.674 527.056 127.938 527.256 127.282 527.656C126.642 528.056 126.13 528.608 125.746 529.312C125.362 530.016 125.17 530.832 125.17 531.76C125.17 532.672 125.362 533.48 125.746 534.184C126.13 534.888 126.642 535.448 127.282 535.864C127.938 536.264 128.674 536.464 129.49 536.464C130.306 536.464 131.034 536.264 131.674 535.864C132.33 535.448 132.842 534.888 133.21 534.184C133.594 533.48 133.786 532.672 133.786 531.76ZM140.802 537.016C140.802 537.288 140.706 537.52 140.514 537.712C140.338 537.904 140.114 538 139.842 538C139.554 538 139.322 537.904 139.146 537.712C138.97 537.52 138.882 537.288 138.882 537.016V526.36C138.882 526.088 138.97 525.864 139.146 525.688C139.338 525.496 139.57 525.4 139.842 525.4C140.114 525.4 140.338 525.496 140.514 525.688C140.706 525.864 140.802 526.088 140.802 526.36V537.016ZM139.842 523.792C139.442 523.792 139.146 523.712 138.954 523.552C138.762 523.392 138.666 523.144 138.666 522.808V522.472C138.666 522.136 138.77 521.888 138.978 521.728C139.186 521.568 139.482 521.488 139.866 521.488C140.25 521.488 140.538 521.568 140.73 521.728C140.922 521.888 141.018 522.136 141.018 522.472V522.808C141.018 523.144 140.914 523.392 140.706 523.552C140.514 523.712 140.226 523.792 139.842 523.792ZM150.779 525.28C151.867 525.28 152.723 525.504 153.347 525.952C153.971 526.4 154.411 527 154.667 527.752C154.939 528.504 155.075 529.344 155.075 530.272V537.016C155.075 537.288 154.979 537.52 154.787 537.712C154.611 537.904 154.387 538 154.115 538C153.843 538 153.611 537.904 153.419 537.712C153.243 537.52 153.155 537.288 153.155 537.016V530.32C153.155 529.712 153.059 529.168 152.867 528.688C152.691 528.192 152.387 527.8 151.955 527.512C151.539 527.208 150.963 527.056 150.227 527.056C149.555 527.056 148.939 527.208 148.379 527.512C147.819 527.8 147.371 528.192 147.035 528.688C146.699 529.168 146.531 529.712 146.531 530.32V537.016C146.531 537.288 146.435 537.52 146.243 537.712C146.067 537.904 145.843 538 145.571 538C145.299 538 145.067 537.904 144.875 537.712C144.699 537.52 144.611 537.288 144.611 537.016V526.552C144.611 526.28 144.699 526.056 144.875 525.88C145.067 525.688 145.299 525.592 145.571 525.592C145.859 525.592 146.091 525.688 146.267 525.88C146.443 526.056 146.531 526.28 146.531 526.552V528.256L146.051 528.784C146.131 528.368 146.315 527.952 146.603 527.536C146.891 527.104 147.251 526.72 147.683 526.384C148.115 526.048 148.595 525.784 149.123 525.592C149.651 525.384 150.203 525.28 150.779 525.28ZM158.506 525.664H164.146C164.402 525.664 164.61 525.752 164.77 525.928C164.946 526.104 165.034 526.312 165.034 526.552C165.034 526.808 164.946 527.024 164.77 527.2C164.61 527.36 164.402 527.44 164.146 527.44H158.506C158.266 527.44 158.058 527.352 157.882 527.176C157.706 527 157.618 526.784 157.618 526.528C157.618 526.288 157.706 526.088 157.882 525.928C158.058 525.752 158.266 525.664 158.506 525.664ZM161.026 522.4C161.298 522.4 161.522 522.496 161.698 522.688C161.874 522.864 161.962 523.088 161.962 523.36V534.952C161.962 535.336 162.018 535.624 162.13 535.816C162.242 536.008 162.386 536.144 162.562 536.224C162.754 536.288 162.938 536.32 163.114 536.32C163.274 536.32 163.41 536.296 163.522 536.248C163.65 536.184 163.794 536.152 163.954 536.152C164.114 536.152 164.258 536.232 164.386 536.392C164.53 536.536 164.602 536.728 164.602 536.968C164.602 537.256 164.434 537.504 164.098 537.712C163.762 537.904 163.386 538 162.97 538C162.746 538 162.466 537.984 162.13 537.952C161.81 537.92 161.49 537.816 161.17 537.64C160.85 537.464 160.578 537.176 160.354 536.776C160.146 536.36 160.042 535.784 160.042 535.048V523.36C160.042 523.088 160.138 522.864 160.33 522.688C160.522 522.496 160.754 522.4 161.026 522.4ZM173.993 525.4C175.081 525.4 175.961 525.68 176.633 526.24C177.321 526.784 177.777 527.56 178.001 528.568H177.641L177.809 528.136C178.001 527.688 178.329 527.256 178.793 526.84C179.257 526.424 179.793 526.08 180.401 525.808C181.009 525.536 181.641 525.4 182.297 525.4C183.353 525.4 184.185 525.632 184.793 526.096C185.401 526.544 185.833 527.152 186.089 527.92C186.361 528.672 186.497 529.52 186.497 530.464V537.016C186.497 537.288 186.401 537.52 186.209 537.712C186.033 537.904 185.809 538 185.537 538C185.249 538 185.017 537.904 184.841 537.712C184.665 537.52 184.577 537.288 184.577 537.016V530.512C184.577 529.888 184.481 529.328 184.289 528.832C184.113 528.32 183.817 527.92 183.401 527.632C183.001 527.328 182.449 527.176 181.745 527.176C181.089 527.176 180.489 527.328 179.945 527.632C179.401 527.92 178.969 528.32 178.649 528.832C178.329 529.328 178.169 529.888 178.169 530.512V537.016C178.169 537.288 178.081 537.52 177.905 537.712C177.729 537.904 177.497 538 177.209 538C176.937 538 176.705 537.904 176.513 537.712C176.337 537.52 176.249 537.288 176.249 537.016V530.44C176.249 529.832 176.161 529.288 175.985 528.808C175.825 528.312 175.545 527.92 175.145 527.632C174.745 527.328 174.193 527.176 173.489 527.176C172.849 527.176 172.265 527.328 171.737 527.632C171.209 527.92 170.785 528.312 170.465 528.808C170.145 529.288 169.985 529.832 169.985 530.44V537.016C169.985 537.288 169.889 537.52 169.697 537.712C169.521 537.904 169.297 538 169.025 538C168.753 538 168.521 537.904 168.329 537.712C168.153 537.52 168.065 537.288 168.065 537.016V526.552C168.065 526.28 168.153 526.056 168.329 525.88C168.521 525.688 168.753 525.592 169.025 525.592C169.313 525.592 169.545 525.688 169.721 525.88C169.897 526.056 169.985 526.28 169.985 526.552V528.376L169.457 528.952C169.521 528.536 169.681 528.12 169.937 527.704C170.209 527.288 170.553 526.904 170.969 526.552C171.385 526.2 171.849 525.92 172.361 525.712C172.873 525.504 173.417 525.4 173.993 525.4ZM196.146 538.24C194.866 538.24 193.746 537.968 192.786 537.424C191.826 536.88 191.074 536.136 190.53 535.192C190.002 534.232 189.738 533.128 189.738 531.88C189.738 530.488 190.01 529.304 190.554 528.328C191.114 527.336 191.834 526.584 192.714 526.072C193.61 525.544 194.554 525.28 195.546 525.28C196.282 525.28 196.994 525.416 197.682 525.688C198.37 525.96 198.978 526.36 199.506 526.888C200.034 527.4 200.458 528.024 200.778 528.76C201.098 529.48 201.266 530.288 201.282 531.184C201.282 531.44 201.186 531.656 200.994 531.832C200.802 532.008 200.578 532.096 200.322 532.096H190.842L190.41 530.44H199.65L199.266 530.776V530.248C199.202 529.592 198.978 529.032 198.594 528.568C198.226 528.088 197.77 527.72 197.226 527.464C196.698 527.208 196.138 527.08 195.546 527.08C195.066 527.08 194.586 527.168 194.106 527.344C193.642 527.504 193.218 527.776 192.834 528.16C192.466 528.528 192.162 529.008 191.922 529.6C191.698 530.192 191.586 530.904 191.586 531.736C191.586 532.664 191.77 533.48 192.138 534.184C192.522 534.888 193.05 535.448 193.722 535.864C194.394 536.264 195.178 536.464 196.074 536.464C196.634 536.464 197.122 536.392 197.538 536.248C197.954 536.104 198.314 535.928 198.618 535.72C198.922 535.496 199.178 535.272 199.386 535.048C199.594 534.904 199.794 534.832 199.986 534.832C200.226 534.832 200.418 534.912 200.562 535.072C200.722 535.232 200.802 535.424 200.802 535.648C200.802 535.92 200.674 536.16 200.418 536.368C199.97 536.864 199.362 537.304 198.594 537.688C197.826 538.056 197.01 538.24 196.146 538.24ZM210.695 525.28C211.783 525.28 212.639 525.504 213.263 525.952C213.887 526.4 214.327 527 214.583 527.752C214.855 528.504 214.991 529.344 214.991 530.272V537.016C214.991 537.288 214.895 537.52 214.703 537.712C214.527 537.904 214.303 538 214.031 538C213.759 538 213.527 537.904 213.335 537.712C213.159 537.52 213.071 537.288 213.071 537.016V530.32C213.071 529.712 212.975 529.168 212.783 528.688C212.607 528.192 212.303 527.8 211.871 527.512C211.455 527.208 210.879 527.056 210.143 527.056C209.471 527.056 208.855 527.208 208.295 527.512C207.735 527.8 207.287 528.192 206.951 528.688C206.615 529.168 206.447 529.712 206.447 530.32V537.016C206.447 537.288 206.351 537.52 206.159 537.712C205.983 537.904 205.759 538 205.487 538C205.215 538 204.983 537.904 204.791 537.712C204.615 537.52 204.527 537.288 204.527 537.016V526.552C204.527 526.28 204.615 526.056 204.791 525.88C204.983 525.688 205.215 525.592 205.487 525.592C205.775 525.592 206.007 525.688 206.183 525.88C206.359 526.056 206.447 526.28 206.447 526.552V528.256L205.967 528.784C206.047 528.368 206.231 527.952 206.519 527.536C206.807 527.104 207.167 526.72 207.599 526.384C208.031 526.048 208.511 525.784 209.039 525.592C209.567 525.384 210.119 525.28 210.695 525.28ZM218.423 525.664H224.063C224.319 525.664 224.527 525.752 224.687 525.928C224.863 526.104 224.951 526.312 224.951 526.552C224.951 526.808 224.863 527.024 224.687 527.2C224.527 527.36 224.319 527.44 224.063 527.44H218.423C218.183 527.44 217.975 527.352 217.799 527.176C217.623 527 217.535 526.784 217.535 526.528C217.535 526.288 217.623 526.088 217.799 525.928C217.975 525.752 218.183 525.664 218.423 525.664ZM220.943 522.4C221.215 522.4 221.439 522.496 221.615 522.688C221.791 522.864 221.879 523.088 221.879 523.36V534.952C221.879 535.336 221.935 535.624 222.047 535.816C222.159 536.008 222.303 536.144 222.479 536.224C222.671 536.288 222.855 536.32 223.031 536.32C223.191 536.32 223.327 536.296 223.439 536.248C223.567 536.184 223.711 536.152 223.871 536.152C224.031 536.152 224.175 536.232 224.303 536.392C224.447 536.536 224.519 536.728 224.519 536.968C224.519 537.256 224.351 537.504 224.015 537.712C223.679 537.904 223.303 538 222.887 538C222.663 538 222.383 537.984 222.047 537.952C221.727 537.92 221.407 537.816 221.087 537.64C220.767 537.464 220.495 537.176 220.271 536.776C220.063 536.36 219.959 535.784 219.959 535.048V523.36C219.959 523.088 220.055 522.864 220.247 522.688C220.439 522.496 220.671 522.4 220.943 522.4ZM240.951 525.4C242.007 525.4 242.839 525.632 243.447 526.096C244.071 526.544 244.511 527.152 244.767 527.92C245.039 528.672 245.175 529.512 245.175 530.44V537.016C245.175 537.288 245.079 537.52 244.887 537.712C244.711 537.904 244.487 538 244.215 538C243.943 538 243.711 537.904 243.519 537.712C243.343 537.52 243.255 537.288 243.255 537.016V530.44C243.255 529.832 243.167 529.288 242.991 528.808C242.815 528.312 242.519 527.92 242.103 527.632C241.703 527.328 241.151 527.176 240.447 527.176C239.791 527.176 239.191 527.328 238.647 527.632C238.103 527.92 237.671 528.312 237.351 528.808C237.031 529.288 236.871 529.832 236.871 530.44V537.016C236.871 537.288 236.775 537.52 236.583 537.712C236.407 537.904 236.183 538 235.911 538C235.639 538 235.407 537.904 235.215 537.712C235.039 537.52 234.951 537.288 234.951 537.016V521.2C234.951 520.928 235.039 520.704 235.215 520.528C235.407 520.336 235.639 520.24 235.911 520.24C236.199 520.24 236.431 520.336 236.607 520.528C236.783 520.704 236.871 520.928 236.871 521.2V528.376L236.391 528.904C236.471 528.488 236.647 528.072 236.919 527.656C237.191 527.224 237.535 526.84 237.951 526.504C238.367 526.168 238.831 525.904 239.343 525.712C239.855 525.504 240.391 525.4 240.951 525.4ZM259.316 525.472C259.588 525.472 259.812 525.568 259.988 525.76C260.18 525.936 260.276 526.16 260.276 526.432V537.016C260.276 537.288 260.18 537.52 259.988 537.712C259.812 537.904 259.588 538 259.316 538C259.028 538 258.796 537.904 258.62 537.712C258.444 537.52 258.356 537.288 258.356 537.016V534.736L258.812 534.688C258.812 535.04 258.692 535.424 258.452 535.84C258.212 536.256 257.884 536.648 257.468 537.016C257.052 537.368 256.556 537.664 255.98 537.904C255.42 538.128 254.812 538.24 254.156 538.24C253.068 538.24 252.092 537.96 251.228 537.4C250.364 536.824 249.676 536.048 249.164 535.072C248.668 534.096 248.42 532.984 248.42 531.736C248.42 530.472 248.668 529.36 249.164 528.4C249.676 527.424 250.364 526.664 251.228 526.12C252.092 525.56 253.052 525.28 254.108 525.28C254.796 525.28 255.436 525.392 256.028 525.616C256.62 525.84 257.132 526.144 257.564 526.528C258.012 526.912 258.356 527.336 258.596 527.8C258.852 528.264 258.98 528.728 258.98 529.192L258.356 529.048V526.432C258.356 526.16 258.444 525.936 258.62 525.76C258.796 525.568 259.028 525.472 259.316 525.472ZM254.372 536.464C255.172 536.464 255.876 536.256 256.484 535.84C257.108 535.424 257.588 534.864 257.924 534.16C258.276 533.44 258.452 532.632 258.452 531.736C258.452 530.856 258.276 530.064 257.924 529.36C257.588 528.64 257.108 528.08 256.484 527.68C255.876 527.264 255.172 527.056 254.372 527.056C253.588 527.056 252.884 527.256 252.26 527.656C251.652 528.056 251.172 528.608 250.82 529.312C250.468 530.016 250.292 530.824 250.292 531.736C250.292 532.632 250.46 533.44 250.796 534.16C251.148 534.864 251.628 535.424 252.236 535.84C252.86 536.256 253.572 536.464 254.372 536.464ZM263.499 536.032C263.355 535.824 263.291 535.608 263.307 535.384C263.323 535.144 263.459 534.936 263.715 534.76C263.875 534.648 264.059 534.6 264.267 534.616C264.491 534.632 264.691 534.736 264.867 534.928C265.315 535.456 265.827 535.88 266.403 536.2C266.979 536.504 267.683 536.656 268.515 536.656C268.899 536.64 269.283 536.576 269.667 536.464C270.051 536.352 270.371 536.16 270.627 535.888C270.899 535.6 271.035 535.224 271.035 534.76C271.035 534.312 270.899 533.96 270.627 533.704C270.355 533.432 270.003 533.216 269.571 533.056C269.139 532.88 268.667 532.728 268.155 532.6C267.627 532.456 267.107 532.296 266.595 532.12C266.083 531.928 265.619 531.696 265.203 531.424C264.803 531.136 264.475 530.784 264.219 530.368C263.979 529.936 263.859 529.416 263.859 528.808C263.859 528.088 264.051 527.464 264.435 526.936C264.835 526.408 265.363 526 266.019 525.712C266.691 525.424 267.419 525.28 268.203 525.28C268.651 525.28 269.115 525.336 269.595 525.448C270.091 525.544 270.571 525.72 271.035 525.976C271.499 526.216 271.907 526.552 272.259 526.984C272.403 527.144 272.483 527.344 272.499 527.584C272.515 527.824 272.411 528.04 272.187 528.232C272.011 528.36 271.811 528.416 271.587 528.4C271.379 528.384 271.203 528.304 271.059 528.16C270.723 527.76 270.299 527.456 269.787 527.248C269.291 527.024 268.739 526.912 268.131 526.912C267.747 526.912 267.371 526.968 267.003 527.08C266.635 527.192 266.323 527.384 266.067 527.656C265.827 527.912 265.707 528.272 265.707 528.736C265.723 529.168 265.867 529.52 266.139 529.792C266.411 530.064 266.779 530.288 267.243 530.464C267.707 530.624 268.219 530.784 268.779 530.944C269.291 531.072 269.779 531.224 270.243 531.4C270.723 531.56 271.155 531.776 271.539 532.048C271.923 532.32 272.227 532.672 272.451 533.104C272.675 533.52 272.787 534.048 272.787 534.688C272.787 535.424 272.579 536.064 272.163 536.608C271.747 537.136 271.195 537.544 270.507 537.832C269.835 538.104 269.107 538.24 268.323 538.24C267.443 538.24 266.571 538.072 265.707 537.736C264.859 537.4 264.123 536.832 263.499 536.032ZM289.011 525.28C290.099 525.28 291.075 525.56 291.939 526.12C292.803 526.664 293.483 527.416 293.979 528.376C294.491 529.336 294.747 530.448 294.747 531.712C294.747 532.976 294.491 534.096 293.979 535.072C293.483 536.048 292.803 536.824 291.939 537.4C291.091 537.96 290.131 538.24 289.059 538.24C288.467 538.24 287.907 538.152 287.379 537.976C286.867 537.784 286.395 537.536 285.963 537.232C285.547 536.912 285.195 536.568 284.907 536.2C284.619 535.816 284.411 535.44 284.283 535.072L284.811 534.736V537.136C284.811 537.408 284.723 537.64 284.547 537.832C284.371 538.024 284.139 538.12 283.851 538.12C283.579 538.12 283.347 538.032 283.155 537.856C282.979 537.664 282.891 537.424 282.891 537.136V521.224C282.891 520.952 282.979 520.72 283.155 520.528C283.347 520.336 283.579 520.24 283.851 520.24C284.139 520.24 284.371 520.336 284.547 520.528C284.723 520.72 284.811 520.952 284.811 521.224V528.616L284.451 528.424C284.563 528.024 284.755 527.64 285.027 527.272C285.315 526.888 285.659 526.552 286.059 526.264C286.475 525.96 286.931 525.72 287.427 525.544C287.939 525.368 288.467 525.28 289.011 525.28ZM288.795 527.056C287.995 527.056 287.283 527.256 286.659 527.656C286.051 528.056 285.571 528.608 285.219 529.312C284.883 530.016 284.715 530.816 284.715 531.712C284.715 532.608 284.883 533.416 285.219 534.136C285.571 534.856 286.051 535.424 286.659 535.84C287.283 536.256 287.995 536.464 288.795 536.464C289.595 536.464 290.299 536.256 290.907 535.84C291.515 535.424 291.995 534.856 292.347 534.136C292.699 533.416 292.875 532.608 292.875 531.712C292.875 530.816 292.699 530.016 292.347 529.312C291.995 528.608 291.515 528.056 290.907 527.656C290.299 527.256 289.595 527.056 288.795 527.056ZM303.729 538.24C302.449 538.24 301.329 537.968 300.369 537.424C299.409 536.88 298.657 536.136 298.113 535.192C297.585 534.232 297.321 533.128 297.321 531.88C297.321 530.488 297.593 529.304 298.137 528.328C298.697 527.336 299.417 526.584 300.297 526.072C301.193 525.544 302.137 525.28 303.129 525.28C303.865 525.28 304.577 525.416 305.265 525.688C305.953 525.96 306.561 526.36 307.089 526.888C307.617 527.4 308.041 528.024 308.361 528.76C308.681 529.48 308.849 530.288 308.865 531.184C308.865 531.44 308.769 531.656 308.577 531.832C308.385 532.008 308.161 532.096 307.905 532.096H298.425L297.993 530.44H307.233L306.849 530.776V530.248C306.785 529.592 306.561 529.032 306.177 528.568C305.809 528.088 305.353 527.72 304.809 527.464C304.281 527.208 303.721 527.08 303.129 527.08C302.649 527.08 302.169 527.168 301.689 527.344C301.225 527.504 300.801 527.776 300.417 528.16C300.049 528.528 299.745 529.008 299.505 529.6C299.281 530.192 299.169 530.904 299.169 531.736C299.169 532.664 299.353 533.48 299.721 534.184C300.105 534.888 300.633 535.448 301.305 535.864C301.977 536.264 302.761 536.464 303.657 536.464C304.217 536.464 304.705 536.392 305.121 536.248C305.537 536.104 305.897 535.928 306.201 535.72C306.505 535.496 306.761 535.272 306.969 535.048C307.177 534.904 307.377 534.832 307.569 534.832C307.809 534.832 308.001 534.912 308.145 535.072C308.305 535.232 308.385 535.424 308.385 535.648C308.385 535.92 308.257 536.16 308.001 536.368C307.553 536.864 306.945 537.304 306.177 537.688C305.409 538.056 304.593 538.24 303.729 538.24ZM317.847 538.24C316.567 538.24 315.447 537.968 314.487 537.424C313.527 536.88 312.775 536.136 312.231 535.192C311.703 534.232 311.439 533.128 311.439 531.88C311.439 530.488 311.711 529.304 312.255 528.328C312.815 527.336 313.535 526.584 314.415 526.072C315.311 525.544 316.255 525.28 317.247 525.28C317.983 525.28 318.695 525.416 319.383 525.688C320.071 525.96 320.679 526.36 321.207 526.888C321.735 527.4 322.159 528.024 322.479 528.76C322.799 529.48 322.967 530.288 322.983 531.184C322.983 531.44 322.887 531.656 322.695 531.832C322.503 532.008 322.279 532.096 322.023 532.096H312.543L312.111 530.44H321.351L320.967 530.776V530.248C320.903 529.592 320.679 529.032 320.295 528.568C319.927 528.088 319.471 527.72 318.927 527.464C318.399 527.208 317.839 527.08 317.247 527.08C316.767 527.08 316.287 527.168 315.807 527.344C315.343 527.504 314.919 527.776 314.535 528.16C314.167 528.528 313.863 529.008 313.623 529.6C313.399 530.192 313.287 530.904 313.287 531.736C313.287 532.664 313.471 533.48 313.839 534.184C314.223 534.888 314.751 535.448 315.423 535.864C316.095 536.264 316.879 536.464 317.775 536.464C318.335 536.464 318.823 536.392 319.239 536.248C319.655 536.104 320.015 535.928 320.319 535.72C320.623 535.496 320.879 535.272 321.087 535.048C321.295 534.904 321.495 534.832 321.687 534.832C321.927 534.832 322.119 534.912 322.263 535.072C322.423 535.232 322.503 535.424 322.503 535.648C322.503 535.92 322.375 536.16 322.119 536.368C321.671 536.864 321.063 537.304 320.295 537.688C319.527 538.056 318.711 538.24 317.847 538.24ZM332.397 525.28C333.485 525.28 334.341 525.504 334.965 525.952C335.589 526.4 336.029 527 336.285 527.752C336.557 528.504 336.693 529.344 336.693 530.272V537.016C336.693 537.288 336.597 537.52 336.405 537.712C336.229 537.904 336.005 538 335.733 538C335.461 538 335.229 537.904 335.037 537.712C334.861 537.52 334.773 537.288 334.773 537.016V530.32C334.773 529.712 334.677 529.168 334.485 528.688C334.309 528.192 334.005 527.8 333.573 527.512C333.157 527.208 332.581 527.056 331.845 527.056C331.173 527.056 330.557 527.208 329.997 527.512C329.437 527.8 328.989 528.192 328.653 528.688C328.317 529.168 328.149 529.712 328.149 530.32V537.016C328.149 537.288 328.053 537.52 327.861 537.712C327.685 537.904 327.461 538 327.189 538C326.917 538 326.685 537.904 326.493 537.712C326.317 537.52 326.229 537.288 326.229 537.016V526.552C326.229 526.28 326.317 526.056 326.493 525.88C326.685 525.688 326.917 525.592 327.189 525.592C327.477 525.592 327.709 525.688 327.885 525.88C328.061 526.056 328.149 526.28 328.149 526.552V528.256L327.669 528.784C327.749 528.368 327.933 527.952 328.221 527.536C328.509 527.104 328.869 526.72 329.301 526.384C329.733 526.048 330.213 525.784 330.741 525.592C331.269 525.384 331.821 525.28 332.397 525.28ZM346.878 536.032C346.734 535.824 346.67 535.608 346.686 535.384C346.702 535.144 346.838 534.936 347.094 534.76C347.254 534.648 347.438 534.6 347.646 534.616C347.87 534.632 348.07 534.736 348.246 534.928C348.694 535.456 349.206 535.88 349.782 536.2C350.358 536.504 351.062 536.656 351.894 536.656C352.278 536.64 352.662 536.576 353.046 536.464C353.43 536.352 353.75 536.16 354.006 535.888C354.278 535.6 354.414 535.224 354.414 534.76C354.414 534.312 354.278 533.96 354.006 533.704C353.734 533.432 353.382 533.216 352.95 533.056C352.518 532.88 352.046 532.728 351.534 532.6C351.006 532.456 350.486 532.296 349.974 532.12C349.462 531.928 348.998 531.696 348.582 531.424C348.182 531.136 347.854 530.784 347.598 530.368C347.358 529.936 347.238 529.416 347.238 528.808C347.238 528.088 347.43 527.464 347.814 526.936C348.214 526.408 348.742 526 349.398 525.712C350.07 525.424 350.798 525.28 351.582 525.28C352.03 525.28 352.494 525.336 352.974 525.448C353.47 525.544 353.95 525.72 354.414 525.976C354.878 526.216 355.286 526.552 355.638 526.984C355.782 527.144 355.862 527.344 355.878 527.584C355.894 527.824 355.79 528.04 355.566 528.232C355.39 528.36 355.19 528.416 354.966 528.4C354.758 528.384 354.582 528.304 354.438 528.16C354.102 527.76 353.678 527.456 353.166 527.248C352.67 527.024 352.118 526.912 351.51 526.912C351.126 526.912 350.75 526.968 350.382 527.08C350.014 527.192 349.702 527.384 349.446 527.656C349.206 527.912 349.086 528.272 349.086 528.736C349.102 529.168 349.246 529.52 349.518 529.792C349.79 530.064 350.158 530.288 350.622 530.464C351.086 530.624 351.598 530.784 352.158 530.944C352.67 531.072 353.158 531.224 353.622 531.4C354.102 531.56 354.534 531.776 354.918 532.048C355.302 532.32 355.606 532.672 355.83 533.104C356.054 533.52 356.166 534.048 356.166 534.688C356.166 535.424 355.958 536.064 355.542 536.608C355.126 537.136 354.574 537.544 353.886 537.832C353.214 538.104 352.486 538.24 351.702 538.24C350.822 538.24 349.95 538.072 349.086 537.736C348.238 537.4 347.502 536.832 346.878 536.032ZM364.821 525.28C365.637 525.28 366.373 525.368 367.029 525.544C367.685 525.72 368.205 525.96 368.589 526.264C368.973 526.568 369.165 526.912 369.165 527.296C369.165 527.504 369.093 527.704 368.949 527.896C368.805 528.088 368.613 528.184 368.373 528.184C368.149 528.184 367.965 528.144 367.821 528.064C367.693 527.984 367.565 527.88 367.437 527.752C367.325 527.624 367.165 527.512 366.957 527.416C366.765 527.304 366.485 527.216 366.117 527.152C365.749 527.088 365.381 527.056 365.013 527.056C364.133 527.056 363.357 527.264 362.685 527.68C362.029 528.096 361.509 528.656 361.125 529.36C360.741 530.064 360.549 530.864 360.549 531.76C360.549 532.656 360.733 533.456 361.101 534.16C361.469 534.864 361.981 535.424 362.637 535.84C363.293 536.256 364.053 536.464 364.917 536.464C365.477 536.464 365.925 536.416 366.261 536.32C366.597 536.224 366.877 536.112 367.101 535.984C367.389 535.824 367.605 535.664 367.749 535.504C367.909 535.344 368.117 535.264 368.373 535.264C368.645 535.264 368.853 535.352 368.997 535.528C369.157 535.704 369.237 535.92 369.237 536.176C369.237 536.464 369.037 536.768 368.637 537.088C368.237 537.408 367.693 537.68 367.005 537.904C366.333 538.128 365.565 538.24 364.701 538.24C363.485 538.24 362.421 537.96 361.509 537.4C360.597 536.824 359.885 536.048 359.373 535.072C358.877 534.08 358.629 532.976 358.629 531.76C358.629 530.544 358.885 529.448 359.397 528.472C359.925 527.496 360.653 526.72 361.581 526.144C362.509 525.568 363.589 525.28 364.821 525.28ZM378.106 525.4C379.162 525.4 379.994 525.632 380.602 526.096C381.226 526.544 381.666 527.152 381.922 527.92C382.194 528.672 382.33 529.512 382.33 530.44V537.016C382.33 537.288 382.234 537.52 382.042 537.712C381.866 537.904 381.642 538 381.37 538C381.098 538 380.866 537.904 380.674 537.712C380.498 537.52 380.41 537.288 380.41 537.016V530.44C380.41 529.832 380.322 529.288 380.146 528.808C379.97 528.312 379.674 527.92 379.258 527.632C378.858 527.328 378.306 527.176 377.602 527.176C376.946 527.176 376.346 527.328 375.802 527.632C375.258 527.92 374.826 528.312 374.506 528.808C374.186 529.288 374.026 529.832 374.026 530.44V537.016C374.026 537.288 373.93 537.52 373.738 537.712C373.562 537.904 373.338 538 373.066 538C372.794 538 372.562 537.904 372.37 537.712C372.194 537.52 372.106 537.288 372.106 537.016V521.2C372.106 520.928 372.194 520.704 372.37 520.528C372.562 520.336 372.794 520.24 373.066 520.24C373.354 520.24 373.586 520.336 373.762 520.528C373.938 520.704 374.026 520.928 374.026 521.2V528.376L373.546 528.904C373.626 528.488 373.802 528.072 374.074 527.656C374.346 527.224 374.69 526.84 375.106 526.504C375.522 526.168 375.986 525.904 376.498 525.712C377.01 525.504 377.546 525.4 378.106 525.4ZM391.984 538.24C390.704 538.24 389.584 537.968 388.624 537.424C387.664 536.88 386.912 536.136 386.368 535.192C385.84 534.232 385.576 533.128 385.576 531.88C385.576 530.488 385.848 529.304 386.392 528.328C386.952 527.336 387.672 526.584 388.552 526.072C389.448 525.544 390.392 525.28 391.384 525.28C392.12 525.28 392.832 525.416 393.52 525.688C394.208 525.96 394.816 526.36 395.344 526.888C395.872 527.4 396.296 528.024 396.616 528.76C396.936 529.48 397.104 530.288 397.12 531.184C397.12 531.44 397.024 531.656 396.832 531.832C396.64 532.008 396.416 532.096 396.16 532.096H386.68L386.248 530.44H395.488L395.104 530.776V530.248C395.04 529.592 394.816 529.032 394.432 528.568C394.064 528.088 393.608 527.72 393.064 527.464C392.536 527.208 391.976 527.08 391.384 527.08C390.904 527.08 390.424 527.168 389.944 527.344C389.48 527.504 389.056 527.776 388.672 528.16C388.304 528.528 388 529.008 387.76 529.6C387.536 530.192 387.424 530.904 387.424 531.736C387.424 532.664 387.608 533.48 387.976 534.184C388.36 534.888 388.888 535.448 389.56 535.864C390.232 536.264 391.016 536.464 391.912 536.464C392.472 536.464 392.96 536.392 393.376 536.248C393.792 536.104 394.152 535.928 394.456 535.72C394.76 535.496 395.016 535.272 395.224 535.048C395.432 534.904 395.632 534.832 395.824 534.832C396.064 534.832 396.256 534.912 396.4 535.072C396.56 535.232 396.64 535.424 396.64 535.648C396.64 535.92 396.512 536.16 396.256 536.368C395.808 536.864 395.2 537.304 394.432 537.688C393.664 538.056 392.848 538.24 391.984 538.24ZM410.59 520.24C410.862 520.24 411.086 520.336 411.262 520.528C411.454 520.704 411.55 520.928 411.55 521.2V537.016C411.55 537.288 411.454 537.52 411.262 537.712C411.086 537.904 410.862 538 410.59 538C410.302 538 410.07 537.904 409.894 537.712C409.718 537.52 409.63 537.288 409.63 537.016V534.736L410.086 534.568C410.086 534.952 409.966 535.36 409.726 535.792C409.486 536.208 409.158 536.6 408.742 536.968C408.326 537.336 407.83 537.64 407.254 537.88C406.694 538.12 406.086 538.24 405.43 538.24C404.358 538.24 403.382 537.96 402.502 537.4C401.638 536.84 400.95 536.072 400.438 535.096C399.942 534.12 399.694 533.008 399.694 531.76C399.694 530.496 399.942 529.376 400.438 528.4C400.95 527.424 401.638 526.664 402.502 526.12C403.366 525.56 404.326 525.28 405.382 525.28C406.054 525.28 406.686 525.392 407.278 525.616C407.87 525.84 408.382 526.144 408.814 526.528C409.262 526.912 409.614 527.336 409.87 527.8C410.126 528.264 410.254 528.728 410.254 529.192L409.63 529.048V521.2C409.63 520.928 409.718 520.704 409.894 520.528C410.07 520.336 410.302 520.24 410.59 520.24ZM405.646 536.464C406.446 536.464 407.15 536.264 407.758 535.864C408.382 535.448 408.862 534.888 409.198 534.184C409.55 533.464 409.726 532.656 409.726 531.76C409.726 530.848 409.55 530.04 409.198 529.336C408.862 528.632 408.382 528.08 407.758 527.68C407.15 527.264 406.446 527.056 405.646 527.056C404.862 527.056 404.158 527.264 403.534 527.68C402.926 528.08 402.446 528.632 402.094 529.336C401.742 530.04 401.566 530.848 401.566 531.76C401.566 532.64 401.742 533.44 402.094 534.16C402.446 534.864 402.926 535.424 403.534 535.84C404.158 536.256 404.862 536.464 405.646 536.464ZM425.131 525.592C425.419 525.592 425.651 525.688 425.827 525.88C426.003 526.056 426.091 526.28 426.091 526.552V533.104C426.091 534.72 425.635 535.976 424.723 536.872C423.827 537.752 422.571 538.192 420.955 538.192C419.355 538.192 418.099 537.752 417.187 536.872C416.291 535.976 415.843 534.72 415.843 533.104V526.552C415.843 526.28 415.931 526.056 416.107 525.88C416.299 525.688 416.531 525.592 416.803 525.592C417.091 525.592 417.323 525.688 417.499 525.88C417.675 526.056 417.763 526.28 417.763 526.552V533.104C417.763 534.192 418.043 535.016 418.603 535.576C419.163 536.136 419.947 536.416 420.955 536.416C421.995 536.416 422.787 536.136 423.331 535.576C423.891 535.016 424.171 534.192 424.171 533.104V526.552C424.171 526.28 424.259 526.056 424.435 525.88C424.627 525.688 424.859 525.592 425.131 525.592ZM432.119 537.016C432.119 537.288 432.023 537.52 431.831 537.712C431.639 537.904 431.407 538 431.135 538C430.863 538 430.639 537.904 430.463 537.712C430.287 537.52 430.199 537.288 430.199 537.016V521.2C430.199 520.928 430.287 520.704 430.463 520.528C430.655 520.336 430.887 520.24 431.159 520.24C431.447 520.24 431.679 520.336 431.855 520.528C432.031 520.704 432.119 520.928 432.119 521.2V537.016ZM441.705 538.24C440.425 538.24 439.305 537.968 438.345 537.424C437.385 536.88 436.633 536.136 436.089 535.192C435.561 534.232 435.297 533.128 435.297 531.88C435.297 530.488 435.569 529.304 436.113 528.328C436.673 527.336 437.393 526.584 438.273 526.072C439.169 525.544 440.113 525.28 441.105 525.28C441.841 525.28 442.553 525.416 443.241 525.688C443.929 525.96 444.537 526.36 445.065 526.888C445.593 527.4 446.017 528.024 446.337 528.76C446.657 529.48 446.825 530.288 446.841 531.184C446.841 531.44 446.745 531.656 446.553 531.832C446.361 532.008 446.137 532.096 445.881 532.096H436.401L435.969 530.44H445.209L444.825 530.776V530.248C444.761 529.592 444.537 529.032 444.153 528.568C443.785 528.088 443.329 527.72 442.785 527.464C442.257 527.208 441.697 527.08 441.105 527.08C440.625 527.08 440.145 527.168 439.665 527.344C439.201 527.504 438.777 527.776 438.393 528.16C438.025 528.528 437.721 529.008 437.481 529.6C437.257 530.192 437.145 530.904 437.145 531.736C437.145 532.664 437.329 533.48 437.697 534.184C438.081 534.888 438.609 535.448 439.281 535.864C439.953 536.264 440.737 536.464 441.633 536.464C442.193 536.464 442.681 536.392 443.097 536.248C443.513 536.104 443.873 535.928 444.177 535.72C444.481 535.496 444.737 535.272 444.945 535.048C445.153 534.904 445.353 534.832 445.545 534.832C445.785 534.832 445.977 534.912 446.121 535.072C446.281 535.232 446.361 535.424 446.361 535.648C446.361 535.92 446.233 536.16 445.977 536.368C445.529 536.864 444.921 537.304 444.153 537.688C443.385 538.056 442.569 538.24 441.705 538.24ZM460.311 520.24C460.583 520.24 460.807 520.336 460.983 520.528C461.175 520.704 461.271 520.928 461.271 521.2V537.016C461.271 537.288 461.175 537.52 460.983 537.712C460.807 537.904 460.583 538 460.311 538C460.023 538 459.791 537.904 459.615 537.712C459.439 537.52 459.351 537.288 459.351 537.016V534.736L459.807 534.568C459.807 534.952 459.687 535.36 459.447 535.792C459.207 536.208 458.879 536.6 458.463 536.968C458.047 537.336 457.551 537.64 456.975 537.88C456.415 538.12 455.807 538.24 455.151 538.24C454.079 538.24 453.103 537.96 452.223 537.4C451.359 536.84 450.671 536.072 450.159 535.096C449.663 534.12 449.415 533.008 449.415 531.76C449.415 530.496 449.663 529.376 450.159 528.4C450.671 527.424 451.359 526.664 452.223 526.12C453.087 525.56 454.047 525.28 455.103 525.28C455.775 525.28 456.407 525.392 456.999 525.616C457.591 525.84 458.103 526.144 458.535 526.528C458.983 526.912 459.335 527.336 459.591 527.8C459.847 528.264 459.975 528.728 459.975 529.192L459.351 529.048V521.2C459.351 520.928 459.439 520.704 459.615 520.528C459.791 520.336 460.023 520.24 460.311 520.24ZM455.367 536.464C456.167 536.464 456.871 536.264 457.479 535.864C458.103 535.448 458.583 534.888 458.919 534.184C459.271 533.464 459.447 532.656 459.447 531.76C459.447 530.848 459.271 530.04 458.919 529.336C458.583 528.632 458.103 528.08 457.479 527.68C456.871 527.264 456.167 527.056 455.367 527.056C454.583 527.056 453.879 527.264 453.255 527.68C452.647 528.08 452.167 528.632 451.815 529.336C451.463 530.04 451.287 530.848 451.287 531.76C451.287 532.64 451.463 533.44 451.815 534.16C452.167 534.864 452.647 535.424 453.255 535.84C453.879 536.256 454.583 536.464 455.367 536.464Z" fill="#3C4959"/>
<defs>
<radialGradient id="paint0_radial_189_4768" cx="0" cy="0" r="1" gradientUnits="userSpaceOnUse" gradientTransform="translate(381.845 131.787) scale(64.992)">
<stop offset="0.386" stop-color="#B0EBFF" stop-opacity="0"/>
<stop offset="1" stop-color="#BDF6FF"/>
</radialGradient>
<radialGradient id="paint1_radial_189_4768" cx="0" cy="0" r="1" gradientUnits="userSpaceOnUse" gradientTransform="translate(116.658 112.336) scale(64.992)">
<stop offset="0.386" stop-color="#B0EBFF" stop-opacity="0"/>
<stop offset="1" stop-color="#BDF6FF"/>
</radialGradient>
</defs>
</svg>
