<svg width="626" height="495" viewBox="0 0 626 495" fill="none" xmlns="http://www.w3.org/2000/svg">
<path d="M141.486 481.837C141.486 481.837 36.7385 455.855 46.9578 368.281C57.108 280.706 82.5181 278.073 83.4158 253.201C84.3134 228.328 89.8374 140.892 148.184 130.291C206.462 119.691 212.124 111.931 231.803 89.0677C251.413 66.2734 339.727 43.9641 383.02 86.2964C426.314 128.629 448.548 173.178 475.132 182.116C501.785 191.053 520.152 244.194 506.826 279.182C493.499 314.17 502.752 337.449 518.495 374.863C534.169 412.276 509.588 485.162 449.101 487.934C388.544 490.705 388.544 490.705 388.544 490.705L141.486 481.837Z" fill="#E3FBFF"/>
<path d="M545.137 418.231C538.646 422.665 533.26 425.713 528.979 428.277L523.248 459.801L534.641 453.219C534.641 453.219 536.229 452.318 538.853 450.517C556.046 438.739 563.918 426.476 563.918 426.476C568.613 419.201 577.037 406.314 572.756 393.358C571.375 389.132 569.028 386.014 567.232 384.074C566.197 386.845 562.123 397.515 556.737 406.245C554.044 410.61 551.765 413.312 548.934 415.598C548.244 416.152 547.208 416.845 545.137 418.231Z" fill="#2CBF7B"/>
<path d="M525.387 448.231C529.53 450.101 534.225 450.794 538.851 450.517C544.859 446.429 555.837 437.977 563.916 426.476C560.809 425.436 557.564 424.744 555.354 423.843C551.487 422.319 548.242 420.379 545.135 418.231C538.644 422.665 533.258 425.713 528.977 428.277L525.387 448.231Z" fill="#2DA66D"/>
<path d="M325.557 249.804C324.936 263.522 327.421 274.816 331.979 282.368L350.967 290.404C352.072 289.296 353.039 287.702 353.936 285.901C362.084 268.996 363.396 225.555 363.396 225.555C363.396 225.555 361.808 217.379 357.734 207.403C354.489 199.574 349.793 190.636 343.096 183.708C342.612 183.223 330.529 210.313 326.455 240.035C325.948 243.407 325.649 246.663 325.557 249.804Z" fill="#2CBF7B"/>
<path d="M341.233 240.105C341.187 240.151 341.164 240.174 341.164 240.174C339.714 242.668 338.126 245.093 335.778 246.825C332.878 248.973 329.219 249.666 325.559 249.804C324.938 263.523 327.423 274.816 331.981 282.368L347.655 288.95C349.795 288.188 351.936 287.148 353.938 285.901C362.086 268.996 363.398 225.555 363.398 225.555C363.398 225.555 361.81 217.38 357.736 207.403C354.928 213.13 352.12 218.835 349.312 224.516C349.082 225.024 348.852 225.509 348.622 225.971C348.276 217.934 346.964 197.01 343.098 183.708C343.167 184.123 345.998 209.135 344.548 229.296C344.271 233.107 343.167 236.848 341.233 240.105Z" fill="#2DA66D"/>
<path d="M345.033 189.874L344.274 190.082C352.56 227.634 350.833 260.128 339.164 286.663L339.855 286.941C346.138 272.737 349.59 256.525 350.143 238.927C350.557 223.685 348.9 207.195 345.033 189.874Z" fill="#027369"/>
<path d="M350.554 263.176C350.324 264.1 350.117 264.978 349.933 265.809C348.966 270.313 348.552 274.054 348.621 277.172L362.085 286.802L399.648 261.236C399.648 261.236 400.822 257.634 401.72 251.745C401.812 251.329 401.881 250.913 401.927 250.498C403.653 238.304 404.067 217.588 392.743 198.258C392.375 197.611 391.984 196.987 391.569 196.387C390.672 194.932 374.238 204.978 356.907 245.024C353.868 252.091 351.866 258.049 350.554 263.176Z" fill="#2CBF7B"/>
<path d="M363.535 262.137C359.438 262.645 355.341 262.991 351.245 263.176C351.014 263.176 350.784 263.176 350.554 263.176C350.324 264.1 350.117 264.977 349.933 265.809C348.966 270.312 348.552 274.053 348.621 277.171L362.085 286.802L399.648 261.236C399.648 261.236 400.822 257.633 401.72 251.744C401.812 251.328 401.881 250.913 401.927 250.497C400.822 251.19 399.671 251.836 398.474 252.437C393.226 255.139 387.703 256.94 382.11 258.465C381.649 258.557 381.189 258.672 380.729 258.811C383.076 250.22 391.224 218.834 392.743 198.257C392.375 197.61 391.984 196.987 391.569 196.386C391.5 196.664 385.148 232.345 375.274 253.545C373.133 258.257 368.645 261.444 363.535 262.137Z" fill="#2DA66D"/>
<path d="M392.466 199.92H391.706C390.671 226.594 383.904 253.477 372.027 277.518L372.718 277.864C378.656 265.878 383.351 253.061 386.735 239.689C390.049 226.525 391.983 213.153 392.466 199.92Z" fill="#027369"/>
<path d="M573.031 422.527C561.43 427.238 554.042 438.392 547.759 449.824C544.858 455.09 538.989 466.244 535.33 476.983C535.33 477.03 535.307 477.076 535.261 477.122C534.087 480.586 533.189 483.981 532.637 487.099H573.928C577.381 483.588 580.58 479.893 583.526 476.013C584.078 475.274 584.608 474.535 585.114 473.796C586.081 472.503 587.001 471.187 587.876 469.847C588.429 469.016 589.004 468.161 589.602 467.284C601.824 448.092 609.281 425.367 612.734 399.94C600.374 409.501 587.186 416.776 573.031 422.527Z" fill="#2CBF7B"/>
<path d="M549.827 476.498C547.273 480.447 544.994 484.05 543.061 487.098H573.926C577.033 483.911 579.726 480.378 582.626 476.983C582.902 476.66 583.201 476.336 583.523 476.013C584.076 475.274 584.605 474.535 585.112 473.796C586.078 472.503 586.999 471.186 587.873 469.847C583.385 471.787 578.552 473.034 573.718 473.449C573.626 473.449 573.557 473.449 573.511 473.449C568.54 473.865 564.949 472.133 565.363 466.66C565.709 462.71 567.711 458.692 569.714 455.436C573.856 448.577 579.449 442.202 584.352 435.898C588.817 430.263 593.351 424.72 597.955 419.27C602.581 413.727 607.207 408.253 612.041 402.988C592.569 414.004 565.778 452.041 549.827 476.498Z" fill="#2DA66D"/>
<path d="M543.059 487.097C544.993 484.049 547.271 480.446 549.826 476.497C544.993 476.912 540.159 477.074 535.326 476.982C535.326 477.028 535.303 477.074 535.257 477.12C534.083 480.584 533.185 483.979 532.633 487.097H543.059Z" fill="#2DA66D"/>
<path d="M524.556 445.806L524.418 446.707C538.09 441.095 552.728 433.681 561.497 421.28C565.917 414.975 569.093 407.353 571.371 397.1L570.612 396.961C568.333 407.076 565.226 414.628 560.876 420.795C552.314 432.919 538.021 440.263 524.556 445.806Z" fill="#027369"/>
<path d="M611.555 402.364C589.805 421.625 553.623 468.045 544.232 487.098H545.13C559.699 457.653 582.14 429.454 612.039 402.988L611.555 402.364Z" fill="#027369"/>
<path d="M90.9272 219.668C102.666 226.596 113.852 229.714 122.621 229.229L138.571 216.203C138.088 214.679 137.259 213.086 136.016 211.423C125.038 196.319 87.4057 174.633 87.4057 174.633C87.4057 174.633 79.465 172.278 68.7624 171.169C60.3384 170.338 50.2572 170.338 41.0737 172.97C40.3832 173.109 58.6122 196.596 82.7104 214.194C85.4723 216.226 88.2113 218.051 90.9272 219.668Z" fill="#2CBF7B"/>
<path d="M89.7618 201.169C89.8078 201.215 89.8308 201.238 89.8308 201.238C91.2808 203.732 92.7309 206.296 93.1452 209.136C93.6285 212.739 92.5237 216.272 90.9356 219.667C102.674 226.596 113.86 229.713 122.629 229.228L135.749 218.49C136.094 216.203 136.163 213.778 136.025 211.423C125.046 196.319 87.4141 174.633 87.4141 174.633C87.4141 174.633 79.4734 172.277 68.7708 171.169C72.4994 176.342 76.2051 181.515 79.8877 186.688C80.2099 187.104 80.5322 187.52 80.8544 187.935C73.6042 184.471 54.6157 175.811 41.082 172.97C41.4963 173.109 64.7659 182.393 81.8211 193.132C85.0664 195.141 87.8284 197.912 89.7618 201.169Z" fill="#2DA66D"/>
<path d="M47.4317 174.148L47.2246 174.91C84.166 185.233 111.924 202.069 129.738 224.863L130.36 224.378C120.762 212.184 108.195 201.515 92.9352 192.716C79.7468 185.164 64.4179 178.928 47.4317 174.148Z" fill="#027369"/>
<path d="M114.476 203.801C115.167 204.401 115.834 204.979 116.479 205.533C119.931 208.512 123.108 210.591 125.8 212.046L140.715 204.632L135.882 159.39C135.882 159.39 133.258 156.688 128.493 153.085C128.171 152.854 127.826 152.6 127.458 152.323C117.584 145.048 99.5618 134.933 77.1898 135.903C76.4533 135.903 75.7168 135.949 74.9802 136.042C73.3231 136.111 74.4279 155.372 101.495 189.598C106.26 195.556 110.541 200.198 114.476 203.801Z" fill="#2CBF7B"/>
<path d="M119.653 191.746C118.18 195.626 116.546 199.437 114.751 203.178C114.659 203.363 114.567 203.571 114.475 203.802C115.165 204.402 115.833 204.979 116.477 205.534C119.93 208.513 123.106 210.591 125.799 212.046L140.713 204.633L135.88 159.391C135.88 159.391 133.256 156.689 128.492 153.086C128.169 152.855 127.824 152.601 127.456 152.324C127.548 153.617 127.594 154.933 127.594 156.273C127.525 162.162 126.489 167.982 125.177 173.594C125.039 174.056 124.924 174.518 124.832 174.98C118.341 168.883 94.5885 146.85 77.1881 135.904C76.4516 135.904 75.715 135.95 74.9785 136.042C75.2547 136.25 103.634 158.629 117.651 177.335C120.689 181.492 121.449 186.896 119.653 191.746Z" fill="#2DA66D"/>
<path d="M78.5705 136.872L78.1562 137.565C101.219 151.006 121.588 169.644 137.193 191.468L137.815 191.052C130.081 180.175 120.967 169.921 110.817 160.706C100.804 151.561 89.9637 143.524 78.5705 136.872Z" fill="#027369"/>
<path d="M205.006 432.78V442.272C205.006 466.659 224.892 486.613 249.266 486.613H382.255V432.78H205.006Z" fill="#CC293D"/>
<path d="M382.258 486.615H515.316C539.621 486.615 559.507 466.661 559.507 442.273V432.782H382.258V486.615Z" fill="#CC293D"/>
<path d="M382.255 236.987H323.08V236.918H299.327V236.987H249.266C224.892 236.987 205.006 253.893 205.006 278.28V294.077H382.255V236.987Z" fill="#CC293D"/>
<path d="M515.316 236.987H465.255H441.502H382.258V294.077H559.507V278.28C559.507 253.892 539.621 236.987 515.316 236.987Z" fill="#CC293D"/>
<path d="M382.255 408.256H368.031V379.711H339.583V343.96H368.031V315.415H382.255V294.076H205.006V432.782H382.255V408.256Z" fill="#FD5B68"/>
<path d="M382.258 315.416H396.482V343.961H424.999V379.711H396.482V408.256H382.258V432.782H559.507V294.076H382.258V315.416Z" fill="#FD5B68"/>
<path d="M368.024 343.96H339.576V379.711H368.024V408.256H382.249V315.416H368.024V343.96Z" fill="#CC293D"/>
<path d="M396.474 408.256V379.711H424.992V343.96H396.474V315.416H382.25V408.256H396.474Z" fill="#CC293D"/>
<path d="M336.749 231.929C336.749 234.909 334.401 237.264 331.432 237.264H310.51C307.61 237.264 305.193 234.909 305.193 231.929C305.193 229.019 307.61 226.594 310.51 226.594H331.432C334.401 226.594 336.749 229.019 336.749 231.929Z" fill="#D2F3F7"/>
<path d="M459.04 231.929C459.04 234.909 456.623 237.264 453.723 237.264H432.801C429.832 237.264 427.484 234.909 427.484 231.929C427.484 229.019 429.832 226.594 432.801 226.594H453.723C456.623 226.594 459.04 229.019 459.04 231.929Z" fill="#D2F3F7"/>
<path d="M326.464 206.156H315.555V230.059H326.464V206.156Z" fill="#D2F3F7"/>
<path d="M448.677 206.156H437.768V230.058H448.677V206.156Z" fill="#D2F3F7"/>
<path d="M311.826 208.443C311.826 208.443 318.386 173.593 383.016 173.593C447.646 173.593 455.518 208.443 455.518 208.443H432.524C432.524 208.443 429.279 187.588 383.706 187.588C338.065 187.588 334.82 208.443 334.82 208.443H311.826Z" fill="#D2F3F7"/>
<path d="M333.641 158.144V494.862H94.1777V158.144H333.641Z" fill="#A5C8E4"/>
<path d="M104.463 482.737H321.968V169.921H104.463V482.737Z" fill="white"/>
<path fill-rule="evenodd" clip-rule="evenodd" d="M227.99 139.507V174.703H202.58V139.507C202.58 132.44 208.242 126.689 215.285 126.689C222.328 126.689 227.99 132.44 227.99 139.507ZM221.569 137.982C221.569 134.518 218.738 131.678 215.285 131.678C211.833 131.678 209.002 134.518 209.002 137.982C209.002 141.516 211.833 144.287 215.285 144.287C218.738 144.287 221.569 141.516 221.569 137.982Z" fill="#293F60"/>
<path d="M260.447 156.204V172.486C260.447 174.772 258.444 176.643 256.028 176.643H173.238C170.752 176.643 168.818 174.772 168.818 172.486V156.204C168.818 153.918 170.752 152.117 173.238 152.117H256.028C258.444 152.117 260.447 153.918 260.447 156.204Z" fill="#293F60"/>
<path d="M270.111 295.671H155.559V292.345H270.111V295.671Z" fill="#D1EAF3"/>
<path d="M270.111 306.202H155.559V302.876H270.111V306.202Z" fill="#D1EAF3"/>
<path d="M270.111 316.733H155.559V313.477H270.111V316.733Z" fill="#D1EAF3"/>
<path d="M270.111 339.111H155.559V335.786H270.111V339.111Z" fill="#D1EAF3"/>
<path d="M270.111 349.642H155.559V346.317H270.111V349.642Z" fill="#D1EAF3"/>
<path d="M270.111 360.173H155.559V356.917H270.111V360.173Z" fill="#D1EAF3"/>
<path d="M270.111 383.73H155.559V380.474H270.111V383.73Z" fill="#D1EAF3"/>
<path d="M270.111 394.331H155.559V391.005H270.111V394.331Z" fill="#D1EAF3"/>
<path d="M270.111 404.861H155.559V401.535H270.111V404.861Z" fill="#D1EAF3"/>
<path fill-rule="evenodd" clip-rule="evenodd" d="M274.592 448.647C264.787 453.497 252.91 449.409 248.077 439.571C243.243 429.733 247.317 417.816 257.122 413.035C266.858 408.186 278.804 412.273 283.568 422.042C288.401 431.881 284.328 443.797 274.592 448.647ZM257.744 414.282C248.629 418.786 244.9 429.871 249.389 438.947C253.808 448.093 264.856 451.834 273.901 447.331C283.016 442.897 286.744 431.811 282.325 422.735C277.837 413.59 266.789 409.848 257.744 414.282Z" fill="#D1EAF3"/>
<path fill-rule="evenodd" clip-rule="evenodd" d="M272.667 444.838C265.002 448.648 255.681 445.461 251.883 437.701C248.085 430.011 251.261 420.658 258.995 416.847C266.659 413.036 275.981 416.223 279.779 423.983C283.577 431.674 280.4 441.027 272.667 444.838ZM259.616 418.163C252.642 421.558 249.742 430.08 253.195 437.078C256.647 444.075 265.071 446.985 272.045 443.521C279.019 440.057 281.919 431.604 278.467 424.607C275.083 417.609 266.59 414.699 259.616 418.163Z" fill="#D1EAF3"/>
<path d="M274.251 427.515L258.508 435.345C258.093 435.552 257.61 435.345 257.403 434.998C257.196 434.582 257.403 434.097 257.748 433.89L273.56 426.13C273.975 425.922 274.458 426.061 274.665 426.476C274.803 426.892 274.665 427.377 274.251 427.515Z" fill="#D1EAF3"/>
<path d="M271.353 425.022L258.302 431.465C257.888 431.673 257.474 431.534 257.336 431.188C257.128 430.772 257.267 430.357 257.612 430.218L270.731 423.705C271.076 423.567 271.491 423.705 271.698 424.052C271.836 424.398 271.698 424.883 271.353 425.022Z" fill="#D1EAF3"/>
<path d="M273.076 431.533L262.373 436.799C262.028 436.938 261.683 436.868 261.545 436.522C261.337 436.175 261.476 435.829 261.821 435.621L272.454 430.356C272.8 430.217 273.214 430.356 273.352 430.702C273.49 430.979 273.352 431.395 273.076 431.533Z" fill="#D1EAF3"/>
<path d="M66.28 281.466C62.8275 284.03 60.756 288.048 60.6179 292.344C59.9275 311.882 57.3726 346.246 47.4986 357.401C46.67 358.302 46.739 359.757 47.6367 360.519C47.9129 360.796 48.2121 360.958 48.5343 361.004C49.3629 361.212 50.1915 361.004 50.813 360.38C61.0322 348.81 64.2085 317.078 65.0371 292.482C65.1752 289.503 66.5562 286.801 68.9729 285.069C71.3206 283.268 74.2897 282.713 77.1898 283.475C77.6041 283.568 77.9953 283.545 78.3636 283.406L79.1922 280.427C79.2382 280.196 79.3073 279.988 79.3993 279.803C79.0541 279.526 78.7088 279.249 78.2946 279.18C74.1516 278.071 69.8015 278.903 66.28 281.466Z" fill="#A5C8E4"/>
<path d="M83.1321 278.071C81.613 277.656 80.0249 278.418 79.4034 279.803C79.3114 279.988 79.2423 280.196 79.1963 280.427L78.3677 283.406L57.791 365.23V365.299L75.3986 369.734L96.8038 284.93C97.2872 283.129 96.1824 281.397 94.4562 280.912L92.5919 280.427L84.9964 278.487L83.1321 278.071Z" fill="#72A2BA"/>
<path d="M87.2728 269.55L84.9941 278.488L92.5896 280.428L94.8682 271.49L87.2728 269.55Z" fill="#A5C8E4"/>
<path d="M57.7916 365.229L55.582 374.028L73.1896 378.531L75.3992 369.732L57.7916 365.298V365.229Z" fill="#A5C8E4"/>
<path d="M55.577 374.03L38.2457 442.621C36.4504 449.757 35.5527 457.032 35.5527 464.376V466.108C39.6957 465.554 43.8386 466.247 47.084 469.087L47.9816 467.494C51.4341 461.051 54.127 454.191 55.9223 447.125L73.1846 378.534L55.577 374.03Z" fill="#72A2BA"/>
<path d="M35.5527 466.106V485.575C35.5527 486.891 37.279 487.307 37.9004 486.129L46.3935 470.402L47.084 469.085C43.8386 466.245 39.6957 465.552 35.5527 466.106Z" fill="#A5C8E4"/>
<path d="M231.52 199.297C215.57 203.454 199.896 203.246 184.636 199.297C182.15 198.674 179.664 200.544 179.664 203.177V246.757C179.664 248.904 180.078 250.983 180.907 252.992C184.498 261.653 193.198 270.59 206.731 278.281C220.403 271.144 228.758 263.731 234.42 253.616C235.732 251.121 236.423 248.419 236.423 245.579V203.177C236.423 200.614 234.006 198.674 231.52 199.297Z" fill="#72A2BA"/>
<path d="M227.585 205.948C214.258 209.343 201.277 209.204 188.572 205.948C186.5 205.394 184.498 206.987 184.498 209.135V245.37C184.498 247.172 184.843 248.904 185.465 250.567C188.434 257.772 195.339 264.978 206.594 271.352C217.987 265.393 225.306 259.504 229.932 251.052C231.106 249.042 231.659 246.756 231.659 244.4V209.135C231.659 206.987 229.656 205.394 227.585 205.948Z" fill="#B2DCF7"/>
<g style="mix-blend-mode:multiply">
<path d="M227.579 205.948C226.659 206.179 225.738 206.387 224.817 206.571C224.955 206.941 225.025 207.334 225.025 207.749V243.015C225.025 245.301 224.403 247.587 223.298 249.666C218.948 257.495 212.319 263.176 202.238 268.719C203.619 269.596 205.069 270.474 206.588 271.352C217.982 265.393 225.301 259.504 229.927 251.052C231.101 249.042 231.653 246.756 231.653 244.4V209.135C231.653 206.987 229.651 205.394 227.579 205.948Z" fill="#E5E5E4"/>
</g>
<path d="M226.276 232.692H209.842V216.133C209.842 215.163 209.014 214.401 208.047 214.401C207.149 214.401 206.321 215.163 206.321 216.133V232.692H189.818C188.92 232.692 188.092 233.454 188.092 234.424C188.092 235.394 188.92 236.156 189.818 236.156H206.321V252.715C206.321 253.685 207.149 254.447 208.047 254.447C209.014 254.447 209.842 253.685 209.842 252.715V236.156H226.276C227.243 236.156 228.071 235.394 228.071 234.424C228.071 233.454 227.243 232.692 226.276 232.692Z" fill="#72A2BA"/>
<g style="mix-blend-mode:overlay">
<path d="M189.127 212.184C186.918 214.401 186.158 217.242 187.401 218.558C188.713 219.805 191.544 219.043 193.753 216.826C195.963 214.54 196.792 211.699 195.48 210.452C194.237 209.136 191.406 209.967 189.127 212.184Z" fill="#CBCBCB"/>
</g>
<path d="M2.41406 250.844H18.1573V235.116H36.7315V250.844H52.4748V269.55H36.7315V285.347H18.1573V269.55H2.41406V250.844Z" fill="#E3FBFF"/>
<path d="M455.307 70.4299H469.116V56.6425H485.412V70.4299H499.222V86.8501H485.412V100.707H469.116V86.8501H455.307V70.4299Z" fill="#E3FBFF"/>
<path d="M34.8691 211.976H46.0551V200.752H59.3126V211.976H70.5676V225.278H59.3126V236.502H46.0551V225.278H34.8691V211.976Z" fill="#E3FBFF"/>
<path d="M234.074 114.91H244.846V104.102H257.62V114.91H268.392V127.728H257.62V138.536H244.846V127.728H234.074V114.91Z" fill="white"/>
<path d="M275.02 35.8582L275.572 37.521L276.677 40.9159C276.631 40.9159 276.608 40.9159 276.608 40.9159C275.641 41.2623 274.398 41.678 272.948 42.3015C266.803 44.7957 257.55 49.507 254.926 54.9804C254.098 56.574 254.029 58.0982 254.581 59.6917C258.379 69.8764 307.197 124.888 325.702 145.257L324.39 146.435L321.766 148.79C314.93 141.239 254.443 74.5877 249.61 61.5624C248.574 58.5832 248.712 55.604 250.162 52.6248C253.476 45.7657 263.281 40.6387 269.565 37.9367C271.015 37.3131 272.327 36.8281 273.224 36.4817C274.26 36.1353 274.882 35.9274 275.02 35.8582Z" fill="#B2DCF7"/>
<path fill-rule="evenodd" clip-rule="evenodd" d="M508.336 133.062C508.842 133.709 509.326 134.425 509.786 135.21C515.448 144.563 520.074 162.508 508.681 194.794C506.195 201.861 503.019 206.157 499.774 208.72C499.129 209.182 498.485 209.621 497.841 210.036C493.145 212.669 488.381 212.184 485.204 211.214C484.33 210.983 483.455 210.66 482.581 210.244C481.706 209.921 480.854 209.528 480.026 209.066C477.471 216.688 473.052 223.616 466.147 228.397C460.347 232.346 454.27 233.454 447.918 231.722C445.432 231.029 443.015 229.921 440.668 228.535C432.382 223.547 425.408 214.678 420.505 207.265C416.155 200.614 413.6 195.14 413.324 194.655L418.158 192.3C418.227 192.438 420.643 197.496 424.717 203.732C430.379 212.6 439.356 223.824 449.368 226.526C454.132 227.842 458.621 226.942 463.04 223.893C469.323 219.598 473.259 213.154 475.33 206.018C459.242 193.963 445.294 167.011 447.711 156.688C448.401 153.917 450.058 152.046 452.406 151.353C453.718 150.937 455.237 150.868 456.894 151.215C468.495 153.224 477.816 164.448 481.269 180.314C482.788 187.588 482.995 195.833 481.407 203.593C483.202 204.702 484.928 205.533 486.655 206.018C489.416 206.849 497.84 209.274 503.572 192.993C513.929 163.616 510.338 147.335 505.712 139.021C504.883 137.427 503.986 136.18 503.157 135.141C500.879 132.369 499.014 131.33 498.945 131.261L501.431 126.48C501.776 126.688 504.055 128.005 506.748 131.053C507.254 131.654 507.784 132.323 508.336 133.062ZM476.573 200.06C477.54 193.824 477.195 187.311 475.952 181.492C473.052 167.773 465.318 158.212 455.928 156.48C454.616 156.272 453.925 156.411 453.58 156.757C453.166 157.034 453.028 157.45 452.958 157.866C451.094 165.972 463.316 188.766 476.573 200.06Z" fill="#B2DCF7"/>
<path d="M426.236 199.574C426.167 200.128 425.546 204.355 421.748 206.641C419.055 208.234 416.431 208.027 415.534 207.888C405.545 194.955 395.556 182.022 385.566 169.089L396.2 160.775L426.236 199.574Z" fill="#72A2BA"/>
<path d="M392.471 93.7792L387.983 96.6891C373 73.687 332.053 12.5788 323.146 6.34328C321.765 5.44259 320.246 5.09617 318.451 5.51187C311.131 6.96683 302.293 18.745 299.531 23.1099L295.043 20.2693C295.457 19.5072 306.367 2.46339 317.415 0.246317C320.66 -0.377236 323.56 0.177033 326.115 1.97841C337.508 9.87674 386.878 85.2573 392.471 93.7792Z" fill="#B2DCF7"/>
<path d="M392.472 93.7792L390.746 94.957C384.669 85.7423 335.852 11.1238 324.528 3.2948C321.904 1.49342 319.004 0.869871 315.758 1.56271C313.065 2.11698 310.372 3.50265 307.887 5.37331C310.856 2.8791 314.17 0.939153 317.416 0.246317C320.661 -0.377236 323.561 0.177033 326.185 1.97841C337.509 9.87674 386.879 85.2573 392.472 93.7792Z" fill="#72A2BA"/>
<path d="M295.044 20.269L298.98 22.7632C298.519 23.3637 298.151 23.918 297.875 24.426L293.387 21.5161C293.732 20.9619 300.084 11.1236 307.887 5.37305C300.844 11.1929 295.389 19.784 295.044 20.269Z" fill="#72A2BA"/>
<path d="M302.568 27.1977C300.911 28.5141 298.495 28.1676 297.183 26.5048L291.521 19.1608C290.209 17.4287 290.554 15.0037 292.211 13.7566C293.868 12.4403 296.285 12.7174 297.597 14.3802L303.259 21.7935C304.571 23.4564 304.295 25.8813 302.568 27.1977Z" fill="#72A2BA"/>
<path d="M297.593 14.3803L303.255 21.7937C304.567 23.4565 304.291 25.8814 302.565 27.1978C302.335 27.3826 302.081 27.5211 301.805 27.6135C302.91 26.2971 302.979 24.2879 301.874 22.833L296.212 15.4889C295.522 14.6575 294.624 14.1725 293.657 14.0339C292.967 13.9646 292.207 14.0339 291.586 14.3803C291.77 14.1494 291.977 13.9415 292.207 13.7568C293.036 13.064 294.072 12.8561 295.038 12.9254C296.005 13.064 296.903 13.5489 297.593 14.3803Z" fill="#72A2BA"/>
<path d="M275.705 37.9365C276.028 38.9065 276.35 39.8996 276.672 40.9157C276.626 40.9157 276.603 40.9157 276.603 40.9157C275.636 41.2621 274.393 41.6778 272.943 42.3014C266.798 44.7956 257.545 49.5069 254.921 54.9803C254.093 56.5738 254.024 58.0981 254.576 59.6916C258.374 69.8763 307.192 124.887 325.697 145.257L324.385 146.435C320.311 141.723 256.095 67.1742 253.54 61.6315C252.505 59.4145 252.643 57.2667 252.643 57.2667C252.781 55.1882 253.748 53.5253 254.714 52.209C259.824 45.142 268.455 43.4099 271.286 40.2229C271.562 39.9458 272.598 38.6986 274.255 38.1444C274.877 38.0058 275.36 37.9365 275.705 37.9365Z" fill="#72A2BA"/>
<path d="M378.111 89.9685L393.095 109.368C405.179 124.957 402.278 147.543 386.742 159.599C371.206 171.723 348.765 168.883 336.682 153.294L321.698 133.894L311.064 142.139L326.048 161.538C329.777 166.388 334.265 170.337 339.237 173.386C339.329 173.432 339.398 173.478 339.444 173.525C339.904 173.802 340.364 174.056 340.825 174.287C340.825 174.333 340.825 174.356 340.825 174.356C341.377 174.633 341.906 174.91 342.413 175.187C342.965 175.464 343.495 175.719 344.001 175.949C344.047 175.949 344.07 175.973 344.07 176.019C344.576 176.25 345.06 176.458 345.52 176.642C346.303 176.966 347.085 177.266 347.868 177.543C348.236 177.682 348.581 177.82 348.903 177.959C349.134 178.005 349.341 178.074 349.525 178.167C349.985 178.305 350.446 178.444 350.906 178.582C350.998 178.582 351.067 178.605 351.113 178.652C351.527 178.79 351.965 178.906 352.425 178.998C353.023 179.137 353.599 179.275 354.151 179.414C354.473 179.506 354.796 179.575 355.118 179.621C355.532 179.714 355.969 179.806 356.43 179.899C356.982 179.991 357.535 180.083 358.087 180.176C358.133 180.176 358.156 180.176 358.156 180.176C358.754 180.222 359.33 180.291 359.882 180.384C359.928 180.384 359.974 180.384 360.02 180.384C360.619 180.43 361.194 180.476 361.747 180.522C362.345 180.568 362.966 180.591 363.611 180.591C364.163 180.638 364.693 180.638 365.199 180.591C366.626 180.591 368.053 180.522 369.48 180.384C369.848 180.384 370.194 180.361 370.516 180.314C370.746 180.268 370.953 180.245 371.137 180.245C371.367 180.199 371.598 180.153 371.828 180.106C373.347 179.922 374.843 179.645 376.316 179.275C376.546 179.229 376.753 179.183 376.937 179.137C377.352 179.044 377.743 178.929 378.111 178.79C378.433 178.744 378.733 178.675 379.009 178.582C381.126 177.936 383.175 177.15 385.154 176.227C385.43 176.134 385.707 176.019 385.983 175.88C387.134 175.326 388.285 174.725 389.435 174.079C390.724 173.34 391.967 172.531 393.164 171.654C393.44 171.469 393.716 171.261 393.993 171.03C394.361 170.799 394.706 170.545 395.028 170.268C396.824 168.883 398.504 167.381 400.069 165.765C416.986 148.444 418.919 120.8 403.729 101.054L388.745 81.6544L378.111 89.9685Z" fill="#72A2BA"/>
<path d="M387.776 82.4165L400.964 99.5296C415.879 118.86 414.222 145.95 398.133 163.271C396.338 165.21 394.382 167.012 392.264 168.675C390.791 169.829 389.272 170.892 387.707 171.862C372.723 181.007 354.218 181.284 339.234 173.386C339.326 173.432 339.395 173.478 339.442 173.525C339.902 173.802 340.362 174.056 340.822 174.287C340.822 174.333 340.822 174.356 340.822 174.356C341.375 174.633 341.904 174.91 342.411 175.187C342.963 175.464 343.492 175.719 343.999 175.949C344.045 175.949 344.068 175.973 344.068 176.019C344.574 176.25 345.058 176.458 345.518 176.642C346.3 176.966 347.083 177.266 347.866 177.543C348.234 177.682 348.579 177.82 348.901 177.959C349.131 178.005 349.339 178.074 349.523 178.167C349.983 178.305 350.443 178.444 350.904 178.582C350.996 178.582 351.065 178.605 351.111 178.652C351.525 178.79 351.962 178.906 352.423 178.998C353.021 179.137 353.597 179.275 354.149 179.414C354.471 179.506 354.793 179.575 355.116 179.621C355.53 179.714 355.967 179.806 356.428 179.899C356.98 179.991 357.532 180.083 358.085 180.176C358.131 180.176 358.154 180.176 358.154 180.176C358.706 180.222 359.282 180.291 359.88 180.384C359.926 180.384 359.972 180.384 360.018 180.384C360.617 180.43 361.192 180.476 361.744 180.522C362.343 180.568 362.964 180.591 363.609 180.591C364.161 180.638 364.691 180.638 365.197 180.591C366.624 180.591 368.051 180.522 369.478 180.384C369.846 180.384 370.191 180.361 370.514 180.314C370.744 180.268 370.951 180.245 371.135 180.245C371.365 180.199 371.595 180.153 371.826 180.106C373.345 179.922 374.841 179.645 376.314 179.275C376.544 179.229 376.751 179.183 376.935 179.137C377.35 179.044 377.741 178.929 378.109 178.79C378.431 178.744 378.731 178.675 379.007 178.582C381.124 177.936 383.173 177.15 385.152 176.227C385.428 176.134 385.705 176.019 385.981 175.88C387.132 175.326 388.282 174.725 389.433 174.079C390.722 173.34 391.965 172.531 393.162 171.654C393.438 171.469 393.714 171.261 393.99 171.03C394.359 170.799 394.704 170.545 395.026 170.268C396.821 168.883 398.502 167.381 400.067 165.765C416.984 148.444 418.917 120.8 403.726 101.054L388.743 81.6544L387.776 82.4165Z" fill="#72A2BA"/>
<path d="M274.814 32.186L280.476 39.5301C280.844 39.992 281.075 40.5001 281.167 41.0543C281.512 42.44 281.029 43.9642 279.855 44.9342H279.786C278.128 46.2506 275.712 45.9042 274.4 44.2414L268.738 36.8973C268.116 36.0659 267.84 35.0267 267.978 34.0567C268.116 33.0867 268.6 32.1167 269.428 31.4932C270.878 30.3847 272.881 30.4539 274.193 31.5625C274.423 31.7472 274.63 31.9551 274.814 32.186Z" fill="#72A2BA"/>
<path d="M274.811 32.1857L280.473 39.5297C280.841 39.9916 281.071 40.4997 281.163 41.054C281.509 42.4397 281.025 43.9639 279.851 44.9339H279.782C278.401 46.0424 276.399 45.9731 275.018 44.8646C275.916 44.9339 276.882 44.6567 277.642 44.1025V44.0332C278.885 43.1325 279.368 41.6083 279.023 40.2226C278.931 39.6683 278.701 39.1602 278.332 38.6983L272.601 31.285C272.463 31.0541 272.279 30.8693 272.049 30.7307C272.049 30.7307 272.049 30.7076 272.049 30.6614C272.808 30.7307 273.568 31.0079 274.189 31.5621C274.42 31.7469 274.627 31.9547 274.811 32.1857Z" fill="#72A2BA"/>
<path d="M481.271 180.313C482.79 187.588 482.997 195.833 481.409 203.593C481.409 203.593 482.583 206.295 482.583 210.244C481.708 209.921 480.857 209.528 480.028 209.066C477.473 216.687 473.054 223.616 466.149 228.396C460.349 232.345 454.273 233.454 447.92 231.722C445.434 231.029 443.018 229.92 440.67 228.535C451.856 231.653 467.254 231.999 474.78 215.094C487.485 186.618 475.471 169.574 468.152 158.697C464.63 153.362 458.139 151.699 452.408 151.353C453.72 150.937 455.239 150.868 456.896 151.214C468.497 153.223 477.818 164.447 481.271 180.313Z" fill="#72A2BA"/>
<path d="M508.337 133.062C508.844 133.709 509.327 134.424 509.787 135.21C515.449 144.563 520.076 162.507 508.683 194.794C506.197 201.861 503.02 206.156 499.775 208.72C499.131 209.182 498.486 209.62 497.842 210.036C499.844 207.195 501.294 204.77 502.33 203.038C521.388 169.99 510.34 137.357 509.58 135.625C508.959 134.309 508.337 133.062 508.337 133.062Z" fill="#72A2BA"/>
<path d="M509.303 122.185C512.272 126.064 512.341 131.33 509.786 135.21C509.74 135.348 509.671 135.487 509.579 135.626C508.935 136.503 508.175 137.288 507.3 137.981C506.794 138.351 506.265 138.697 505.712 139.02C501.017 141.515 495.01 140.337 491.626 135.972C487.828 131.053 488.726 123.986 493.56 120.245C494.941 119.205 496.391 118.513 497.91 118.166C502.053 117.196 506.541 118.651 509.303 122.185Z" fill="#72A2BA"/>
<path d="M509.302 122.185C512.271 126.064 512.341 131.33 509.786 135.21C509.74 135.348 509.671 135.487 509.579 135.626C508.934 136.503 508.175 137.288 507.3 137.981C506.794 138.351 506.264 138.697 505.712 139.02C503.088 140.406 499.981 140.683 497.219 139.852C499.359 140.06 501.638 139.644 503.64 138.535C504.193 138.258 504.722 137.935 505.228 137.565C506.103 136.873 506.84 136.087 507.438 135.21C507.53 135.071 507.622 134.933 507.714 134.794C510.269 130.914 510.2 125.649 507.231 121.769C505.712 119.898 503.709 118.582 501.569 117.889C504.538 118.235 507.369 119.69 509.302 122.185Z" fill="#72A2BA"/>
<path d="M505.64 125.025C507.918 127.935 507.366 132.092 504.466 134.309C501.635 136.595 497.492 136.041 495.213 133.131C493.004 130.291 493.487 126.064 496.387 123.847C499.287 121.63 503.43 122.115 505.64 125.025Z" fill="#B2DCF7"/>
<path d="M449.025 248.141C449.071 248.88 449.163 249.619 449.301 250.358C450.061 253.892 452.477 256.524 455.377 256.455H455.515C458.968 256.455 461.73 252.645 461.661 248.003L461.523 234.492L449.784 232.622L449.025 248.141Z" fill="#F4B3B3"/>
<path d="M455.248 217.033C455.248 217.033 458.769 217.933 461.048 221.397C463.326 224.862 465.053 235.185 457.941 239.965C450.828 244.746 445.028 237.956 444.821 231.305C444.545 224.723 445.719 215.855 455.248 217.033Z" fill="#F4B3B3"/>
<path d="M443.438 229.226C444.06 230.82 445.302 231.859 446.2 231.443C447.098 231.097 447.305 229.503 446.614 227.91C445.993 226.316 444.75 225.277 443.852 225.693C442.955 226.039 442.748 227.633 443.438 229.226Z" fill="#F4B3B3"/>
<path d="M452.337 232.691C452.291 232.691 452.268 232.691 452.268 232.691C451.923 232.622 449.989 232.414 449.851 231.375C449.782 230.474 451.163 227.772 451.439 227.218C451.509 227.079 451.647 227.01 451.785 227.148C451.923 227.218 451.992 227.356 451.923 227.495C451.301 228.673 450.404 230.751 450.473 231.305C450.542 231.721 451.578 232.067 452.337 232.137C452.475 232.137 452.613 232.275 452.613 232.414C452.544 232.552 452.475 232.691 452.337 232.691Z" fill="#EC724C"/>
<path d="M447.636 227.771C447.566 228.256 447.912 228.672 448.395 228.741C448.809 228.741 449.224 228.325 449.224 227.84C449.293 227.355 448.947 226.94 448.464 226.94C448.05 226.87 447.636 227.286 447.636 227.771Z" fill="black"/>
<path d="M457.72 225.208C457.628 225.208 457.559 225.185 457.513 225.139C456.201 224.031 454.613 224.931 454.613 224.931C454.475 225.001 454.268 224.931 454.199 224.793C454.13 224.654 454.199 224.516 454.337 224.446C454.406 224.377 456.27 223.338 457.858 224.723C457.996 224.793 457.996 225.001 457.927 225.139C457.835 225.185 457.766 225.208 457.72 225.208Z" fill="black"/>
<path d="M449.712 224.723C449.62 224.723 449.551 224.7 449.505 224.654C449.505 224.585 448.469 223.892 447.503 224.585C447.365 224.723 447.158 224.654 447.088 224.585C447.019 224.446 447.019 224.238 447.158 224.169C448.193 223.337 449.367 223.822 449.85 224.169C449.989 224.307 449.989 224.446 449.919 224.585C449.873 224.677 449.804 224.723 449.712 224.723Z" fill="black"/>
<path d="M455.23 234.354C451.226 235.185 449.499 234.423 449.499 234.423C449.499 234.423 449.361 236.917 451.64 237.195C454.954 237.541 455.23 234.354 455.23 234.354Z" fill="black"/>
<path d="M449.637 234.492C449.637 234.492 449.707 234.977 449.776 235.047C449.845 235.116 450.19 235.393 451.847 235.532C453.159 235.601 454.609 235.255 455.023 235.116C455.161 234.7 455.23 234.354 455.23 234.354C455 234.4 454.77 234.446 454.54 234.492C451.64 234.977 450.121 234.631 449.637 234.492Z" fill="white"/>
<path d="M454.41 228.396C454.41 228.881 454.755 229.296 455.239 229.366C455.653 229.366 456.067 228.95 456.067 228.465C456.136 227.98 455.791 227.495 455.308 227.495C454.825 227.495 454.41 227.841 454.41 228.396Z" fill="black"/>
<path d="M445.645 225.278C444.609 224.723 442.468 223.268 441.64 220.705C441.156 219.111 440.88 216.409 442.054 215.855C442.537 215.578 443.228 215.786 443.711 216.063C442.606 214.539 442.952 212.46 444.264 211.49C445.714 210.52 447.923 211.005 448.89 212.737C449.028 212.529 450.478 209.827 453.516 209.55C455.726 209.273 457.935 210.312 459.109 212.252C462.216 210.659 465.738 211.282 467.602 213.43C469.19 215.232 469.052 217.518 468.983 218.141C471.262 220.22 471.883 222.229 472.021 223.199C472.988 228.188 468.845 234.146 461.457 237.264C461.549 233.476 461.641 229.689 461.733 225.901C460.835 224.723 458.073 221.467 453.309 220.289C450.823 219.596 448.683 219.735 447.302 219.943L445.645 225.278Z" fill="#063E8E"/>
<path d="M460.28 230.266C459.797 231.929 460.349 233.661 461.454 234.007C462.559 234.423 463.871 233.314 464.354 231.582C464.837 229.85 464.354 228.187 463.249 227.841C462.075 227.425 460.763 228.534 460.28 230.266Z" fill="#F4B3B3"/>
<path d="M449.236 241.282C448.546 242.598 446.474 246.686 445.093 249.665C443.436 253.337 439.708 276.894 439.293 281.882C439.224 282.852 439.017 286.801 438.81 292.621C438.741 295.115 438.603 298.025 438.465 301.074C438.465 301.49 438.465 301.905 438.465 302.321C438.465 302.506 438.442 302.69 438.396 302.875C438.396 303.707 438.373 304.538 438.327 305.369C438.188 308.695 438.05 312.229 437.981 315.901C437.935 316.224 437.912 316.524 437.912 316.801C437.866 317.587 437.843 318.349 437.843 319.088C437.797 320.427 437.751 321.767 437.705 323.106C437.659 324.076 437.613 325.069 437.567 326.085C437.291 334.122 437.015 342.298 436.738 349.919C436.117 368.14 435.634 382.829 435.634 382.829C427.555 383.729 420.443 381.789 420.443 381.789C420.443 381.789 421.133 362.806 422.031 339.249C422.123 336.293 422.238 333.268 422.376 330.173C422.514 327.263 422.629 324.307 422.721 321.305C422.767 320.289 422.813 319.272 422.86 318.256C422.906 316.593 422.975 314.908 423.067 313.199C423.113 312.229 423.159 311.259 423.205 310.289C423.205 309.965 423.205 309.619 423.205 309.249C423.251 308.695 423.274 308.141 423.274 307.587C424.448 278.418 425.691 251.467 426.105 250.15C426.864 247.725 441.779 245.093 447.372 242.529C448.201 242.114 448.891 241.698 449.236 241.282Z" fill="white"/>
<path d="M555.857 414.697L558.48 395.505L551.645 393.842L548.952 413.657C553.371 414.35 555.857 414.697 555.857 414.697Z" fill="#F4B3B3"/>
<path d="M558.692 393.843L577.059 396.407C578.509 396.615 579.614 398 579.407 399.455L574.435 435.621C574.228 437.146 572.847 438.185 571.328 437.977C571.052 437.977 570.016 437.908 568.773 436.938C567.599 436.037 566.218 434.305 565.182 430.979C563.732 426.268 563.111 424.12 561.109 420.448C560.211 418.855 558.968 417.746 555.585 416.707L558.692 393.843Z" fill="#15EADF"/>
<path d="M574.366 395.991L577.059 396.406C578.509 396.614 579.614 398 579.407 399.455L574.435 435.621C574.228 437.145 572.847 438.184 571.328 437.977C571.052 437.977 570.016 437.907 568.773 436.937L574.366 395.991Z" fill="white"/>
<path d="M563.109 424.882C563.201 424.882 563.27 424.859 563.317 424.812C563.317 424.812 565.043 422.11 567.667 422.318C567.805 422.318 567.874 422.249 567.874 422.18C567.943 422.041 567.805 421.972 567.736 421.972C564.836 421.764 563.04 424.466 562.971 424.605C562.902 424.674 562.971 424.812 563.04 424.882C563.086 424.882 563.109 424.882 563.109 424.882Z" fill="black"/>
<path d="M561.861 422.041C561.907 422.041 561.953 422.018 561.999 421.971C562.068 421.902 563.725 419.269 566.418 419.477C566.556 419.477 566.625 419.408 566.625 419.269C566.625 419.2 566.556 419.062 566.418 419.062C563.518 418.854 561.792 421.625 561.722 421.764C561.653 421.833 561.653 421.971 561.722 421.971C561.769 422.018 561.815 422.041 561.861 422.041Z" fill="black"/>
<path d="M560.349 419.407C560.395 419.407 560.441 419.384 560.487 419.338C560.487 419.269 562.213 416.636 564.906 416.844C564.975 416.844 565.113 416.775 565.113 416.705C565.113 416.567 565.044 416.497 564.906 416.497C562.006 416.22 560.211 418.992 560.142 419.13C560.142 419.2 560.142 419.338 560.211 419.407C560.257 419.407 560.303 419.407 560.349 419.407Z" fill="black"/>
<path d="M454.709 364.399C454.709 364.399 475.838 401.258 478.393 404.237C480.257 406.454 516.715 412.69 536.463 415.946C539.018 416.362 541.297 416.708 543.23 417.054C546.821 417.609 548.961 417.955 548.961 417.955L554.002 392.597L547.857 391.419L541.09 390.103L496.07 381.443L475.217 333.568C459.266 342.505 454.709 364.399 454.709 364.399Z" fill="#062C59"/>
<path d="M396.902 465.342H416.098L416.857 458.275H396.902C396.902 462.778 396.902 465.342 396.902 465.342Z" fill="#F4B3B3"/>
<path d="M417.82 465.342V483.84C417.82 485.365 416.577 486.612 415.058 486.612H378.669C377.15 486.612 375.907 485.365 375.907 483.84C375.907 483.563 375.838 482.524 376.598 481.138C377.357 479.822 378.877 478.228 381.984 476.773C386.472 474.764 388.543 473.794 391.858 471.3C393.308 470.192 394.205 468.806 394.827 465.342H417.82Z" fill="#15EADF"/>
<path d="M417.82 481.137V483.839C417.82 485.363 416.577 486.61 415.058 486.61H378.669C377.15 486.61 375.907 485.363 375.907 483.839C375.907 483.562 375.838 482.523 376.598 481.137H417.82Z" fill="white"/>
<path d="M391.107 478.297C391.245 478.297 391.314 478.228 391.314 478.089C391.107 475.179 388.138 473.794 388.069 473.724C387.931 473.655 387.862 473.724 387.793 473.794C387.724 473.932 387.793 474.001 387.862 474.071C387.931 474.071 390.762 475.456 390.9 478.089C390.9 478.228 391.038 478.297 391.107 478.297Z" fill="black"/>
<path d="M393.794 476.634C393.863 476.634 393.932 476.565 393.932 476.426C393.794 473.516 390.824 472.131 390.686 472.061C390.617 471.992 390.479 472.061 390.41 472.131C390.41 472.269 390.41 472.408 390.548 472.408C390.548 472.408 393.379 473.793 393.586 476.426C393.586 476.565 393.655 476.634 393.794 476.634Z" fill="black"/>
<path d="M396.154 474.764C396.292 474.764 396.361 474.695 396.361 474.556C396.154 471.646 393.185 470.26 393.047 470.191C392.978 470.122 392.84 470.191 392.84 470.26C392.771 470.399 392.84 470.468 392.909 470.538C392.978 470.538 395.809 471.923 395.947 474.556C395.947 474.695 396.016 474.764 396.154 474.764Z" fill="black"/>
<path d="M395.092 459.525H419.328L420.847 453.636L422.642 446.777L437.695 388.44C437.695 388.44 462.415 353.452 472.358 339.318C478.434 330.727 477.122 316.801 475.189 307.17H435.002C435.347 311.327 435.693 315.761 435.969 318.81C436.59 325.946 409.73 374.653 405.242 382.689C401.997 388.509 398.13 426.477 396.265 446.777C395.989 449.41 395.782 451.765 395.644 453.636C395.299 457.308 395.092 459.525 395.092 459.525Z" fill="#063E8E"/>
<path d="M409.948 443.382C410.017 443.382 410.087 443.312 410.087 443.243C410.225 442.689 418.649 392.181 419.546 388.301C420.444 384.352 456.142 327.955 456.557 327.401C456.557 327.332 456.557 327.193 456.488 327.124C456.35 327.054 456.28 327.124 456.211 327.193C454.692 329.549 420.03 384.213 419.132 388.163C418.303 392.112 409.81 442.619 409.741 443.174C409.741 443.243 409.81 443.382 409.879 443.382C409.879 443.382 409.902 443.382 409.948 443.382Z" fill="white"/>
<path d="M349.116 275.023C348.356 275.438 342.763 274.26 342.763 275.577C342.763 276.963 351.878 277.586 351.878 277.586C351.878 277.586 349.392 278.071 348.84 278.14C348.287 278.14 345.802 277.586 346.009 279.041C346.285 280.496 352.845 279.872 353.466 279.734C354.157 279.665 355.192 279.872 355.952 279.665C356.78 279.457 359.75 278.902 360.647 278.902C360.923 278.902 361.2 279.041 361.614 279.249C362.926 279.942 364.79 281.397 364.79 281.397C365.135 281.258 367.552 276.062 365.826 274.053C365.826 274.053 365.481 273.775 364.859 273.429C363.478 272.598 361.061 271.004 360.44 270.173C359.542 268.995 351.187 264.838 350.635 265.254C349.323 266.362 351.947 268.233 352.983 268.579C353.949 268.856 355.745 270.034 355.745 270.034C355.745 270.034 354.157 270.381 353.19 270.381C352.292 270.381 350.428 270.103 348.218 269.411C346.009 268.787 343.73 267.679 342.694 269.064C341.659 270.381 350.842 272.667 350.842 272.667C349.876 272.875 347.252 272.182 346.147 271.974C345.042 271.697 341.382 270.866 341.244 272.043C341.037 273.36 349.116 275.023 349.116 275.023Z" fill="#F4B3B3"/>
<path d="M361.614 279.249C362.926 279.942 364.79 281.397 364.79 281.397C365.135 281.258 367.552 276.062 365.826 274.053C365.826 274.053 365.481 273.776 364.859 273.429C363.478 274.469 362.235 277.656 361.614 279.249Z" fill="#15EADF"/>
<path d="M441.988 261.097C441.988 261.097 441.781 261.443 441.367 262.136C441.367 262.228 441.344 262.297 441.298 262.344C441.252 262.39 441.229 262.436 441.229 262.482C441.183 262.528 441.16 262.551 441.16 262.551C441.114 262.644 441.068 262.736 441.022 262.829C440.883 263.013 440.745 263.221 440.607 263.452C440.561 263.591 440.515 263.706 440.469 263.799C440.469 263.799 440.446 263.822 440.4 263.868C440.354 263.96 440.285 264.076 440.193 264.214C439.871 264.815 439.48 265.461 439.019 266.154C438.881 266.385 438.743 266.616 438.605 266.847C438.605 266.847 438.582 266.87 438.536 266.916C438.398 267.147 438.237 267.401 438.052 267.678C437.868 268.048 437.638 268.417 437.362 268.787C436.902 269.572 436.372 270.381 435.774 271.212C435.498 271.674 435.198 272.136 434.876 272.598C434.738 272.829 434.577 273.036 434.393 273.221C434.301 273.406 434.186 273.614 434.048 273.845C433.956 273.937 433.863 274.053 433.771 274.191C433.449 274.653 433.104 275.138 432.736 275.646C432.598 275.831 432.459 276.016 432.321 276.2C432.137 276.477 431.93 276.778 431.7 277.101C431.608 277.193 431.516 277.309 431.424 277.447C429.767 279.665 427.971 281.951 426.038 284.168C425.808 284.399 425.601 284.653 425.416 284.93C425.186 285.161 424.956 285.392 424.726 285.623C424.542 285.854 424.358 286.062 424.174 286.246C423.989 286.431 423.828 286.616 423.69 286.801C423.23 287.309 422.747 287.817 422.24 288.325C422.102 288.417 421.987 288.533 421.895 288.671C421.849 288.718 421.826 288.741 421.826 288.741C421.688 288.879 421.55 289.018 421.412 289.156C421.135 289.434 420.836 289.711 420.514 289.988C420.376 290.173 420.215 290.334 420.031 290.473C419.893 290.611 419.731 290.773 419.547 290.958C419.363 291.142 419.179 291.304 418.995 291.443C418.857 291.581 418.719 291.697 418.581 291.789C418.35 292.02 418.12 292.228 417.89 292.413C416.555 293.567 415.197 294.63 413.816 295.6C410.502 297.886 407.049 299.618 403.597 300.38C402.492 300.611 401.387 300.75 400.283 300.796C399.822 300.796 399.339 300.773 398.833 300.727C398.464 300.727 398.096 300.704 397.728 300.657C396.163 300.519 394.621 300.311 393.101 300.034C392.549 299.942 392.02 299.849 391.513 299.757C374.32 296.015 362.651 284.307 362.651 284.307V283.96C362.697 283.406 362.766 282.852 362.858 282.297C363.088 280.265 363.433 278.302 363.894 276.408C364.216 275.069 364.584 273.775 364.998 272.528C365.367 271.466 365.781 270.45 366.241 269.48C367.346 270.126 368.428 270.727 369.487 271.281C379.844 276.962 387.37 278.833 393.101 278.902C394.574 278.902 395.955 278.81 397.244 278.625C398.349 278.441 399.362 278.21 400.283 277.932C400.743 277.794 401.203 277.655 401.664 277.517C403.252 276.893 404.702 276.2 406.083 275.577C410.018 273.637 414.645 267.263 418.581 261.166C421.066 257.424 423.276 253.891 424.933 251.466C425.347 250.866 425.739 250.334 426.107 249.873L426.176 249.942L434.945 256.108L436.05 256.87L438.881 258.879L439.71 259.434L441.712 260.889L441.988 261.097Z" fill="white"/>
<path d="M467.951 245.3C466.018 251.882 441.022 252.367 448.41 243.36C445.372 246.547 441.298 251.536 438.053 258.464C433.427 268.233 432.805 276.824 432.322 284.307C431.355 301.074 430.734 317.147 430.457 332.528C438.927 332.528 447.375 332.528 455.799 332.528L467.951 245.3Z" fill="#15EADF"/>
<path d="M495.014 378.463C494.599 381.304 495.083 378.809 494.945 378.948C493.84 379.987 494.323 379.364 492.873 379.987C490.733 380.888 487.763 381.65 485.071 382.343C484.035 382.62 482.447 382.966 480.997 383.244C478.58 383.659 476.094 384.075 473.332 384.283C468.913 384.699 463.803 384.491 459.246 384.144C458.97 374.375 459.039 368.625 458.072 357.678C457.589 351.442 456.07 338.833 455.241 331.212C455.034 329.272 454.758 326.362 454.551 324.353C454.482 324.006 454.413 323.59 454.413 323.244C454.275 322.205 454.206 321.096 454.067 319.988C453.998 319.572 453.998 319.087 453.929 318.671C453.86 317.701 453.722 316.523 453.653 315.623C453.239 311.327 452.871 307.055 452.548 302.805C452.548 302.182 452.479 301.766 452.479 301.212C452.341 300.103 452.203 297.609 452.134 296.778C452.065 295.6 452.065 295.392 452.065 294.561C451.996 294.145 452.065 293.798 451.996 293.521C451.582 280.565 451.858 264.63 456.968 253.475C459.177 248.626 460.282 247.656 462.077 244.399C463.251 242.182 463.527 242.044 464.425 240.519C464.839 239.827 464.839 239.827 465.046 239.48C465.253 239.203 465.115 239.134 465.322 239.134C465.53 239.134 465.391 239.411 465.391 239.619C465.599 240.242 465.875 240.866 466.289 241.489C466.496 241.697 466.772 242.044 466.98 242.251C467.026 242.298 467.049 242.321 467.049 242.321C467.532 242.806 467.808 243.014 468.361 243.429C468.982 243.914 469.396 244.191 470.225 244.746C471.054 245.231 472.089 245.785 473.263 246.408C474.368 247.032 476.025 247.794 477.406 248.418C478.028 248.695 478.994 249.18 479.616 249.457C479.547 254.515 479.478 259.295 479.547 264.491C479.547 264.838 479.547 265.739 479.547 266.431C479.685 272.736 480.03 279.249 480.72 285.692C480.859 287.078 480.997 288.671 481.204 290.196C481.411 292.066 481.618 294.145 481.825 296.154C481.894 296.778 482.032 297.471 482.101 298.094C482.101 298.163 482.101 298.233 482.101 298.371C482.101 298.51 482.17 298.718 482.17 298.856C482.309 299.618 482.378 300.588 482.516 301.42C484.656 317.078 487.211 334.884 490.042 349.78C491.975 360.241 496.187 369.941 495.014 378.463Z" fill="white"/>
<path d="M470.364 245.716C470.226 245.346 470.042 244.954 469.812 244.538C469.466 243.845 468.845 243.152 467.809 242.459C467.395 241.767 467.119 241.143 466.981 240.519C469.121 241.697 470.847 243.221 471.469 245.369C471.561 245.508 471.607 245.67 471.607 245.854C472.436 249.318 470.502 254.03 465.669 260.057L464.771 259.295C469.466 253.337 471.331 248.903 470.364 245.716Z" fill="#2E353D"/>
<path d="M434.809 261.928C434.671 260.958 434.601 259.711 434.601 258.325C434.601 252.783 436.121 249.388 437.432 247.517C439.366 244.677 442.335 242.945 446.202 242.39L446.34 243.568C442.818 244.053 440.125 245.647 438.399 248.21C436.259 251.328 435.775 255.416 435.775 258.325C435.775 259.642 435.913 260.82 435.982 261.72C437.225 261.859 438.123 262.898 438.123 264.076C438.123 265.392 437.087 266.501 435.775 266.501C434.463 266.501 433.428 265.392 433.428 264.076C433.428 263.106 433.98 262.275 434.809 261.928Z" fill="#2E353D"/>
<path d="M416.093 319.849C414.504 319.849 414.712 336.824 420.65 335.507C426.657 334.191 422.445 319.849 416.093 319.849Z" fill="#2E353D"/>
<path d="M404.562 332.528C403.664 333.428 400.488 334.606 399.107 335.16C397.795 335.784 393.928 337.17 394.343 339.179C394.688 341.257 398.9 338.486 399.521 338.001C400.074 337.516 404.424 336.2 404.424 336.2C403.871 337.239 397.312 340.01 398.279 341.465C399.176 342.851 405.667 339.04 406.15 338.417C406.633 337.862 409.05 336.962 409.119 336.962C409.119 337.031 406.979 339.248 406.357 339.664C405.805 340.08 402.836 341.327 404.148 342.643C405.391 343.959 411.743 338.555 412.365 338.001C412.986 337.378 414.229 336.962 414.85 336.13C415.403 335.438 417.267 333.567 418.51 332.528C418.786 332.251 419.016 332.043 419.2 331.904C420.236 331.281 425.277 331.488 425.277 331.488C425.553 331.073 424.241 322.551 420.927 321.65C420.927 321.65 418.717 322.343 416.507 322.759C414.988 323.036 413.469 323.244 412.71 323.036C410.914 322.482 406.91 322.551 405.114 323.729C403.319 324.906 398.348 322.967 398.969 325.045C399.59 327.124 402.49 327.124 403.733 326.777C404.976 326.431 407.738 326.223 407.738 326.223C407.738 326.223 406.288 327.816 405.321 328.44C404.355 329.063 402.283 330.172 399.452 331.073C396.69 331.973 393.583 332.528 393.445 334.675C393.307 336.823 404.562 332.528 404.562 332.528Z" fill="#F4B3B3"/>
<path d="M416.507 322.759C419.408 325.807 419.822 329.687 418.51 332.528C418.786 332.251 419.016 332.043 419.2 331.904C420.236 331.281 425.277 331.488 425.277 331.488C425.553 331.073 424.241 322.551 420.927 321.65C420.927 321.65 418.717 322.343 416.507 322.759Z" fill="#15EADF"/>
<path d="M487.905 267.609C487.858 268.348 487.789 269.087 487.697 269.826C487.352 273.568 486.662 277.656 485.833 281.813C484.521 288.117 482.657 294.699 480.516 300.519C480.47 300.612 480.447 300.704 480.447 300.796C477.271 309.457 473.404 316.593 469.606 319.295C464.221 323.106 452.206 327.193 441.365 330.311C440.353 330.588 439.34 330.865 438.327 331.142C435.151 332.043 432.113 332.875 429.489 333.498C424.379 334.815 420.858 335.577 420.651 335.507C420.651 335.507 422.515 326.916 419.822 322.413C419.408 321.72 418.855 321.096 418.165 320.681C417.566 320.265 416.876 319.988 416.093 319.849C416.093 319.849 419.2 319.018 423.62 317.771C425.553 317.216 427.763 316.524 430.11 315.831C432.803 314.999 435.634 314.099 438.327 313.267C439.708 312.805 441.043 312.344 442.332 311.882C443.023 311.651 443.69 311.397 444.334 311.12C448.132 309.734 451.032 308.487 452.068 307.517C452.551 307.101 453.104 305.646 453.725 303.568C455.244 298.51 457.109 289.572 459.594 280.358C460.906 275.508 462.356 270.658 464.013 266.154C466.983 258.325 470.435 251.882 474.716 249.596C476.166 248.834 477.685 248.556 479.273 248.903C479.273 248.903 479.296 248.903 479.342 248.903C479.895 248.903 485.073 249.457 487.145 255.762C487.559 257.148 487.835 258.88 487.974 260.889C488.112 262.898 488.043 265.115 487.905 267.609Z" fill="white"/>
<path fill-rule="evenodd" clip-rule="evenodd" d="M467.742 262.136C467.65 261.951 467.558 261.743 467.466 261.512C467.098 260.866 466.569 260.311 465.878 259.849C465.786 259.803 465.694 259.757 465.602 259.711C465.464 259.618 465.28 259.526 465.049 259.434C465.049 259.434 465.049 259.364 464.98 259.364C464.934 259.364 464.865 259.341 464.773 259.295C464.635 259.226 464.566 259.226 464.566 259.226C463.323 258.764 462.149 258.741 461.045 259.157C460.953 259.157 460.861 259.18 460.768 259.226C459.572 259.78 458.559 260.773 457.73 262.205C456.142 264.838 455.452 268.787 455.728 272.736C455.866 274.399 456.142 275.854 456.556 277.24C455.498 277.655 454.485 277.863 453.518 277.863C453.242 277.586 452.897 277.378 452.483 277.378C452.206 277.378 451.976 277.447 451.792 277.586C451.447 277.794 451.24 278.14 451.24 278.556C451.24 278.833 451.378 279.11 451.516 279.318C451.723 279.595 452.068 279.803 452.483 279.803C452.966 279.803 453.38 279.526 453.587 279.11C454.462 279.064 455.383 278.879 456.349 278.556L457.523 276.131C457.201 275.069 456.994 273.914 456.902 272.667C456.625 268.995 457.316 265.184 458.766 262.759C459.318 261.859 460.078 260.889 461.183 260.404C462.08 259.988 463.185 259.919 464.497 260.473C464.865 260.658 465.188 260.842 465.464 261.027C466.223 261.651 466.638 262.344 466.845 263.175C466.937 263.498 466.983 263.845 466.983 264.214C466.983 264.838 466.845 265.461 466.707 266.085C466.292 267.609 465.464 269.272 464.29 270.935C464.198 271.027 464.106 271.12 464.014 271.212C463.83 271.443 463.645 271.674 463.461 271.905C463.093 272.829 462.725 273.799 462.357 274.815C462.725 274.491 463.093 274.145 463.461 273.775C463.553 273.683 463.622 273.591 463.668 273.498C465.74 271.281 467.259 268.718 467.881 266.362C467.881 266.316 467.881 266.27 467.881 266.223C468.295 264.699 468.249 263.337 467.742 262.136ZM460.147 282.99C460.63 282.99 461.045 282.713 461.252 282.297C461.344 282.159 461.39 281.974 461.39 281.743C461.39 281.05 460.837 280.565 460.147 280.565C460.055 280.796 459.963 281.004 459.871 281.189C459.779 281.466 459.687 281.72 459.595 281.951C459.503 282.182 459.41 282.413 459.318 282.644C459.526 282.852 459.802 282.99 460.147 282.99ZM462.357 274.815C462.172 274.953 462.011 275.115 461.873 275.3C460.63 276.339 459.318 277.24 458.076 277.863C458.559 278.972 459.18 279.872 459.871 280.565C459.963 280.565 460.055 280.565 460.147 280.565C460.055 280.796 459.963 281.004 459.871 281.189C459.779 281.466 459.687 281.72 459.595 281.951C459.503 282.182 459.41 282.413 459.318 282.644C459.111 282.367 458.973 282.089 458.973 281.743C458.973 281.651 458.973 281.535 458.973 281.397C458.214 280.634 457.523 279.595 456.971 278.348C456.787 278.441 456.579 278.51 456.349 278.556L457.523 276.131C457.569 276.316 457.615 276.501 457.661 276.685C458.766 276.131 459.94 275.369 461.114 274.33C461.942 273.637 462.771 272.805 463.461 271.905C463.093 272.829 462.725 273.799 462.357 274.815Z" fill="#2E353D"/>
<path d="M51.4481 475.182C56.9721 480.863 60.8388 485.644 64.2222 489.385H96.123L87.6299 479.339C87.6299 479.339 86.4561 477.884 84.1775 475.667C69.6081 460.771 56.2125 455.228 56.2125 455.228C48.2028 451.833 34.1168 445.875 22.1022 452.318C18.2354 454.466 15.6116 457.307 14.0234 459.454C16.9235 460.009 28.1095 462.087 37.6383 465.829C42.4027 467.699 45.4408 469.501 48.2028 471.926C48.8243 472.48 49.7219 473.38 51.4481 475.182Z" fill="#2CBF7B"/>
<path d="M84.3779 489.385C85.4827 484.95 85.3446 480.17 84.1708 475.666C79.1302 470.47 68.9109 461.117 56.2058 455.228C55.7225 458.415 55.5844 461.81 55.101 464.165C54.3415 468.184 53.0295 471.787 51.4414 475.181C56.9653 480.863 60.8321 485.643 64.2155 489.385H84.3779Z" fill="#2DA66D"/>
<path d="M65.1808 461.88C69.8762 474.698 76.574 484.19 83.686 489.386H104.263C104.815 487.931 105.16 486.13 105.298 484.051C106.265 465.345 90.7291 424.744 90.7291 424.744C90.7291 424.744 86.1028 417.816 78.5073 410.264C72.5 404.236 64.6975 397.862 55.8592 394.052C55.2377 393.775 54.5473 423.497 62.2117 452.458C63.0863 455.783 64.076 458.924 65.1808 461.88Z" fill="#2CBF7B"/>
<path d="M75.8876 446.846C75.8876 446.846 75.8876 446.869 75.8876 446.915C75.4733 449.756 74.9899 452.666 73.4708 455.09C71.6065 458.278 68.4993 460.287 65.1849 461.88C69.8803 474.698 76.578 484.19 83.6901 489.386H100.607C102.333 487.792 103.922 485.991 105.303 484.051C106.269 465.344 90.7332 424.744 90.7332 424.744C90.7332 424.744 86.1068 417.816 78.5114 410.264C78.1432 416.592 77.7749 422.943 77.4066 429.317C77.3606 429.825 77.3146 430.356 77.2685 430.91C73.8161 423.636 64.5635 404.86 55.8633 394.052C56.1395 394.467 68.3612 416.361 74.7828 435.553C76.0257 439.155 76.44 443.035 75.8876 446.846Z" fill="#2DA66D"/>
<path d="M60.0726 399.04L59.4512 399.456C81.5469 430.911 92.4567 461.534 91.9043 490.494L92.7329 490.564C93.0091 474.975 89.9709 458.763 83.6184 442.273C78.1635 428.07 70.2919 413.52 60.0726 399.04Z" fill="#027369"/>
<path d="M90.178 476.914C90.5003 477.746 90.8225 478.554 91.1447 479.339C93.0091 483.565 94.8734 486.822 96.6687 489.385H113.24L129.053 446.707C129.053 446.707 127.879 443.104 125.186 437.769C125.002 437.399 124.818 437.007 124.634 436.591C118.972 425.644 107.302 408.601 86.8637 399.455C86.2192 399.132 85.5517 398.832 84.8612 398.554C83.3422 397.931 75.7467 415.667 84.8612 458.346C86.4494 465.898 88.2447 471.926 90.178 476.914Z" fill="#2CBF7B"/>
<path d="M100.129 468.461C97.0909 471.279 93.9606 473.935 90.7383 476.429C90.5542 476.614 90.3701 476.775 90.1859 476.914C90.5082 477.745 90.8304 478.554 91.1526 479.339C93.0169 483.565 94.8813 486.821 96.6766 489.385H113.248L129.061 446.706C129.061 446.706 127.887 443.103 125.194 437.769C125.01 437.399 124.826 437.006 124.641 436.591C124.135 437.792 123.583 438.993 122.984 440.194C120.291 445.459 116.77 450.17 113.11 454.605C112.834 454.974 112.535 455.344 112.213 455.713C109.105 447.399 97.5742 417.053 86.8716 399.455C86.2271 399.131 85.5596 398.831 84.8691 398.554C85.0072 398.9 100.474 431.602 104.686 454.605C105.653 459.732 103.927 464.928 100.129 468.461Z" fill="#2DA66D"/>
<path d="M87.6293 400.98L87.0078 401.396C101.646 423.705 111.727 449.548 115.939 476.014L116.768 475.876C114.628 462.712 110.968 449.479 105.996 436.661C101.094 423.982 94.8794 411.996 87.6293 400.98Z" fill="#027369"/>
<path d="M144.795 424.814C133.195 429.525 125.876 440.68 119.592 452.111C116.692 457.308 110.823 468.532 107.164 479.271C107.118 479.317 107.095 479.363 107.095 479.409C105.921 482.873 105.023 486.268 104.471 489.386H145.762C149.169 485.83 152.345 482.111 155.291 478.231C155.843 477.492 156.396 476.753 156.948 476.014C157.869 474.767 158.789 473.474 159.71 472.134C160.263 471.257 160.815 470.402 161.367 469.571C173.658 450.379 181.115 427.654 184.568 402.158C172.208 411.788 159.02 418.994 144.795 424.814Z" fill="#2CBF7B"/>
<path d="M121.663 478.786C119.108 482.735 116.83 486.338 114.896 489.386H145.761C148.869 486.13 151.562 482.666 154.393 479.271C154.715 478.901 155.014 478.555 155.29 478.232C155.843 477.493 156.395 476.754 156.947 476.015C157.868 474.767 158.789 473.474 159.709 472.135C155.152 474.075 150.388 475.252 145.485 475.668C145.439 475.668 145.393 475.668 145.347 475.668C140.307 476.084 136.785 474.352 137.199 468.948C137.476 464.929 139.547 460.98 141.55 457.654C145.692 450.795 151.216 444.49 156.188 438.186C160.607 432.551 165.141 426.985 169.791 421.488C174.348 416.015 179.043 410.541 183.877 405.276C164.405 416.292 137.614 454.259 121.663 478.786Z" fill="#2DA66D"/>
<path d="M114.897 489.385C116.831 486.336 119.109 482.733 121.664 478.784C116.831 479.2 111.997 479.362 107.164 479.269C107.118 479.315 107.095 479.362 107.095 479.408C105.921 482.872 105.023 486.267 104.471 489.385H114.897Z" fill="#2DA66D"/>
<path d="M82.1702 490.563H83.0679C75.1272 478.092 65.2532 464.928 51.5124 458.484C44.6075 455.228 36.5287 453.496 26.1023 453.08L26.0332 453.842C36.3906 454.258 44.3313 455.99 51.1671 459.177C64.6317 465.482 74.2986 478.299 82.1702 490.563Z" fill="#027369"/>
<path d="M183.316 404.652C161.635 423.843 125.453 470.263 116.062 489.386H116.891C131.53 459.871 153.901 431.672 183.869 405.206L183.316 404.652Z" fill="#027369"/>
<path d="M591.476 482.943H0V491.049H591.476V482.943Z" fill="#293F60"/>
</svg>
